<svg id="Layer_1" data-name="Layer 1" xmlns="http://www.w3.org/2000/svg" width="375" height="667" viewBox="0 0 375 667">
  <defs>
    <style>
      .cls-1 {
        fill: #ced6e1;
      }

      .cls-2 {
        fill: #b5c1d2;
      }

      .cls-3 {
        fill: #9dadc3;
      }

      .cls-4 {
        fill: #8498b4;
      }
    </style>
  </defs>
  <title>baggrund</title>
  <g id="baggrund">
    <rect id="lag_5" class="cls-1" width="375" height="667"/>
    <path id="lag_4" class="cls-2" d="M302.85,71.61c-61.11,9.92-65.14,35.93-101,23.77-27-9.13-41.12-29.4-72.16-20.8-16.5,4.57-25.5,13.91-36.07,20.8C72.43,109.19,41.8,115.23,0,81.62V667H375V71.61A223.72,223.72,0,0,0,302.85,71.61Z"/>
    <path id="lag_3" class="cls-3" d="M304.11,248.74c-60,7-64,25.24-99.24,16.7-26.51-6.42-40.4-20.65-70.89-14.61-16.22,3.21-25.06,9.77-35.45,14.61C76.64,275.65,44.45,279.83,0,251.82V667H375V248.74A306.3,306.3,0,0,0,304.11,248.74Z"/>
    <path id="lag_2" class="cls-4" d="M304.57,429.18c-59.65,4-63.58,14.36-98.6,9.5-26.33-3.65-40.14-11.74-70.43-8.31-16.11,1.83-24.89,5.56-35.22,8.31C78.17,444.59,45.42,446.94,0,430V667H375V429.18A532.79,532.79,0,0,0,304.57,429.18Z"/>
  </g>
</svg>
