<svg xmlns="http://www.w3.org/2000/svg" width="375" height="667" viewBox="0 0 375 667">
  <defs>
    <style>
      .cls-1 {
        fill: #3f5060;
      }

      .cls-2 {
        fill: #7da0c1;
      }

      .cls-3 {
        fill: #576674;
      }

      .cls-4 {
        fill: #939e67;
      }

      .cls-5 {
        fill: #bec5a4;
      }

      .cls-6 {
        fill: #25281a;
      }

      .cls-7 {
        fill: #4a4f34;
      }

      .cls-8 {
        fill: #c1507a;
      }

      .cls-9 {
        fill: #e58247;
      }

      .cls-10 {
        fill: #ac6235;
      }

      .cls-11 {
        fill: #bd815d;
      }

      .cls-12 {
        fill: #ea9b6c;
      }

      .cls-13 {
        fill: #da96af;
      }

      .cls-14 {
        fill: #3b372a;
      }

      .cls-15 {
        fill: #b1a37e;
      }

      .cls-16 {
        fill: #766d54;
      }

      .cls-17 {
        fill: #ecdaa8;
      }

      .cls-18 {
        fill: #d9d2c0;
      }

      .cls-19 {
        fill: #fbf8ee;
      }

      .cls-20 {
        fill: #a39e90;
      }

      .cls-21 {
        fill: #f0e1b9;
      }
    </style>
  </defs>
  <title>forgrund</title>
  <g id="Layer_1" data-name="Layer 1">
    <g id="forgrund">
      <g>
        <g>
          <path class="cls-1" d="M103.76,590.37s-4.07,5.66-4.13,8.54S102,605.1,102,605.1l3.89,2.42,2.37-6"/>
          <path class="cls-2" d="M104.08,590.19s-.71,0-.32,1.22a3.91,3.91,0,0,1,0,2.3s-.66,2,.1,2.84.74.87,1,1.52-.06,1.63.15,2,1.49,2.91,1.49,2.91l1.78-1.47-.61-.93a12.43,12.43,0,0,0-.24-3.19c-.31-.68-1.06-1.36-1.08-1.94S105.39,590.51,104.08,590.19Z"/>
          <path class="cls-1" d="M105,594.48a4.45,4.45,0,0,1-2,2.76,4,4,0,0,1-.42.2"/>
          <path class="cls-1" d="M106.36,598.4c-.06.27-.53,2.3-2.06,2.77a2.77,2.77,0,0,1-.64.1"/>
          <path class="cls-3" d="M105,599.79c-.18-.35,0-1.26-.13-1.86a2.78,2.78,0,0,0-.82-1.41c-.65-.81-.09-2.62-.09-2.62a3.84,3.84,0,0,0,0-2.13c-.33-1.13.28-1.14.28-1.14,1.13.31,1.89,4.36,1.91,4.89s.66,1.16.93,1.79a12,12,0,0,1,.2,3l.83,1.35.1-.08-.61-.93a12.43,12.43,0,0,0-.24-3.19c-.31-.68-1.06-1.36-1.08-1.94s-.91-5-2.22-5.28c0,0-.71,0-.32,1.22a3.91,3.91,0,0,1,0,2.3s-.66,2,.1,2.84.74.87,1,1.52-.06,1.63.15,2,1.49,2.91,1.49,2.91l.19-.16Z"/>
          <path class="cls-2" d="M103.2,594a5.16,5.16,0,0,1-1.39,2.84c-.13.12-.25.23-.37.32"/>
          <path class="cls-2" d="M104,598a5.9,5.9,0,0,1-2.42,3.12,5.84,5.84,0,0,1-.61.31"/>
          <path class="cls-2" d="M105.64,601.77a6.14,6.14,0,0,1-2.36,3.42,5.48,5.48,0,0,1-1.06.56"/>
          <path class="cls-4" d="M91.88,582.63s-.78,1.55,0,6.35a59.73,59.73,0,0,1,.57,10.21l2.09,2.31,2.92,1.78,2-.83s.93-6.51,3.14-9.47S91.88,582.63,91.88,582.63Z"/>
          <path class="cls-5" d="M92.81,580.93s-2.59,2.68.12,6.27a3.54,3.54,0,0,0,1.83,1.66,9.69,9.69,0,0,1,1.37,2.35,2,2,0,0,0,2.13,1.6c.46,0,1-.72,1-.72s1,.13,1.16.43a2.24,2.24,0,0,0,2.16.46c.91-.31,1.15-2.92,1.15-2.92a12.3,12.3,0,0,0-2.94-5.69c-2.56-3-4.57-3.63-4.57-3.63A3.25,3.25,0,0,0,92.81,580.93Z"/>
          <path class="cls-6" d="M94.24,581.81a29.83,29.83,0,0,0,.89,6.34c.16.62.32,1.22.5,1.78"/>
          <path class="cls-6" d="M97,583.33a16.1,16.1,0,0,1,0,5.2c-.08.48-.17.93-.28,1.36"/>
          <path class="cls-6" d="M101.71,588.11a17.09,17.09,0,0,1-.85,3.21c-.12.33-.26.65-.39.95"/>
          <path class="cls-6" d="M99.73,586a19.67,19.67,0,0,0-1,4.64c0,.34,0,.67-.06,1"/>
          <path class="cls-7" d="M100.82,584.37c-2.56-3-4.57-3.63-4.57-3.63a3.25,3.25,0,0,0-3.44.19s-2.59,2.68.12,6.27a3.54,3.54,0,0,0,1.83,1.66,9.69,9.69,0,0,1,1.37,2.35,2,2,0,0,0,2.13,1.6c.46,0,1-.72,1-.72s1,.13,1.16.43a2.24,2.24,0,0,0,2.16.46c.91-.31,1.15-2.92,1.15-2.92A12.3,12.3,0,0,0,100.82,584.37Zm1.48,8a2.11,2.11,0,0,1-2-.42c-.17-.28-1.09-.4-1.09-.4s-.54.66-1,.66a1.83,1.83,0,0,1-2-1.47A9,9,0,0,0,95,588.6a3.27,3.27,0,0,1-1.71-1.53c-2.54-3.31-.12-5.78-.12-5.78a3.08,3.08,0,0,1,3.22-.17,13.44,13.44,0,0,1,7,8.59S103.15,592.12,102.3,592.4Z"/>
          <path class="cls-6" d="M99.63,593.25a27.62,27.62,0,0,0-2.36,8.38c0,.44-.08.86-.09,1.26"/>
          <path class="cls-6" d="M94.92,590.09a29.46,29.46,0,0,1-.2,10.43c-.06.31-.13.61-.2.91"/>
        </g>
        <path class="cls-8" d="M105.64,605.2l1-.08a1.69,1.69,0,0,0,.94-1.06c.05-.58-.47-.8-.59-1.11a4.4,4.4,0,0,1,.25-1.87,1.11,1.11,0,0,0,.08-.82,1.91,1.91,0,0,1,.09-1.47c.31-.35.33-.33.49-.09s-.26,1-.27,1.15,0,.67.2.79.92-.44,1-.61a1.55,1.55,0,0,0,.28-.79c0-.29.06-1.41.53-1.27s-.22.92-.11,1.22.51.17.67.09,1-.78,1.27-.64,0,.49-.21.66a5.48,5.48,0,0,1-1.62.71,1.28,1.28,0,0,0-.81.55c-.12.1-.94.39-1,.66s-.32,1.62-.07,1.95a.73.73,0,0,0,.87.29c.23-.14.52-.28.75-1.1s.54-1.49,1.18-1.55a2.19,2.19,0,0,0,1.18-.37c0-.08.82-1,1.08-.76s.07.39-.14.56-.41.63-2,.84c-.83.5-1,1-.83,1.22s.91,0,1.14-.21.45-.26.49-.12a.42.42,0,0,1-.37.49,4.38,4.38,0,0,0-1.44.43c-.11.14-.55.39-.27,1,.45.31,1.16-.22,1.16-.22s.9-.86,1.08-.78.2.51.06.66a2.46,2.46,0,0,1-1.23.73c-.51.06-1.28-.22-1.5-.14s-.72.24-.74.5-.67.85-.89,1,.32.45.51.53a3.64,3.64,0,0,0,1.08.29c.11-.05.83-.68,1.09-.69s.52-.15.58.11-1,.71-1,.71l.27.52a2.93,2.93,0,0,0,.83-.23c.16-.13.73-.22.82,0s0,.65-.54.7a12.51,12.51,0,0,1-1.43,0L106,605.89Z"/>
        <path class="cls-8" d="M93.1,600.54l-1.64-.12a2.76,2.76,0,0,1-1.52-1.71c-.08-.94.76-1.29,1-1.8a7.48,7.48,0,0,0-.41-3,1.75,1.75,0,0,1-.13-1.31,3.13,3.13,0,0,0-.15-2.38c-.5-.56-.52-.53-.78-.15s.42,1.55.43,1.86,0,1.08-.33,1.27-1.47-.7-1.66-1a2.44,2.44,0,0,1-.44-1.27c0-.47-.11-2.28-.86-2s.36,1.48.17,2-.83.28-1.08.16-1.55-1.27-2.06-1-.06.79.35,1.08a9,9,0,0,0,2.62,1.14,2,2,0,0,1,1.3.89c.19.15,1.52.62,1.66,1.07s.53,2.6.12,3.14a1.16,1.16,0,0,1-1.41.46c-.37-.22-.84-.44-1.21-1.77s-.86-2.4-1.91-2.5a3.49,3.49,0,0,1-1.9-.6c0-.12-1.32-1.55-1.74-1.23s-.12.63.23.92.66,1,3.25,1.34c1.35.81,1.68,1.69,1.35,2s-1.47,0-1.85-.34-.73-.42-.79-.2a.67.67,0,0,0,.6.79,6.84,6.84,0,0,1,2.32.7c.18.22.9.64.44,1.55-.72.5-1.88-.35-1.88-.35s-1.45-1.39-1.74-1.27-.31.83-.09,1.08a4,4,0,0,0,2,1.18c.82.08,2-.36,2.42-.23s1.15.38,1.19.81S90,601,90.36,601.22s-.52.73-.83.87a6,6,0,0,1-1.73.47c-.18-.08-1.35-1.1-1.76-1.13s-.85-.23-1,.19,1.65,1.14,1.65,1.14l-.43.85a4.54,4.54,0,0,1-1.35-.38c-.25-.21-1.17-.35-1.32,0s0,1,.88,1.13a20.2,20.2,0,0,0,2.3,0l5.77-2.69Z"/>
        <g>
          <path class="cls-9" d="M95.09,596.59c0-.32.56-3.28,2-3.5a1.71,1.71,0,0,1,1.26.42c1.4,1.06,1.16,3.42.91,5.74s-.72,2.71-1.05,2.87a1.87,1.87,0,0,1-1.54-.07C95.06,601.28,94.79,598.44,95.09,596.59Z"/>
          <path class="cls-9" d="M101.3,595.32c.12-.08,1.68-1.17,2.55-.59.45.29.52.89.6,1.75a8.39,8.39,0,0,1-.84,4.46c-.51,1-.83,1.72-1.59,2a2.39,2.39,0,0,1-2.31-.47C98.18,601,99,597,101.3,595.32Z"/>
          <path class="cls-9" d="M105.25,599.63c1.58.43,2.25,2.37,2,3.78-.33,2.11-2.77,3.82-4.42,3.15-1.48-.6-2.07-3-1.32-4.7C102.11,600.57,103.64,599.18,105.25,599.63Z"/>
          <path class="cls-9" d="M103.26,606.6a4.71,4.71,0,0,1,5.81.28c.33.28,1.15,1,1,1.79-.19,1.41-3,1.9-3.39,2-1.34.22-4.15.28-4.7-1.15C101.64,608.48,102.52,607.22,103.26,606.6Z"/>
          <path class="cls-9" d="M93,597.67a8,8,0,0,1,3.31,5.39c.17.92.31,1.66-.11,2.08-1,1-4.17-.6-6.08-2s-5.08-4.29-4.32-5.81S90.42,596,93,597.67Z"/>
          <path class="cls-9" d="M94.66,602a2.57,2.57,0,0,1,2.79-1.4,1.81,1.81,0,0,1,.76.52,3.82,3.82,0,0,1,.75,3.19c-.17.87-.82,2.54-1.91,2.59s-1.85-1.54-2.07-2A3.27,3.27,0,0,1,94.66,602Z"/>
          <path class="cls-9" d="M97.39,603.7c1.64-3.29,1.6-4.37,2.29-4.43.86-.08,1.68,1.53,2,2.35a5.41,5.41,0,0,1-.43,4.32c-.42.74-1.1,2-2.24,2a2.54,2.54,0,0,1-2.24-2.24C96.67,605,96.92,604.62,97.39,603.7Z"/>
          <path class="cls-9" d="M96.11,609.72a3.13,3.13,0,0,1,3.94.91,2.74,2.74,0,0,1,0,2.94c-1.18,1.74-4.78,1.55-5.6-.06C93.89,612.4,94.59,610.47,96.11,609.72Z"/>
          <path class="cls-9" d="M98.38,608.64c-.14-1.86-2.1-2.83-3.43-2.94a2.74,2.74,0,0,0-1.61.28,3.31,3.31,0,0,0-1.54,3.71,3.44,3.44,0,0,0,4.2,2.24A3.32,3.32,0,0,0,98.38,608.64Z"/>
          <path class="cls-9" d="M98.24,606.33c.74-1.41,2.41-3,3.78-2.6a2.74,2.74,0,0,1,1.47,1.55,5.09,5.09,0,0,1,.21,3.78,4.39,4.39,0,0,1-1.68,2.73,3.33,3.33,0,0,1-3.15.49C97.23,611.42,97.21,608.3,98.24,606.33Z"/>
          <path class="cls-9" d="M89.73,609.3A8,8,0,0,1,85,605.09c-.43-.84-.77-1.51-.49-2,.65-1.21,4.16-.62,6.39.15s6.1,2.66,5.81,4.33S92.69,610.16,89.73,609.3Z"/>
          <g>
            <path class="cls-10" d="M94.31,599.27A7.84,7.84,0,0,1,96,601.61,3.17,3.17,0,0,0,94.31,599.27Z"/>
            <path class="cls-10" d="M94,602.32s.58-1.65,2.11-1.43C96.13,600.89,95.41,600.6,94,602.32Z"/>
            <path class="cls-10" d="M96.57,601.08a7.84,7.84,0,0,1,1.71,2.34A3.17,3.17,0,0,0,96.57,601.08Z"/>
            <path class="cls-10" d="M97.61,600.44s.59-1.1,1.27-1.16A4.54,4.54,0,0,0,97.61,600.44Z"/>
            <path class="cls-10" d="M101.47,602.13a3.26,3.26,0,0,1,2.34-2.27A7.51,7.51,0,0,0,101.47,602.13Z"/>
            <path class="cls-10" d="M101.47,603.71s1.17-.51,2.34,1.58A4.57,4.57,0,0,0,101.47,603.71Z"/>
            <path class="cls-10" d="M98.28,609.26a3.27,3.27,0,0,0-2.38-3.4S98.94,605.94,98.28,609.26Z"/>
            <path class="cls-10" d="M103.81,606a13,13,0,0,1,0,3.06A4.14,4.14,0,0,0,103.81,606Z"/>
            <path class="cls-10" d="M100.65,599.86a22,22,0,0,1,.82,3S101.6,600.43,100.65,599.86Z"/>
            <path class="cls-10" d="M98,607.48s-.73-1.06,1.09-2.61A4.57,4.57,0,0,0,98,607.48Z"/>
            <path class="cls-10" d="M94.05,606.15a3.26,3.26,0,0,0-2.18,3.53S90.74,606.86,94.05,606.15Z"/>
            <path class="cls-10" d="M90.43,603.05s3.1.91,4,1.82"/>
          </g>
        </g>
      </g>
      <g>
        <g>
          <path class="cls-9" d="M247.82,591.13s-1-5.09,5.29-4.44l2.54,7.06Z"/>
          <path class="cls-9" d="M263.44,577.38s-5.07-1.48-6,4.52l6.67,5.86.74-3.15Z"/>
          <path class="cls-9" d="M257,578.4l1.09,8.29-8.23-2.15S250.55,578.14,257,578.4Z"/>
          <path class="cls-10" d="M256.57,581.85l5.94,11.53,6.23,6.84,2.35-2.73s-1.82-7.46-1.82-8.58-4.51-10.31-5.18-11.68a.49.49,0,0,0-.06-.13l0-.05c-.57-.88-2.69-.52-4.75.8S256,581,256.57,581.85Zm3.31-3.5c1.37-.88,2.81-1.07,3.23-.43s-.36,1.87-1.73,2.75-2.81,1.08-3.22.44S258.52,579.23,259.88,578.35Z"/>
          <path class="cls-11" d="M263.75,589.42s3.87.2,4.85-.87C268.6,588.55,267.12,590.28,263.75,589.42Z"/>
          <path class="cls-11" d="M263.85,591.22s3.85-.44,4.64-1.65C268.49,589.57,267.31,591.52,263.85,591.22Z"/>
          <path class="cls-10" d="M247.44,591.62a1.26,1.26,0,0,0,.37.27c1.28,1,5.53,4.14,5.76,4.92s2.1,5.23,2.86,5.93,7-3.29,7-3.29l-7-9.92-2.55-3.09a1.25,1.25,0,0,0-.24-.4,1.09,1.09,0,0,0-.27-.21l0,0h0c-.94-.54-2.73,0-4.27,1.4C247.37,588.75,246.63,590.72,247.44,591.62Zm1.92-3.73c1.21-1.09,2.61-1.51,3.12-.95s-.06,1.91-1.27,3-2.6,1.51-3.11.94S248.15,589,249.36,587.89Z"/>
          <path class="cls-12" d="M249,584.93a18.07,18.07,0,0,0,3.53,3.14c2.39,1.68,2.37,4.09,3.11,4.23s4.22,3.7,4.63,4.58,1.74,7.06,1.74,7.06h3a38.86,38.86,0,0,0,2.93-5.37c.34-1.26-.22-1.89-1.41-6.47s-3.32-3.21-3.57-5.09-5.29-8.77-5.29-8.77c-.77-1-3.35-.32-5.75,1.53S248.25,583.92,249,584.93Zm3.27-4.65c1.58-1.42,3.34-2,3.92-1.39s-.21,2.34-1.8,3.76-3.33,2-3.92,1.39S250.71,581.7,252.29,580.28Z"/>
          <path class="cls-11" d="M263.14,589.1s-3.87.32-4.69,1.5C258.45,590.6,259.69,588.69,263.14,589.1Z"/>
          <path class="cls-11" d="M257.56,592.33s.88-2.1,4.35-2.31c0,0-3.75,1-4.35,2.31"/>
          <path class="cls-11" d="M253.54,596.1s1.42-1.77,4.82-1c0,0-3.88-.07-4.82,1"/>
          <path class="cls-11" d="M253.41,596s1-2.06,4.45-2.11c0,0-3.8.83-4.45,2.11"/>
        </g>
        <path class="cls-4" d="M258,600.35l-1.78-.13a3,3,0,0,1-1.64-1.86c-.09-1,.82-1.4,1-2a7.94,7.94,0,0,0-.45-3.27,1.84,1.84,0,0,1-.13-1.42c.14-.42.37-2-.17-2.58s-.57-.58-.85-.17.46,1.68.47,2,0,1.16-.35,1.37-1.6-.76-1.8-1.07a2.63,2.63,0,0,1-.49-1.37c0-.51-.11-2.46-.92-2.22s.38,1.61.18,2.12-.9.31-1.17.17-1.68-1.37-2.23-1.13-.07.86.38,1.17a9.63,9.63,0,0,0,2.84,1.23,2.26,2.26,0,0,1,1.41,1c.2.16,1.64.68,1.8,1.15s.56,2.83.12,3.4a1.26,1.26,0,0,1-1.53.51c-.39-.24-.91-.48-1.3-1.92s-.94-2.6-2.07-2.7a3.82,3.82,0,0,1-2.06-.66c0-.13-1.44-1.68-1.88-1.33s-.14.68.24,1,.72,1.1,3.53,1.46c1.45.88,1.81,1.83,1.45,2.14s-1.59,0-2-.37-.79-.45-.86-.21a.72.72,0,0,0,.65.85,7.74,7.74,0,0,1,2.52.76c.19.24,1,.69.48,1.68-.79.55-2-.38-2-.38s-1.58-1.51-1.88-1.37-.35.89-.11,1.17a4.4,4.4,0,0,0,2.16,1.27c.89.1,2.23-.38,2.62-.25s1.25.42,1.29.88,1.18,1.48,1.57,1.77-.58.79-.9.94a6.49,6.49,0,0,1-1.88.51c-.2-.09-1.46-1.19-1.91-1.22s-.92-.25-1,.2,1.79,1.24,1.79,1.24l-.47.92a5,5,0,0,1-1.45-.41c-.28-.23-1.27-.39-1.44,0s0,1.13,1,1.22a21.06,21.06,0,0,0,2.49,0l6.25-2.91Z"/>
        <path class="cls-4" d="M268.83,598.12,271,598a3.59,3.59,0,0,0,2-2.21c.11-1.23-1-1.68-1.25-2.34a9.43,9.43,0,0,1,.54-3.91,2.26,2.26,0,0,0,.16-1.71c-.18-.49-.45-2.34.2-3.07s.68-.7,1-.21-.54,2-.55,2.42-.06,1.39.41,1.64,1.92-.9,2.16-1.27a3.24,3.24,0,0,0,.58-1.64c0-.62.13-2.95,1.11-2.67s-.46,1.93-.22,2.55,1.07.37,1.4.2,2-1.64,2.66-1.35.08,1-.45,1.39a11.51,11.51,0,0,1-3.39,1.48,2.63,2.63,0,0,0-1.69,1.16c-.25.19-2,.81-2.16,1.38s-.67,3.38-.14,4.07a1.52,1.52,0,0,0,1.83.61c.47-.29,1.08-.58,1.55-2.3s1.13-3.12,2.48-3.24a4.52,4.52,0,0,0,2.46-.78c.05-.16,1.73-2,2.26-1.6s.16.82-.29,1.19-.86,1.32-4.22,1.75c-1.74,1-2.17,2.19-1.74,2.56s1.9,0,2.4-.45.94-.54,1-.25a.87.87,0,0,1-.78,1,9.31,9.31,0,0,0-3,.91c-.23.28-1.17.83-.58,2,.95.65,2.44-.46,2.44-.46s1.89-1.8,2.26-1.64.41,1.07.12,1.4a5.16,5.16,0,0,1-2.58,1.52c-1.07.12-2.66-.45-3.14-.29s-1.49.5-1.53,1-1.42,1.76-1.88,2.12.68,1,1.07,1.12a7.67,7.67,0,0,0,2.26.61c.22-.1,1.74-1.43,2.28-1.46s1.1-.3,1.23.24-2.14,1.48-2.14,1.48l.56,1.1a5.92,5.92,0,0,0,1.74-.49c.33-.28,1.52-.46,1.72,0s0,1.36-1.15,1.46a24.72,24.72,0,0,1-3,0l-7.47-3.48Z"/>
        <g>
          <path class="cls-8" d="M268.33,614.41s-.69,2-2.92.89c0,0-2.07,4.12-4.37.35,0,0-4,1.6-4.61-2.16a1.41,1.41,0,0,1-1-1.17s-2.13-.17-2.34.55-2.23-.07-2.23-.07a3.65,3.65,0,0,1-.54-3.77s-2.07-4.81,1.46-4.36c0,0,.07-1.11,1.72-2.13,0,0-1.26-3.7,2.66-3.63,0,0,1.89-3.85,4.24-1.31,0,0,.74-2,3.43-1.54,0,0,2-3,4.53.29,0,0,1.25,0,1.47.67,0,0,2.29-2.14,4.29,1.1,0,0,2.53-2.7,4,2.23,0,0,2.61.71,2,2.78,0,0,1.5.11,1.75.74s1.63.71.71,2.71a2.58,2.58,0,0,1-1.4,3.76s.55,2.5-1.44,2c0,0-1.61,3.73-3.84,3,0,0-3.69.41-3.49-1.2C272.36,614.1,270.32,616.33,268.33,614.41Z"/>
          <path class="cls-13" d="M267.45,601.55s-2-3.84-4.35.4C263.1,602,265.07,598.23,267.45,601.55Z"/>
          <path class="cls-13" d="M270.07,598.28s-.31-4.23-3.78-.57C266.29,597.71,268.74,594.93,270.07,598.28Z"/>
          <path class="cls-13" d="M276.59,606.3s1.78-5.69-2.23-4.35C274.36,602,277.64,600.88,276.59,606.3Z"/>
          <path class="cls-13" d="M272.36,603.18s-1.23-4.74-4.24-1.23C268.12,602,270.41,598.9,272.36,603.18Z"/>
          <path class="cls-13" d="M261,601.75s-5.3-4.57-5,2.27C256,604,255.49,598,261,601.75Z"/>
          <path class="cls-13" d="M255,602.54s-4.68,0-2.4,4.09C252.56,606.63,250.43,603.21,255,602.54Z"/>
          <path class="cls-13" d="M260.66,598.4s-2.64-4.24-4.31,1C256.35,599.39,258.17,595.42,260.66,598.4Z"/>
          <path class="cls-13" d="M262.71,603.18s-2.76-3.49-3.72,1.27C259,604.45,259.72,600.16,262.71,603.18Z"/>
          <path class="cls-13" d="M277.7,609.64c-.62-5-4-2.29-4-2.29S276.75,605.27,277.7,609.64Z"/>
          <path class="cls-13" d="M273.36,608.13s-.84-5-4.24-1.83C269.12,606.3,271.91,603.5,273.36,608.13Z"/>
          <path class="cls-13" d="M268.62,606.13s-1.28-4.46-4.3-.56C264.32,605.57,266.86,602,268.62,606.13Z"/>
          <path class="cls-13" d="M264.9,606.63s-2.07-3.33-4.53.82C260.37,607.45,262.3,603.7,264.9,606.63Z"/>
          <path class="cls-13" d="M260,605.8s-3.54-3-4,1.55C256,607.35,256.24,603.3,260,605.8Z"/>
          <path class="cls-13" d="M253.06,608.42s-4.15-1.12-2.57,3.9C250.49,612.32,249.12,607.63,253.06,608.42Z"/>
          <path class="cls-13" d="M258.49,609.25s-4.05-1.67-3.09,3.07C255.4,612.32,254.55,608.12,258.49,609.25Z"/>
          <path class="cls-13" d="M265.27,610.31s-2.38-3.68-4.42-.44C260.85,609.87,262.41,607,265.27,610.31Z"/>
          <path class="cls-13" d="M272.48,611.86s-1.73-2.22-3.61-.25A2.92,2.92,0,0,1,272.48,611.86Z"/>
          <path class="cls-13" d="M274.09,598.12s-1.95-3-4.29-1.1A3.89,3.89,0,0,1,274.09,598.12Z"/>
          <path class="cls-13" d="M278.08,600.35s-1.36-4.78-4-2.23C274.09,598.12,276.27,596.1,278.08,600.35Z"/>
          <path class="cls-13" d="M280.07,603.13s.73-1.76-2-2.78A3.23,3.23,0,0,1,280.07,603.13Z"/>
          <path class="cls-13" d="M282.53,606.58s1-1.73-.47-2.39c-.37-.22-.23-.44-.45-.58a2.84,2.84,0,0,0-1.54-.48C279.2,603.07,283.32,603.7,282.53,606.58Z"/>
          <path class="cls-13" d="M281.13,610.34a2.6,2.6,0,0,0,1.4-3.76A3.36,3.36,0,0,1,281.13,610.34Z"/>
          <path class="cls-13" d="M281.4,606.41a2.44,2.44,0,0,0-2.28.29A1.65,1.65,0,0,1,281.4,606.41Z"/>
          <path class="cls-13" d="M280.55,609.85s-.48-.94-2.17-.42C278.38,609.43,279.91,608.51,280.55,609.85Z"/>
          <path class="cls-13" d="M260.37,611.07s-2.47.12-2.93.79A2.84,2.84,0,0,1,260.37,611.07Z"/>
          <path class="cls-13" d="M276.48,610.64s-2.19.53-2.53,1C274,611.65,274.3,610.87,276.48,610.64Z"/>
        </g>
      </g>
      <g id="Layer_17" data-name="Layer 17">
        <path class="cls-8" d="M95.53,568.56l2.39.54a4.14,4.14,0,0,0,2.91-1.78c.53-1.31-.52-2.18-.59-3s1.47-3.73,1.91-4.12a2.6,2.6,0,0,0,.74-1.82c0-.6.29-2.73,1.25-3.32s1-.54,1.19.11-1.27,2-1.43,2.48-.52,1.51-.09,1.94,2.42-.35,2.8-.67a3.76,3.76,0,0,0,1.19-1.61c.2-.68,1.14-3.21,2.11-2.56s-1.15,2-1.08,2.72,1,.77,1.46.7,2.76-1.14,3.39-.6-.25,1.16-1,1.38a13.09,13.09,0,0,1-4.23.49,3.06,3.06,0,0,0-2.24.71c-.34.13-2.44.23-2.84.8s-1.88,3.49-1.52,4.43a1.75,1.75,0,0,0,1.8,1.28c.62-.16,1.39-.27,2.49-2s2.29-3,3.82-2.73a5.26,5.26,0,0,0,3,0c.1-.17,2.57-1.64,3-1s-.09,1-.71,1.22-1.39,1.16-5.24.5c-2.27.57-3.12,1.68-2.77,2.23s2.1.61,2.79.32,1.22-.28,1.21.06a1,1,0,0,1-1.2.87,10.72,10.72,0,0,0-3.62,0c-.35.24-1.56.52-1.31,2,.82,1,2.84.31,2.84.31s2.68-1.35,3-1,.1,1.31-.33,1.57a5.94,5.94,0,0,1-3.36.81c-1.21-.23-2.77-1.4-3.35-1.37s-1.81,0-2,.64-2.15,1.46-2.78,1.7.44,1.27.81,1.6a9.28,9.28,0,0,0,2.27,1.42c.29,0,2.41-1,3-.84s1.32,0,1.27.68-2.84.91-2.84.91l.24,1.39a6.71,6.71,0,0,0,2.08,0c.46-.19,1.83,0,1.9.58s-.46,1.49-1.76,1.22a30.05,30.05,0,0,1-3.27-1l-7.06-6.34Z"/>
      </g>
      <g id="sand">
        <g id="ship">
          <path class="cls-14" d="M-14,514.81s82-31.44,88.7-41.55S114,529.41,114,529.41s-14.6,57.26-39.3,76.35S-14,514.81-14,514.81Z"/>
          <path d="M81.44,489s19.09,26.95,27,44.92"/>
          <path d="M81.44,504.7s21.33,34.81,21.33,39.3"/>
          <path d="M79.19,480s6.74,84.21-12.35,123.51"/>
          <path d="M81.44,524.91s14.31,19.54,20.21,32.57"/>
          <path d="M81.44,539.51s11.45,16.17,16.17,27"/>
          <path d="M80.32,554.11s8.74,14.82,12.35,24.7"/>
          <path d="M77,489S24.17,507,6.21,520.42"/>
          <path d="M73.58,504.7s-47.75,15.4-64,26.95"/>
          <path d="M70.21,521.55s-37.8,12.19-50.67,21.33"/>
          <path d="M70.21,536.14s-37.8,12.19-50.67,21.34"/>
          <path d="M66.84,553S29,565.18,16.17,574.32"/>
        </g>
        <path class="cls-15" d="M54.72,586c-2.62-14.55,3.4-23.46-1.46-37a36.14,36.14,0,0,0-6.54-11C33.33,521.61,10.1,511,0,506.81V629c6.12-.2,15-.68,25.63-2,23.7-2.84,39.79-5,41.45-14C68.48,605.37,57.76,602.89,54.72,586Z"/>
        <path class="cls-16" d="M0,592.5l69.38,3.71c-4.45-.82-11-2.14-19-4.18-5.63-1.45-9.61-2.73-10.45-2.91a94.55,94.55,0,0,0-40,.29Z"/>
        <g id="forgrund-2" data-name="forgrund">
          <path id="front" class="cls-17" d="M0,591.9c52.69-1.78,83.59,6.87,102.27,15.44,7.29,3.35,13,6.82,24.07,9.13,26,5.43,42.12-3.87,76.2-9.13,38-5.85,32.73,3.42,81.22-2.1C304.12,602.92,325,599,358,599.62c7.24.14,13.17.46,17.05.7V667H0Z"/>
        </g>
        <g id="clam">
          <g>
            <path class="cls-18" d="M328,624.68s-.54-2.92,1.59-3.89,3.08-1.74,3.37-2.51,1.74,0,2.13.58.48-.39,1.06.77,1.45,1.35,1.45,1.69,2.22,1,2.22,2,2.21.25,1.93,1.38,1.64.45,1.64,1.51,1.64.29,2,1.45,2.9,1.26,2,2-1.74,1.93-2.41,1.74.19,2.7-3,3.57S328,624.68,328,624.68Z"/>
            <path class="cls-19" d="M322.2,623a3.83,3.83,0,0,0-2.71,1.93c-1,1.74-2.5-.58-3.47,3.57,0,0-3.38.1-2.8,3a4.62,4.62,0,0,1-1.83,4.54s-1.64.09,1.06,3.47c0,0,.39,1.74,0,2s-1.64-.29.29,1.64,1.25,2.6,1.25,2.6.38,2.8,2.56,3.67.82,0,.82,0a3.2,3.2,0,0,1,2.41,1.45,7.68,7.68,0,0,0,2,2.6c1.16,1.06,3.86,0,3.86,0s4.73,2.59,6,.47a1.82,1.82,0,0,1,3-.47,5.15,5.15,0,0,0,3.67-1.16c1.35-1.35,0-1.83,0-1.83s3.38.87,4.63-1.35v-1.93l1.55-1.25s-2.32-10.23-2-11.78,2.12-12.44-11.58-10.61C330.88,623.59,324.42,623.88,322.2,623Z"/>
          </g>
          <path class="cls-18" d="M333.42,624.51c-2.37.38-4.75.7-7.14.93-1.19.12-2.39.25-3.6.26a12.49,12.49,0,0,1-3.59-.4v0a23.64,23.64,0,0,0,3.57,0l3.58-.17q3.58-.25,7.16-.66Z"/>
          <path class="cls-18" d="M334.92,625a76.81,76.81,0,0,1-9.87,2.75c-1.67.37-3.36.65-5.06.86a38.29,38.29,0,0,1-5.13.22v0c1.7-.18,3.39-.32,5.08-.58s3.37-.47,5-.77A86.64,86.64,0,0,0,334.9,625Z"/>
          <path class="cls-18" d="M336.26,625.9c-3.83,1.66-7.69,3.28-11.57,4.82-1.94.79-3.89,1.55-5.86,2.24-1,.33-2,.65-3,.94a16.91,16.91,0,0,1-3.06.68v0a50.34,50.34,0,0,0,5.94-2l5.87-2.15c3.91-1.48,7.8-3,11.68-4.56Z"/>
          <path class="cls-18" d="M334,628.84c-3.55,2.38-7.16,4.69-10.8,6.93-1.82,1.13-3.65,2.23-5.52,3.29s-3.77,2-5.72,2.9l0,0,11.09-6.43q5.52-3.27,10.95-6.69Z"/>
          <path class="cls-18" d="M334,631.78l-8.53,8.93q-2.13,2.24-4.29,4.44c-1.46,1.45-2.92,2.9-4.44,4.29l0,0c1.36-1.55,2.77-3,4.19-4.54s2.88-2.94,4.34-4.39l8.73-8.72Z"/>
          <path class="cls-18" d="M338.17,629.73q-3.45,5.74-6.74,11.58c-1.07,2-2.15,3.9-3.18,5.88a40,40,0,0,0-2.85,6h0a15.49,15.49,0,0,1,1.11-3.17c.44-1,.93-2,1.42-3,1-2,2.13-3.93,3.27-5.85q3.38-5.79,7-11.44Z"/>
          <path class="cls-18" d="M338.67,631.78,335,642.67l-1.79,5.46-.92,2.73a19,19,0,0,0-.76,2.75h0a13,13,0,0,1,.54-2.84c.24-.93.52-1.85.8-2.77q.88-2.75,1.87-5.44,1.92-5.43,4-10.81Z"/>
          <path class="cls-18" d="M340.51,630.22a85.88,85.88,0,0,1-.75,11.1c-.29,1.85-.69,3.63-.87,5.47s-.36,3.68-.42,5.53h0a32.38,32.38,0,0,1,.06-5.57c.11-.93.23-1.85.4-2.76s.4-1.81.55-2.72c.32-1.82.51-3.66.68-5.51s.28-3.69.35-5.54Z"/>
          <path class="cls-18" d="M341.31,627.67a15.22,15.22,0,0,1,.39,6v0c.08,3.08.22,6.15.25,9.23v0c.11.81.24,1.62.37,2.42a14.78,14.78,0,0,0,.54,2.39l0,0a11.71,11.71,0,0,1-.76-2.35c-.2-.8-.35-1.61-.5-2.42h0v0c-.08-3.07-.05-6.15-.08-9.22h0a15.14,15.14,0,0,0-.21-6Z"/>
          <path class="cls-20" d="M331.1,622.25a23.24,23.24,0,0,1,1.54-1.9,6,6,0,0,1,.88-.86,2.22,2.22,0,0,1,1.16-.48v0a7.35,7.35,0,0,0-.92.75c-.28.27-.6.51-.91.78-.59.54-1.17,1.11-1.73,1.7Z"/>
          <path class="cls-20" d="M334.34,621.28c.24-.25.49-.49.75-.73a2.07,2.07,0,0,1,.39-.34,1.43,1.43,0,0,1,.53-.16l0,0a1.34,1.34,0,0,1-.31.45,1.83,1.83,0,0,1-.44.28c-.3.18-.6.34-.92.5Z"/>
          <path class="cls-20" d="M343.88,628.32a2.68,2.68,0,0,1,.19-.42c0-.07.05-.15.12-.19a.41.41,0,0,1,.28,0l0,0a.46.46,0,0,1,0,.29c0,.07-.12.09-.18.13a3.26,3.26,0,0,1-.4.24Z"/>
          <path class="cls-20" d="M343.07,630.86c.29-.46.58-.91.88-1.36a3.65,3.65,0,0,1,.46-.65,3,3,0,0,1,.63-.53l0,0a2.65,2.65,0,0,1-.35.74,4.3,4.3,0,0,1-.52.61c-.36.4-.72.79-1.09,1.18Z"/>
        </g>
        <path class="cls-15" d="M116.61,613.21a66,66,0,0,1,31.55,11.41c.47.33,2.59,2.17,5.7,4.56,4.37,3.36,8.1,5.92,10.64,7.6"/>
        <path class="cls-15" d="M266.1,606.52c-6.91-1.09-20.33-2.09-33.94,4.74a51.12,51.12,0,0,0-8.68,5.52"/>
        <path class="cls-21" d="M23.6,609.44c.22-1.16,14.08-2,21.57,5.52,1.38,1.39,1.25,1.76,2.63,2.89,4.73,3.87,10.23,2.72,16.83,3.16,3.56.24,10,.67,16.31,4.21s10.7,9.19,18.78,10.78l1.47.26c8.46,1.5,10.12,1.35,13.16,2.37,3.23,1.09,6.22,2.91,6.05,3.42-.34,1-11.07-4.52-22.63-1-2.65.8-2.44,1.19-3.94,1.31-7.33.6-9.87-9-19.73-12.62-3.95-1.44-2.85.37-12.89-1.05-9-1.27-14.51-2.06-19.46-6-3.79-3.06-3.24-4.78-7.89-8.16C28.12,610.26,23.47,610.11,23.6,609.44Z"/>
        <path class="cls-21" d="M281.18,619.48c-.13-.69-8.39-1.21-12.86,3.29a18,18,0,0,1-1.56,1.73c-2.83,2.3-6.1,1.62-10,1.88a22.22,22.22,0,0,0-9.72,2.51c-3.8,2.12-6.38,5.48-11.2,6.43l-.87.15c-5,.89-6,.81-7.84,1.41s-3.72,1.74-3.61,2c.2.57,6.6-2.69,13.48-.62,1.59.47,1.46.71,2.36.78,4.37.35,5.88-5.39,11.76-7.53,2.35-.85,1.7.22,7.68-.62,5.34-.76,8.65-1.23,11.6-3.61,2.26-1.82,1.94-2.85,4.71-4.86C278.49,620,281.26,619.88,281.18,619.48Z"/>
        <path class="cls-21" d="M268.3,638.1c-.13-.69-8.39-1.21-12.85,3.29a18,18,0,0,1-1.57,1.72c-2.82,2.31-6.1,1.62-10,1.89a22.21,22.21,0,0,0-9.72,2.5c-3.8,2.13-6.37,5.49-11.19,6.43l-.88.16c-5,.89-6,.8-7.84,1.41s-3.71,1.73-3.61,2c.2.57,6.6-2.7,13.49-.63,1.58.48,1.45.71,2.35.79,4.37.35,5.88-5.4,11.76-7.53,2.36-.85,1.7.22,7.68-.63,5.34-.75,8.65-1.22,11.6-3.6,2.26-1.82,1.94-2.85,4.71-4.86C265.61,638.59,268.38,638.5,268.3,638.1Z"/>
      </g>
      <g id="koral2">
        <path class="cls-8" d="M11.67,474.75l3.16-.24a5.32,5.32,0,0,0,2.92-3.29c.16-1.83-1.46-2.5-1.85-3.47s.4-5.17.8-5.82a3.36,3.36,0,0,0,.24-2.53c-.27-.73-.67-3.48.29-4.57s1-1,1.51-.31-.81,3-.83,3.6-.08,2.07.62,2.43,2.85-1.34,3.21-1.88a4.83,4.83,0,0,0,.86-2.44c0-.92.19-4.39,1.64-4s-.68,2.87-.31,3.78,1.58.55,2.07.31,3-2.44,4-2,.12,1.52-.67,2.07a16.79,16.79,0,0,1-5.05,2.19,4,4,0,0,0-2.5,1.73c-.37.29-2.93,1.2-3.21,2.05s-1,5-.21,6.05a2.24,2.24,0,0,0,2.71.9c.7-.42,1.62-.85,2.32-3.41S25,461.29,27,461.1s3.59-.91,3.65-1.15,2.56-3,3.36-2.38.24,1.22-.43,1.77-1.28,2-6.28,2.59c-2.59,1.56-3.23,3.26-2.59,3.81s2.83,0,3.57-.66,1.4-.81,1.52-.38a1.3,1.3,0,0,1-1.16,1.52c-1,.06-4.15.92-4.48,1.34s-1.73,1.24-.85,3c1.4,1,3.62-.68,3.62-.68s2.81-2.68,3.36-2.44.61,1.59.18,2.07a7.73,7.73,0,0,1-3.84,2.27c-1.58.17-4-.68-4.66-.44s-2.22.75-2.28,1.56-2.11,2.63-2.79,3.16,1,1.4,1.59,1.66a11.41,11.41,0,0,0,3.35.91c.34-.16,2.6-2.12,3.39-2.17s1.64-.45,1.83.36-3.17,2.2-3.17,2.2l.82,1.63a8.71,8.71,0,0,0,2.59-.73c.49-.41,2.26-.68,2.56,0s0,2-1.71,2.17a37.35,37.35,0,0,1-4.42,0l-11.12-5.17Z"/>
        <path class="cls-8" d="M0,460.33s5.16-5.46,8.32-5,6.56-1,7.58-2.56a3.47,3.47,0,0,1,2.24,0,5.2,5.2,0,0,0,4.57-2c.46-1.84-.84-1.31-.84-1.31A3.43,3.43,0,0,0,20.32,451c-.53,1-2.92.66-3.16.24s1.22-2.94,1.22-2.94a3.42,3.42,0,0,0,.73-3c-1.17-1.33-1.9.53-1.9.53s-.61,2.55-.61,2.91a17.58,17.58,0,0,1-3.15,3.86c-.53.27-.25-4.46-.25-4.46A5.33,5.33,0,0,0,12.11,446c-.61-.44-.2-4.29.61-5.14s-.2-1.7-.2-1.7-.41-.44-1.46.57c0,0-1.38.85-1.05,4.13s1.39,4.61,1.39,4.61a6.28,6.28,0,0,1,.55,2.79c-.12,1.38-.12,2.55-1.94,2.55s-4.74.37-5.38.85c0,0,.2-5-.57-5.26s-.32-2.31-.32-2.31a10.09,10.09,0,0,1,2.18-1.86c.61-.16,1.25-1.74.57-2.14s-2.23.16-2.23,1.13a3.94,3.94,0,0,1-.85,2s-.85.73-1.7-.48,0-5.22,0-5.22.89-2,.33-2.39a1.35,1.35,0,0,0-2,1c-.23,1.22,0,7.29,0,7.29A43.18,43.18,0,0,0,2.6,451c.81,1,0,3.76,0,3.76A19.65,19.65,0,0,1,0,458.19Z"/>
        <path class="cls-8" d="M0,464.46l3.05-.88a13.38,13.38,0,0,0,1.15-2.29c.16-.68.37-3.45,1.25-3.71s1,.84,1,.84a15.09,15.09,0,0,1-1.24,3c-.42.42,0,1.62,0,1.62s1,.57,3.29-.21c1.46-1,2.82-4.54,2.82-4.54s.72-1.82,1.66-1.41-.63,3.24-.63,3.24-1.66,2.86-2.45,3.07-1.66,1.93-6.3,1.57C-.86,465.87,0,467.07,0,467.07Z"/>
        <path class="cls-8" d="M7.08,471.05a6,6,0,0,1-1.45-5.35c1-1.41,1.45,0,1.45,0a11.3,11.3,0,0,1,.28,3c-.17.85.94.6.94.6s.58,0,1.92-2.57,2.1-.34,2.1-.34a2,2,0,0,1-.65,1.72c-.85.76-3.31,2.17-3.6,3.28S7.08,471.05,7.08,471.05Z"/>
        <path class="cls-8" d="M53.17,548.05l3.16-.23a5.36,5.36,0,0,0,2.92-3.3c.16-1.82-1.46-2.49-1.85-3.47s.4-5.17.8-5.82a3.36,3.36,0,0,0,.24-2.53c-.27-.73-.67-3.48.29-4.57s1-1,1.51-.31-.81,3-.83,3.6-.08,2.07.62,2.44,2.85-1.34,3.21-1.89a4.83,4.83,0,0,0,.86-2.44c0-.91.19-4.39,1.64-4s-.68,2.86-.31,3.78,1.58.55,2.07.3,3-2.44,4-2,.12,1.52-.67,2.07a17,17,0,0,1-5.05,2.2,3.94,3.94,0,0,0-2.5,1.72c-.37.29-2.93,1.2-3.21,2.06s-1,5-.21,6a2.23,2.23,0,0,0,2.71.9c.7-.42,1.62-.85,2.32-3.41s1.67-4.63,3.69-4.81,3.59-.92,3.65-1.16,2.56-3,3.36-2.38.24,1.22-.43,1.77-1.28,2-6.28,2.59c-2.59,1.56-3.23,3.26-2.59,3.81s2.83,0,3.57-.66,1.4-.8,1.52-.38a1.31,1.31,0,0,1-1.16,1.53c-1,.06-4.15.91-4.48,1.34s-1.73,1.23-.85,3c1.4,1,3.63-.68,3.63-.68s2.8-2.68,3.35-2.43.61,1.58.18,2.07a7.67,7.67,0,0,1-3.84,2.26c-1.58.18-4-.68-4.66-.43s-2.22.74-2.28,1.56-2.11,2.62-2.79,3.15,1,1.4,1.59,1.67a11.68,11.68,0,0,0,3.35.9c.34-.15,2.6-2.12,3.39-2.17s1.64-.44,1.83.36-3.17,2.2-3.17,2.2l.82,1.63a8.94,8.94,0,0,0,2.59-.72c.49-.42,2.26-.69,2.56,0s0,2-1.71,2.17a37.35,37.35,0,0,1-4.42,0l-11.12-5.18Z"/>
      </g>
      <g id="koral2-2" data-name="koral2">
        <path class="cls-1" d="M49.5,535.22S38.16,551,38,559s6.51,17.23,6.51,17.23L55.37,583,62,566.3"/>
        <path class="cls-2" d="M50.41,534.71s-2,0-.91,3.41a11,11,0,0,1,0,6.41s-1.82,5.45.29,7.9,2.05,2.41,2.65,4.23-.18,4.55.42,5.62S57,570.39,57,570.39l5-4.09-1.72-2.6s.24-7-.65-8.88-3-3.79-3-5.39S54.06,535.62,50.41,534.71Z"/>
        <path class="cls-1" d="M53.07,546.66c-.53,1.93-1.91,5.75-5.46,7.7a8.72,8.72,0,0,1-1.17.54"/>
        <path class="cls-1" d="M56.75,557.59c-.17.75-1.49,6.4-5.74,7.71a6.55,6.55,0,0,1-1.79.27"/>
        <path class="cls-3" d="M53,561.45c-.51-1,.16-3.5-.36-5.19s-.45-1.65-2.27-3.92-.25-7.3-.25-7.3a10.91,10.91,0,0,0,0-5.94c-.94-3.12.78-3.15.78-3.15,3.14.84,5.26,12.14,5.31,13.62s1.84,3.23,2.6,5,.56,8.22.56,8.22l2.31,3.76.28-.23-1.72-2.6s.24-7-.65-8.88-3-3.79-3-5.39-2.52-13.81-6.17-14.72c0,0-2,0-.91,3.41a11,11,0,0,1,0,6.41s-1.82,5.45.29,7.9,2.05,2.41,2.65,4.23-.18,4.55.42,5.62S57,570.39,57,570.39l.53-.44C56.5,568,53.44,562.27,53,561.45Z"/>
        <g id="Layer_11" data-name="Layer 11">
          <path class="cls-2" d="M48,545.42a14.25,14.25,0,0,1-3.88,7.89,10.75,10.75,0,0,1-1,.91"/>
          <path class="cls-2" d="M50,556.36a16.3,16.3,0,0,1-6.74,8.7,13.85,13.85,0,0,1-1.68.84"/>
          <path class="cls-2" d="M54.76,567a17.17,17.17,0,0,1-6.6,9.54,14.91,14.91,0,0,1-2.94,1.54"/>
        </g>
      </g>
      <g id="koral3">
        <path class="cls-4" d="M16.42,513.65s-2.18,4.33,0,17.7A166.6,166.6,0,0,1,18,559.77l5.83,6.44,8.12,5,5.6-2.31s2.61-18.13,8.76-26.39S16.42,513.65,16.42,513.65Z"/>
        <path class="cls-5" d="M19,508.91s-7.2,7.46.34,17.46A9.82,9.82,0,0,0,24.44,531a27.39,27.39,0,0,1,3.81,6.56c.51,1.19,1.61,5.06,5.94,4.44,1.27,0,2.88-2,2.88-2s2.71.36,3.22,1.21,3.48,2.12,6,1.27,3.19-8.14,3.19-8.14-1.07-7.63-8.19-15.85S28.59,508.4,28.59,508.4,23.42,505.43,19,508.91Z"/>
        <path class="cls-6" d="M23,511.36A85.36,85.36,0,0,0,25.47,529c.43,1.72.9,3.38,1.41,5"/>
        <path class="cls-6" d="M30.68,515.61a44.86,44.86,0,0,1,0,14.49c-.22,1.32-.49,2.58-.79,3.77"/>
        <path class="cls-6" d="M43.81,528.92a48.11,48.11,0,0,1-2.38,8.93c-.35.93-.71,1.81-1.08,2.65"/>
        <path class="cls-6" d="M38.29,523.14a53.61,53.61,0,0,0-2.82,12.94c-.09.95-.14,1.87-.18,2.78"/>
        <path class="cls-7" d="M41.31,518.49c-7.12-8.22-12.72-10.09-12.72-10.09s-5.17-3-9.58.51c0,0-7.2,7.46.34,17.46A9.82,9.82,0,0,0,24.44,531a27.39,27.39,0,0,1,3.81,6.56c.51,1.19,1.61,5.06,5.94,4.44,1.27,0,2.88-2,2.88-2s2.71.36,3.22,1.21,3.48,2.12,6,1.27,3.19-8.14,3.19-8.14S48.43,526.71,41.31,518.49Zm4.13,22.38c-2.38.78-5.16-.39-5.63-1.18s-3-1.11-3-1.11-1.51,1.84-2.7,1.84c-4.05.58-5.08-3-5.56-4.09A24.7,24.7,0,0,0,25,530.28,9.13,9.13,0,0,1,20.2,526c-7.06-9.22-.32-16.1-.32-16.1,4.13-3.2,9-.47,9-.47s5.24,1.72,11.91,9.3,7.67,14.62,7.67,14.62S47.82,540.09,45.44,540.87Z"/>
        <path class="cls-6" d="M38,543.23a76.4,76.4,0,0,0-6.58,23.35c-.12,1.23-.21,2.4-.26,3.51"/>
        <path class="cls-6" d="M24.9,534.43a82.09,82.09,0,0,1-.57,29.05q-.27,1.29-.57,2.55"/>
      </g>
      <g id="koral4">
        <path class="cls-9" d="M89.5,568.67s1.46-7.46-7.76-6.51L78,572.51Z"/>
        <path class="cls-9" d="M66.59,548.5s7.45-2.17,8.83,6.62l-9.78,8.6-1.09-4.61Z"/>
        <path class="cls-9" d="M76.11,550l-1.6,12.16L86.58,559S85.5,549.62,76.11,550Z"/>
        <path class="cls-10" d="M72.72,549.2c-3-1.94-6.13-2.47-7-1.18l0,.08-.09.18c-1,2-7.58,15.62-7.58,17.14S55.37,578,55.37,578l3.46,4L68,572l8.72-16.92C77.5,553.76,75.74,551.14,72.72,549.2ZM74.34,554c-.6.94-2.72.65-4.72-.64s-3.14-3.1-2.54-4,2.73-.66,4.73.64S75,553,74.34,554Z"/>
        <path class="cls-11" d="M66.14,566.16s-5.68.29-7.11-1.27C59,564.89,61.2,567.42,66.14,566.16Z"/>
        <path class="cls-11" d="M66,568.8s-5.65-.65-6.8-2.42C59.19,566.38,60.91,569.24,66,568.8Z"/>
        <path class="cls-10" d="M87.65,562.91c-2.25-2-4.88-2.83-6.25-2h0l0,0a2.32,2.32,0,0,0-.4.3,1.82,1.82,0,0,0-.34.59l-3.74,4.53L66.59,580.87s9.17,5.86,10.29,4.83,3.79-7.36,4.18-8.7c.34-1.14,6.58-5.83,8.46-7.22a1.65,1.65,0,0,0,.54-.4C91.24,568.07,90.16,565.17,87.65,562.91Zm1.45,5.39c-.75.83-2.79.22-4.57-1.38s-2.6-3.56-1.86-4.39,2.8-.21,4.57,1.38S89.84,567.47,89.1,568.3Z"/>
        <path class="cls-12" d="M83.4,552c-3.53-2.71-7.3-3.71-8.43-2.24,0,0-7.41,10.09-7.77,12.86s-3.49.77-5.23,7.47-2.57,7.64-2.07,9.49,4.3,7.87,4.3,7.87h4.47s2-9.05,2.55-10.35,5.69-6.51,6.78-6.71,1.06-3.74,4.56-6.21a26,26,0,0,0,5.18-4.61C88.87,558.1,86.93,554.71,83.4,552Zm2.19,6.26c-.86,1-3.44,0-5.76-2s-3.5-4.55-2.64-5.51,3.44-.05,5.76,2S86.45,557.31,85.59,558.26Z"/>
        <path class="cls-11" d="M67,565.7s5.67.45,6.88,2.19C73.91,567.89,72.09,565.09,67,565.7Z"/>
        <path class="cls-11" d="M75.22,570.42s-1.29-3.07-6.38-3.38c0,0,5.5,1.46,6.38,3.38"/>
        <path class="cls-11" d="M81.11,576s-2.08-2.6-7.06-1.5c0,0,5.69-.11,7.06,1.5"/>
        <path class="cls-11" d="M81.31,575.87s-1.43-3-6.53-3.09c0,0,5.56,1.21,6.53,3.09"/>
      </g>
      <g id="koral5">
        <g>
          <path class="cls-17" d="M28.35,559.46c.1-.61,1-6.19,3.83-6.61a3.28,3.28,0,0,1,2.38.79c2.64,2,2.18,6.46,1.72,10.84s-1.37,5.11-2,5.42a3.63,3.63,0,0,1-2.91-.13C28.29,568.3,27.79,562.93,28.35,559.46Z"/>
          <path class="cls-17" d="M40.07,557.06c.22-.15,3.16-2.21,4.82-1.13.85.56,1,1.69,1.13,3.31a16,16,0,0,1-1.58,8.43c-1,2-1.59,3.24-3,3.76a4.48,4.48,0,0,1-4.36-.91C34.18,567.83,35.77,560.13,40.07,557.06Z"/>
          <path class="cls-17" d="M47.52,565.18c3,.83,4.25,4.49,3.84,7.15-.62,4-5.23,7.2-8.35,5.94-2.8-1.13-3.9-5.64-2.48-8.87C41.59,567,44.48,564.34,47.52,565.18Z"/>
          <path class="cls-17" d="M43.76,578.35c3.16-2.67,8.23-1.86,11,.52.61.53,2.16,1.87,2,3.39-.35,2.65-5.73,3.57-6.4,3.68-2.52.41-7.84.52-8.87-2.18C40.72,581.9,42.36,579.52,43.76,578.35Z"/>
          <path class="cls-17" d="M24.42,561.48c4.94,3.2,6,8.72,6.25,10.18.32,1.74.58,3.13-.2,3.92-1.84,1.84-7.87-1.13-11.48-3.72-3.45-2.47-9.59-8.11-8.16-11C12.13,558.27,19.53,558.32,24.42,561.48Z"/>
          <path class="cls-17" d="M26.88,564.51a14.55,14.55,0,0,1,3.22,4.42S29.54,565.45,26.88,564.51Z"/>
          <path class="cls-17" d="M27.54,569.66c.95-1.93,3.4-3.24,5.26-2.64a3.45,3.45,0,0,1,1.43,1c2.15,2.21,1.49,5.74,1.43,6-.34,1.65-1.56,4.79-3.61,4.89s-3.49-2.9-3.91-3.76C27.55,573.94,26.49,571.76,27.54,569.66Z"/>
          <path class="cls-17" d="M32.68,572.86c3.1-6.19,3-8.23,4.33-8.35,1.62-.16,3.18,2.89,3.73,4.43a10.16,10.16,0,0,1-.81,8.15c-.78,1.4-2.08,3.71-4.23,3.73s-4-2.2-4.23-4.23C31.33,575.39,31.81,574.61,32.68,572.86Z"/>
          <path class="cls-17" d="M30.26,584.24c2.5-1.23,5.93-.66,7.46,1.72a5.22,5.22,0,0,1,0,5.54c-2.23,3.28-9,2.93-10.58-.11C26.08,589.3,27.4,585.66,30.26,584.24Z"/>
          <path class="cls-17" d="M34.56,582.19c-.28-3.51-4-5.34-6.48-5.55a5.4,5.4,0,0,0-3,.53,6.23,6.23,0,0,0-2.9,7,6.49,6.49,0,0,0,7.93,4.23A6.25,6.25,0,0,0,34.56,582.19Z"/>
          <path class="cls-17" d="M34.3,577.83c1.39-2.65,4.54-5.64,7.13-4.89,1.5.43,2.28,1.95,2.78,2.91A9.62,9.62,0,0,1,44.6,583a8.36,8.36,0,0,1-3.17,5.16c-1.41,1-4,2-6,.92C32.39,587.44,32.34,581.56,34.3,577.83Z"/>
          <path class="cls-16" d="M26.34,570.27s1.08-3.12,4-2.7C30.3,567.57,29,567,26.34,570.27Z"/>
          <path class="cls-16" d="M31.14,567.93a14.55,14.55,0,0,1,3.22,4.42S33.8,568.87,31.14,567.93Z"/>
          <path class="cls-16" d="M33.09,566.72s1.12-2.08,2.41-2.19A8.85,8.85,0,0,0,33.09,566.72Z"/>
          <path class="cls-16" d="M40.38,569.91s.56-3,4.43-4.28A14.21,14.21,0,0,0,40.38,569.91Z"/>
          <path class="cls-16" d="M40.38,572.89s2.23-1,4.43,3A8.74,8.74,0,0,0,40.38,572.89Z"/>
          <path class="cls-16" d="M34.36,583.37A6.16,6.16,0,0,0,29.88,577S35.6,577.1,34.36,583.37Z"/>
          <path class="cls-16" d="M44.81,577.19s.46,5.12,0,5.78A7.81,7.81,0,0,0,44.81,577.19Z"/>
          <path class="cls-16" d="M38.84,565.63a39.19,39.19,0,0,1,1.54,5.74S40.63,566.7,38.84,565.63Z"/>
          <path class="cls-16" d="M33.8,580s-1.38-2,2.05-4.93A8.68,8.68,0,0,0,33.8,580Z"/>
        </g>
      </g>
      <g id="koral6">
        <path class="cls-8" d="M54.74,607.27s1.08,3.17,4.57,1.41c0,0,3.25,6.44,6.85.53,0,0,6.26,2.51,7.22-3.38A2.2,2.2,0,0,0,75,604s3.34-.26,3.67.87,3.49-.12,3.49-.12a5.69,5.69,0,0,0,.84-5.89s3.24-7.54-2.29-6.84c0,0-.11-1.74-2.7-3.35,0,0,2-5.79-4.15-5.68,0,0-3-6-6.66-2,0,0-1.16-3.13-5.37-2.41,0,0-3.12-4.64-7.09.45,0,0-2,0-2.3,1,0,0-3.59-3.36-6.72,1.72,0,0-4-4.23-6.25,3.49,0,0-4.09,1.12-3.13,4.36,0,0-2.35.18-2.74,1.17s-2.55,1.11-1.11,4.24a4,4,0,0,0,2.2,5.89s-.87,3.92,2.25,3.1c0,0,2.53,5.84,6,4.68,0,0,5.77.64,5.47-1.89C48.43,606.79,51.61,610.28,54.74,607.27Z"/>
        <path class="cls-13" d="M56.12,587.12s3.15-6,6.81.64C62.93,587.76,59.84,581.93,56.12,587.12Z"/>
        <path class="cls-13" d="M52,582s.47-6.63,5.92-.88C57.94,581.12,54.09,576.75,52,582Z"/>
        <path class="cls-13" d="M41.8,594.57s-2.8-8.91,3.49-6.81C45.29,587.76,40.16,586.08,41.8,594.57Z"/>
        <path class="cls-13" d="M48.43,589.68s1.92-7.43,6.64-1.92C55.07,587.76,51.48,583,48.43,589.68Z"/>
        <path class="cls-13" d="M66.25,587.44s8.3-7.16,7.78,3.56C74,591,74.85,581.5,66.25,587.44Z"/>
        <path class="cls-13" d="M75.69,588.67s7.33.05,3.75,6.42C79.44,595.09,82.78,589.73,75.69,588.67Z"/>
        <path class="cls-13" d="M66.76,582.2s4.13-6.64,6.74,1.54C73.5,583.74,70.66,577.53,66.76,582.2Z"/>
        <path class="cls-13" d="M63.55,589.68s4.32-5.46,5.83,2C69.38,591.67,68.23,585,63.55,589.68Z"/>
        <path class="cls-13" d="M40.05,599.81c1-7.8,6.29-3.6,6.29-3.6S41.55,593,40.05,599.81Z"/>
        <path class="cls-13" d="M46.86,597.44s1.31-7.76,6.64-2.87C53.5,594.57,49.13,590.19,46.86,597.44Z"/>
        <path class="cls-13" d="M54.29,594.31s2-7,6.72-.88C61,593.43,57,587.9,54.29,594.31Z"/>
        <path class="cls-13" d="M60.12,595.09s3.23-5.22,7.08,1.28C67.2,596.37,64.18,590.49,60.12,595.09Z"/>
        <path class="cls-13" d="M67.74,593.78s5.55-4.75,6.31,2.43C74.05,596.21,73.68,589.88,67.74,593.78Z"/>
        <path class="cls-13" d="M78.66,597.89s6.5-1.75,4,6.11C82.69,604,84.84,596.65,78.66,597.89Z"/>
        <path class="cls-13" d="M70.15,599.2S76.5,596.57,75,604C75,604,76.33,597.43,70.15,599.2Z"/>
        <path class="cls-13" d="M59.53,600.86s3.73-5.77,6.93-.7C66.46,600.16,64,595.63,59.53,600.86Z"/>
        <path class="cls-13" d="M48.23,603.28s2.72-3.47,5.66-.4A4.6,4.6,0,0,0,48.23,603.28Z"/>
        <path class="cls-13" d="M45.72,581.75s3.05-4.67,6.72-1.72C52.44,580,48.3,578.47,45.72,581.75Z"/>
        <path class="cls-13" d="M39.47,585.24s2.13-7.47,6.25-3.49C45.72,581.75,42.3,578.59,39.47,585.24Z"/>
        <path class="cls-13" d="M36.34,589.6s-1.14-2.75,3.13-4.36A5.09,5.09,0,0,0,36.34,589.6Z"/>
        <path class="cls-13" d="M32.49,595s-1.48-2.71.73-3.74c.59-.34.36-.69.71-.92a4.68,4.68,0,0,1,2.41-.75C37.7,589.51,31.26,590.5,32.49,595Z"/>
        <path class="cls-13" d="M34.69,600.9a4.08,4.08,0,0,1-2.2-5.89A5.25,5.25,0,0,0,34.69,600.9Z"/>
        <path class="cls-13" d="M34.27,594.74a3.83,3.83,0,0,1,3.57.45A2.59,2.59,0,0,0,34.27,594.74Z"/>
        <path class="cls-13" d="M35.59,600.13s.75-1.47,3.4-.66C39,599.47,36.59,598,35.59,600.13Z"/>
        <path class="cls-13" d="M67.2,602.05s3.88.18,4.61,1.23C71.81,603.28,70.44,601.4,67.2,602.05Z"/>
        <path class="cls-13" d="M42,601.37s3.44.82,4,1.58C45.93,603,45.38,601.74,42,601.37Z"/>
      </g>
      <g id="koral1">
        <path class="cls-9" d="M0,474.58s7.62-8.42,12.13-.9,4.79,5.61,4.79,5.61,5.87-1.64,7-1.23,1.64,1.36,2.18,5.33-1.24,16.4-8.07,20.23-8.33,3.19-8.33,3.19-.82,2.83-.27,3.78,2.46,4.64,1.36,11.41c0,0,6-.88,13,17.16s-6.61,24.19-6.61,24.19,10.44,2.61,11.53,9.58,1.88,14.76-1.79,17.22S0,596.85,0,596.85V474.58Z"/>
        <g>
          <path class="cls-10" d="M8.53,505.6c.79.88-2.34-5-8.53-7.54"/>
          <path class="cls-10" d="M9.37,522.3l-8.5,2.39"/>
          <path class="cls-10" d="M.74,525.35a13.7,13.7,0,0,1,7.61-3.08,12.14,12.14,0,0,1,2.37.07"/>
          <path class="cls-10" d="M14.56,563c-2.88-.55-8-1-12.47,1.77a11.33,11.33,0,0,0-1.36,1"/>
          <path class="cls-10" d="M6,480c.44-.18.89.09,1.46.42s.87.51.83.73c-.09.49-2.54.81-2.91.1A1.08,1.08,0,0,1,6,480Z"/>
          <path class="cls-10" d="M8.61,482.61c.22-.09.44,0,.72.21s.44.25.42.36-1.27.41-1.45.05C8.2,483.05,8.37,482.71,8.61,482.61Z"/>
          <path class="cls-10" d="M6.65,484.33c.46.13.65.62.88,1.23s.37.94.2,1.09c-.37.33-2.49-.94-2.34-1.73A1.08,1.08,0,0,1,6.65,484.33Z"/>
          <path class="cls-10" d="M4.91,483.3c-.15.18-.41.17-.74.16s-.5,0-.54-.12.92-1,1.26-.74C5.06,482.71,5.07,483.09,4.91,483.3Z"/>
          <path class="cls-10" d="M2.29,484.7c.39-.18.79.09,1.29.42s.78.5.74.72c-.08.5-2.25.82-2.58.11A1.13,1.13,0,0,1,2.29,484.7Z"/>
          <path class="cls-10" d="M2.47,480c.29-.18.59.09,1,.42s.58.51.56.73c-.06.49-1.7.81-1.95.1A1.3,1.3,0,0,1,2.47,480Z"/>
          <g>
            <path class="cls-10" d="M7.41,488.18c.49-.2,1,.1,1.64.47s1,.57.94.82c-.1.56-2.87.92-3.29.12A1.23,1.23,0,0,1,7.41,488.18Z"/>
            <path class="cls-10" d="M10.38,491.15c.24-.1.5.05.82.23s.49.29.47.41c-.05.28-1.44.46-1.65.06A.62.62,0,0,1,10.38,491.15Z"/>
            <path class="cls-10" d="M6.2,491.92c-.17.21-.47.2-.84.19s-.57,0-.61-.14c-.09-.27,1-1.09,1.42-.83A.61.61,0,0,1,6.2,491.92Z"/>
            <path class="cls-10" d="M3.24,493.51c.44-.2.89.1,1.46.47s.87.57.83.82c-.08.56-2.54.92-2.92.12A1.27,1.27,0,0,1,3.24,493.51Z"/>
            <path class="cls-10" d="M3.44,488.18c.33-.2.67.1,1.1.47s.66.57.63.82c-.07.56-1.92.92-2.2.12A1.45,1.45,0,0,1,3.44,488.18Z"/>
          </g>
          <g>
            <path class="cls-10" d="M16.44,481c.36.13.48.54.64,1.06s.23.78.08.89c-.32.25-2-.93-1.78-1.56A.88.88,0,0,1,16.44,481Z"/>
            <path class="cls-10" d="M16.54,484c.18.07.24.28.32.53s.11.4,0,.45-1-.46-.89-.78C16.05,484.05,16.34,483.94,16.54,484Z"/>
            <path class="cls-10" d="M14.42,484c.19.33,0,.73-.16,1.22s-.31.76-.49.76c-.41,0-1-1.95-.43-2.33A.88.88,0,0,1,14.42,484Z"/>
            <path class="cls-10" d="M14,482.36c-.19,0-.34-.13-.53-.32s-.29-.29-.25-.37,1.08-.06,1.15.26S14.17,482.33,14,482.36Z"/>
            <path class="cls-10" d="M11.62,481.74c.33.1.42.49.54,1s.17.74,0,.85c-.32.25-1.8-.77-1.6-1.38A.93.93,0,0,1,11.62,481.74Z"/>
            <path class="cls-10" d="M14.35,479c.28.06.31.38.35.79s.06.63-.07.74c-.31.26-1.47-.46-1.22-1A1.05,1.05,0,0,1,14.35,479Z"/>
          </g>
          <path class="cls-10" d="M17.25,488c.36-.15.73.07,1.19.34s.71.41.68.59c-.07.41-2.07.67-2.37.09A.88.88,0,0,1,17.25,488Z"/>
          <path class="cls-10" d="M19.4,490.1c.17-.07.36,0,.59.17s.36.21.34.3-1,.33-1.19,0A.45.45,0,0,1,19.4,490.1Z"/>
          <path class="cls-10" d="M17.8,491.51c.37.11.53.51.72,1s.3.77.16.89c-.3.27-2-.77-1.91-1.41A.89.89,0,0,1,17.8,491.51Z"/>
          <path class="cls-10" d="M16.38,490.66c-.12.15-.34.14-.6.14s-.41,0-.44-.1.75-.79,1-.61A.45.45,0,0,1,16.38,490.66Z"/>
          <path class="cls-10" d="M14.24,491.81c.32-.15.65.07,1.06.34s.63.41.6.59c-.06.4-1.84.67-2.11.09A.93.93,0,0,1,14.24,491.81Z"/>
          <path class="cls-10" d="M14.39,488c.24-.15.48.07.79.34s.48.41.46.59c-.05.41-1.39.67-1.59.09A1,1,0,0,1,14.39,488Z"/>
          <path class="cls-10" d="M8.58,472.92c.46-.09.86.26,1.35.69s.75.66.67.87c-.18.47-2.65.31-2.87-.46C7.61,473.63,8.07,473,8.58,472.92Z"/>
          <path class="cls-10" d="M10.65,476c.23,0,.43.13.68.35s.37.33.33.43-1.32.16-1.43-.23C10.17,476.36,10.4,476.05,10.65,476Z"/>
          <path class="cls-10" d="M8.4,477.32c.42.21.51.73.63,1.37s.17,1,0,1.11c-.43.25-2.26-1.41-2-2.15A1.07,1.07,0,0,1,8.4,477.32Z"/>
          <path class="cls-10" d="M6.89,476c-.18.15-.44.09-.76,0s-.49-.11-.5-.22S6.72,475,7,475.27A.54.54,0,0,1,6.89,476Z"/>
          <path class="cls-10" d="M4.05,476.84c.41-.11.76.23,1.19.65s.66.65.58.86c-.17.47-2.37.37-2.55-.4A1.12,1.12,0,0,1,4.05,476.84Z"/>
          <path class="cls-10" d="M5.13,472.24c.32-.12.57.2.88.6s.47.61.4.82c-.15.47-1.82.47-1.93-.28A1.31,1.31,0,0,1,5.13,472.24Z"/>
          <g>
            <path class="cls-10" d="M24.41,480.85c.38.11.54.52.74,1s.31.78.17.9c-.31.28-2.09-.77-2-1.43A.9.9,0,0,1,24.41,480.85Z"/>
            <path class="cls-10" d="M24.77,483.93c.19.06.27.26.37.51s.16.4.09.46-1.05-.39-1-.72A.45.45,0,0,1,24.77,483.93Z"/>
            <path class="cls-10" d="M22.6,484.05c.23.32.1.74-.06,1.26s-.24.81-.43.82c-.42,0-1.15-1.91-.64-2.35A.91.91,0,0,1,22.6,484.05Z"/>
            <path class="cls-10" d="M22,482.47c-.19,0-.36-.1-.56-.28s-.33-.27-.29-.36,1.1-.15,1.2.17C22.39,482.16,22.2,482.42,22,482.47Z"/>
            <path class="cls-10" d="M19.55,482c.35.09.48.47.63,1s.25.73.11.85c-.3.29-1.9-.63-1.75-1.26A1,1,0,0,1,19.55,482Z"/>
            <path class="cls-10" d="M22.11,479c.28,0,.34.37.42.78s.12.63,0,.76c-.29.3-1.54-.34-1.33-.93A1.1,1.1,0,0,1,22.11,479Z"/>
          </g>
          <path class="cls-10" d="M10.14,485.9c.43-.18.89.09,1.45.42s.87.51.83.73c-.08.49-2.54.81-2.91.1A1.09,1.09,0,0,1,10.14,485.9Z"/>
          <g>
            <path class="cls-10" d="M13.48,499c.36.14.48.55.63,1.06s.24.79.09.9c-.32.24-2-.93-1.79-1.56A.89.89,0,0,1,13.48,499Z"/>
            <path class="cls-10" d="M13.58,502c.18.07.24.27.32.53s.11.39,0,.45-1-.47-.89-.78A.42.42,0,0,1,13.58,502Z"/>
            <path class="cls-10" d="M11.46,502c.19.32,0,.72-.17,1.22s-.3.76-.48.75c-.41,0-1-1.95-.43-2.33A.88.88,0,0,1,11.46,502Z"/>
            <path class="cls-10" d="M11,500.38c-.19,0-.35-.12-.53-.31s-.29-.29-.26-.37,1.09-.06,1.16.26C11.41,500.12,11.2,500.36,11,500.38Z"/>
            <path class="cls-10" d="M8.66,499.76c.33.11.42.49.53,1s.18.73,0,.84c-.32.25-1.8-.77-1.6-1.38A.93.93,0,0,1,8.66,499.76Z"/>
            <path class="cls-10" d="M11.39,497.05c.27.06.31.39.35.79s.06.63-.08.75c-.31.26-1.46-.46-1.21-1A1.05,1.05,0,0,1,11.39,497.05Z"/>
          </g>
          <g>
            <path class="cls-10" d="M18.53,494.75c.33-.09.63.15,1,.44s.57.44.52.6c-.11.34-1.89.34-2.09-.21C17.86,495.3,18.17,494.84,18.53,494.75Z"/>
            <path class="cls-10" d="M20.15,496.88c.17,0,.32.07.5.22s.29.22.26.3-.94.17-1-.11S20,496.93,20.15,496.88Z"/>
            <path class="cls-10" d="M18.59,497.92c.31.14.4.51.51,1s.17.7,0,.79c-.3.2-1.7-.91-1.51-1.46A.79.79,0,0,1,18.59,497.92Z"/>
            <path class="cls-10" d="M17.44,497c-.12.12-.31.09-.54.05s-.36-.06-.37-.14.75-.6,1-.41A.39.39,0,0,1,17.44,497Z"/>
            <path class="cls-10" d="M15.44,497.76c.29-.09.55.14.88.43s.5.43.46.59c-.1.34-1.69.36-1.86-.18A.83.83,0,0,1,15.44,497.76Z"/>
            <path class="cls-10" d="M16,494.41c.22-.1.42.12.65.39s.37.42.33.57c-.09.35-1.29.42-1.4-.11A1,1,0,0,1,16,494.41Z"/>
          </g>
          <path class="cls-10" d="M6.57,496.35c.44-.18.89.09,1.45.42s.87.51.84.73c-.09.49-2.54.81-2.91.1A1.08,1.08,0,0,1,6.57,496.35Z"/>
          <path class="cls-10" d="M5.5,499.67c-.15.18-.41.17-.74.16s-.5,0-.54-.12.92-1,1.25-.74S5.66,499.47,5.5,499.67Z"/>
          <path class="cls-10" d="M3.06,496.35c.29-.18.59.09,1,.42s.58.51.56.73c-.06.49-1.7.81-1.95.1A1.3,1.3,0,0,1,3.06,496.35Z"/>
          <path class="cls-10" d="M24.2,491.21c0,.47-.36.83-.84,1.27s-.75.67-.94.57c-.45-.23,0-2.67.78-2.81C23.6,490.17,24.15,490.7,24.2,491.21Z"/>
          <path class="cls-10" d="M21.36,489.19c-.13-.2,0-.44.07-.75s.17-.48.28-.48.64,1.17.32,1.42A.53.53,0,0,1,21.36,489.19Z"/>
          <path class="cls-10" d="M25.26,487.87c.08.33-.26.54-.69.8s-.66.4-.86.31c-.46-.21-.27-1.87.48-1.89A1.3,1.3,0,0,1,25.26,487.87Z"/>
          <path class="cls-10" d="M9.91,493.31c.52-.11,1,.28,1.53.77s.85.75.76,1c-.2.53-3,.36-3.25-.51C8.82,494.11,9.34,493.42,9.91,493.31Z"/>
          <g>
            <path class="cls-10" d="M4.63,503.08c.34,0,.57.31.85.69s.43.58.34.72c-.2.3-1.91-.18-1.95-.76C3.84,503.43,4.26,503.08,4.63,503.08Z"/>
            <path class="cls-10" d="M5.63,505.57c.16,0,.28.15.42.34s.21.3.17.36-1-.09-1-.38S5.44,505.57,5.63,505.57Z"/>
            <path class="cls-10" d="M3.84,506.15c.26.22.25.6.23,1.07s0,.73-.18.78c-.34.11-1.38-1.34-1.05-1.82A.79.79,0,0,1,3.84,506.15Z"/>
            <path class="cls-10" d="M3,505c-.15.08-.32,0-.54-.1s-.33-.16-.32-.24.89-.37,1-.13A.4.4,0,0,1,3,505Z"/>
            <path class="cls-10" d="M.85,505.15c.3,0,.5.29.73.65s.37.55.29.69c-.2.3-1.73-.1-1.75-.67A.83.83,0,0,1,.85,505.15Z"/>
            <path class="cls-10" d="M2.31,502.08c.24,0,.37.23.52.55s.24.51.16.64c-.18.31-1.35.06-1.31-.48A.93.93,0,0,1,2.31,502.08Z"/>
          </g>
          <g>
            <path class="cls-10" d="M1,509.22c-.05-.33.22-.6.55-.94s.51-.51.66-.44c.33.15.11,1.92-.46,2C1.49,510,1.08,509.59,1,509.22Z"/>
            <path class="cls-10" d="M4.18,509.55c.18-.3.55-.34,1-.39s.72-.09.8.06c.16.32-1.12,1.57-1.64,1.32A.78.78,0,0,1,4.18,509.55Z"/>
            <path class="cls-10" d="M3.14,510.58c.1.13,0,.31,0,.54s-.1.35-.18.35-.51-.82-.29-1A.39.39,0,0,1,3.14,510.58Z"/>
            <path class="cls-10" d="M3.64,512.66c-.05-.31.21-.54.53-.83s.49-.45.64-.38c.33.14.16,1.72-.4,1.82A.81.81,0,0,1,3.64,512.66Z"/>
            <path class="cls-10" d="M.38,511.67c-.07-.23.17-.4.47-.6s.46-.31.61-.26c.33.14.26,1.34-.28,1.38A1,1,0,0,1,.38,511.67Z"/>
          </g>
          <g>
            <path class="cls-10" d="M6.1,515.79c.27-.32.74-.28,1.32-.24s.89.07.94.26c.13.43-1.71,1.64-2.28,1.21A1,1,0,0,1,6.1,515.79Z"/>
            <path class="cls-10" d="M9.21,516.86c.14-.15.37-.14.66-.11s.45,0,.48.13-.86.81-1.15.6A.5.5,0,0,1,9.21,516.86Z"/>
            <path class="cls-10" d="M8.32,519c.41-.07.76.24,1.18.64s.66.61.58.79c-.17.41-2.36.22-2.54-.47C7.45,519.6,7.87,519.08,8.32,519Z"/>
            <path class="cls-10" d="M6.52,518.85c0,.2-.26.29-.52.41s-.41.19-.48.11.36-1.12.72-1.07C6.42,518.32,6.58,518.62,6.52,518.85Z"/>
            <path class="cls-10" d="M5,521c.24-.29.66-.24,1.19-.17s.82.11.87.3c.13.42-1.48,1.52-2,1.08A1,1,0,0,1,5,521Z"/>
            <path class="cls-10" d="M3.29,517.15c.16-.26.51-.16.94,0s.66.18.73.37c.14.41-1,1.31-1.52.84A1.16,1.16,0,0,1,3.29,517.15Z"/>
          </g>
          <g>
            <path class="cls-10" d="M8.2,511.44c.19-.05.38.09.6.26s.34.27.31.37-1.14.2-1.25-.13C7.79,511.77,8,511.5,8.2,511.44Z"/>
            <path class="cls-10" d="M9.18,512.72c.09,0,.18,0,.3.14s.17.13.15.18-.57.1-.63-.07S9.07,512.75,9.18,512.72Z"/>
            <path class="cls-10" d="M8.23,513.35c.19.09.24.31.31.58s.1.43,0,.48-1-.55-.9-.88C7.71,513.36,8,513.26,8.23,513.35Z"/>
            <path class="cls-10" d="M7.54,512.8c-.07.07-.19.06-.33,0s-.21,0-.22-.08.45-.36.58-.25A.23.23,0,0,1,7.54,512.8Z"/>
            <path class="cls-10" d="M6.33,513.26c.18-.06.34.08.54.25s.3.27.27.36-1,.22-1.12-.11A.49.49,0,0,1,6.33,513.26Z"/>
            <path class="cls-10" d="M6.68,511.24c.14-.06.26.07.4.23s.22.25.2.35-.78.25-.85-.07A.55.55,0,0,1,6.68,511.24Z"/>
          </g>
          <g>
            <path class="cls-10" d="M3,513.33c.2-.05.38.09.6.27s.35.27.32.36-1.14.2-1.26-.12A.48.48,0,0,1,3,513.33Z"/>
            <path class="cls-10" d="M3.93,514.62c.1,0,.19,0,.3.13s.17.13.16.18-.57.1-.63-.06A.23.23,0,0,1,3.93,514.62Z"/>
            <path class="cls-10" d="M3,515.25c.18.08.24.3.3.58s.11.42,0,.48-1-.55-.91-.88A.47.47,0,0,1,3,515.25Z"/>
            <path class="cls-10" d="M2.3,514.7c-.08.07-.19,0-.33,0s-.22,0-.23-.09.46-.36.59-.24A.25.25,0,0,1,2.3,514.7Z"/>
            <path class="cls-10" d="M1.09,515.15c.17,0,.33.08.53.26s.3.26.27.35-1,.22-1.11-.1A.48.48,0,0,1,1.09,515.15Z"/>
            <path class="cls-10" d="M1.44,513.13c.13-.06.25.07.39.24s.22.25.2.34-.78.25-.85-.07A.58.58,0,0,1,1.44,513.13Z"/>
          </g>
          <g>
            <path class="cls-10" d="M.69,520.39c-.07-.19.06-.38.21-.62s.24-.37.34-.35.3,1.12,0,1.27C1.06,520.76.77,520.6.69,520.39Z"/>
            <path class="cls-10" d="M1.89,519.31c0-.1,0-.2.1-.32s.12-.18.17-.17.15.56,0,.63A.22.22,0,0,1,1.89,519.31Z"/>
            <path class="cls-10" d="M2.6,520.19c.06-.19.28-.27.55-.36s.41-.14.47-.06-.46,1.06-.8,1A.46.46,0,0,1,2.6,520.19Z"/>
            <path class="cls-10" d="M2.11,520.93c.07.06.07.18.05.32s0,.22-.06.23-.4-.42-.29-.56A.23.23,0,0,1,2.11,520.93Z"/>
            <path class="cls-10" d="M2.66,522.09c-.07-.17.06-.34.21-.55s.24-.33.33-.31.31,1,0,1.13A.5.5,0,0,1,2.66,522.09Z"/>
            <path class="cls-10" d="M.62,521.92c-.07-.13.05-.26.2-.42s.23-.24.33-.22.32.75,0,.84A.56.56,0,0,1,.62,521.92Z"/>
          </g>
          <path class="cls-10" d="M.81,516.18c.29-.18.6.09,1,.42s.58.51.55.73c-.06.49-1.7.81-1.94.1A1.29,1.29,0,0,1,.81,516.18Z"/>
          <path class="cls-10" d="M6.45,506.87c.29-.18.6.09,1,.42s.59.5.56.72c-.06.5-1.7.82-1.95.11A1.32,1.32,0,0,1,6.45,506.87Z"/>
          <g>
            <path class="cls-10" d="M3.63,526.26C3.91,526,4.37,526,5,526s.89.07,1,.26c.12.43-1.71,1.64-2.28,1.21A1,1,0,0,1,3.63,526.26Z"/>
            <path class="cls-10" d="M6.75,527.34c.13-.16.37-.14.66-.12s.44,0,.47.13-.85.82-1.14.61A.47.47,0,0,1,6.75,527.34Z"/>
            <path class="cls-10" d="M5.86,529.47c.41-.07.75.25,1.17.65s.66.6.58.79c-.17.41-2.35.21-2.54-.48C5,530.08,5.4,529.55,5.86,529.47Z"/>
            <path class="cls-10" d="M4.06,529.32c0,.21-.26.3-.53.42s-.41.18-.48.11.37-1.13.72-1.07C4,528.8,4.11,529.1,4.06,529.32Z"/>
            <path class="cls-10" d="M2.51,531.46c.24-.29.67-.24,1.2-.17s.81.11.87.29c.13.43-1.49,1.53-2,1.09A1,1,0,0,1,2.51,531.46Z"/>
            <path class="cls-10" d="M.83,527.62c.16-.25.5-.16.93,0s.67.18.73.36c.14.42-1,1.32-1.51.84A1.13,1.13,0,0,1,.83,527.62Z"/>
          </g>
          <g>
            <path class="cls-10" d="M3.91,534.26c.28-.31.74-.28,1.32-.23s.89.07.95.26c.12.42-1.71,1.63-2.28,1.21A1,1,0,0,1,3.91,534.26Z"/>
            <path class="cls-10" d="M7,535.34c.13-.16.37-.14.66-.12s.44,0,.47.13-.86.82-1.14.61A.47.47,0,0,1,7,535.34Z"/>
            <path class="cls-10" d="M6.13,537.47c.42-.07.76.25,1.18.64s.66.61.58.8c-.17.41-2.35.21-2.54-.48C5.26,538.08,5.68,537.55,6.13,537.47Z"/>
            <path class="cls-10" d="M4.34,537.32c0,.21-.26.3-.53.42s-.41.18-.48.11.37-1.13.72-1.08A.49.49,0,0,1,4.34,537.32Z"/>
            <path class="cls-10" d="M2.79,539.46c.24-.3.67-.24,1.2-.17s.81.1.87.29c.13.43-1.49,1.53-2,1.09A1,1,0,0,1,2.79,539.46Z"/>
            <path class="cls-10" d="M1.1,535.62c.17-.25.51-.16.94,0s.66.18.73.36c.14.42-1,1.31-1.52.84A1.18,1.18,0,0,1,1.1,535.62Z"/>
          </g>
          <g>
            <path class="cls-10" d="M12.93,525.35c.23.18.23.52.23.93s0,.63-.13.68c-.29.11-1.25-1.12-1-1.55A.7.7,0,0,1,12.93,525.35Z"/>
            <path class="cls-10" d="M12.33,527.62c.12.09.12.26.12.46s0,.32-.06.35-.63-.57-.5-.78A.34.34,0,0,1,12.33,527.62Z"/>
            <path class="cls-10" d="M10.77,527.11c.08.28-.13.54-.39.87s-.39.49-.53.45c-.3-.1-.28-1.66.2-1.83C10.3,526.52,10.69,526.79,10.77,527.11Z"/>
            <path class="cls-10" d="M10.78,525.82c-.15,0-.22-.17-.32-.35s-.15-.28-.11-.33.82.2.8.45S10.94,525.85,10.78,525.82Z"/>
            <path class="cls-10" d="M9.18,524.85c.22.15.21.45.19.83s0,.58-.16.64c-.3.11-1.17-1-.88-1.38A.7.7,0,0,1,9.18,524.85Z"/>
            <path class="cls-10" d="M11.81,523.44c.19.1.14.35.08.66s-.09.48-.22.54-1-.67-.67-1A.81.81,0,0,1,11.81,523.44Z"/>
          </g>
          <g>
            <path class="cls-10" d="M11.85,530.3c.3-.34.81-.31,1.44-.26s1,.08,1,.28c.13.47-1.87,1.79-2.49,1.33A1,1,0,0,1,11.85,530.3Z"/>
            <path class="cls-10" d="M15.24,531.47c.16-.17.41-.15.73-.12s.48,0,.51.14-.93.89-1.24.66A.54.54,0,0,1,15.24,531.47Z"/>
            <path class="cls-10" d="M14.27,533.8c.45-.08.83.27,1.29.7s.71.66.63.86c-.18.45-2.57.24-2.77-.51C13.32,534.46,13.78,533.89,14.27,533.8Z"/>
            <path class="cls-10" d="M12.31,533.64c-.05.22-.28.32-.57.45s-.45.2-.52.12S11.61,533,12,533A.52.52,0,0,1,12.31,533.64Z"/>
            <path class="cls-10" d="M10.63,536c.26-.32.72-.26,1.3-.19s.89.12,1,.32c.14.46-1.62,1.67-2.21,1.19A1.09,1.09,0,0,1,10.63,536Z"/>
            <path class="cls-10" d="M8.79,531.78c.17-.28.55-.17,1,0s.72.2.79.4c.16.46-1.13,1.43-1.65.92A1.25,1.25,0,0,1,8.79,531.78Z"/>
          </g>
          <g>
            <path class="cls-10" d="M3.91,542.67c.3-.13.61.05,1,.28s.59.34.57.49c-.06.34-1.73.56-2,.07A.73.73,0,0,1,3.91,542.67Z"/>
            <path class="cls-10" d="M5.7,544.45c.15-.06.3,0,.49.14s.3.17.29.25-.87.28-1,0S5.54,544.52,5.7,544.45Z"/>
            <path class="cls-10" d="M3.19,544.92c-.11.12-.28.12-.51.11s-.34,0-.36-.09.62-.65.85-.5A.37.37,0,0,1,3.19,544.92Z"/>
            <path class="cls-10" d="M1.41,545.87c.26-.12.53.06.88.28s.52.35.5.5c-.06.33-1.54.55-1.76.07A.78.78,0,0,1,1.41,545.87Z"/>
            <path class="cls-10" d="M1.53,542.67c.2-.13.4.05.66.28s.39.34.38.49c0,.34-1.16.56-1.33.07A.88.88,0,0,1,1.53,542.67Z"/>
          </g>
          <g>
            <path class="cls-10" d="M13.19,538.35c.5-.19,1,.1,1.68.46s1,.56,1,.81c-.1.54-2.95.9-3.38.11C12.24,539.33,12.63,538.57,13.19,538.35Z"/>
            <path class="cls-10" d="M16.23,541.25c.26-.09.52,0,.85.23s.5.28.48.41-1.47.45-1.69.05C15.76,541.74,16,541.36,16.23,541.25Z"/>
            <path class="cls-10" d="M11.94,542c-.17.2-.48.19-.86.18s-.58,0-.62-.13,1.07-1.07,1.45-.82A.58.58,0,0,1,11.94,542Z"/>
            <path class="cls-10" d="M8.9,543.56c.45-.19.92.1,1.5.46s.9.56.86.81c-.09.54-2.62.9-3,.11A1.23,1.23,0,0,1,8.9,543.56Z"/>
            <path class="cls-10" d="M9.11,538.35c.34-.19.69.1,1.13.46s.67.56.64.81c-.07.54-2,.9-2.26.11A1.4,1.4,0,0,1,9.11,538.35Z"/>
          </g>
          <g>
            <path class="cls-10" d="M5.79,556.51c.51-.2,1,.1,1.69.46s1,.56,1,.8c-.1.55-2.95.9-3.38.12C4.85,557.48,5.24,556.73,5.79,556.51Z"/>
            <path class="cls-10" d="M8.84,559.41c.26-.1.52.05.85.23s.5.28.48.4-1.47.45-1.69.06C8.37,559.9,8.57,559.52,8.84,559.41Z"/>
            <path class="cls-10" d="M4.55,560.17c-.17.2-.48.19-.86.18s-.58,0-.62-.14,1.07-1.06,1.45-.81A.58.58,0,0,1,4.55,560.17Z"/>
            <path class="cls-10" d="M1.51,561.72c.45-.2.92.09,1.5.46s.9.56.86.8c-.09.55-2.62.9-3,.12A1.22,1.22,0,0,1,1.51,561.72Z"/>
            <path class="cls-10" d="M1.72,556.51c.33-.2.69.1,1.13.46s.67.56.64.8c-.07.55-2,.9-2.26.12A1.4,1.4,0,0,1,1.72,556.51Z"/>
          </g>
          <g>
            <path class="cls-10" d="M18.05,542.93c.51-.2,1,.09,1.69.46s1,.56,1,.8c-.1.54-2.95.9-3.38.11C17.11,543.9,17.5,543.14,18.05,542.93Z"/>
            <path class="cls-10" d="M21.1,545.83c.26-.1.52,0,.85.23s.5.28.48.4-1.47.45-1.69,0C20.63,546.31,20.83,545.93,21.1,545.83Z"/>
            <path class="cls-10" d="M16.81,546.58c-.17.21-.48.2-.86.18s-.58,0-.62-.13,1.07-1.06,1.45-.82A.58.58,0,0,1,16.81,546.58Z"/>
            <path class="cls-10" d="M13.77,548.14c.45-.2.92.09,1.5.45s.9.57.86.81c-.09.54-2.62.9-3,.11A1.21,1.21,0,0,1,13.77,548.14Z"/>
            <path class="cls-10" d="M14,542.93c.33-.2.69.09,1.13.46s.67.56.64.8c-.07.54-2,.9-2.26.11A1.38,1.38,0,0,1,14,542.93Z"/>
          </g>
          <g>
            <path class="cls-10" d="M6.38,550.39c.28.27.28.76.28,1.37s0,.94-.16,1c-.35.16-1.51-1.67-1.18-2.31A.72.72,0,0,1,6.38,550.39Z"/>
            <path class="cls-10" d="M5.66,553.75c.14.14.14.38.14.69s0,.47-.07.51-.76-.84-.6-1.15A.36.36,0,0,1,5.66,553.75Z"/>
            <path class="cls-10" d="M3.78,553c.09.43-.16.81-.47,1.29s-.48.74-.64.67c-.36-.14-.34-2.46.24-2.71C3.21,552.12,3.68,552.52,3.78,553Z"/>
            <path class="cls-10" d="M3.79,551.09c-.18,0-.27-.25-.39-.52s-.18-.42-.13-.5,1,.29,1,.67A.43.43,0,0,1,3.79,551.09Z"/>
            <path class="cls-10" d="M1.86,549.63c.27.23.25.68.23,1.25s0,.86-.2.94c-.35.17-1.4-1.44-1.06-2A.75.75,0,0,1,1.86,549.63Z"/>
            <path class="cls-10" d="M5,547.55c.23.15.17.52.1,1s-.11.71-.26.79c-.35.19-1.19-1-.82-1.52A.84.84,0,0,1,5,547.55Z"/>
          </g>
          <g>
            <path class="cls-10" d="M12.94,546.7c.53-.18,1.14.13,1.91.52.59.3,1.17.59,1.15.83,0,.53-3.12.77-3.69,0C12,547.62,12.36,546.89,12.94,546.7Z"/>
            <path class="cls-10" d="M16.64,549.68c.26-.09.57.06.95.26s.59.29.58.41-1.56.39-1.85,0C16.18,550.14,16.35,549.77,16.64,549.68Z"/>
            <path class="cls-10" d="M14.38,551.46c.59.16.9.7,1.28,1.38.3.52.59,1,.4,1.19-.44.34-3.31-1.14-3.22-2C12.89,551.6,13.72,551.28,14.38,551.46Z"/>
            <path class="cls-10" d="M12,550.25c-.16.19-.5.17-.92.14s-.64,0-.7-.16,1-1,1.5-.74A.55.55,0,0,1,12,550.25Z"/>
            <path class="cls-10" d="M8.86,551.65c.47-.17,1,.13,1.71.52.53.29,1,.58,1,.82,0,.53-2.76.78-3.28,0A1,1,0,0,1,8.86,551.65Z"/>
            <path class="cls-10" d="M8.46,546.53c.35-.18.77.13,1.3.5s.81.58.8.82c0,.53-2.05.81-2.46,0A1.15,1.15,0,0,1,8.46,546.53Z"/>
          </g>
          <g>
            <path class="cls-10" d="M15.33,555.22c.28-.31.74-.27,1.32-.23s.89.07,1,.26c.12.43-1.71,1.64-2.29,1.21A1,1,0,0,1,15.33,555.22Z"/>
            <path class="cls-10" d="M18.44,556.3c.14-.15.38-.14.67-.11s.44,0,.47.12-.86.82-1.14.61A.48.48,0,0,1,18.44,556.3Z"/>
            <path class="cls-10" d="M17.55,558.44c.42-.08.76.24,1.18.64s.66.61.58.79c-.17.41-2.35.21-2.54-.48C16.68,559,17.1,558.51,17.55,558.44Z"/>
            <path class="cls-10" d="M15.76,558.28c0,.21-.26.3-.53.42s-.41.18-.48.11.36-1.12.72-1.07C15.65,557.76,15.81,558.06,15.76,558.28Z"/>
            <path class="cls-10" d="M14.21,560.42c.24-.29.67-.24,1.19-.17s.82.11.88.3c.13.42-1.49,1.52-2,1.08A1,1,0,0,1,14.21,560.42Z"/>
            <path class="cls-10" d="M12.52,556.59c.17-.26.51-.17.94-.05s.66.18.73.37c.14.41-1,1.31-1.52.83A1.14,1.14,0,0,1,12.52,556.59Z"/>
          </g>
          <path class="cls-10" d="M19.39,533.52c.45.13.64.62.88,1.23s.36.94.2,1.09c-.38.33-2.5-.94-2.35-1.73A1.1,1.1,0,0,1,19.39,533.52Z"/>
          <path class="cls-10" d="M18.79,537.49c.29-.18.59.09,1,.41s.58.51.55.73c0,.5-1.69.82-1.94.11A1.3,1.3,0,0,1,18.79,537.49Z"/>
          <path class="cls-10" d="M19.78,551.37c.5-.31,1,.14,1.68.71.5.44,1,.87.95,1.25-.1.85-2.92,1.4-3.34.18A2.23,2.23,0,0,1,19.78,551.37Z"/>
          <path class="cls-10" d="M22.52,540.05c.76.22,1.07,1,1.47,2.05.31.8.61,1.57.33,1.82-.63.55-4.16-1.57-3.9-2.89A1.81,1.81,0,0,1,22.52,540.05Z"/>
          <path class="cls-10" d="M21.48,548c.51-.2,1,.09,1.69.46.51.28,1,.56,1,.8-.1.54-2.94.9-3.37.11C20.54,548.92,20.93,548.16,21.48,548Z"/>
          <g>
            <path class="cls-10" d="M8.22,566.85c.53-.18,1.15.13,1.91.52.6.3,1.17.59,1.15.83,0,.53-3.12.77-3.69,0C7.3,567.77,7.64,567,8.22,566.85Z"/>
            <path class="cls-10" d="M11.92,569.83c.26-.09.57.06.95.26s.59.29.58.41-1.56.38-1.85,0A.49.49,0,0,1,11.92,569.83Z"/>
            <path class="cls-10" d="M9.66,571.61c.59.16.9.7,1.28,1.38.3.52.59,1,.4,1.19-.44.34-3.31-1.14-3.22-2C8.17,571.75,9,571.43,9.66,571.61Z"/>
            <path class="cls-10" d="M7.29,570.4c-.16.19-.5.17-.92.14s-.64,0-.7-.16,1-1,1.5-.74A.55.55,0,0,1,7.29,570.4Z"/>
            <path class="cls-10" d="M4.14,571.8c.47-.18,1,.13,1.71.51.53.3,1.05.59,1,.83,0,.53-2.76.78-3.28,0A1,1,0,0,1,4.14,571.8Z"/>
            <path class="cls-10" d="M3.74,566.68c.35-.18.77.12,1.3.5s.81.58.8.82c0,.53-2,.81-2.46,0A1.14,1.14,0,0,1,3.74,566.68Z"/>
          </g>
          <g>
            <path class="cls-10" d="M18.63,566.1c.51-.2,1,.09,1.69.45s1,.57,1,.81c-.1.54-2.95.9-3.38.11C17.69,567.07,18.08,566.31,18.63,566.1Z"/>
            <path class="cls-10" d="M21.68,569c.26-.09.52,0,.85.23s.5.28.48.41-1.47.45-1.69,0C21.21,569.48,21.41,569.1,21.68,569Z"/>
            <path class="cls-10" d="M17.39,569.75c-.17.2-.48.19-.86.18s-.58,0-.62-.13,1.07-1.07,1.45-.82A.58.58,0,0,1,17.39,569.75Z"/>
            <path class="cls-10" d="M14.35,571.3c.45-.19.92.1,1.5.46s.9.56.86.81c-.09.54-2.62.9-3,.11A1.23,1.23,0,0,1,14.35,571.3Z"/>
            <path class="cls-10" d="M14.56,566.1c.33-.2.69.09,1.13.45s.67.57.64.81c-.07.54-2,.9-2.26.11A1.38,1.38,0,0,1,14.56,566.1Z"/>
          </g>
          <path class="cls-10" d="M23.7,572.28c.76.22,1.08,1,1.47,2.05.31.79.61,1.57.33,1.81-.63.56-4.16-1.57-3.9-2.88A1.79,1.79,0,0,1,23.7,572.28Z"/>
          <path class="cls-10" d="M26,585.82c.5-.31,1,.15,1.67.71s1,.88,1,1.25c-.1.85-2.92,1.41-3.35.18A2.22,2.22,0,0,1,26,585.82Z"/>
          <g>
            <path class="cls-10" d="M11.26,575.64c.31-.34.82-.3,1.45-.26s1,.08,1,.29c.13.46-1.87,1.78-2.49,1.32A1.05,1.05,0,0,1,11.26,575.64Z"/>
            <path class="cls-10" d="M14.66,576.81c.15-.17.41-.15.72-.12s.49,0,.52.14-.93.89-1.24.66A.53.53,0,0,1,14.66,576.81Z"/>
            <path class="cls-10" d="M13.69,579.14c.45-.08.82.27,1.29.7s.71.66.63.86c-.19.45-2.57.24-2.77-.51C12.74,579.8,13.2,579.23,13.69,579.14Z"/>
            <path class="cls-10" d="M11.73,579c-.05.22-.28.32-.57.45s-.45.2-.52.12.39-1.23.78-1.17A.53.53,0,0,1,11.73,579Z"/>
            <path class="cls-10" d="M10.05,581.31c.26-.32.72-.26,1.3-.19s.89.12,1,.32c.14.47-1.62,1.67-2.21,1.19A1.09,1.09,0,0,1,10.05,581.31Z"/>
            <path class="cls-10" d="M8.2,577.12c.18-.28.56-.17,1,0s.72.2.79.4c.16.46-1.13,1.43-1.65.92A1.27,1.27,0,0,1,8.2,577.12Z"/>
          </g>
          <g>
            <path class="cls-10" d="M19.62,578.12c.26-.64,1-.84,1.93-1.08.72-.19,1.42-.38,1.6-.11.42.6-1.76,3.46-2.88,3.11A1.57,1.57,0,0,1,19.62,578.12Z"/>
            <path class="cls-10" d="M25,578.1c.13-.32.5-.42,1-.54s.71-.19.81,0c.21.3-.89,1.73-1.45,1.55A.77.77,0,0,1,25,578.1Z"/>
            <path class="cls-10" d="M24.81,581.89c.6-.33,1.31,0,2.18.36.68.3,1.35.59,1.33.91-.05.73-3.54,1.62-4.2.65A1.59,1.59,0,0,1,24.81,581.89Z"/>
            <path class="cls-10" d="M21.94,582.63c0,.35-.24.61-.59.94s-.54.5-.68.43c-.33-.17-.05-2,.53-2.06C21.49,581.88,21.9,582.26,21.94,582.63Z"/>
            <path class="cls-10" d="M20.7,586.79c.21-.59.9-.73,1.76-.91.67-.14,1.32-.28,1.51,0,.43.59-1.47,3.17-2.55,2.78A1.65,1.65,0,0,1,20.7,586.79Z"/>
            <path class="cls-10" d="M16,581.75c.12-.49.71-.53,1.44-.58.57,0,1.12-.08,1.32.17.45.57-.9,2.6-1.9,2.12A1.89,1.89,0,0,1,16,581.75Z"/>
          </g>
          <g>
            <path class="cls-10" d="M6.3,580.1c.28.27.28.76.28,1.38s0,.94-.15,1c-.36.16-1.52-1.66-1.19-2.3A.72.72,0,0,1,6.3,580.1Z"/>
            <path class="cls-10" d="M5.58,583.47c.15.13.15.38.15.68s0,.48-.08.51-.76-.83-.6-1.15A.36.36,0,0,1,5.58,583.47Z"/>
            <path class="cls-10" d="M3.7,582.7c.09.43-.16.82-.47,1.3s-.48.74-.64.67c-.36-.15-.34-2.46.24-2.71C3.13,581.83,3.6,582.24,3.7,582.7Z"/>
            <path class="cls-10" d="M3.71,580.8c-.17,0-.27-.25-.39-.52s-.18-.41-.13-.49,1,.29,1,.66A.41.41,0,0,1,3.71,580.8Z"/>
            <path class="cls-10" d="M1.79,579.35c.26.23.24.68.22,1.24s0,.87-.2.94c-.35.17-1.4-1.43-1.06-2A.75.75,0,0,1,1.79,579.35Z"/>
            <path class="cls-10" d="M5,577.26c.23.16.17.53.1,1s-.11.71-.26.79c-.35.19-1.19-1-.82-1.52A.86.86,0,0,1,5,577.26Z"/>
          </g>
          <g>
            <path class="cls-10" d="M11.42,583.9a3.82,3.82,0,0,1,2.54-.32c.87,0,1.71.09,1.81.36.24.61-3.28,2.32-4.38,1.71A1.11,1.11,0,0,1,11.42,583.9Z"/>
            <path class="cls-10" d="M17.4,585.43a1.93,1.93,0,0,1,1.27-.17c.43,0,.85,0,.91.19.11.3-1.64,1.15-2.19.85A.54.54,0,0,1,17.4,585.43Z"/>
            <path class="cls-10" d="M15.69,588.44a3.36,3.36,0,0,1,2.26.91c.64.44,1.26.86,1.12,1.12-.33.58-4.53.31-4.88-.67C14,589.3,14.82,588.56,15.69,588.44Z"/>
            <path class="cls-10" d="M12.24,588.23c-.09.29-.5.42-1,.59s-.78.26-.91.16c-.3-.23.69-1.59,1.37-1.52A.66.66,0,0,1,12.24,588.23Z"/>
            <path class="cls-10" d="M9.28,591.25c.46-.41,1.28-.34,2.29-.24.79.08,1.56.15,1.67.42.25.6-2.84,2.16-3.88,1.53A1.14,1.14,0,0,1,9.28,591.25Z"/>
            <path class="cls-10" d="M6,585.83c.31-.36,1-.23,1.8-.06.65.13,1.27.25,1.39.51.28.59-2,1.86-2.9,1.19A1.3,1.3,0,0,1,6,585.83Z"/>
          </g>
          <path class="cls-10" d="M1.81,573.29c.49.14.69.67.94,1.32s.4,1,.22,1.17c-.41.35-2.68-1-2.51-1.86A1.16,1.16,0,0,1,1.81,573.29Z"/>
        </g>
      </g>
      <g id="koral7">
        <path class="cls-4" d="M15.13,617.66s1.08,3.17,4.57,1.4c0,0,3.24,6.44,6.85.54,0,0,6.25,2.5,7.22-3.39a2.2,2.2,0,0,0,1.62-1.83s3.34-.26,3.67.87,3.48-.12,3.48-.12a5.67,5.67,0,0,0,.85-5.89s3.24-7.54-2.29-6.84c0,0-.11-1.74-2.7-3.34,0,0,2-5.79-4.15-5.68,0,0-3-6-6.66-2.06,0,0-1.16-3.13-5.37-2.4,0,0-3.12-4.65-7.09.44,0,0-2,0-2.3,1.06,0,0-3.59-3.36-6.72,1.71,0,0-4-4.22-6.25,3.5,0,0-4.09,1.11-3.13,4.35,0,0-2.35.18-2.74,1.17s-2.55,1.11-1.11,4.24a4,4,0,0,0,2.2,5.89s-.87,3.92,2.25,3.1c0,0,2.53,5.85,6,4.68,0,0,5.78.64,5.48-1.89C8.82,617.17,12,620.66,15.13,617.66Z"/>
        <path class="cls-6" d="M16.51,597.5s3.15-6,6.81.64C23.32,598.14,20.23,592.31,16.51,597.5Z"/>
        <path class="cls-6" d="M12.41,592.38s.47-6.62,5.92-.88C18.33,591.5,14.48,587.13,12.41,592.38Z"/>
        <path class="cls-6" d="M2.19,605s-2.8-8.91,3.49-6.81C5.68,598.14.55,596.46,2.19,605Z"/>
        <path class="cls-6" d="M8.82,600.06s1.92-7.42,6.64-1.92C15.46,598.14,11.87,593.36,8.82,600.06Z"/>
        <path class="cls-6" d="M26.64,597.82s8.3-7.16,7.78,3.57C34.42,601.39,35.24,591.88,26.64,597.82Z"/>
        <path class="cls-6" d="M36.07,599.06s7.34,0,3.76,6.42C39.83,605.48,43.17,600.12,36.07,599.06Z"/>
        <path class="cls-6" d="M27.15,592.58s4.13-6.64,6.74,1.54C33.89,594.12,31.05,587.91,27.15,592.58Z"/>
        <path class="cls-6" d="M23.93,600.06s4.33-5.46,5.84,2C29.77,602.05,28.62,595.34,23.93,600.06Z"/>
        <path class="cls-6" d="M.44,610.19c1-7.8,6.29-3.6,6.29-3.6S1.94,603.33.44,610.19Z"/>
        <path class="cls-6" d="M7.25,607.82s1.31-7.76,6.64-2.87C13.89,605,9.52,600.57,7.25,607.82Z"/>
        <path class="cls-6" d="M14.68,604.69s2-7,6.72-.87C21.4,603.82,17.43,598.29,14.68,604.69Z"/>
        <path class="cls-6" d="M20.51,605.48s3.23-5.23,7.08,1.27C27.59,606.75,24.57,600.88,20.51,605.48Z"/>
        <path class="cls-6" d="M28.13,604.17s5.55-4.76,6.31,2.42C34.44,606.59,34.07,600.26,28.13,604.17Z"/>
        <path class="cls-6" d="M39,608.27s6.51-1.75,4,6.11C43.08,614.38,45.23,607,39,608.27Z"/>
        <path class="cls-6" d="M30.54,609.58s6.35-2.62,4.85,4.8C35.39,614.38,36.72,607.81,30.54,609.58Z"/>
        <path class="cls-6" d="M19.92,611.24s3.73-5.76,6.93-.7C26.85,610.54,24.4,606,19.92,611.24Z"/>
        <path class="cls-6" d="M8.62,613.67s2.72-3.48,5.66-.4A4.59,4.59,0,0,0,8.62,613.67Z"/>
        <path class="cls-6" d="M6.11,592.13s3.05-4.67,6.72-1.71C12.83,590.42,8.69,588.85,6.11,592.13Z"/>
        <path class="cls-6" d="M-.14,595.63s2.12-7.48,6.25-3.5C6.11,592.13,2.69,589-.14,595.63Z"/>
        <path class="cls-6" d="M27.59,612.43s3.88.18,4.6,1.24C32.19,613.67,30.83,611.78,27.59,612.43Z"/>
        <path class="cls-6" d="M2.35,611.76s3.43.82,4,1.57C6.32,613.33,5.77,612.12,2.35,611.76Z"/>
        <path class="cls-6" d="M19,587s1.71-.19,3.27,1.94a6,6,0,0,1,3.55.44s-2.76-.55-3.62,0A6.44,6.44,0,0,0,19,587Z"/>
      </g>
      <g>
        <g>
          <path class="cls-1" d="M289.49,585.31s-5.48,7.61-5.56,11.49,3.15,8.34,3.15,8.34l5.25,3.26,3.19-8.06"/>
          <path class="cls-2" d="M289.93,585.06s-1,0-.44,1.65a5.33,5.33,0,0,1,0,3.1s-.88,2.63.14,3.82,1,1.16,1.28,2-.08,2.19.2,2.71,2,3.92,2,3.92l2.4-2-.83-1.26s.11-3.38-.32-4.3-1.43-1.83-1.45-2.6S291.7,585.5,289.93,585.06Z"/>
          <path class="cls-1" d="M291.22,590.84a6,6,0,0,1-2.65,3.72,3.15,3.15,0,0,1-.56.26"/>
          <path class="cls-1" d="M293,596.12c-.08.36-.71,3.09-2.77,3.73a3.07,3.07,0,0,1-.87.13"/>
          <path class="cls-3" d="M291.19,598c-.25-.48.07-1.69-.17-2.51a3.84,3.84,0,0,0-1.1-1.89c-.88-1.1-.13-3.54-.13-3.54a5.22,5.22,0,0,0,0-2.86c-.45-1.52.38-1.53.38-1.53,1.52.41,2.55,5.87,2.57,6.59s.89,1.56,1.26,2.4a16.63,16.63,0,0,1,.27,4l1.11,1.82.14-.11-.83-1.26s.11-3.38-.32-4.3-1.43-1.83-1.45-2.6-1.22-6.68-3-7.12c0,0-1,0-.44,1.65a5.33,5.33,0,0,1,0,3.1s-.88,2.63.14,3.82,1,1.16,1.28,2-.08,2.19.2,2.71,2,3.92,2,3.92l.25-.21C292.88,601.17,291.39,598.39,291.19,598Z"/>
          <path class="cls-2" d="M288.74,590.24a6.87,6.87,0,0,1-1.88,3.82,5,5,0,0,1-.5.43"/>
          <path class="cls-2" d="M289.74,595.53a7.81,7.81,0,0,1-3.25,4.2,6.27,6.27,0,0,1-.82.41"/>
          <path class="cls-2" d="M292,600.66a8.26,8.26,0,0,1-3.19,4.61,7.25,7.25,0,0,1-1.42.75"/>
          <path class="cls-4" d="M273.5,574.88s-1.06,2.09,0,8.56a80.5,80.5,0,0,1,.77,13.74l2.82,3.11,3.93,2.4,2.7-1.11s1.26-8.77,4.24-12.76S273.5,574.88,273.5,574.88Z"/>
          <path class="cls-5" d="M274.75,572.59s-3.48,3.61.16,8.44a4.79,4.79,0,0,0,2.46,2.24,13.42,13.42,0,0,1,1.85,3.17c.24.58.78,2.45,2.87,2.15.61,0,1.39-1,1.39-1s1.31.17,1.56.58a3,3,0,0,0,2.91.62c1.23-.41,1.54-3.94,1.54-3.94a16.53,16.53,0,0,0-4-7.66c-3.44-4-6.15-4.88-6.15-4.88A4.37,4.37,0,0,0,274.75,572.59Z"/>
          <path class="cls-6" d="M276.67,573.77a41,41,0,0,0,1.2,8.55c.21.83.44,1.63.68,2.4"/>
          <path class="cls-6" d="M280.39,575.83a21.49,21.49,0,0,1,0,7,18.22,18.22,0,0,1-.38,1.82"/>
          <path class="cls-6" d="M286.74,582.26a23.06,23.06,0,0,1-1.15,4.32c-.17.45-.34.87-.53,1.28"/>
          <path class="cls-6" d="M284.07,579.47a25.66,25.66,0,0,0-1.36,6.26c0,.45-.07.9-.09,1.34"/>
          <path class="cls-7" d="M285.53,577.22c-3.44-4-6.15-4.88-6.15-4.88a4.37,4.37,0,0,0-4.63.25s-3.48,3.61.16,8.44a4.79,4.79,0,0,0,2.46,2.24,13.42,13.42,0,0,1,1.85,3.17c.24.58.78,2.45,2.87,2.15.61,0,1.39-1,1.39-1s1.31.17,1.56.58a3,3,0,0,0,2.91.62c1.23-.41,1.54-3.94,1.54-3.94A16.53,16.53,0,0,0,285.53,577.22Zm2,10.82a2.86,2.86,0,0,1-2.73-.57c-.23-.38-1.45-.54-1.45-.54s-.73.89-1.31.89a2.46,2.46,0,0,1-2.69-2,12.28,12.28,0,0,0-1.72-2.93,4.36,4.36,0,0,1-2.3-2.06c-3.42-4.46-.16-7.79-.16-7.79a4.14,4.14,0,0,1,4.34-.22s2.53.83,5.75,4.49a15.06,15.06,0,0,1,3.71,7.07S288.68,587.66,287.53,588Z"/>
          <path class="cls-6" d="M283.93,589.18a37,37,0,0,0-3.17,11.29c-.07.59-.11,1.16-.13,1.7"/>
          <path class="cls-6" d="M277.6,584.93a39.73,39.73,0,0,1-.28,14c-.08.42-.18.83-.27,1.23"/>
        </g>
        <path class="cls-8" d="M292,605.27l1.37-.1a2.3,2.3,0,0,0,1.26-1.42c.07-.8-.63-1.09-.8-1.51a6.24,6.24,0,0,1,.35-2.51,1.45,1.45,0,0,0,.1-1.1c-.11-.32-.29-1.5.13-2s.44-.45.65-.13-.35,1.29-.36,1.55,0,.9.27,1.06,1.24-.58,1.39-.82a2,2,0,0,0,.37-1c0-.4.09-1.9.71-1.72s-.29,1.24-.13,1.64.68.24.89.13,1.3-1,1.72-.87.05.66-.29.9a7.69,7.69,0,0,1-2.19.95,1.72,1.72,0,0,0-1.08.74c-.16.13-1.27.52-1.39.89s-.43,2.17-.09,2.62a1,1,0,0,0,1.18.39c.3-.19.7-.37,1-1.48s.72-2,1.59-2.08a3,3,0,0,0,1.59-.5c0-.11,1.1-1.3,1.45-1s.1.53-.19.76-.55.85-2.72,1.13c-1.12.67-1.39,1.4-1.12,1.64s1.23,0,1.55-.28.6-.35.66-.17a.56.56,0,0,1-.51.66,6.19,6.19,0,0,0-1.94.58c-.14.19-.74.54-.36,1.3.6.42,1.57-.29,1.57-.29s1.21-1.16,1.45-1.06.26.69.08.9a3.42,3.42,0,0,1-1.67,1c-.68.07-1.71-.3-2-.19s-1,.32-1,.67-.91,1.14-1.21,1.37.44.61.69.72a5.17,5.17,0,0,0,1.45.39c.15-.07,1.13-.92,1.47-.94s.71-.19.79.16-1.37,1-1.37,1l.35.71a3.84,3.84,0,0,0,1.12-.32c.22-.18,1-.29,1.11,0s0,.87-.74.94a16,16,0,0,1-1.91,0l-4.81-2.24Z"/>
        <path class="cls-8" d="M275.14,599l-2.21-.17a3.72,3.72,0,0,1-2.05-2.3c-.11-1.28,1-1.74,1.3-2.43a9.82,9.82,0,0,0-.56-4.06,2.36,2.36,0,0,1-.17-1.77c.19-.51.47-2.43-.2-3.2s-.71-.72-1.05-.21.56,2.09.57,2.51.06,1.45-.43,1.71-2-.94-2.24-1.32a3.39,3.39,0,0,1-.6-1.71c0-.64-.14-3.06-1.15-2.77s.47,2,.22,2.64-1.11.39-1.45.22-2.09-1.71-2.77-1.41-.08,1.07.47,1.45a11.74,11.74,0,0,0,3.53,1.53,2.8,2.8,0,0,1,1.75,1.21c.26.2,2,.84,2.24,1.44s.7,3.51.15,4.22a1.57,1.57,0,0,1-1.9.63c-.49-.3-1.13-.59-1.62-2.38s-1.17-3.24-2.57-3.37a4.74,4.74,0,0,1-2.56-.81c0-.17-1.79-2.09-2.34-1.66s-.17.85.29,1.24.9,1.37,4.39,1.81c1.81,1.09,2.26,2.28,1.81,2.66s-2,0-2.49-.46-1-.56-1.06-.27a.9.9,0,0,0,.8,1.07,9.41,9.41,0,0,1,3.14.94c.23.3,1.21.86.59,2.09-1,.68-2.53-.47-2.53-.47s-2-1.88-2.35-1.71-.42,1.11-.12,1.45a5.38,5.38,0,0,0,2.68,1.58c1.11.12,2.76-.47,3.26-.3s1.55.52,1.59,1.09,1.47,1.83,1.95,2.2-.71,1-1.11,1.17a8.39,8.39,0,0,1-2.34.63c-.24-.11-1.82-1.48-2.37-1.52s-1.15-.31-1.28.25,2.22,1.54,2.22,1.54l-.58,1.14a6.09,6.09,0,0,1-1.81-.5c-.34-.29-1.57-.48-1.79,0s0,1.4,1.2,1.51a26.54,26.54,0,0,0,3.09,0l7.77-3.62Z"/>
        <g>
          <path class="cls-9" d="M277.82,593.68c.07-.43.75-4.41,2.73-4.71a2.34,2.34,0,0,1,1.7.57c1.89,1.43,1.56,4.6,1.23,7.73s-1,3.64-1.42,3.86A2.57,2.57,0,0,1,280,601C277.78,600,277.42,596.17,277.82,593.68Z"/>
          <path class="cls-9" d="M286.19,592c.15-.11,2.25-1.58,3.43-.81.61.4.7,1.21.81,2.36a11.43,11.43,0,0,1-1.13,6c-.69,1.41-1.13,2.32-2.15,2.69a3.22,3.22,0,0,1-3.11-.65C282,599.66,283.12,594.17,286.19,592Z"/>
          <path class="cls-9" d="M291.5,597.77c2.13.59,3,3.2,2.74,5.1-.45,2.84-3.73,5.14-6,4.24-2-.81-2.78-4-1.77-6.33C287.27,599.05,289.33,597.17,291.5,597.77Z"/>
          <path class="cls-9" d="M288.82,607.16c2.25-1.9,5.87-1.32,7.83.38.43.37,1.54,1.33,1.4,2.41-.25,1.9-4.09,2.56-4.57,2.63-1.8.29-5.59.37-6.33-1.55C286.65,609.7,287.82,608,288.82,607.16Z"/>
          <path class="cls-9" d="M275,595.13a10.82,10.82,0,0,1,4.45,7.26c.24,1.24.42,2.24-.14,2.8-1.31,1.31-5.61-.81-8.19-2.66s-6.84-5.78-5.82-7.83C266.25,592.84,271.53,592.87,275,595.13Z"/>
          <path class="cls-9" d="M277.24,601a3.45,3.45,0,0,1,3.76-1.88,2.5,2.5,0,0,1,1,.7c1.53,1.58,1.06,4.1,1,4.29-.24,1.18-1.12,3.42-2.58,3.49s-2.49-2.07-2.79-2.68C277.25,604,276.5,602.46,277.24,601Z"/>
          <path class="cls-9" d="M280.91,603.25c2.21-4.42,2.16-5.88,3.09-6,1.16-.11,2.27,2.06,2.66,3.16a7.32,7.32,0,0,1-.57,5.82c-.56,1-1.49,2.64-3,2.66a3.44,3.44,0,0,1-3-3C280,605.05,280.29,604.5,280.91,603.25Z"/>
          <path class="cls-9" d="M279.19,611.37a4.21,4.21,0,0,1,5.31,1.22,3.68,3.68,0,0,1,0,3.95c-1.59,2.35-6.44,2.1-7.54-.07C276.2,615,277.15,612.38,279.19,611.37Z"/>
          <path class="cls-9" d="M282.25,609.9c-.19-2.5-2.83-3.81-4.62-4a3.93,3.93,0,0,0-2.17.38,4.45,4.45,0,0,0-2.07,5,4.63,4.63,0,0,0,5.66,3A4.46,4.46,0,0,0,282.25,609.9Z"/>
          <path class="cls-9" d="M282.06,606.79c1-1.89,3.24-4,5.1-3.49a3.74,3.74,0,0,1,2,2.08,7,7,0,0,1,.28,5.09,6,6,0,0,1-2.26,3.68c-1,.68-2.85,1.39-4.25.66C280.71,613.65,280.67,609.45,282.06,606.79Z"/>
          <path class="cls-9" d="M270.6,610.8a10.84,10.84,0,0,1-6.35-5.67c-.58-1.13-1.05-2-.67-2.73.88-1.63,5.61-.84,8.61.2s8.21,3.58,7.82,5.83C279.66,610.48,274.59,612,270.6,610.8Z"/>
          <g>
            <path class="cls-10" d="M276.77,597.29a10.43,10.43,0,0,1,2.3,3.15S278.67,598,276.77,597.29Z"/>
            <path class="cls-10" d="M276.38,601.4s.78-2.23,2.83-1.93C279.21,599.47,278.25,599.08,276.38,601.4Z"/>
            <path class="cls-10" d="M279.81,599.73a10.43,10.43,0,0,1,2.3,3.15S281.71,600.4,279.81,599.73Z"/>
            <path class="cls-10" d="M281.21,598.87s.8-1.48,1.72-1.56A6.26,6.26,0,0,0,281.21,598.87Z"/>
            <path class="cls-10" d="M286.41,601.14a4.41,4.41,0,0,1,3.16-3A10.11,10.11,0,0,0,286.41,601.14Z"/>
            <path class="cls-10" d="M286.41,603.27s1.58-.69,3.16,2.12A6.25,6.25,0,0,0,286.41,603.27Z"/>
            <path class="cls-10" d="M282.11,610.75a4.4,4.4,0,0,0-3.2-4.59S283,606.27,282.11,610.75Z"/>
            <path class="cls-10" d="M289.57,606.34s.32,3.65,0,4.12A5.57,5.57,0,0,0,289.57,606.34Z"/>
            <path class="cls-10" d="M285.31,598.09a28.7,28.7,0,0,1,1.1,4.09S286.58,598.85,285.31,598.09Z"/>
            <path class="cls-10" d="M281.71,608.34s-1-1.42,1.46-3.51A6.17,6.17,0,0,0,281.71,608.34Z"/>
            <path class="cls-10" d="M276.42,606.55a4.41,4.41,0,0,0-2.94,4.75S272,607.51,276.42,606.55Z"/>
            <path class="cls-10" d="M271.55,602.39s4.17,1.22,5.43,2.44"/>
          </g>
        </g>
      </g>
    </g>
  </g>
</svg>
