<svg id="Layer_1" data-name="Layer 1" xmlns="http://www.w3.org/2000/svg" width="375" height="667" viewBox="0 0 375 667">
  <defs>
    <style>
      .forgrund_cls-1 {
        fill: #3b372a;
      }

      .forgrund_cls-2 {
        fill: #b1a37e;
      }

      .forgrund_cls-3 {
        fill: #766d54;
      }

      .forgrund_cls-4 {
        fill: #ecdaa8;
      }

      .forgrund_cls-5 {
        fill: #d9d2c0;
      }

      .forgrund_cls-6 {
        fill: #fbf8ee;
      }

      .forgrund_cls-7 {
        fill: #a39e90;
      }

      .forgrund_cls-8 {
        fill: #f0e1b9;
      }
    </style>
  </defs>
  <title>Artboard 1</title>
  <g id="forgrund">
    <g id="ship">
      <path class="forgrund_cls-1" d="M0,525s73-28,79-37,35,50,35,50-13,51-35,68S0,525,0,525Z"/>
      <path d="M85,502s17,24,24,40"/>
      <path d="M85,516s19,31,19,35"/>
      <path d="M83,494s6,75-11,110"/>
      <path d="M85,534s12.75,17.4,18,29"/>
      <path d="M85,547s10.2,14.4,14.4,24"/>
      <path d="M84,560s7.79,13.2,11,22"/>
      <path d="M81,502s-47,16-63,28"/>
      <path d="M78,516s-42.52,13.71-57,24"/>
      <path d="M75,531s-33.66,10.86-45.12,19"/>
      <path d="M75,544s-33.66,10.86-45.12,19"/>
      <path d="M72,559s-33.66,10.86-45.12,19"/>
    </g>
    <path class="forgrund_cls-2" d="M54.72,586c-2.62-14.55,3.4-23.46-1.46-37a36.14,36.14,0,0,0-6.54-11C33.33,521.61,10.1,511,0,506.81V629c6.12-.2,15-.68,25.63-2,23.7-2.84,39.79-5,41.45-14C68.48,605.37,57.76,602.89,54.72,586Z"/>
    <path class="forgrund_cls-3" d="M0,592.5l69.38,3.71c-4.45-.82-11-2.14-19-4.18-5.63-1.45-9.61-2.73-10.45-2.91a94.55,94.55,0,0,0-40,.29Z"/>
    <g id="forgrund-2" data-name="forgrund">
      <path id="front" class="forgrund_cls-4" d="M0,591.9c52.69-1.78,83.59,6.87,102.27,15.44,7.29,3.35,13,6.82,24.07,9.13,26,5.43,42.12-3.87,76.2-9.13,38-5.85,32.73,3.42,81.22-2.1C304.12,602.92,325,599,358,599.62c7.24.14,13.17.46,17.05.7V667H0Z"/>
      <g>
        <g>
          <path class="forgrund_cls-5" d="M328,624.68s-.54-2.92,1.59-3.89,3.08-1.74,3.37-2.51,1.74,0,2.13.58.48-.39,1.06.77,1.45,1.35,1.45,1.69,2.22,1,2.22,2,2.21.25,1.93,1.38,1.64.45,1.64,1.51,1.64.29,2,1.45,2.9,1.26,2,2-1.74,1.93-2.41,1.74.19,2.7-3,3.57S328,624.68,328,624.68Z"/>
          <path class="forgrund_cls-6" d="M322.2,623a3.83,3.83,0,0,0-2.71,1.93c-1,1.74-2.5-.58-3.47,3.57,0,0-3.38.1-2.8,3a4.62,4.62,0,0,1-1.83,4.54s-1.64.09,1.06,3.47c0,0,.39,1.74,0,2s-1.64-.29.29,1.64,1.25,2.6,1.25,2.6.38,2.8,2.56,3.67.82,0,.82,0a3.2,3.2,0,0,1,2.41,1.45,7.68,7.68,0,0,0,2,2.6c1.16,1.06,3.86,0,3.86,0s4.73,2.59,6,.47a1.82,1.82,0,0,1,3-.47,5.15,5.15,0,0,0,3.67-1.16c1.35-1.35,0-1.83,0-1.83s3.38.87,4.63-1.35v-1.93l1.55-1.25s-2.32-10.23-2-11.78,2.12-12.44-11.58-10.61C330.88,623.59,324.42,623.88,322.2,623Z"/>
        </g>
        <path class="forgrund_cls-5" d="M333.42,624.51c-2.37.38-4.75.7-7.14.93-1.19.12-2.39.25-3.6.26a12.49,12.49,0,0,1-3.59-.4v0a23.64,23.64,0,0,0,3.57,0l3.58-.17q3.58-.25,7.16-.66Z"/>
        <path class="forgrund_cls-5" d="M334.92,625a76.81,76.81,0,0,1-9.87,2.75c-1.67.37-3.36.65-5.06.86a38.29,38.29,0,0,1-5.13.22v0c1.7-.18,3.39-.32,5.08-.58s3.37-.47,5-.77A86.64,86.64,0,0,0,334.9,625Z"/>
        <path class="forgrund_cls-5" d="M336.26,625.9c-3.83,1.66-7.69,3.28-11.57,4.82-1.94.79-3.89,1.55-5.86,2.24-1,.33-2,.65-3,.94a16.91,16.91,0,0,1-3.06.68v0a50.34,50.34,0,0,0,5.94-2l5.87-2.15c3.91-1.48,7.8-3,11.68-4.56Z"/>
        <path class="forgrund_cls-5" d="M334,628.84c-3.55,2.38-7.16,4.69-10.8,6.93-1.82,1.13-3.65,2.23-5.52,3.29s-3.77,2-5.72,2.9l0,0,11.09-6.43q5.52-3.27,10.95-6.69Z"/>
        <path class="forgrund_cls-5" d="M334,631.78l-8.53,8.93q-2.13,2.24-4.29,4.44c-1.46,1.45-2.92,2.9-4.44,4.29l0,0c1.36-1.55,2.77-3,4.19-4.54s2.88-2.94,4.34-4.39l8.73-8.72Z"/>
        <path class="forgrund_cls-5" d="M338.17,629.73q-3.45,5.74-6.74,11.58c-1.07,2-2.15,3.9-3.18,5.88a40,40,0,0,0-2.85,6h0a15.49,15.49,0,0,1,1.11-3.17c.44-1,.93-2,1.42-3,1-2,2.13-3.93,3.27-5.85q3.38-5.79,7-11.44Z"/>
        <path class="forgrund_cls-5" d="M338.67,631.78,335,642.67l-1.79,5.46-.92,2.73a19,19,0,0,0-.76,2.75h0a13,13,0,0,1,.54-2.84c.24-.93.52-1.85.8-2.77q.88-2.75,1.87-5.44,1.92-5.43,4-10.81Z"/>
        <path class="forgrund_cls-5" d="M340.51,630.22a85.88,85.88,0,0,1-.75,11.1c-.29,1.85-.69,3.63-.87,5.47s-.36,3.68-.42,5.53h0a32.38,32.38,0,0,1,.06-5.57c.11-.93.23-1.85.4-2.76s.4-1.81.55-2.72c.32-1.82.51-3.66.68-5.51s.28-3.69.35-5.54Z"/>
        <path class="forgrund_cls-5" d="M341.31,627.67a15.22,15.22,0,0,1,.39,6v0c.08,3.08.22,6.15.25,9.23v0c.11.81.24,1.62.37,2.42a14.78,14.78,0,0,0,.54,2.39l0,0a11.71,11.71,0,0,1-.76-2.35c-.2-.8-.35-1.61-.5-2.42h0v0c-.08-3.07-.05-6.15-.08-9.22h0a15.14,15.14,0,0,0-.21-6Z"/>
        <path class="forgrund_cls-7" d="M331.1,622.25a23.24,23.24,0,0,1,1.54-1.9,6,6,0,0,1,.88-.86,2.22,2.22,0,0,1,1.16-.48v0a7.35,7.35,0,0,0-.92.75c-.28.27-.6.51-.91.78-.59.54-1.17,1.11-1.73,1.7Z"/>
        <path class="forgrund_cls-7" d="M334.34,621.28c.24-.25.49-.49.75-.73a2.07,2.07,0,0,1,.39-.34,1.43,1.43,0,0,1,.53-.16l0,0a1.34,1.34,0,0,1-.31.45,1.83,1.83,0,0,1-.44.28c-.3.18-.6.34-.92.5Z"/>
        <path class="forgrund_cls-7" d="M343.88,628.32a2.68,2.68,0,0,1,.19-.42c0-.07.05-.15.12-.19a.41.41,0,0,1,.28,0l0,0a.46.46,0,0,1,0,.29c0,.07-.12.09-.18.13a3.26,3.26,0,0,1-.4.24Z"/>
        <path class="forgrund_cls-7" d="M343.07,630.86c.29-.46.58-.91.88-1.36a3.65,3.65,0,0,1,.46-.65,3,3,0,0,1,.63-.53l0,0a2.65,2.65,0,0,1-.35.74,4.3,4.3,0,0,1-.52.61c-.36.4-.72.79-1.09,1.18Z"/>
      </g>
    </g>
    <path class="forgrund_cls-2" d="M116.61,613.21a66,66,0,0,1,31.55,11.41c.47.33,2.59,2.17,5.7,4.56,4.37,3.36,8.1,5.92,10.64,7.6"/>
    <path class="forgrund_cls-2" d="M266.1,606.52c-6.91-1.09-20.33-2.09-33.94,4.74a51.12,51.12,0,0,0-8.68,5.52"/>
    <path class="forgrund_cls-8" d="M23.6,609.44c.22-1.16,14.08-2,21.57,5.52,1.38,1.39,1.25,1.76,2.63,2.89,4.73,3.87,10.23,2.72,16.83,3.16,3.56.24,10,.67,16.31,4.21s10.7,9.19,18.78,10.78l1.47.26c8.46,1.5,10.12,1.35,13.16,2.37,3.23,1.09,6.22,2.91,6.05,3.42-.34,1-11.07-4.52-22.63-1-2.65.8-2.44,1.19-3.94,1.31-7.33.6-9.87-9-19.73-12.62-3.95-1.44-2.85.37-12.89-1.05-9-1.27-14.51-2.06-19.46-6-3.79-3.06-3.24-4.78-7.89-8.16C28.12,610.26,23.47,610.11,23.6,609.44Z"/>
    <path class="forgrund_cls-8" d="M281.18,619.48c-.13-.69-8.39-1.21-12.86,3.29a18,18,0,0,1-1.56,1.73c-2.83,2.3-6.1,1.62-10,1.88a22.22,22.22,0,0,0-9.72,2.51c-3.8,2.12-6.38,5.48-11.2,6.43l-.87.15c-5,.89-6,.81-7.84,1.41s-3.72,1.74-3.61,2c.2.57,6.6-2.69,13.48-.62,1.59.47,1.46.71,2.36.78,4.37.35,5.88-5.39,11.76-7.53,2.35-.85,1.7.22,7.68-.62,5.34-.76,8.65-1.23,11.6-3.61,2.26-1.82,1.94-2.85,4.71-4.86C278.49,620,281.26,619.88,281.18,619.48Z"/>
    <path class="forgrund_cls-8" d="M268.3,638.1c-.13-.69-8.39-1.21-12.85,3.29a18,18,0,0,1-1.57,1.72c-2.82,2.31-6.1,1.62-10,1.89a22.21,22.21,0,0,0-9.72,2.5c-3.8,2.13-6.37,5.49-11.19,6.43l-.88.16c-5,.89-6,.8-7.84,1.41s-3.71,1.73-3.61,2c.2.57,6.6-2.7,13.49-.63,1.58.48,1.45.71,2.35.79,4.37.35,5.88-5.4,11.76-7.53,2.36-.85,1.7.22,7.68-.63,5.34-.75,8.65-1.22,11.6-3.6,2.26-1.82,1.94-2.85,4.71-4.86C265.61,638.59,268.38,638.5,268.3,638.1Z"/>
  </g>
</svg>
