<svg id="hearth" xmlns="http://www.w3.org/2000/svg" width="100%" height="100%" viewBox="0 0 200 200">
  <defs>
    <style>
      .heart_cls-1 {
        fill: #c1507a;
        stroke: #61283d;
        stroke-miterlimit: 10;
        stroke-width: 2px;
      }
    </style>
  </defs>
  <title>heart</title>
  <path class="heart_cls-1" d="M190,73c-.34-15.47-12.62-40.92-33-45C137,24,111.26,41.73,100,74a.06.06,0,0,0,0,0h0a.06.06,0,0,0,0,0C88.74,41.73,63.05,24,43,28,22.62,32.08,10.34,57.53,10,73c-1,45.94,39.89,84.89,89.8,108.9a.14.14,0,0,0,.2-.13v0a.12.12,0,0,0,.17.11C150.09,157.91,191,119,190,73Z"/>
</svg>
