<svg id="Layer_1" data-name="Layer 1" xmlns="http://www.w3.org/2000/svg" width="100%" height="100%" viewBox="0 0 350 200">
  <defs>
    <style>
      .cls-1 {
        fill: #292933;
      }
    </style>
  </defs>
  <title>school_of_fish</title>
  <g>
    <g>
      <ellipse class="cls-1" cx="56.05" cy="72.98" rx="18.55" ry="8.25"/>
      <polygon class="cls-1" points="94.34 64.81 94.28 72.97 94.23 81.14 87.18 77.01 80.14 72.88 87.24 68.84 94.34 64.81"/>
      <path class="cls-1" d="M66.25,66.18l17,5.15a1.63,1.63,0,0,1,0,3.12l-17,5.32a1.63,1.63,0,0,1-2.12-1.56V67.74A1.63,1.63,0,0,1,66.25,66.18Z"/>
    </g>
    <g>
      <ellipse class="cls-1" cx="74.17" cy="100.16" rx="13.91" ry="6.19"/>
      <polygon class="cls-1" points="102.89 94.03 102.85 100.16 102.81 106.29 97.52 103.19 92.23 100.09 97.56 97.06 102.89 94.03"/>
      <path class="cls-1" d="M81.82,95.06l12.73,3.86a1.23,1.23,0,0,1,0,2.35l-12.73,4a1.23,1.23,0,0,1-1.59-1.17V96.23A1.22,1.22,0,0,1,81.82,95.06Z"/>
    </g>
    <g>
      <ellipse class="cls-1" cx="88.89" cy="54.1" rx="16.41" ry="7.3"/>
      <polygon class="cls-1" points="122.76 46.88 122.71 54.1 122.66 61.33 116.43 57.67 110.19 54.02 116.48 50.45 122.76 46.88"/>
      <path class="cls-1" d="M97.91,48.09l15,4.56a1.44,1.44,0,0,1,0,2.76l-15,4.71A1.45,1.45,0,0,1,96,58.74V49.47A1.45,1.45,0,0,1,97.91,48.09Z"/>
    </g>
    <g>
      <ellipse class="cls-1" cx="54.27" cy="120.37" rx="18.55" ry="8.25"/>
      <polygon class="cls-1" points="92.56 112.2 92.5 120.37 92.45 128.54 85.4 124.41 78.35 120.27 85.46 116.24 92.56 112.2"/>
      <path class="cls-1" d="M64.47,113.57l17,5.15a1.64,1.64,0,0,1,0,3.13l-17,5.32a1.63,1.63,0,0,1-2.12-1.56V115.14A1.64,1.64,0,0,1,64.47,113.57Z"/>
    </g>
    <g>
      <ellipse class="cls-1" cx="76.02" cy="147.58" rx="19.97" ry="8.88"/>
      <polygon class="cls-1" points="117.24 138.79 117.17 147.58 117.11 156.38 109.53 151.93 101.94 147.48 109.59 143.13 117.24 138.79"/>
      <path class="cls-1" d="M87,140.26l18.26,5.55a1.76,1.76,0,0,1,0,3.36L87,154.9a1.76,1.76,0,0,1-2.28-1.68V142A1.76,1.76,0,0,1,87,140.26Z"/>
    </g>
    <g>
      <ellipse class="cls-1" cx="126.72" cy="122.43" rx="13.92" ry="6.19"/>
      <polygon class="cls-1" points="155.46 116.3 155.41 122.43 155.37 128.56 150.08 125.46 144.79 122.36 150.13 119.33 155.46 116.3"/>
      <path class="cls-1" d="M134.37,117.33l12.74,3.86a1.23,1.23,0,0,1,0,2.35l-12.74,4a1.22,1.22,0,0,1-1.59-1.17V118.5A1.22,1.22,0,0,1,134.37,117.33Z"/>
    </g>
    <g>
      <ellipse class="cls-1" cx="141.99" cy="154.98" rx="15.3" ry="6.8"/>
      <polygon class="cls-1" points="173.56 148.24 173.52 154.98 173.47 161.72 167.66 158.31 161.85 154.9 167.71 151.57 173.56 148.24"/>
      <path class="cls-1" d="M150.39,149.37l14,4.25a1.35,1.35,0,0,1,0,2.58l-14,4.38a1.34,1.34,0,0,1-1.75-1.28v-8.64A1.35,1.35,0,0,1,150.39,149.37Z"/>
    </g>
    <g>
      <ellipse class="cls-1" cx="126.42" cy="89.66" rx="9.28" ry="4.13"/>
      <polygon class="cls-1" points="145.56 85.58 145.53 89.66 145.5 93.75 141.98 91.68 138.46 89.61 142.01 87.6 145.56 85.58"/>
      <path class="cls-1" d="M131.52,86.26,140,88.84a.82.82,0,0,1,0,1.56l-8.49,2.66a.82.82,0,0,1-1.06-.78V87.05A.82.82,0,0,1,131.52,86.26Z"/>
    </g>
    <g>
      <ellipse class="cls-1" cx="159.77" cy="64.73" rx="18.55" ry="8.25"/>
      <polygon class="cls-1" points="198.06 56.56 198 64.72 197.94 72.89 190.9 68.76 183.85 64.63 190.95 60.59 198.06 56.56"/>
      <path class="cls-1" d="M170,57.93l17,5.15a1.63,1.63,0,0,1,0,3.12l-17,5.32A1.64,1.64,0,0,1,167.85,70V59.49A1.63,1.63,0,0,1,170,57.93Z"/>
    </g>
    <g>
      <ellipse class="cls-1" cx="233.91" cy="53.83" rx="13.92" ry="6.19"/>
      <polygon class="cls-1" points="262.64 47.7 262.6 53.83 262.56 59.96 257.27 56.86 251.98 53.76 257.31 50.73 262.64 47.7"/>
      <path class="cls-1" d="M241.56,48.73,254.3,52.6a1.22,1.22,0,0,1,0,2.34l-12.74,4A1.22,1.22,0,0,1,240,57.76V49.9A1.22,1.22,0,0,1,241.56,48.73Z"/>
    </g>
    <g>
      <ellipse class="cls-1" cx="174.53" cy="97.92" rx="20.38" ry="9.07"/>
      <polygon class="cls-1" points="216.61 88.94 216.54 97.92 216.48 106.89 208.74 102.35 201 97.81 208.8 93.37 216.61 88.94"/>
      <path class="cls-1" d="M185.74,90.44l18.64,5.67a1.79,1.79,0,0,1,0,3.43l-18.65,5.84a1.79,1.79,0,0,1-2.33-1.71V92.16A1.8,1.8,0,0,1,185.74,90.44Z"/>
    </g>
    <g>
      <ellipse class="cls-1" cx="189.61" cy="134.31" rx="17" ry="7.56"/>
      <polygon class="cls-1" points="224.69 126.82 224.64 134.31 224.59 141.8 218.13 138.01 211.68 134.22 218.18 130.52 224.69 126.82"/>
      <path class="cls-1" d="M199,128.08l15.55,4.72a1.5,1.5,0,0,1,0,2.86L199,140.54a1.5,1.5,0,0,1-1.94-1.43v-9.6A1.5,1.5,0,0,1,199,128.08Z"/>
    </g>
    <g>
      <ellipse class="cls-1" cx="214.22" cy="166.52" rx="16.16" ry="7.19"/>
      <polygon class="cls-1" points="247.57 159.41 247.52 166.52 247.47 173.64 241.34 170.04 235.2 166.44 241.38 162.92 247.57 159.41"/>
      <path class="cls-1" d="M223.1,160.6l14.78,4.49a1.42,1.42,0,0,1,0,2.72l-14.79,4.63a1.42,1.42,0,0,1-1.85-1.36V162A1.42,1.42,0,0,1,223.1,160.6Z"/>
    </g>
    <g>
      <ellipse class="cls-1" cx="218.51" cy="77.18" rx="9.09" ry="4.04"/>
      <polygon class="cls-1" points="237.28 73.18 237.25 77.18 237.22 81.19 233.77 79.16 230.31 77.13 233.8 75.16 237.28 73.18"/>
      <path class="cls-1" d="M223.51,73.85l8.32,2.52a.8.8,0,0,1,0,1.53l-8.31,2.61a.81.81,0,0,1-1.05-.76V74.61A.8.8,0,0,1,223.51,73.85Z"/>
    </g>
    <g>
      <ellipse class="cls-1" cx="237.28" cy="112.71" rx="11.13" ry="4.95"/>
      <polygon class="cls-1" points="260.25 107.81 260.21 112.71 260.18 117.61 255.95 115.13 251.72 112.65 255.99 110.23 260.25 107.81"/>
      <path class="cls-1" d="M243.4,108.63l10.17,3.09a1,1,0,0,1,0,1.88l-10.18,3.19a1,1,0,0,1-1.27-.94v-6.28A1,1,0,0,1,243.4,108.63Z"/>
    </g>
    <g>
      <ellipse class="cls-1" cx="266.75" cy="91.86" rx="18.55" ry="8.25"/>
      <polygon class="cls-1" points="305.04 83.69 304.98 91.86 304.93 100.03 297.88 95.9 290.83 91.76 297.94 87.73 305.04 83.69"/>
      <path class="cls-1" d="M277,85.06l17,5.15a1.64,1.64,0,0,1,0,3.13l-17,5.32a1.63,1.63,0,0,1-2.12-1.56V86.63A1.64,1.64,0,0,1,277,85.06Z"/>
    </g>
    <g>
      <ellipse class="cls-1" cx="106.98" cy="170.32" rx="10.94" ry="4.86"/>
      <polygon class="cls-1" points="129.55 165.51 129.52 170.32 129.48 175.14 125.33 172.7 121.18 170.27 125.36 167.89 129.55 165.51"/>
      <path class="cls-1" d="M113,166.32l10,3a1,1,0,0,1,0,1.84l-10,3.14a1,1,0,0,1-1.25-.92v-6.17A1,1,0,0,1,113,166.32Z"/>
    </g>
    <g>
      <ellipse class="cls-1" cx="161.32" cy="33.13" rx="7.57" ry="3.37"/>
      <polygon class="cls-1" points="176.95 29.79 176.93 33.13 176.9 36.46 174.03 34.77 171.15 33.09 174.05 31.44 176.95 29.79"/>
      <path class="cls-1" d="M165.48,30.35l6.93,2.1a.67.67,0,0,1,0,1.28l-6.92,2.17a.67.67,0,0,1-.87-.64V31A.67.67,0,0,1,165.48,30.35Z"/>
    </g>
    <g>
      <ellipse class="cls-1" cx="259.35" cy="141.87" rx="13.91" ry="6.19"/>
      <polygon class="cls-1" points="288.07 135.74 288.02 141.87 287.98 148 282.7 144.9 277.41 141.8 282.74 138.77 288.07 135.74"/>
      <path class="cls-1" d="M267,136.77l12.72,3.86a1.23,1.23,0,0,1,0,2.35L267,147a1.24,1.24,0,0,1-1.6-1.17v-7.86A1.23,1.23,0,0,1,267,136.77Z"/>
    </g>
    <g>
      <ellipse class="cls-1" cx="294.19" cy="116.24" rx="7.04" ry="3.13"/>
      <polygon class="cls-1" points="308.72 113.14 308.69 116.24 308.67 119.34 306 117.77 303.33 116.2 306.02 114.67 308.72 113.14"/>
      <path class="cls-1" d="M298.06,113.66l6.44,2a.62.62,0,0,1,0,1.19l-6.43,2a.63.63,0,0,1-.81-.6v-4A.62.62,0,0,1,298.06,113.66Z"/>
    </g>
  </g>
</svg>
