<svg xmlns="http://www.w3.org/2000/svg" width="89.9" height="104.22" viewBox="0 0 89.9 104.22">
  <defs>
    <style>
      .cls-1 {
        fill: #d8e2e8;
      }

      .cls-2 {
        fill: #353d41;
      }

      .cls-3 {
        fill: #a2aaae;
      }

      .cls-4 {
        fill: #515557;
      }

      .cls-5 {
        fill: #f0e1b9;
      }
    </style>
  </defs>
  <title>batteri</title>
  <g id="Layer_2" data-name="Layer 2">
    <g id="Layer_13" data-name="Layer 13">
      <g>
        <path class="cls-1" d="M89.68,76.79l.06,0-.27-.41,0-.08-.06-.06L41.06,1.82c0-.05,0-.11-.07-.16C38.54-2.1,27.49.74,16.31,8S-2,24.21.48,28L48.9,102.5l0,.08.06.06.26.41.07,0c3,3.06,13.59.17,24.29-6.78S91.24,80.8,89.68,76.79Z"/>
        <path class="cls-2" d="M81,63.26c0-.07-.11-.12-.15-.18l.05,0L48.63,13.43c2.18,3.84-4.85,12.64-15.9,19.81S10.5,43.35,8.06,39.59L40.33,89.26a2.92,2.92,0,0,0,.14.31c2.44,3.76,13.49.92,24.68-6.34S83.42,67,81,63.26Z"/>
        <ellipse class="cls-3" cx="17.59" cy="10.97" rx="6.11" ry="2.05" transform="translate(-3.14 11.35) rotate(-33.01)"/>
        <path class="cls-3" d="M23.27,17.8c-7.62,4.95-15.17,8.12-20.7,9,4.66.45,13-2.51,21.39-8S38.45,7,39.92,2.56C36.84,7.25,30.88,12.85,23.27,17.8Z"/>
        <ellipse class="cls-3" cx="18.73" cy="12.73" rx="6.11" ry="2.05" transform="translate(-3.91 12.26) rotate(-33.01)"/>
        <rect class="cls-3" x="12.08" y="10.79" width="12.21" height="2.18" transform="translate(-3.54 11.82) rotate(-33.01)"/>
        <path class="cls-4" d="M17.82,11.32a26.78,26.78,0,0,1-4.27,2.28A12.82,12.82,0,0,0,18,11.65a13,13,0,0,0,3.6-3.3A26.69,26.69,0,0,1,17.82,11.32Z"/>
        <path class="cls-4" d="M19.93,14.29C17.23,16,14.59,16.75,13.82,16l0,0,0,0,0,0h0l0-.05h0l-1.08-1.38,1,1.54h0l0,.05h0c.69.87,3.42.15,6.19-1.65,2.15-1.4,3.68-3,4-4.15A10.55,10.55,0,0,1,19.93,14.29Z"/>
        <path d="M28.84,28.29a19.28,19.28,0,0,0,4.45-3.8L32.3,23a19,19,0,0,1-4.43,3.84,19,19,0,0,1-5.32,2.49l.95,1.47A19.46,19.46,0,0,0,28.84,28.29Z"/>
        <rect x="23.16" y="26.4" width="10.07" height="1.8" transform="translate(35.72 -11.22) rotate(56.99)"/>
        <path d="M69.41,90.73a19.2,19.2,0,0,0,4.44-3.8l-1-1.52a19.09,19.09,0,0,1-4.44,3.85,18.81,18.81,0,0,1-5.31,2.49l.95,1.46A19.16,19.16,0,0,0,69.41,90.73Z"/>
        <polygon class="cls-5" points="56.98 54.47 48.16 53.47 44.07 53 43.47 50.24 41.35 40.46 39.22 50.24 37.1 60.02 37.1 60.02 37.1 60.02 45.92 61.01 50.09 61.48 50.69 64.27 52.79 74.04 54.88 64.27 56.98 54.49 56.98 54.49 56.98 54.47"/>
        <path class="cls-3" d="M74.52,95.32q-2.1,1.2-4.17,2.21c-5.72,3.25-11.14,5.23-15.12,5.67-2.41.43-4.32.23-5.41-.73l-.46-.47-4.84-6.37h0l4.38,6.74.42.51c3,3.06,13.58.18,24.29-6.78.92-.59,1.8-1.2,2.66-1.82C75.68,94.64,75.11,95,74.52,95.32Z"/>
      </g>
    </g>
  </g>
</svg>
