<svg xmlns="http://www.w3.org/2000/svg" width="324.22" height="125.02" viewBox="0 0 324.22 125.02">
  <defs>
    <style>
      .cls-1 {
        fill: #feb913;
        stroke-width: 3px;
      }

      .cls-1, .cls-2 {
        stroke: #996779;
        stroke-miterlimit: 10;
      }

      .cls-2 {
        font-size: 72px;
        fill: #fff;
        stroke-width: 2px;
        font-family: LondrinaSolid-Regular, Londrina Solid;
      }

      .cls-3 {
        letter-spacing: -0.04em;
      }

      .cls-4 {
        letter-spacing: -0.02em;
      }
    </style>
  </defs>
  <title>start_1</title>
  <g id="Layer_2" data-name="Layer 2">
    <g id="Layer_1-2" data-name="Layer 1">
      <path class="cls-1" d="M145,2C131.8,2,130.52,3.3,121.88,4.49a100,100,0,0,1-23.13.83c-3.49-.26-10.55-.18-14,0a78.22,78.22,0,0,0-9.92.83c-6.32,1.26-7.72-.44-14,.82C46,9.9,29.53,10.14,18.7,20.53,11.79,27.17,7.49,36.12,4.79,45.32.56,59.76.05,75.6,5.35,89.68s16.84,26.13,31.34,30.16c11.77,3.28,24.26,1.23,36.41,0a268.27,268.27,0,0,1,56.8.26c12.67,1.4,25.32,3.72,38.07,3.41,9.57-.23,19.06-1.94,28.63-2.35,15.81-.68,31.59,2.21,47.41,2a239,239,0,0,0,25.89-2.21c9.11-1.11,18.31-2.24,26.92-5.42s16.7-8.63,21.26-16.6c6-10.43,5.11-23.34,3.29-35.24-1.79-11.73-4.4-23.57-10.32-33.85s-15.6-18.94-27.26-21.17C278,7.53,271.94,8.05,266,7.72,259.44,7.35,253,6,246.47,5c-27.71-3.86-56.2,1.34-83.75-3.54Z"/>
      <text class="cls-2" transform="translate(83.97 88.09)">S<tspan class="cls-3" x="34.92" y="0">T</tspan><tspan x="63.57" y="0">AR</tspan><tspan class="cls-4" x="132.12" y="0">T</tspan></text>
    </g>
  </g>
</svg>
