<svg xmlns="http://www.w3.org/2000/svg" width="200" height="200" viewBox="0 0 200 200">
  <defs>
    <style>
      .cls-1 {
        fill: #cbd4d8;
        opacity: 0.8;
      }
    </style>
  </defs>
  <title>beerholder</title>
  <g id="beerholder">
    <path class="cls-1" d="M192,117c-.7-6.52-1.86-11.39-7.24-17.12-2.22-2.36-5.23-4.76-8-5.65C163.48,92.15,152,83.82,149.93,71.09a14.55,14.55,0,0,0-1-2.54,28.61,28.61,0,0,0-14.79-13.74c-.1,0-.42-.11-.44-.13a26,26,0,0,1-23.41-24.1c-.08-.08,0-.27-.11-.35A27.27,27.27,0,0,0,83.33,8,26.8,26.8,0,0,0,58.9,24.09c-2.74,10.36-9.6,18.76-20.1,19.7l-.09.09c-.26,0-.53,0-.8-.05s-.71.06-1.08.06c-.64,0-1.26,0-1.89-.1a28.17,28.17,0,0,0-19.62,47.3c.5.72,1,1.45,1.63,2.18,2.13,2.65,4.34,4.19,7.45,6.24,11.77,4,22.07,13.89,24,27.89.31.31,0,.89.34,1.21a28.26,28.26,0,0,0,18.54,17.9c1.1.34,2,.6,3.41.91,16.52,2.06,24.07,10.54,26.13,23.31.69.57.43,2,1.11,2.55a28.19,28.19,0,0,0,54.11-4.48l.09-.09c1.6-13,13.59-22.18,26.82-24.59,9.12-3.49,13.38-12.71,13.38-23.16A26.58,26.58,0,0,0,192,117Zm-68.44-63A26.35,26.35,0,1,1,97.24,80.42,26.34,26.34,0,0,1,123.59,54.08Zm4.21,76.4a50,50,0,0,1-13,1.05c-2.75-.14-4.06-1.32-4.36-4.19a90.75,90.75,0,0,1,0-14.28c.2-2.82,1.33-4,3.88-4.08,3.86-.12,8,.1,11.78.17,2.52,0,3.6,1.15,3.8,3.77.31,4,.72,8.86,1.09,12.86C131.29,128.43,130.46,129.88,127.8,130.48ZM83.87,10.6A26.36,26.36,0,1,1,57.51,37,26.36,26.36,0,0,1,83.87,10.6Zm3.2,77.1A74.61,74.61,0,0,1,74,88.37c-2.61-.09-4-1.45-4.22-4.15-.26-4.08-.12-10,0-14,.11-2.67,1.44-4,3.92-4,3.75-.06,8.54.08,12.27.11,2.47,0,3.76,1.29,3.88,3.84.17,3.85.42,9.15.72,13C90.76,85.78,89.64,87.29,87.07,87.7Zm-49,12.13A27.31,27.31,0,1,1,65.39,72.52,27.31,27.31,0,0,1,38.08,99.83Zm38.16,46a27.32,27.32,0,1,1,27.31-27.31A27.31,27.31,0,0,1,76.24,145.85Zm47.35,42.52a27.31,27.31,0,1,1,27.31-27.31A27.31,27.31,0,0,1,123.59,188.37Zm39.89-42.52a25.91,25.91,0,1,1,25.9-25.91A25.91,25.91,0,0,1,163.48,145.85Z"/>
  </g>
</svg>
