<svg xmlns="http://www.w3.org/2000/svg" width="200" height="200" viewBox="0 0 200 200">
  <defs>
    <style>
      .cls-1 {
        fill: #989fa2;
      }

      .cls-2 {
        fill: #913c5c;
      }

      .cls-3 {
        fill: #72777a;
      }

      .cls-4 {
        fill: #d6d9da;
      }

      .cls-5 {
        fill: #262829;
      }

      .cls-6 {
        fill: #8e9295;
      }

      .cls-7 {
        fill: #56595c;
      }
    </style>
  </defs>
  <title>can2</title>
  <g id="can2">
    <polygon class="cls-1" points="50.49 138.82 48.52 145.57 138.02 170.52 141.03 163.69 50.49 138.82"/>
    <path class="cls-1" d="M48.52,145.57c4.75,10.19,26.07,18.14,44.75,23.79,20.92,6.33,40.35,5.95,44.75,1.16Z"/>
    <path class="cls-2" d="M137.88,39.69,42.8,69l24.31,40.09L50.94,138.18a3.12,3.12,0,0,0-.68,1.23c-1.64,6.11,17.36,16.5,42.42,23.21s46.71,7.18,48.35,1.07l17.68-62Z"/>
    <ellipse class="cls-3" cx="89.04" cy="48.36" rx="46.98" ry="11.46" transform="translate(-10.12 27.54) rotate(-16.65)"/>
    <path class="cls-4" d="M135.35,39.26c1.82,6.07-16.87,17-41.72,24.44s-46.48,8.54-48.3,2.48c-.76-2.55,3-5.86,6.72-9.06,12.36-10.7,26.23-13.76,35-15.38C101.41,39.09,133.53,33.17,135.35,39.26Z"/>
    <ellipse class="cls-5" cx="77.68" cy="56.51" rx="13.57" ry="5.04" transform="translate(-9.35 15.85) rotate(-11)"/>
    <path class="cls-1" d="M137.88,39.69l-3.8-4.63C135.52,41.16,117,52,92.32,59.34,67.46,66.77,45.84,67.88,44,61.82a2.83,2.83,0,0,1-.08-.4A3.19,3.19,0,0,0,44,62.8L42.8,69c1.92,6.61,24.75,5.4,51-2.7S139.8,46.3,137.88,39.69Z"/>
    <path class="cls-6" d="M103.15,26.88c-11.7-2.72-10.25,1.29-14.87,6.79S71.69,50.62,82,53.1C96.15,56.51,93.9,49,97.76,44.22S111.74,28.88,103.15,26.88ZM97.83,37c-2.12,2.84-5,4.27-6.44,3.19s-.87-4.24,1.26-7.07,5-4.27,6.43-3.2S100,34.16,97.83,37Z"/>
    <path class="cls-3" d="M86.12,50c-.24,1-1,2.3-2.36,1.84s-.62-2.65,0-3.73S86.15,45.51,87,46.7,86.36,49.06,86.12,50Z"/>
    <path class="cls-7" d="M86,49.9c-.21.84-.89,2-2,1.6s-.53-2.29,0-3.23S86,46,86.78,47,86.2,49.07,86,49.9Z"/>
    <path class="cls-3" d="M90.6,38.65s-1-7,6.94-9.08c0,0-5.83,1.5-6.94,9.08"/>
    <path class="cls-3" d="M105.78,28c3.15,3.64-4.76,12-8.09,16.13C94.54,48,95.41,53.71,88.31,54c7.48,0,6.54-5.82,9.71-9.71C101.41,40.1,109.6,31.43,105.78,28Z"/>
    <path class="cls-5" d="M63.91,103.83s28.68,19.67,46.44,5.46c0,0-2.55,4.81-4.12,5.16s6.63,5.4,10.82,10.12c0,0-10.6-7.51-16.3-7.51s-26.51-3.15-33.64-7.94h0l-3.2-5.29"/>
    <path class="cls-5" d="M148.17,70.31s1.43,13-11.82,22.5c0,0,16.56-8.41,14.19-15.46Z"/>
    <path class="cls-5" d="M149.87,132.66s-12.77,3.43-16,2.75c0,0,14.71,1.77,15.55-1.16S149.87,132.66,149.87,132.66Z"/>
    <path class="cls-5" d="M54.18,132.36s-6.58,7.51-3,10.49c3.86,5.14,13.43,9.56,13.43,9.56s-14-7-10.4-20"/>
    <path class="cls-5" d="M157.21,97.21a9,9,0,0,1-2.84,3s3.11-.09,2.84-.35-1.81,2-4.39,1.81h3.52L155,103.48s3.16,0,3.42-.91l.26-.91Z"/>
    <path class="cls-5" d="M109.85,115.4a52.31,52.31,0,0,0,20.8-5.13c1.35-.65,2.62-1.34,3.82-2"/>
    <path class="cls-5" d="M136.35,44.48S123.66,57.13,99.88,64.34C75.76,71.66,96.15,67,96.15,67s36.39-13.38,40.2-22.56"/>
  </g>
</svg>
