<svg xmlns="http://www.w3.org/2000/svg" width="200" height="200" viewBox="0 0 200 200">
  <defs>
    <style>
      .cls-1 {
        fill: #efebec;
      }

      .cls-2 {
        fill: #e4dee0;
      }

      .cls-3 {
        fill: #d58855;
      }

      .cls-4 {
        fill: #a06640;
      }
    </style>
  </defs>
  <title>chipsbag</title>
  <g id="chipsbag">
    <g id="pose">
      <path class="cls-1" d="M36.11,37.54s51.27-18.4,65.29-15.23l3.77,4.07,1.06-4.22s25.78,6,42.67,2.26L136.09,38.29,97.63,53.07l-38.9-4.22Z"/>
      <path class="cls-2" d="M40.63,40.59s59.53-17,64.54-14.21,35.73,5.81,37.93,4.3l5.8-6.26s-12.69,4.25-42.67-2.26l-1.07,4.32-3.76-4.17s-5.19-4.65-65.29,15.23Z"/>
      <path class="cls-3" d="M35.52,37.16s13.13,16.18,15,27.9c0,0,3.51,7,6.09,7.5L54,84.05,58.5,100l1.64,2.34a265.63,265.63,0,0,1-.94,29.54L60.37,134,57.6,146s-.47,4.8,5.16,16.76c0,0-2.15,15.82,3.94,23.08,0,0,5.63-8.16,18.29-9.62,0,0,37.51-5.86,47.35-14.77,0,0,20.4-3.52,35.4-14.77,0,0-7.73-3.52-8.91-9.14a33.82,33.82,0,0,0-12.42-19.69s2.81-8-4.69-38.22a8.07,8.07,0,0,1-1.41-6.09l4.22-22.27,6.57-27.9L124.61,35.52a68.73,68.73,0,0,1-18.76,5.39L92.26,46.77S77.66,37.6,35.52,37.16Z"/>
    </g>
    <g id="skygger">
      <path class="cls-4" d="M61.66,70.81l-3.25,1.45-1.79.3L58,73.67S61.71,71.38,61.66,70.81Z"/>
      <path class="cls-4" d="M78.39,60.43l7.94-5.59L87.9,56s-7.55,3.93-9,5.1Z"/>
      <polygon class="cls-4" points="60.35 102.6 66.14 110.4 66.3 109.19 63.25 103.08 58.82 100.27 60.35 102.6"/>
      <path class="cls-4" d="M63.84,124.08l-.26.44-4.38,7.35L60.37,134S64.44,126,63.84,124.08Z"/>
      <path class="cls-4" d="M73.38,177.21s5.66-3.39,17.72-2.45c0,0-7.35-2.45-9.42-1.7S73.38,177.21,73.38,177.21Z"/>
      <path class="cls-4" d="M142.2,153.39s-9.29,6.21-9.86,8l-1.94.23A24.34,24.34,0,0,1,142.2,153.39Z"/>
      <path class="cls-4" d="M123.13,110.13s-13,28.71-21.43,35.79l-1.84,4.16-7.73-1.78,1-1.78-1.52-1.77.63-2,1.91.76L93,139.8l2.16-.13L98,143.61s.13,3.55,4.7-3.3S115.94,123.09,123.13,110.13Z"/>
      <path class="cls-4" d="M118,123.94s7.48-2.79,9.13-6.47C127.14,117.47,123.59,117.6,118,123.94Z"/>
      <path class="cls-4" d="M71.35,116.19l7.05-5.59s-5.35,10-5.6,12.39c0,0,8.32-14.84,9.54-14.94s7.69-5.53,24.8-13.11C107.14,94.94,84,101.68,71.35,116.19Z"/>
      <path class="cls-4" d="M132.88,81.62l7.8-9.67a11.8,11.8,0,0,0-.56,3.18l-5.32,6.74Z"/>
      <path class="cls-4" d="M139.59,77.52s-6.15,13.72-6.62,15.8,3.87-6.81,5.39-7.67,3.84-4.08,3.84-4.08l-.48-2s-1.29-.91-1.55-4.13Z"/>
      <path class="cls-4" d="M132.74,35.4l-7.26-.24s3.22-1.37,3.39-1.55a32.64,32.64,0,0,1,4.41.59S133.28,35.22,132.74,35.4Z"/>
      <path class="cls-4" d="M92.26,46.77s9-4,13.59-5.86l.67-.09s-13.41,6.23-14.38,7.61Z"/>
      <path class="cls-4" d="M135.91,115.92a20.53,20.53,0,0,1,6.83.07,7.06,7.06,0,0,1,3.67,1.82Z"/>
      <path class="cls-4" d="M138.23,107.34s8.06,5.34,8.18,10.47Z"/>
      <path class="cls-4" d="M105.88,41s10.84-1.3,19.63-5.89c0,0-6.85,3.72-9,4.2S106.39,41.39,105.88,41Z"/>
      <path class="cls-4" d="M78,41.72S88.1,44,92.26,46.77l-.12,1.66S91.87,47.31,78,41.72Z"/>
    </g>
  </g>
</svg>
