<svg xmlns="http://www.w3.org/2000/svg" width="200" height="200" viewBox="0 0 200 200">
  <defs>
    <style>
      .cls-1 {
        fill: #e58247;
      }

      .cls-2 {
        fill: #d8e2e8;
      }

      .cls-3 {
        fill: #e0e8ed;
      }

      .cls-4 {
        fill: #6c7174;
      }

      .cls-5 {
        fill: #a2aaae;
      }

      .cls-6 {
        fill: #734124;
      }

      .cls-7 {
        fill: #190a10;
      }

      .cls-8 {
        fill: #515557;
      }

      .cls-9 {
        fill: #7a8083;
      }
    </style>
  </defs>
  <title>can</title>
  <g id="can">
    <path class="cls-1" d="M43.32,128,23.5,85.61l-1.17-2.56a2,2,0,0,1-.2-.8L22,78.63a2,2,0,0,1,.11-.81c1.29-3.8,13-32.91,69.07-37,1.39-.1,4.32,1.1,4.32,1.1l.67,1,21.4,32a2.16,2.16,0,0,0,2,1c5.53-.55,26.51,4,41.86,15.74,0,0,11,9,15.08,28.81,6.16,30-28.18,43.1-31.74,44.17a19.91,19.91,0,0,0-9-.05c-1.71.39-24.55-2.49-40.07-9.93-.19-.1-.33-.27-.52-.35L49.37,133.55A22,22,0,0,1,43.32,128Z"/>
    <ellipse class="cls-2" cx="141.84" cy="125.65" rx="39.42" ry="35.07" transform="translate(-9.1 240.22) rotate(-78.74)"/>
    <ellipse class="cls-3" cx="143.61" cy="126.89" rx="35.21" ry="28.03" transform="translate(1.16 255.07) rotate(-83.45)"/>
    <path class="cls-4" d="M56.07,51.45c14.07-6.7,27.62-10.25,37-10.28a6.76,6.76,0,0,0-2-.31C38,44.69,24.75,70.93,22.37,77,27.3,69,39.86,59.16,56.07,51.45Z"/>
    <path class="cls-4" d="M111.59,119.63c4.09-20.57,21.73-34.49,40-32.1-.68-.19-1.35-.4-2.05-.54-19-3.78-37.85,10.46-42.1,31.81s7.7,41.73,26.7,45.51c.7.14,1.4.21,2.1.3C118.45,159.81,107.49,140.19,111.59,119.63Z"/>
    <path class="cls-5" d="M173,131.52c-4.1,20.57-21.74,34.49-40,32.1.68.19,1.35.4,2.05.53,19,3.79,37.85-10.45,42.1-31.8s-7.7-41.73-26.7-45.51c-.7-.14-1.4-.21-2.1-.3C166.11,91.34,177.07,111,173,131.52Z"/>
    <g id="Layer_12" data-name="Layer 12">
      <path class="cls-6" d="M71.53,92.25S99.06,73,125.39,76.31C125.39,76.31,99.51,77.56,71.53,92.25Z"/>
      <path class="cls-6" d="M86.14,120.26s-5.56,13.34,9.51,34.37C95.65,154.63,85.52,132.08,86.14,120.26Z"/>
      <path class="cls-6" d="M40.08,79.18s9-14.7,30.19-20.26C70.27,58.92,42,75.13,40.08,79.18Z"/>
      <path class="cls-6" d="M99.18,114.51s-4.64,28.31,14.34,46.36l4.28,1S99.18,145.63,99.18,114.51Z"/>
      <path class="cls-6" d="M154.55,87a36,36,0,0,0-36.2,6.74s11.94-13.32,28.86-10.45Z"/>
      <path class="cls-7" d="M157.7,141.35c-.65,5.58-7.23,9.35-16,8.34a21.81,21.81,0,0,1-10.4-3.87,8.65,8.65,0,0,1-3.73-8.14,7.85,7.85,0,0,1,4.62-6.4,21.12,21.12,0,0,1,11.83-1.8C152.79,130.48,158.34,135.77,157.7,141.35Z"/>
      <g>
        <path class="cls-5" d="M146.4,103.93c-.84,0-.81.26-.94.47-4.87,7.85-9.08,16.65-8.56,26,3.12,4.83,8.43,5.3,13.57,5.19.8,0,.75-.26.88-.52a92.25,92.25,0,0,0,8.31-25.37c.16-1-.08-.81-.28-1C155.71,105.17,151.09,104,146.4,103.93Zm.72,18.56c-3.08-.84-3.2-4.84-2.42-7.5s3-5.31,6.08-4.42,3.45,4.27,2.66,6.94S150.2,123.34,147.12,122.49Z"/>
        <path class="cls-8" d="M148.22,130.09a2.21,2.21,0,0,1-2.84,1.82,2.61,2.61,0,0,1-2.11-3c.14-1.48,1.51-2,2.88-1.7A2.49,2.49,0,0,1,148.22,130.09Z"/>
        <path class="cls-9" d="M148,130.05a2,2,0,0,1-2.6,1.66,2.39,2.39,0,0,1-1.93-2.72c.13-1.36,1.38-1.84,2.63-1.55A2.27,2.27,0,0,1,148,130.05Z"/>
      </g>
      <path class="cls-8" d="M144,106.78l1.73-2.57a17.17,17.17,0,0,1,9.39,2s-6-2.14-9.11-1.48a5,5,0,0,0-2,2"/>
      <path class="cls-8" d="M136.92,126.89s2.18-13.17,5.71-16.5a100.57,100.57,0,0,0-5.71,16.5"/>
      <path class="cls-8" d="M148.1,135.53H151a37.72,37.72,0,0,0,3.46-8.86s-2.21,5.36-3.77,8.17a6.81,6.81,0,0,1-2.54.69"/>
      <path class="cls-8" d="M153.3,112.74s1.73,5.32-2.58,8.94C150.72,121.68,156.52,117.75,153.3,112.74Z"/>
      <path class="cls-6" d="M69.41,101s-14.19,2.76-23.34,27C46.07,128,59.22,107.06,69.41,101Z"/>
      <path class="cls-6" d="M58.9,107.91s5.43-1,6.26-11.62C65.16,96.29,62.32,105.39,58.9,107.91Z"/>
    </g>
  </g>
</svg>
