<svg xmlns="http://www.w3.org/2000/svg" width="289.44" height="395.06" viewBox="0 0 289.44 395.06">
  <defs>
    <style>
      .cls-1 {
        fill: #efcfbb;
      }

      .cls-1, .cls-4 {
        opacity: 0.8;
      }

      .cls-14, .cls-16, .cls-17, .cls-2, .cls-3, .cls-5, .cls-7 {
        fill: none;
      }

      .cls-2, .cls-3, .cls-7 {
        stroke: #e09e76;
      }

      .cls-14, .cls-16, .cls-17, .cls-2, .cls-3, .cls-5, .cls-7, .cls-8 {
        stroke-miterlimit: 10;
      }

      .cls-14, .cls-17, .cls-2, .cls-3, .cls-5, .cls-8 {
        stroke-width: 2px;
      }

      .cls-16, .cls-3, .cls-7 {
        stroke-linecap: round;
      }

      .cls-4 {
        fill: #f7e7dd;
      }

      .cls-16, .cls-5 {
        stroke: #e8b698;
      }

      .cls-6 {
        fill: #e09e76;
      }

      .cls-16, .cls-7 {
        stroke-width: 1.5px;
      }

      .cls-10, .cls-8 {
        fill: #fff;
      }

      .cls-17, .cls-8 {
        stroke: #bea6af;
      }

      .cls-9 {
        fill: #111;
      }

      .cls-11 {
        fill: #f0ecec;
      }

      .cls-12 {
        fill: #dab5ad;
      }

      .cls-13 {
        fill: #936a7a;
      }

      .cls-14 {
        stroke: #6c432a;
        stroke-opacity: 0.7;
      }

      .cls-15 {
        fill: #bba6a1;
      }
    </style>
  </defs>
  <title>fisk</title>
  <g id="Layer_2" data-name="Layer 2">
    <g id="Layer_1-2" data-name="Layer 1">
      <g id="scared_fish4">
        <g id="tail_fin_left">
          <path id="tailfin1" class="cls-1" d="M219.63,196.09s9.42-46.12,16.49-49.19S262,205.32,262,223.77s-35.34,43-35.34,43Z"/>
          <path class="cls-2" d="M212.58,199.21c6.59-4.38,17.25-13,23.22-27.36a56.08,56.08,0,0,0,2.9-9.12"/>
          <path class="cls-2" d="M215.48,212.06c3.74-.92,18.15-4.92,25.29-18.24a32.76,32.76,0,0,0,3.32-9.53"/>
        </g>
        <g id="left_fin">
          <ellipse class="cls-1" cx="68.59" cy="292.84" rx="49.5" ry="44.43" transform="matrix(0.5, -0.87, 0.87, 0.5, -219.31, 205.82)"/>
          <path class="cls-3" d="M76.49,326c.16-2.56,2.31-30.73,22.12-39.82a30.22,30.22,0,0,1,10.62-2.65"/>
          <path class="cls-3" d="M57,318.92c.71-7.85,3.81-30.55,22.12-46a57.51,57.51,0,0,1,12.39-8"/>
          <path class="cls-3" d="M36.67,307.42c3.08-12.29,10-31.21,26.55-46.9a86.68,86.68,0,0,1,9.73-8"/>
        </g>
        <g id="tail_fin_right">
          <path id="tailfin2" class="cls-4" d="M235,218.24s32-39,39-54,15,56,15,56,2,44-11,64-42-43-42-43Z"/>
          <path class="cls-5" d="M247.49,224.42c6.59-4.38,17.24-13,23.21-27.36a56.08,56.08,0,0,0,2.9-9.12"/>
          <path class="cls-5" d="M250.39,237.27c3.74-.91,18.15-4.92,25.29-18.24A32.71,32.71,0,0,0,279,209.5"/>
          <path class="cls-5" d="M250,248.05c6.52,0,17.91-1,27.78-8.7a38,38,0,0,0,4.14-3.73"/>
          <path class="cls-5" d="M249.14,255.93a66.74,66.74,0,0,1,25.29,14.51c1.18,1.1,2.29,2.2,3.32,3.32"/>
        </g>
        <g id="pelvic_fin_left">
          <path id="pelvic_fin_left-2" data-name="pelvic_fin_left" class="cls-1" d="M116.5,301.74s20,88,23,93,11-49,16-54c0,0-23-25-24-29S116.5,301.74,116.5,301.74Z"/>
          <path class="cls-6" d="M127.66,312.36a1,1,0,0,1-1,.68,13.14,13.14,0,0,1-8.5-2.5c-3.86-2.76,4.6-5.51,7.67-6.39a1.56,1.56,0,0,1,1.74.73C128.23,306.12,128.87,308.52,127.66,312.36Z"/>
          <path class="cls-7" d="M126,316.12a144.28,144.28,0,0,0,9,43.82q.94,2.49,1.95,4.88"/>
          <path class="cls-7" d="M128.46,315.24a128,128,0,0,0,11.77,36.56q1,2,2.08,3.93"/>
          <path class="cls-7" d="M131.1,314.59a111.37,111.37,0,0,0,16.12,26.19q1.14,1.35,2.28,2.61"/>
        </g>
        <g id="left_eye">
          <circle class="cls-8" cx="39.5" cy="195.74" r="38.5"/>
          <circle class="cls-9" cx="38" cy="189.73" r="28"/>
          <circle class="cls-10" cx="45.1" cy="185.54" r="4.96"/>
          <path class="cls-11" d="M65.49,169.62a38.29,38.29,0,0,0-25.9-11.26A38.49,38.49,0,0,1,57.5,168.52c14.86,14.86,15.08,38.73.49,53.31A36.91,36.91,0,0,1,30.57,232.6,37.18,37.18,0,0,0,66,222.94C80.57,208.35,80.35,184.48,65.49,169.62Z"/>
          <circle class="cls-10" cx="30.17" cy="174.59" r="8.34"/>
        </g>
        <g id="body">
          <path id="body-2" data-name="body" class="cls-12" d="M17.26,234.42h0c4.66,3.29,68.39,48.36,85.73,62.81,18,15,48,31,86,20,36.6-10.6,50-39.75,50.95-41.88a.7.7,0,0,0,.05-.25c-.12-3.17-2.6-64.73-31.77-152.31a2.33,2.33,0,0,0-.53-.87l-19.48-19.48a.66.66,0,0,1-.2-.53c.16-2.87,1.85-25.13,15.5-41a.69.69,0,0,0-.85-1.06c-4.6,2.38-13,7.25-19.4,13.84a.69.69,0,0,1-1.14-.72c3.2-8.48,13.06-31.17,21-42.2A.8.8,0,0,0,202,29.66c-9.86,6.94-31.18,22.88-35,33.58,0,0,37-60,33-63s-31.2,22.25-50.17,56.49a.68.68,0,0,1-1.26-.17A93.12,93.12,0,0,1,151.1,7.27a.69.69,0,0,0-1.22-.61c-7.28,10.81-24.95,40-26.76,71.55a.68.68,0,0,1-1.32.22,81.27,81.27,0,0,1,1.63-60.74.69.69,0,0,0-1.18-.7c-9.35,12.87-32,51-19.33,103.92a.6.6,0,0,1-.14.56C99,125.65,46.15,183.56,23,219.24c0,0-2,4-2,4-.16.44-11-3.48-14.85,1.78a.28.28,0,0,0,0,.38Z"/>
          <path class="cls-12" d="M207.7,121.93S242.49,191.49,240,275.36Z"/>
          <path class="cls-13" d="M104.63,119s-7.29-53.72,8.63-80.58L111.6,70.22Z"/>
          <path class="cls-13" d="M143.43,21.48s-.34.55-.94,1.6c-3.52,6.18-15.78,29.58-16.63,57.09Z"/>
          <path class="cls-13" d="M152.39,57.29s29.84-46.09,41.12-51.4S157.69,60.61,155,59Z"/>
          <path class="cls-13" d="M167,63.24S183.89,44,194.17,37.73,169,64.26,169,64.26Z"/>
          <path class="cls-13" d="M175.27,85.81c2.32-3.32,12.93-16.25,19.56-19.23,0,0-18.24,21.55-16.91,24.2S175.27,85.81,175.27,85.81Z"/>
          <path class="cls-13" d="M166.28,284.89c3.65-41.7-.58-105.39-24.15-141l-15.39-.15c7.07-5.6,14.7-8.34,23.78-7.32C181.84,169.71,172.6,243.44,166.28,284.89Z"/>
          <path class="cls-13" d="M191.82,255.83c3-34.73-.49-87.79-20.12-117.47l-12.82-.13c5.89-4.67,12.25-6.95,19.82-6.1C204.78,159.9,197.08,221.3,191.82,255.83Z"/>
          <path class="cls-13" d="M209.93,219.13c2.1-24-.34-60.78-13.93-81.33l-8.87-.09a17.93,17.93,0,0,1,13.71-4.22C218.9,152.71,213.57,195.23,209.93,219.13Z"/>
          <path class="cls-14" d="M21,223.24s7.64,1.7,10.16,7.77"/>
          <path class="cls-15" d="M96.81,240.87c-12.69-2.08-23.22-8.44-29.25-16.6,5.2,9.27,15.8,16.6,28.9,18.74s25.47-1.4,33.36-8.52C121.49,240.3,109.49,243,96.81,240.87Z"/>
          <path class="cls-15" d="M96.11,246.18c-12.47-3.13-22.44-10.35-27.77-19,4.42,9.68,14.37,17.87,27.24,21.1s25.5.73,34-5.7C120.76,247.67,108.57,249.31,96.11,246.18Z"/>
        </g>
        <g id="pelvic_fin_right">
          <path class="cls-4" d="M150.5,312.74s33,63,53,77c0,0-12-65-10-69C193.5,320.74,159.5,320.74,150.5,312.74Z"/>
          <path class="cls-6" d="M153.75,309.29a1,1,0,0,1,1.15.21,13.11,13.11,0,0,1,4.18,7.81c.75,4.68-7.15.58-9.93-1a1.55,1.55,0,0,1-.7-1.75C148.9,313.27,150.17,311.12,153.75,309.29Z"/>
          <path class="cls-16" d="M161.23,324.87a144.42,144.42,0,0,0,25.57,36.71q1.84,1.92,3.71,3.71"/>
          <path class="cls-16" d="M163.13,323.09a127.58,127.58,0,0,0,25.24,29q1.74,1.45,3.46,2.8"/>
          <path class="cls-16" d="M165.3,321.45a111.22,111.22,0,0,0,25.15,17.71q1.58.79,3.12,1.5"/>
        </g>
        <g id="right_fin">
          <path class="cls-4" d="M208,272.24l42.24.46s45.94,1.56,38.35,52.05c0,0-4.59,21.49-20.59,36.49s-72-15-75-71Z"/>
          <path class="cls-6" d="M188,272.78a2.63,2.63,0,0,1,1.34-2.39A21.31,21.31,0,0,1,207,269.24c9.08,3.3-5,16.82-10.2,21.44a2.61,2.61,0,0,1-3.75-.27C191.08,288,188.28,282.84,188,272.78Z"/>
          <path class="cls-5" d="M204,299.73c2.76,7.58,17.91,47.16,49.56,53a44.54,44.54,0,0,0,9.77.7"/>
          <path class="cls-5" d="M213.12,292.05c4.27,6.78,28.4,43.93,57.93,41.18a33.82,33.82,0,0,0,7-1.39"/>
          <path class="cls-5" d="M221.49,285.77c4.75,5.57,21.49,23.82,46.07,24.43a51.86,51.86,0,0,0,13.26-1.4"/>
        </g>
        <g id="right_eye">
          <circle class="cls-10" cx="101.5" cy="200.74" r="38.5"/>
          <circle class="cls-9" cx="99" cy="203.24" r="28"/>
          <circle class="cls-10" cx="89.38" cy="198.92" r="8.34"/>
          <circle class="cls-10" cx="102.97" cy="208.89" r="4.96"/>
          <path class="cls-11" d="M101.42,161.68A38.31,38.31,0,0,0,75.15,172,38.4,38.4,0,0,1,95,166.56c21,0,38.05,16.72,38.05,37.35a36.93,36.93,0,0,1-11.78,27A37.21,37.21,0,0,0,139.47,199C139.47,178.41,122.43,161.68,101.42,161.68Z"/>
          <circle class="cls-17" cx="101.5" cy="199.74" r="38.5"/>
        </g>
        <g id="right_eye-2" data-name="right_eye">
          <circle class="cls-8" cx="101.5" cy="199.74" r="38.5"/>
          <circle class="cls-9" cx="99" cy="194.13" r="28"/>
          <circle class="cls-10" cx="95.65" cy="177.17" r="8.34"/>
          <circle class="cls-10" cx="112.08" cy="188.54" r="4.96"/>
          <path class="cls-11" d="M138.71,199.7a38.33,38.33,0,0,0-10.34-26.28,38.46,38.46,0,0,1,5.47,19.85c0,21-16.72,38-37.35,38a36.92,36.92,0,0,1-27-11.78,37.19,37.19,0,0,0,31.87,18.21C122,237.75,138.71,220.71,138.71,199.7Z"/>
          <circle class="cls-17" cx="101.5" cy="199.74" r="38.5"/>
        </g>
      </g>
    </g>
  </g>
</svg>
