<svg xmlns="http://www.w3.org/2000/svg" width="149.92" height="156.54" viewBox="0 0 149.92 156.54">
  <defs>
    <style>
      .cls-1 {
        fill: #e58247;
      }

      .cls-2 {
        fill: #ac6235;
      }

      .cls-3 {
        fill: #bd815d;
      }

      .cls-4 {
        fill: #ea9b6c;
      }

      .cls-5 {
        fill: #939e67;
      }

      .cls-6 {
        fill: #c1507a;
      }

      .cls-7 {
        fill: #da96af;
      }
    </style>
  </defs>
  <title>koral3</title>
  <g id="Layer_2" data-name="Layer 2">
    <g id="Layer_1-2" data-name="Layer 1">
      <g id="forgrund">
        <g id="koral_gr_3">
          <g>
            <path class="cls-1" d="M139.82,56.05S143.66,36.46,119.45,39l-9.78,27.17Z"/>
            <path class="cls-1" d="M79.68,3.11s19.55-5.69,23.18,17.38L77.19,43.05,74.34,30.94Z"/>
            <path class="cls-1" d="M104.67,7,100.46,39l31.7-8.29S129.3,6,104.67,7Z"/>
            <path class="cls-2" d="M95.78,4.94C87.87-.15,79.69-1.53,77.51,1.86l-.1.19a4.37,4.37,0,0,0-.23.49c-2.58,5.28-19.92,41-19.92,45,0,4.31-7,33-7,33L59.3,91l24-26.32L106.14,20.3C108.33,16.91,103.69,10,95.78,4.94ZM100,17.46c-1.59,2.46-7.15,1.72-12.41-1.67S79.39,7.65,81,5.18s7.14-1.72,12.41,1.67S101.63,15,100,17.46Z"/>
            <path class="cls-3" d="M78.5,49.45s-14.91.77-18.65-3.33C59.85,46.12,65.54,52.77,78.5,49.45Z"/>
            <path class="cls-3" d="M78.12,56.4S63.28,54.69,60.27,50C60.27,50,64.79,57.53,78.12,56.4Z"/>
            <path class="cls-2" d="M135,40.94c-5.91-5.31-12.81-7.45-16.41-5.36l0,0-.08.09a5,5,0,0,0-1,.79,4.75,4.75,0,0,0-.9,1.56l-9.83,11.87-27,38.21s24.09,15.36,27,12.66,10-19.31,11-22.84c.88-3,17.24-15.28,22.18-18.93a4.6,4.6,0,0,0,1.44-1.06C144.39,54.47,141.56,46.87,135,40.94Zm3.8,14.14c-2,2.18-7.33.56-12-3.62s-6.84-9.35-4.88-11.53,7.33-.56,12,3.62S140.72,52.9,138.76,55.08Z"/>
            <path class="cls-4" d="M123.81,12.3c-9.26-7.11-19.16-9.75-22.13-5.89,0,0-19.45,26.49-20.38,33.75s-9.17,2-13.74,19.63-6.74,20-5.43,24.89,11.29,20.67,11.29,20.67H85.14s5.12-23.77,6.68-27.17,15-17.09,17.81-17.63,2.8-9.81,12-16.28,13.6-12.11,13.6-12.11C138.16,28.3,133.06,19.41,123.81,12.3Zm5.74,16.44c-2.26,2.51-9,.12-15.11-5.35s-9.19-11.94-6.93-14.46,9-.12,15.11,5.35S131.81,26.22,129.55,28.74Z"/>
            <path class="cls-3" d="M80.84,48.24S95.73,49.44,98.9,54C98.9,54,94.12,46.65,80.84,48.24Z"/>
            <path class="cls-3" d="M102.34,60.64s-3.4-8.07-16.75-8.86c0,0,14.44,3.82,16.75,8.86"/>
            <path class="cls-3" d="M117.8,75.18s-5.47-6.83-18.53-3.94c0,0,14.93-.28,18.53,3.94"/>
            <path class="cls-3" d="M118.32,74.94s-3.75-7.91-17.13-8.11c0,0,14.59,3.18,17.13,8.11"/>
          </g>
          <path class="cls-5" d="M100.64,91.52l6.84-.51a11.53,11.53,0,0,0,6.33-7.12c.34-4-3.17-5.41-4-7.52s.86-11.19,1.72-12.59a7.25,7.25,0,0,0,.51-5.49c-.57-1.58-1.45-7.52.64-9.89s2.18-2.24,3.26-.66-1.75,6.46-1.79,7.78S114,60,115.5,60.8s6.16-2.9,6.94-4.09a10.42,10.42,0,0,0,1.86-5.28c0-2,.42-9.5,3.56-8.57s-1.48,6.2-.69,8.18,3.43,1.19,4.49.66,6.46-5.28,8.58-4.36.26,3.3-1.46,4.49-7.2,4.09-10.92,4.75-4.62,3.1-5.42,3.73-6.35,2.6-6.94,4.45-2.18,10.87-.46,13.09,4.36,2.87,5.87,2,3.5-1.85,5-7.39,3.62-10,8-10.42,7.79-2,7.92-2.51,5.54-6.46,7.26-5.14.52,2.63-.93,3.82-2.77,4.25-13.59,5.62c-5.61,3.37-7,7-5.61,8.24s6.14-.09,7.72-1.43,3-1.74,3.3-.82a2.81,2.81,0,0,1-2.51,3.3c-2.11.13-9,2-9.7,2.9s-3.74,2.67-1.83,6.48c3,2.1,7.84-1.46,7.84-1.46s6.07-5.81,7.26-5.28,1.32,3.43.39,4.49-4.88,4.53-8.31,4.9-8.56-1.47-10.08-.95-4.81,1.62-5,3.38-4.55,5.68-6,6.82,2.21,3.05,3.46,3.62,6.51,2.3,7.25,2,5.62-4.6,7.33-4.71,3.56-1,3.95.78-6.86,4.77-6.86,4.77l1.78,3.52s4.56-.67,5.61-1.56,4.88-1.48,5.54,0,0,4.35-3.69,4.7a82.73,82.73,0,0,1-9.59,0l-24-11.22Z"/>
          <path class="cls-5" d="M59,82.94l-8.19-.6a13.83,13.83,0,0,1-7.57-8.53c-.41-4.73,3.79-6.47,4.79-9s-1-13.39-2.07-15.06a8.75,8.75,0,0,1-.61-6.57c.68-1.89,1.74-9-.76-11.84s-2.61-2.68-3.9-.79,2.09,7.74,2.14,9.31.2,5.37-1.61,6.32-7.38-3.47-8.31-4.89A12.47,12.47,0,0,1,30.66,35c0-2.37-.51-11.36-4.26-10.26s1.76,7.42.82,9.79-4.11,1.42-5.37.79S14.12,29,11.59,30.09s-.32,3.94,1.74,5.36S22,40.35,26.4,41.14s5.52,3.71,6.48,4.46,7.6,3.11,8.31,5.32,2.6,13,.55,15.66-5.22,3.44-7,2.34-4.19-2.21-6-8.84-4.33-12-9.54-12.47-9.32-2.37-9.47-3S3.07,36.88,1,38.45.38,41.61,2.12,43s3.31,5.08,16.26,6.73c6.71,4,8.37,8.43,6.71,9.85s-7.34-.1-9.24-1.71-3.63-2.08-3.94-1a3.37,3.37,0,0,0,3,3.95c2.53.16,10.76,2.37,11.62,3.47s4.47,3.2,2.19,7.76c-3.62,2.5-9.39-1.76-9.39-1.76s-7.26-7-8.68-6.31-1.58,4.1-.47,5.36,5.84,5.43,9.94,5.87,10.25-1.76,12.07-1.13,5.75,1.93,5.92,4,5.44,6.79,7.22,8.16S42.69,90,41.19,90.66s-7.8,2.75-8.68,2.34-6.72-5.5-8.77-5.63-4.26-1.15-4.73.94S27.22,94,27.22,94l-2.13,4.22s-5.45-.8-6.71-1.88-5.84-1.77-6.63,0,0,5.21,4.42,5.62a98.12,98.12,0,0,0,11.47,0L56.42,88.56Z"/>
          <g>
            <path class="cls-6" d="M60.88,145.64s2.65,7.79,11.22,3.45c0,0,8,15.83,16.84,1.32,0,0,15.36,6.16,17.73-8.31,0,0,2.94-.43,4-4.5,0,0,8.2-.65,9,2.13s8.56-.29,8.56-.29,5.32-5.32,2.07-14.48c0,0,8-18.52-5.61-16.79,0,0-.27-4.28-6.63-8.22,0,0,4.86-14.23-10.21-14,0,0-7.29-14.81-16.35-5.06,0,0-2.85-7.68-13.19-5.9,0,0-7.69-11.41-17.43,1.09,0,0-4.82.07-5.66,2.59,0,0-8.82-8.25-16.5,4.23,0,0-9.75-10.39-15.36,8.58,0,0-10,2.74-7.69,10.7,0,0-5.78.45-6.73,2.88s-6.27,2.73-2.72,10.41c0,0-5.47,9.75,5.39,14.47,0,0-2.14,9.62,5.54,7.62,0,0,6.21,14.35,14.77,11.49,0,0,14.19,1.57,13.45-4.63C45.37,144.46,53.19,153,60.88,145.64Z"/>
            <path class="cls-7" d="M64.27,96.13S72,81.38,81,97.69C81,97.69,73.4,83.38,64.27,96.13Z"/>
            <path class="cls-7" d="M54.19,83.55s1.17-16.28,14.55-2.17C68.74,81.38,59.28,70.65,54.19,83.55Z"/>
            <path class="cls-7" d="M29.08,114.43s-6.87-21.89,8.58-16.74C37.66,97.69,25.05,93.56,29.08,114.43Z"/>
            <path class="cls-7" d="M45.37,102.41s4.73-18.24,16.32-4.72C61.69,97.69,52.87,85.94,45.37,102.41Z"/>
            <path class="cls-7" d="M89.16,96.91s20.39-17.6,19.1,8.76C108.26,105.67,110.29,82.32,89.16,96.91Z"/>
            <path class="cls-7" d="M112.34,100s18,.1,9.23,15.77C121.57,115.72,129.76,102.55,112.34,100Z"/>
            <path class="cls-7" d="M90.41,84S100.57,67.72,107,87.82C107,87.82,100,72.57,90.41,84Z"/>
            <path class="cls-7" d="M82.51,102.41S93.14,89,96.84,107.3C96.84,107.3,94,90.81,82.51,102.41Z"/>
            <path class="cls-7" d="M24.79,127.3c2.41-19.16,15.45-8.84,15.45-8.84S28.47,110.45,24.79,127.3Z"/>
            <path class="cls-7" d="M41.53,121.48s3.21-19.07,16.3-7C57.83,114.43,47.08,103.67,41.53,121.48Z"/>
            <path class="cls-7" d="M59.77,113.79s4.93-17.17,16.52-2.15C76.29,111.64,66.52,98.05,59.77,113.79Z"/>
            <path class="cls-7" d="M74.09,115.72S82,102.88,91.5,118.85C91.5,118.85,84.07,104.41,74.09,115.72Z"/>
            <path class="cls-7" d="M92.81,112.5s13.64-11.68,15.51,6C108.32,118.46,107.42,102.9,92.81,112.5Z"/>
            <path class="cls-7" d="M119.63,122.58s16-4.3,9.93,15C129.56,137.6,134.83,119.54,119.63,122.58Z"/>
            <path class="cls-7" d="M98.74,125.8s15.59-6.44,11.91,11.8C110.65,137.6,113.92,121.46,98.74,125.8Z"/>
            <path class="cls-7" d="M72.64,129.89s9.18-14.17,17-1.73C89.68,128.16,83.65,117,72.64,129.89Z"/>
            <path class="cls-7" d="M44.88,135.84s6.69-8.54,13.91-1C58.79,134.86,52.15,129.89,44.88,135.84Z"/>
            <path class="cls-7" d="M38.72,82.94s7.49-11.48,16.5-4.23C55.22,78.71,45.06,74.87,38.72,82.94Z"/>
            <path class="cls-7" d="M23.36,91.52s5.22-18.37,15.36-8.58C38.72,82.94,30.32,75.18,23.36,91.52Z"/>
            <path class="cls-7" d="M15.67,102.22s-2.81-6.75,7.69-10.7A12.46,12.46,0,0,0,15.67,102.22Z"/>
            <path class="cls-7" d="M6.22,115.51s-3.66-6.65,1.79-9.2c1.44-.83.88-1.68,1.73-2.24a11.52,11.52,0,0,1,5.93-1.85C19,102,3.19,104.42,6.22,115.51Z"/>
            <path class="cls-7" d="M11.61,130S1.4,126.37,6.22,115.51A12.9,12.9,0,0,0,11.61,130Z"/>
            <path class="cls-7" d="M10.58,114.84s3.89-1.9,8.76,1.13A6.37,6.37,0,0,0,10.58,114.84Z"/>
            <path class="cls-7" d="M13.82,128.09s1.85-3.61,8.35-1.62C22.17,126.47,16.28,123,13.82,128.09Z"/>
            <path class="cls-7" d="M91.5,132.8s9.52.45,11.3,3C102.8,135.84,99.46,131.2,91.5,132.8Z"/>
            <path class="cls-7" d="M29.48,131.15s8.44,2,9.76,3.86C39.24,135,37.88,132,29.48,131.15Z"/>
          </g>
        </g>
      </g>
    </g>
  </g>
</svg>
