<svg xmlns="http://www.w3.org/2000/svg" width="200" height="200" viewBox="0 0 200 200">
  <defs>
    <style>
      .cls-1 {
        fill: #e8daad;
      }

      .cls-2 {
        fill: #ede1bd;
      }

      .cls-3 {
        fill: #f1e9ce;
      }

      .cls-4 {
        fill: #aea382;
        opacity: 0.7;
      }
    </style>
  </defs>
  <title>plasticbag</title>
  <g id="plasticbag">
    <path class="cls-1" d="M59.78,24.14s1.08,42.14,13,56.19-5.41-57.27-5.41-57.27H59.78Z"/>
    <path class="cls-2" d="M93.28,73.85s27,3.24,29.17,1.08S130,42.51,144.06,31.71l6.48,14s-14,4.32-14,23.77,9.72,11.89,9.72,11.89l-5.4,15.13L92.2,85.73Z"/>
    <path class="cls-3" d="M59.11,22.74S75.32,55.15,69.91,80s-3.24,21.61-3.24,21.61-7.56,1.08-9.72,14-5.41,5.41-1.08,23.77l-5.41,1.08s-9.72,14.05-7.56,16.21,11.89,0,11.89,0,9.72,9.73,32.41,9.73,14,2.16,14,2.16,14,10.8,42.14,19.45c0,0,4.32,4.32,3.24,0s-6.48-9.73-5.4-15.13S153.11,147,152,143.76s-3.24-23.78-2.16-24.86a13.34,13.34,0,0,0,4.32-14C152,96.21,149.87,93,152,73.52a193.68,193.68,0,0,1,8.65-37.82l-17.29-4.32s1.08,45.38-7.57,50.79S98,75.68,98,75.68,82.88,22.74,75.32,13C75.32,13,65.59,20.58,59.11,22.74Z"/>
    <path class="cls-4" d="M76.57,108.65a12,12,0,0,1-9.72-7.57s.67,5.89,3.78,8.11C74.41,111.89,76.57,108.65,76.57,108.65Z"/>
    <path class="cls-4" d="M81.39,126.79c-5.4-4.32-11.88-14.05-11.88-14.05s3.78,9.19,7,11.35A23.87,23.87,0,0,0,81.39,126.79Z"/>
    <path class="cls-4" d="M110.57,121.39c-8.65,6.48-19.45,5.4-19.45,5.4s6.48,1.08,10.8,0S110.57,121.39,110.57,121.39Z"/>
    <path class="cls-4" d="M135.52,83.08a15.65,15.65,0,0,1-9.83,3.73s7-2.18,7.82-3.25Z"/>
    <polygon class="cls-4" points="130.01 95.46 112.73 105.18 130.01 99.78 120.29 101.94 130.01 95.46"/>
    <path class="cls-4" d="M134.34,106.26c-4.32,0-9.73-3.24-9.73-3.24l4.32,3.24Z"/>
    <path class="cls-4" d="M147.3,124.63c-2.16,2.16-6.48,3.24-6.48,3.24l4.32-1.08Z"/>
    <path class="cls-4" d="M145.14,127.87c-4.32,2.16-7.56,7.57-7.56,7.57s1.08-3.25,2.16-4.33S145.14,127.87,145.14,127.87Z"/>
    <path class="cls-4" d="M111.65,129a38.64,38.64,0,0,1-14.05,5.4s6.48,0,9.72-1.08A7.37,7.37,0,0,0,111.65,129Z"/>
    <path class="cls-4" d="M98.68,135.44c-13,6.48-20.53,4.32-20.53,4.32l5.4,2.16Z"/>
    <path class="cls-4" d="M99.76,138.68s-4.32,3.24-7.56,3.24-8.65,3.24-8.65,3.24,8.65-2.16,9.73-1.08S99.76,138.68,99.76,138.68Z"/>
    <path class="cls-4" d="M141.85,175.84c-2.22-.65-2.11-12.31-2.11-12.31s1.08,10.8,2.16,10.8Z"/>
    <path class="cls-4" d="M55.46,157.05c0-1.08-3.24-3.25-3.24-3.25s2.16,2.17,2.16,3.25Z"/>
    <path class="cls-4" d="M103,89a7.85,7.85,0,0,1-5.4-5.4s0,3.24,1.08,4.32S103,89,103,89Z"/>
    <path class="cls-4" d="M103,86.81c-3.24-2.16-4.32-7.56-4.32-7.56s0,3.24,1.08,4.32Z"/>
    <path class="cls-4" d="M102.93,167.93s-.83-.53,0-.59c4.1-.28,18.23-1,19.67-1.63,2.37-1,.18,1.24-.46,1.45S102.93,167.93,102.93,167.93Z"/>
  </g>
</svg>
