<svg xmlns="http://www.w3.org/2000/svg" width="99.13" height="98.66" viewBox="0 0 99.13 98.66">
  <defs>
    <style>
      .cls-1 {
        fill: #cbd4d8;
        opacity: 0.8;
      }
    </style>
  </defs>
  <title>sixpackplast</title>
  <g id="Layer_2" data-name="Layer 2">
    <g id="Layer_14" data-name="Layer 14">
      <path class="cls-1" d="M99,58.58c-.38-3.5-1-6.12-3.89-9.2a11.51,11.51,0,0,0-4.32-3c-7.13-1.14-13.31-5.61-14.41-12.45a6.91,6.91,0,0,0-.51-1.36,15.37,15.37,0,0,0-7.94-7.39l-.24-.07A14,14,0,0,1,55.08,12.14c0-.05,0-.15-.06-.19A14.65,14.65,0,0,0,40.57,0,14.39,14.39,0,0,0,27.45,8.65C26,14.22,22.29,18.73,16.65,19.23l0,.05-.43,0c-.19,0-.38,0-.58,0s-.68,0-1-.05A15.12,15.12,0,0,0,4,44.64q.39.59.87,1.17a15.2,15.2,0,0,0,4,3.35c6.32,2.17,11.86,7.46,12.91,15,.16.17,0,.47.18.64a15.17,15.17,0,0,0,10,9.62c.6.18,1.1.32,1.84.49,8.87,1.11,12.93,5.66,14,12.52.37.31.22,1.07.59,1.37a15.15,15.15,0,0,0,29.07-2.4l.05-.06c.86-7,7.29-11.91,14.4-13.2,4.9-1.88,7.19-6.83,7.19-12.45A14.63,14.63,0,0,0,99,58.58ZM62.19,24.76A14.15,14.15,0,1,1,48,38.91,14.15,14.15,0,0,1,62.19,24.76Zm2.26,41a27.08,27.08,0,0,1-7,.57,2.16,2.16,0,0,1-2.34-2.25,48,48,0,0,1,0-7.68c.11-1.51.71-2.14,2.08-2.19,2.07-.06,4.28.06,6.33.09,1.35,0,1.93.62,2,2,.17,2.12.38,4.76.59,6.91A2,2,0,0,1,64.45,65.8ZM40.86,1.41A14.16,14.16,0,1,1,26.7,15.56,14.15,14.15,0,0,1,40.86,1.41Zm1.72,41.41a39.54,39.54,0,0,1-7,.36A2.12,2.12,0,0,1,33.26,41c-.14-2.19-.06-5.35,0-7.51a2,2,0,0,1,2.11-2.16c2,0,4.58,0,6.59.06a1.89,1.89,0,0,1,2.08,2.06c.09,2.07.23,4.92.39,7A2,2,0,0,1,42.58,42.82ZM16.26,49.34A14.67,14.67,0,1,1,30.93,34.67,14.67,14.67,0,0,1,16.26,49.34Zm20.5,24.72A14.68,14.68,0,1,1,51.43,59.39,14.67,14.67,0,0,1,36.76,74.06ZM62.19,96.9A14.67,14.67,0,1,1,76.86,82.23,14.67,14.67,0,0,1,62.19,96.9ZM83.62,74.06A13.92,13.92,0,1,1,97.53,60.14,13.92,13.92,0,0,1,83.62,74.06Z"/>
    </g>
  </g>
</svg>
