<svg xmlns="http://www.w3.org/2000/svg" width="200" height="200" viewBox="0 0 200 200">
  <defs>
    <style>
      .cls-1 {
        fill: #df8495;
      }

      .cls-2 {
        fill: #e6e8e9;
      }

      .cls-3 {
        fill: #c1c5c7;
      }

      .cls-4 {
        fill: #303132;
      }

      .cls-5 {
        fill: #dadcdd;
      }

      .cls-6 {
        fill: #616364;
      }

      .cls-7 {
        fill: #382125;
      }
    </style>
  </defs>
  <title>tube</title>
  <g id="tube">
    <path class="cls-1" d="M41.94,94.8a77.42,77.42,0,0,1,12.42-5.94,147.49,147.49,0,0,1,16-5.21,200.38,200.38,0,0,1,45.4-6.3S110.81,64,112.38,62.27l-7.93-10.62S113.54,38,156.56,31.46c0,0,7.54,10.77,8.51,14.43,0,0,10.07,24.83,3.9,34.4S74.7,156.22,74.7,156.22Z"/>
    <ellipse class="cls-2" cx="58.5" cy="125.67" rx="26.22" ry="34.77" transform="translate(-41.45 29.62) rotate(-21.18)"/>
    <ellipse class="cls-3" cx="36.42" cy="134.22" rx="4.8" ry="8.05" transform="translate(-46.03 22.23) rotate(-21.18)"/>
    <ellipse class="cls-3" cx="38.52" cy="133.4" rx="4.8" ry="8.05" transform="translate(-45.6 22.93) rotate(-21.18)"/>
    <ellipse class="cls-3" cx="40.15" cy="132.77" rx="4.8" ry="8.05" transform="translate(-45.26 23.48) rotate(-21.18)"/>
    <ellipse class="cls-3" cx="41.78" cy="132.14" rx="4.8" ry="8.05" transform="translate(-44.92 24.02) rotate(-21.18)"/>
    <ellipse class="cls-3" cx="43.77" cy="131.37" rx="4.8" ry="8.05" transform="translate(-44.51 24.69) rotate(-21.18)"/>
    <ellipse class="cls-3" cx="45.36" cy="130.75" rx="4.8" ry="8.05" transform="translate(-44.18 25.22) rotate(-21.18)"/>
    <ellipse class="cls-3" cx="47.47" cy="129.94" rx="4.8" ry="8.05" transform="translate(-43.74 25.93) rotate(-21.18)"/>
    <ellipse class="cls-4" cx="34.82" cy="134.84" rx="4.8" ry="8.05" transform="translate(-46.36 21.69) rotate(-21.18)"/>
    <path class="cls-5" d="M43.21,123c-.08,0-.14.09-.21.12,2.44-.71,5.58,1.81,7.14,5.82s.93,8-1.36,9.12c.08,0,.17,0,.24-.05,2.47-1,3.17-5.09,1.57-9.24S45.68,122,43.21,123Z"/>
    <path class="cls-5" d="M41.22,123.73l-.21.12c2.44-.71,5.59,1.81,7.14,5.82s.94,8-1.35,9.12c.08,0,.16,0,.24,0,2.47-1,3.17-5.1,1.56-9.24S43.69,122.77,41.22,123.73Z"/>
    <path class="cls-5" d="M39.1,124.55c-.08,0-.14.09-.21.12,2.44-.71,5.59,1.81,7.14,5.83s.93,8-1.35,9.11a2,2,0,0,0,.24-.05c2.47-1,3.17-5.09,1.56-9.24S41.57,123.59,39.1,124.55Z"/>
    <path class="cls-5" d="M37.24,125.27c-.07,0-.13.09-.2.12,2.44-.71,5.58,1.81,7.14,5.82s.93,8-1.36,9.12c.08,0,.16,0,.24-.05,2.47-1,3.17-5.09,1.56-9.24S39.71,124.31,37.24,125.27Z"/>
    <path class="cls-5" d="M35.12,126.09c-.08,0-.13.09-.21.12,2.44-.71,5.59,1.81,7.14,5.83s.93,8-1.35,9.11a2,2,0,0,0,.24-.05c2.47-1,3.17-5.09,1.56-9.24S37.59,125.13,35.12,126.09Z"/>
    <path class="cls-5" d="M33.49,126.72a1.48,1.48,0,0,0-.21.13c2.44-.72,5.59,1.8,7.14,5.82s.93,8-1.35,9.11a2,2,0,0,0,.24-.05c2.47-.95,3.17-5.09,1.56-9.24S36,125.76,33.49,126.72Z"/>
    <path class="cls-6" d="M37.73,142.34c.08,0,.14-.09.21-.12-2.44.71-5.58-1.81-7.14-5.82s-.93-8,1.36-9.12c-.08,0-.17,0-.24,0-2.47,1-3.17,5.09-1.57,9.24S35.26,143.3,37.73,142.34Z"/>
    <path class="cls-6" d="M31.92,127.33a1.48,1.48,0,0,0-.21.13c2.44-.72,5.58,1.8,7.14,5.82s.93,8-1.36,9.11a1.69,1.69,0,0,0,.24,0c2.47-1,3.17-5.09,1.57-9.23S34.39,126.38,31.92,127.33Z"/>
    <path class="cls-3" d="M57.77,139.5l12.5,12.29S65.62,143,57.77,139.5Z"/>
    <path class="cls-3" d="M51.05,117.72s3.41-8.36,2.39-16.38"/>
    <path class="cls-3" d="M39.44,119.7a22.59,22.59,0,0,0-5.54-8.26"/>
    <path class="cls-3" d="M73,128.68s-6.94-2.86-11.21-.53"/>
    <path class="cls-3" d="M51.37,152.56A22.57,22.57,0,0,0,49,142.9"/>
    <path class="cls-7" d="M153.54,80.2s-10.4-5.38-37.79-2.85c0,0,39-8.92,47.09-6.9,0,0-15.81,1.51-22.17,3.91C140.67,74.36,150.79,76.39,153.54,80.2Z"/>
    <path class="cls-7" d="M112.38,62.27s7.47-6,44.88-16.44"/>
    <path class="cls-7" d="M167.17,82.44s4.45-5.06-2.67-5.9c0,0,5.9,1.13,6.14-.86A12.52,12.52,0,0,1,167.17,82.44Z"/>
  </g>
</svg>
