<svg xmlns="http://www.w3.org/2000/svg" width="200" height="200" viewBox="0 0 200 200">
  <defs>
    <style>
      .cls-1 {
        fill: #d8e2e8;
      }

      .cls-2 {
        fill: #353d41;
      }

      .cls-3 {
        fill: #a2aaae;
      }

      .cls-4 {
        fill: #515557;
      }

      .cls-5 {
        fill: #f0e1b9;
      }
    </style>
  </defs>
  <title>battery</title>
  <g id="battery">
    <g>
      <path class="cls-1" d="M169.28,139.32l.1-.07-.42-.64a.45.45,0,0,0-.06-.12.43.43,0,0,0-.09-.1L92.57,21a2.56,2.56,0,0,0-.11-.24c-3.85-5.94-21.28-1.45-38.93,10s-28.83,25.57-25,31.51l76.38,117.57a1.33,1.33,0,0,1,.06.12.43.43,0,0,0,.09.1l.42.65.09-.07c4.79,4.83,21.44.28,38.33-10.69S171.75,145.65,169.28,139.32Z"/>
      <path class="cls-2" d="M155.55,118a3.33,3.33,0,0,0-.25-.28l.08,0L104.53,39.36C108,45.42,96.87,59.3,79.44,70.62c-17.64,11.46-35.07,15.94-38.93,10L91.42,159c.08.16.13.34.23.5,3.85,5.93,21.28,1.45,38.93-10S159.41,123.9,155.55,118Z"/>
      <ellipse class="cls-3" cx="55.55" cy="35.48" rx="9.64" ry="3.24" transform="translate(-10.36 35.99) rotate(-33.01)"/>
      <path class="cls-3" d="M64.5,46.26c-12,7.8-23.92,12.8-32.64,14.23,7.35.72,20.48-4,33.73-12.56S88.45,29.22,90.78,22.21C85.92,29.6,76.52,38.45,64.5,46.26Z"/>
      <ellipse class="cls-3" cx="57.35" cy="38.25" rx="9.64" ry="3.24" transform="translate(-11.58 37.42) rotate(-33.01)"/>
      <rect class="cls-3" x="46.85" y="35.2" width="19.27" height="3.45" transform="translate(-11 36.73) rotate(-33.01)"/>
      <path class="cls-4" d="M55.91,36a41.28,41.28,0,0,1-6.74,3.59,19.92,19.92,0,0,0,7.07-3.08,19.94,19.94,0,0,0,5.68-5.2A41.84,41.84,0,0,1,55.91,36Z"/>
      <path class="cls-4" d="M59.24,40.71C55,43.48,50.82,44.6,49.59,43.4c0,0,0,0-.06,0l0,0,0,0h0l0-.07h0l-1.71-2.17,1.57,2.42v0a0,0,0,0,1,0,0l.05.07h0c1.09,1.36,5.39.24,9.76-2.61,3.4-2.2,5.81-4.77,6.35-6.54C64.77,36.22,62.44,38.63,59.24,40.71Z"/>
      <path d="M73.3,62.8a30.25,30.25,0,0,0,7-6l-1.55-2.39a30.08,30.08,0,0,1-7,6.06,30.06,30.06,0,0,1-8.39,3.93l1.5,2.31A30.4,30.4,0,0,0,73.3,62.8Z"/>
      <rect x="64.34" y="59.81" width="15.88" height="2.84" transform="translate(84.25 -32.74) rotate(56.99)"/>
      <path d="M137.3,161.32a30.56,30.56,0,0,0,7-6l-1.56-2.4a33.68,33.68,0,0,1-15.38,10l1.5,2.31A30.65,30.65,0,0,0,137.3,161.32Z"/>
      <polygon class="cls-5" points="117.7 104.11 103.78 102.52 97.33 101.79 96.39 97.43 93.03 82 89.68 97.43 86.33 112.86 86.33 112.86 86.33 112.86 100.25 114.42 106.83 115.16 107.77 119.56 111.08 134.99 114.39 119.56 117.7 104.13 117.69 104.13 117.7 104.11"/>
      <path class="cls-3" d="M145.37,168.56c-2.21,1.26-4.41,2.43-6.58,3.49-9,5.12-17.58,8.25-23.85,8.94-3.81.67-6.82.35-8.54-1.15l-.72-.75L98,169l0,0,6.91,10.63.66.8c4.78,4.83,21.44.28,38.33-10.69,1.45-.94,2.83-1.91,4.19-2.88C147.2,167.48,146.29,168,145.37,168.56Z"/>
    </g>
  </g>
</svg>
