<svg xmlns="http://www.w3.org/2000/svg" width="66.04" height="52.51" viewBox="0 0 66.04 52.51">
  <defs>
    <style>
      .cls-1 {
        fill: #e58247;
      }

      .cls-2 {
        fill: #d8e2e8;
      }

      .cls-3 {
        fill: #e0e8ed;
      }

      .cls-4 {
        fill: #6c7174;
      }

      .cls-5 {
        fill: #a2aaae;
      }

      .cls-6 {
        fill: #734124;
      }

      .cls-7 {
        fill: #190a10;
      }

      .cls-8 {
        fill: #515557;
      }

      .cls-9 {
        fill: #7a8083;
      }
    </style>
  </defs>
  <title>can</title>
  <g id="Layer_2" data-name="Layer 2">
    <g id="Layer_11" data-name="Layer 11">
      <path class="cls-1" d="M9.05,36.86.66,18.94l-.5-1.08a.81.81,0,0,1-.08-.34L0,16a1,1,0,0,1,.05-.34C.59,14,5.53,1.72,29.28,0a6.13,6.13,0,0,1,1.83.47L31.4.9l9.05,13.52a.94.94,0,0,0,.86.41c2.34-.24,11.22,1.68,17.71,6.66,0,0,4.67,3.8,6.39,12.19C68,46.4,53.48,51.92,52,52.38a8.3,8.3,0,0,0-3.81,0c-.73.16-10.4-1.06-17-4.21-.08,0-.14-.11-.23-.15L11.61,39.23A9.19,9.19,0,0,1,9.05,36.86Z"/>
      <ellipse class="cls-2" cx="50.75" cy="35.89" rx="16.68" ry="14.84" transform="translate(5.64 78.65) rotate(-78.74)"/>
      <ellipse class="cls-3" cx="51.49" cy="36.41" rx="14.9" ry="11.87" transform="translate(9.44 83.41) rotate(-83.45)"/>
      <path class="cls-4" d="M14.44,4.48C20.4,1.65,26.13.15,30.12.13A3.08,3.08,0,0,0,29.28,0C6.81,1.62,1.19,12.73.18,15.29,2.26,11.91,7.58,7.75,14.44,4.48Z"/>
      <path class="cls-4" d="M37.94,33.34c1.73-8.7,9.2-14.6,16.93-13.59-.29-.08-.57-.16-.87-.22C46,17.93,38,24,36.19,33s3.26,17.66,11.3,19.26c.29.06.59.09.88.13C40.85,50.35,36.21,42,37.94,33.34Z"/>
      <path class="cls-5" d="M63.92,38.37C62.19,47.08,54.72,53,47,52c.29.08.57.17.87.23,8,1.6,16-4.43,17.82-13.47s-3.26-17.66-11.3-19.26c-.3-.06-.59-.08-.89-.12C61,21.37,65.66,29.67,63.92,38.37Z"/>
      <g id="Layer_12" data-name="Layer 12">
        <path class="cls-6" d="M21,21.75S32.64,13.58,43.78,15A60.54,60.54,0,0,0,21,21.75Z"/>
        <path class="cls-6" d="M27.17,33.61s-2.35,5.64,4,14.54C31.2,48.15,26.91,38.61,27.17,33.61Z"/>
        <path class="cls-6" d="M7.68,16.22A22.1,22.1,0,0,1,20.45,7.64S8.47,14.51,7.68,16.22Z"/>
        <path class="cls-6" d="M32.69,31.17s-2,12,6.07,19.63l1.81.42S32.69,44.34,32.69,31.17Z"/>
        <path class="cls-6" d="M56.12,19.52A15.21,15.21,0,0,0,40.8,22.37S45.86,16.73,53,17.94Z"/>
        <path class="cls-7" d="M57.46,42.53c-.28,2.37-3.06,4-6.77,3.53a9.13,9.13,0,0,1-4.41-1.64A3.67,3.67,0,0,1,44.7,41a3.36,3.36,0,0,1,2-2.71,9,9,0,0,1,5-.76C55.38,37.93,57.73,40.17,57.46,42.53Z"/>
        <g>
          <path class="cls-5" d="M52.68,26.69c-.36,0-.35.12-.4.2-2.06,3.33-3.84,7-3.63,11,1.33,2,3.57,2.25,5.75,2.19.33,0,.31-.1.37-.21a39,39,0,0,0,3.52-10.74c.07-.42,0-.34-.12-.42A7.74,7.74,0,0,0,52.68,26.69Zm.3,7.86c-1.3-.36-1.35-2-1-3.17s1.28-2.25,2.57-1.88,1.46,1.81,1.12,3S54.28,34.91,53,34.55Z"/>
          <path class="cls-8" d="M53.45,37.77a1,1,0,0,1-1.21.77,1.1,1.1,0,0,1-.89-1.26c.06-.63.64-.85,1.22-.72A1.07,1.07,0,0,1,53.45,37.77Z"/>
          <path class="cls-9" d="M53.36,37.75a.86.86,0,0,1-1.1.7,1,1,0,0,1-.82-1.15.81.81,0,0,1,1.11-.65A1,1,0,0,1,53.36,37.75Z"/>
        </g>
        <path class="cls-8" d="M51.67,27.9l.73-1.08a7.23,7.23,0,0,1,4,.84A9.94,9.94,0,0,0,52.52,27a2.15,2.15,0,0,0-.85.86"/>
        <path class="cls-8" d="M48.66,36.41s.93-5.57,2.42-7a43.41,43.41,0,0,0-2.42,7"/>
        <path class="cls-8" d="M53.39,40.07H54.6a15.92,15.92,0,0,0,1.47-3.75s-.94,2.27-1.6,3.46a2.79,2.79,0,0,1-1.08.29"/>
        <path class="cls-8" d="M55.6,30.42a3.67,3.67,0,0,1-1.1,3.79S57,32.55,55.6,30.42Z"/>
        <path class="cls-6" d="M20.09,25.47s-6,1.17-9.88,11.41C10.21,36.88,15.78,28,20.09,25.47Z"/>
        <path class="cls-6" d="M15.64,28.38s2.3-.43,2.65-4.92C18.29,23.46,17.09,27.31,15.64,28.38Z"/>
      </g>
    </g>
  </g>
</svg>
