<svg xmlns="http://www.w3.org/2000/svg" width="200" height="200" viewBox="0 0 200 200">
  <defs>
    <style>
      .cls-1 {
        fill: #efebec;
      }

      .cls-2 {
        fill: #b3b0b1;
      }

      .cls-3 {
        fill: #bec9ce;
      }

      .cls-4 {
        fill: #8f979b;
      }
    </style>
  </defs>
  <title>candywrapper2</title>
  <g id="candywrapper2">
    <path class="cls-1" d="M138,33.83S128.12,48.06,118,73.88c0,0,14.67,7.65,16,10.5S131.19,66.45,138,33.83Z"/>
    <path class="cls-2" d="M138,33.83s.44-.23-.4,1.3c-3.48,6.38-13.77,24.81-17.55,33.53A231.82,231.82,0,0,1,138,33.83Z"/>
    <path class="cls-2" d="M120.88,69.38s5.79,2.21,8.58,5.09c0,0,1.65-12.5,3-12.74,0,0-1.18,12.55-.8,17.81A116.76,116.76,0,0,0,120.88,69.38Z"/>
    <path class="cls-3" d="M19.34,76.56s10.38,7,11.86,9.64,10.38,13.34,15.19,14.08a153.24,153.24,0,0,1,7,26.68s7.42,2.22,8.53,4.82,1.85,11.85,22.23,26.68c0,0,4,16.71,2.89,21.9,28.21-28.86,28-36.61,88.93-79.94,0,0-27.34-8.29-27.34-10.89S142.44,72,141.19,71.71,137.57,48.3,150,38.91L159.6,31,144.67,20.49l-8.79,17.65S133.8,52.33,132.07,61a68.43,68.43,0,0,0-1,17L98.1,45.37,94.57,31.13S88.59,41.87,19.34,76.56Z"/>
    <g>
      <path class="cls-4" d="M32.51,83.68S62.28,71,66.28,67.24c0,0-12,6-13.11,5.78S65.58,61.27,90.92,47.46c0,0-34.32,19-41,24.87-1.38,1.15.81,1.5.81,1.5S34.09,83.29,32.51,83.68Z"/>
      <path class="cls-4" d="M67.42,64.73s2.77-1.27,3.69-1-2.42,2.65-2.42,2.65S88.61,54.71,90.92,52.41C90.92,52.41,68.69,64.73,67.42,64.73Z"/>
      <path class="cls-4" d="M32.51,85.92A39.55,39.55,0,0,0,45.62,97.73S37.79,97.73,32.51,85.92Z"/>
      <path class="cls-4" d="M60.8,87.27a47.4,47.4,0,0,1,14-10.47C82.91,73.09,64.18,79,60.8,87.27Z"/>
      <path class="cls-4" d="M48.65,99.8S58.18,87.27,67.42,93c0,0-.94-2-1.63-1.9s2.94-1.79,3.72-1.51S53.18,87.75,48.65,99.8Z"/>
      <path class="cls-4" d="M140.54,58.26s-1.62,6.92-1.62,10.82a7.59,7.59,0,0,1-4.39,3.19c-2.81.6,5.33-.29,6.31-1.18C140.84,71.09,139.6,66.83,140.54,58.26Z"/>
      <path class="cls-4" d="M106.72,81.82s10.76-4.62,11.07-5.26,4.47-.47,6.14,0c0,0-2.87.24-3.19.64s2.71-.32,4.46,3.35c0,0-2.39-2.34-5-1.57S109.91,81.82,106.72,81.82Z"/>
      <path class="cls-4" d="M103.16,94.16s5.24-7.33,6.4-9.78c0,0-1.42,8.74-4.21,12.58C105.35,97,106.61,93,103.16,94.16Z"/>
      <path class="cls-4" d="M90.92,129s10-11,10.62-15.95C101.54,113.09,92,124.69,90.92,129Z"/>
      <path class="cls-4" d="M90.05,137s10.81-12.33,14.52-18.08,6.42-5.81,6.42-5.81-5.7,1.76-7.83,5S95.11,130.9,90.05,137Z"/>
      <path class="cls-4" d="M103.16,122.67s14.8-8.33,17-8.58A35.28,35.28,0,0,0,103.16,122.67Z"/>
      <path class="cls-4" d="M119.83,118.36a52.4,52.4,0,0,0,22.42-8.4s-9,3.93-11.21,4.1,3.16-2.83,3.16-2.83S123.62,115.23,119.83,118.36Z"/>
      <path class="cls-4" d="M90.05,148.39s-3.57,2-4.74,11.4l-.27,3-.85-4.29-3.81-2.89s2.79,1.38,3.67.4S88.65,147.81,90.05,148.39Z"/>
      <path class="cls-4" d="M162.78,99.8S115.25,136,112.91,139.92V139s-16.2,16.74-24.12,27.55c0,0,20.18-26.64,23.72-28.22C115.91,135.57,131,121.68,162.78,99.8Z"/>
      <path class="cls-4" d="M25.72,75.3a13.05,13.05,0,0,1,6.45,4.29A11.5,11.5,0,0,1,33.12,81"/>
      <path class="cls-4" d="M29.9,72.91a24.57,24.57,0,0,1,6.2,5.49c.23.28.44.56.64.84"/>
      <path class="cls-4" d="M33,71.48a15.31,15.31,0,0,1,5.05,4.77c.24.37.45.72.64,1.08"/>
      <path class="cls-4" d="M40.82,67.33a15.31,15.31,0,0,1,4.51,5.28,11.51,11.51,0,0,1,.52,1.14"/>
      <path class="cls-4" d="M37.13,69.25a15.36,15.36,0,0,1,4.52,5.29c.19.38.37.76.52,1.13"/>
      <path class="cls-4" d="M44.06,65.2a9.8,9.8,0,0,1,3.72,4.46,8.18,8.18,0,0,1,.38,1.23"/>
      <path class="cls-4" d="M48,62.94a9.72,9.72,0,0,1,3.28,4.8A9.22,9.22,0,0,1,51.54,69"/>
      <path class="cls-4" d="M59.85,56.45a9.76,9.76,0,0,1,2.57,5.21,8.28,8.28,0,0,1,.09,1.28"/>
      <path class="cls-4" d="M52,60.93a13,13,0,0,1,3.31,4.86c.13.34.24.68.33,1"/>
      <path class="cls-4" d="M55.6,59a12.94,12.94,0,0,1,2.81,5.17c.09.35.17.69.23,1"/>
      <path class="cls-4" d="M63.13,54.78a12.64,12.64,0,0,1,3.68,4.32c.16.31.3.62.42.92"/>
      <path class="cls-4" d="M71.23,57.79a12.63,12.63,0,0,1-2.65-5c-.09-.34-.16-.68-.22-1"/>
      <path class="cls-4" d="M75.92,54.78a12.52,12.52,0,0,1-2.66-5c-.09-.35-.16-.68-.21-1"/>
      <path class="cls-4" d="M79.69,51.78a12.56,12.56,0,0,1-2.65-5,9.76,9.76,0,0,1-.21-1"/>
      <path class="cls-4" d="M83.39,50a12.57,12.57,0,0,1-2-5.29,9.18,9.18,0,0,1-.09-1"/>
      <path class="cls-4" d="M87.05,47.83a9.78,9.78,0,0,1-2.77-5.1,7.46,7.46,0,0,1-.14-1.28"/>
      <path class="cls-4" d="M90.92,46a9.82,9.82,0,0,1-2-5.44,9,9,0,0,1,0-1.29"/>
      <polygon class="cls-4" points="97.05 43.71 94.15 33.55 89.48 36 94.57 31.13 98.1 45.37 97.05 43.71"/>
      <path class="cls-4" d="M21.37,75.55s17.69-7.15,27.4-14.3C48.77,61.25,35.67,68.58,21.37,75.55Z"/>
      <path class="cls-4" d="M65.25,126.65a32.57,32.57,0,0,0-11.82.27S57.22,124.27,65.25,126.65Z"/>
      <path class="cls-4" d="M60.51,126.75a8.17,8.17,0,0,1,1.55,5.19S61.16,127.39,60.51,126.75Z"/>
      <path class="cls-4" d="M112.25,59.37,131,78l.38,1S116.49,65,112.25,59.37Z"/>
      <path class="cls-4" d="M132.51,58.73s-2,6.84-1.47,19.22c0,.51.29.54.38,1C131.42,79,131.45,64.69,132.51,58.73Z"/>
      <path class="cls-4" d="M148.09,95.9a16.54,16.54,0,0,0,.42-7.43Z"/>
      <path class="cls-4" d="M70.83,120.69A67.36,67.36,0,0,1,79.58,126a.1.1,0,0,1-.06.18c-1.67.12-10.54.71-13.56.58,0,0,11.49,1.26,14.93-.17a.34.34,0,0,0,.13-.54C80.36,125.31,78.08,123.34,70.83,120.69Z"/>
      <path class="cls-4" d="M89.92,167.42a11.2,11.2,0,0,1,.74,6.62,9.46,9.46,0,0,1-.41,1.42"/>
      <path class="cls-4" d="M93.26,164.72a17.77,17.77,0,0,1,1,6c0,.26,0,.51,0,.76"/>
      <path class="cls-4" d="M95.37,161.32a9.72,9.72,0,0,1,1.81,5.52,8.66,8.66,0,0,1-.1,1.29"/>
      <path class="cls-4" d="M98.71,157a10.72,10.72,0,0,1,1.87,6.27,11,11,0,0,1-.16,1.48"/>
      <path class="cls-4" d="M101.81,153.2a10.81,10.81,0,0,1,2.53,6,9.3,9.3,0,0,1,0,1.49"/>
      <path class="cls-4" d="M104.74,149.53a10.69,10.69,0,0,1,2.93,5.86,9.75,9.75,0,0,1,.11,1.48"/>
      <path class="cls-4" d="M108,146.43a13.13,13.13,0,0,1,2.81,5.17c.09.35.17.7.23,1"/>
      <path class="cls-4" d="M111.08,143a13.13,13.13,0,0,1,2.81,5.17c.09.35.17.7.23,1"/>
      <path class="cls-4" d="M116.57,146.88a13.18,13.18,0,0,1-2.93-5.11c-.1-.35-.18-.69-.25-1"/>
      <path class="cls-4" d="M119.75,143.81a13.06,13.06,0,0,1-2.93-5.1c-.1-.35-.18-.7-.25-1"/>
      <path class="cls-4" d="M123.23,140.75a13.1,13.1,0,0,1-2.92-5.11c-.11-.35-.19-.69-.26-1"/>
      <path class="cls-4" d="M127,138a8.8,8.8,0,0,1-3.23-4.35,8.3,8.3,0,0,1-.3-1.19"/>
      <path class="cls-4" d="M131,133.83a8.86,8.86,0,0,1-4-3.67,9.23,9.23,0,0,1-.52-1.12"/>
      <path class="cls-4" d="M135.05,130.91a8.86,8.86,0,0,1-4-3.67,7.83,7.83,0,0,1-.51-1.12"/>
      <path class="cls-4" d="M138.93,127.92a9,9,0,0,1-4.32-3.27,9.18,9.18,0,0,1-.62-1.07"/>
      <path class="cls-4" d="M142.25,125.13a8.86,8.86,0,0,1-4.31-3.27,9.21,9.21,0,0,1-.63-1.06"/>
      <path class="cls-4" d="M144.77,122.77a10.52,10.52,0,0,1-3.48-3.22c-.16-.24-.31-.49-.44-.73"/>
      <path class="cls-4" d="M172.35,101.6a8.91,8.91,0,0,1-5.18-1.57,8.55,8.55,0,0,1-1-.78"/>
      <path class="cls-4" d="M169.05,104.33a8.82,8.82,0,0,1-4.86-2.38,7.52,7.52,0,0,1-.81-.92"/>
      <path class="cls-4" d="M148.09,119.76a10.66,10.66,0,0,1-3.79-2.86q-.27-.34-.51-.69"/>
      <path class="cls-4" d="M151.38,117.11a10.49,10.49,0,0,1-3.79-2.86c-.19-.23-.36-.46-.51-.68"/>
      <path class="cls-4" d="M114.45,150.72s5.07-5.55,5.3-6.58c0,0-.15.42,0,.51s4.81-3.9,4.81-3.9S119.79,145,114.45,150.72Z"/>
      <path class="cls-4" d="M86.29,168.85s1.71,7.31,1.85,9.1c0,0,1.75-1,3-1.76l-4,4.17S87.92,177.94,86.29,168.85Z"/>
      <path class="cls-4" d="M166.21,97.28l9.8,3.14-10.93,7.86s8.5-6.75,8.5-7.25S169.35,98.35,166.21,97.28Z"/>
      <path class="cls-4" d="M155.65,114.34a8.92,8.92,0,0,1-4.87-2.38A8.34,8.34,0,0,1,150,111"/>
      <path class="cls-4" d="M159.12,111.61a8.85,8.85,0,0,1-4.87-2.38,7.52,7.52,0,0,1-.81-.92"/>
      <path class="cls-4" d="M162,109.27a9,9,0,0,1-4.87-2.38,8.41,8.41,0,0,1-.81-.93"/>
      <path class="cls-4" d="M165.62,107a9,9,0,0,1-4.86-2.38,9.76,9.76,0,0,1-.82-.93"/>
      <path class="cls-4" d="M19.34,76.56s9.26,6.58,10.56,8.11L31.61,84s-1.73.31-2.19-.5C29.42,83.5,26.7,81.52,19.34,76.56Z"/>
      <path class="cls-4" d="M140.36,31.57l6.68,4s-2.57-.1-3.8.82,2.77-.8,6.16,1.86C149.4,38.25,150.32,35.47,140.36,31.57Z"/>
      <path class="cls-4" d="M142.27,29.93a9.79,9.79,0,0,1,2.84-5.07,8.7,8.7,0,0,1,1-.79"/>
      <path class="cls-4" d="M144.93,31.34a9.77,9.77,0,0,1,3.36-4.73,9,9,0,0,1,1.1-.69"/>
      <path class="cls-4" d="M147.42,33.72a9.8,9.8,0,0,1,3.79-4.4,8.84,8.84,0,0,1,1.16-.57"/>
      <path class="cls-4" d="M149.81,36.09a9.75,9.75,0,0,1,4.17-4,8.25,8.25,0,0,1,1.2-.47"/>
    </g>
  </g>
</svg>
