<svg xmlns="http://www.w3.org/2000/svg" width="122.88" height="96.26" viewBox="0 0 122.88 96.26">
  <defs>
    <style>
      .cls-1 {
        fill: #c2a9b2;
      }

      .cls-2 {
        fill: #936a7a;
      }

      .cls-3 {
        fill: #855365;
      }

      .cls-4 {
        fill: #e1d4d9;
      }

      .cls-5 {
        fill: #66283f;
      }

      .cls-6 {
        fill: #f0dee4;
      }
    </style>
  </defs>
  <title>chokoladeplast</title>
  <g id="Layer_2" data-name="Layer 2">
    <g id="choko">
      <g id="papir">
        <polygon class="cls-1" points="89.61 18.02 92.41 20.25 94.63 20.57 97.68 26.26 106.82 36.38 74.87 45.36 75.86 34.9 89.61 18.02"/>
        <path class="cls-2" d="M17,70.37l8.4,10.56,5,15.33S35,88,37.87,88.73s21.58-15,21.58-15a24.76,24.76,0,0,0,7-.17c2.63-.68,47.17-19.39,47.17-19.39l4.83-4.07-10-10.84s2.07-4.15,7.7-8.65-47.3,11.6-47.3,11.6Z"/>
        <polygon class="cls-3" points="117.11 29.29 71.44 43.42 94.94 39.58 108.49 39.31 117.11 29.29"/>
        <path class="cls-4" d="M69.84,44.44s51-15.81,52.74-15.88-4.65-1.85-7.46-1.4-44.54,14.5-44.54,14.5Z"/>
        <path class="cls-2" d="M0,50.59S13.3,62,14.69,68.77l61.56-31.4,12-17.23,4-17.75-4.46,5-7.3,3.62,1.21.7L79,13.52l-1.84-.12H75.33l-.89,1.77-2.22.64.06,1.59-19,8.31-4.57,5.58-1.84.07-1.08,1.2H44.29l-1.39.89-8.38,1S17.45,41.32,7.86,44.12C7.86,44.12,1.59,50,0,50.59Z"/>
        <path class="cls-5" d="M19.5,72.47a9.12,9.12,0,0,0,2.75-2.21c.13-.16.26-.32.37-.48"/>
        <path class="cls-6" d="M13.21,68.29l6.51,6.07,2.75-5.64L69.62,46s21.7-13.45,24-37.46C93.78,2.76,96.09,0,96.09,0s-2.74-.58-6.36,5.2C88.57,9.13,86.11,19.83,82.5,24S70.49,41,62.25,42.83L19.43,61.92S13.53,65.22,13.21,68.29Z"/>
        <polygon class="cls-5" points="113.86 52.28 113.66 54.22 85.51 65.89 84.62 65.73 113.18 53.91 113.86 52.28"/>
        <path class="cls-5" d="M61.39,73.7s5.48.44,7.87-1.42L83.82,66.4Z"/>
      </g>
      <g id="skygger">
        <polygon class="cls-5" points="6.53 46.36 6.71 46.16 15.82 57.13 19.42 62.57 19.15 62.8 6.53 46.36"/>
        <polyline class="cls-5" points="22.47 68.72 33.05 84.53 36.28 86.68 22.58 67.79 22.47 68.72"/>
        <polygon class="cls-5" points="38.25 87.24 55.85 71.98 54.56 69.28 56.44 69.87 57.15 67.4 57.03 71.04 60.67 67.99 58.67 71.39 66.54 66.58 64.54 70.81 39.19 87.59 38.25 87.24"/>
        <path class="cls-5" d="M94.94,39.58l4.11,2.23s-2.11.47-3-.46A3.52,3.52,0,0,1,94.94,39.58Z"/>
        <path class="cls-5" d="M99.75,39.5l8.77-.19s-4.23.95-5.27.76Z"/>
        <path class="cls-5" d="M104.92,41s8.87,5.32,8.8,9.28Z"/>
        <polyline class="cls-5" points="37.85 34.06 43.58 35.68 42.89 39.98 45.63 34.81 46.75 34.5 47.93 38.42 48.68 34.38 50.42 34.69 48.67 31.3 46.83 31.36 45.75 32.56 44.29 32.56 42.9 33.45 37.85 34.06"/>
        <polygon class="cls-5" points="79.99 21.11 78.42 15.07 77.51 15.21 77.48 16.35 76.51 16.38 76.43 20.2 75 18.49 73.63 18.58 72.58 23.05 72.28 17.39 72.22 15.81 74.44 15.17 75.33 13.4 77.11 13.4 78.95 13.52 79.99 21.11"/>
        <polygon class="cls-5" points="113.75 51.04 118.48 50.15 117.02 51.32 113.75 51.04"/>
        <path class="cls-5" d="M17.38,63.26S20.25,68.08,21.8,69l.36.24-4.78-6h0"/>
        <path class="cls-5" d="M18.25,62.68l4.2,5.89S21,65,20.8,64.79s-2.55-2.11-2.55-2.11"/>
        <path class="cls-5" d="M76.69,37.86l-3.32-2.75,1.26-1.39S75.87,37.42,76.69,37.86Z"/>
        <polygon class="cls-5" points="72.27 36.27 76.22 38.34 73.34 37.49 72.27 36.27"/>
        <polygon class="cls-5" points="71.42 37.03 75.87 39.49 72.48 38.67 71.42 37.03"/>
        <polygon class="cls-5" points="70 38.35 74.45 40.81 71.05 39.99 70 38.35"/>
        <path class="cls-5" d="M90.62,42s3.86.49,5,1.41-1.1-1.66-1.1-1.66S91.3,41.43,90.62,42Z"/>
        <path class="cls-5" d="M88.42,42.1l5.69,3.43s-5.39-2.21-5.81-2.08S92.09,48,92.09,48s-5.45-5.51-5.63-5.39A19.24,19.24,0,0,0,88.42,42.1Z"/>
        <path class="cls-5" d="M80.51,41.73C82.45,41.53,93.74,40,93.74,40s-6.48.33-6.88.26S80.51,41.73,80.51,41.73Z"/>
        <path class="cls-5" d="M36.24,87.09s-5.68,7.79-5.88,8.31c0,0,5.94-7.71,6.32-7.41S36.24,87.09,36.24,87.09Z"/>
        <path class="cls-5" d="M1.21,50.81A11.65,11.65,0,0,0,5,48.89a11.48,11.48,0,0,0,1.28-1.16"/>
        <path class="cls-5" d="M2.37,51.79a9.09,9.09,0,0,0,4.36-2.73,6.54,6.54,0,0,0,.4-.52"/>
        <path class="cls-5" d="M3.47,53a8.21,8.21,0,0,0,4.47-2.67,4.67,4.67,0,0,0,.35-.46"/>
        <path class="cls-5" d="M5,54.23A10.18,10.18,0,0,0,8.7,51.91c.21-.21.4-.43.58-.64"/>
        <path class="cls-5" d="M6,55.22a8.25,8.25,0,0,0,4-2.09c.21-.21.4-.43.58-.64"/>
        <path class="cls-5" d="M7.23,56.86a12.69,12.69,0,0,0,3.68-2c.21-.16.4-.33.59-.49"/>
        <path class="cls-5" d="M8.58,58.27A10.41,10.41,0,0,0,12.22,56l.26-.27"/>
        <path class="cls-5" d="M9.69,59.65a12.79,12.79,0,0,0,3.75-2.26l.39-.37"/>
        <path class="cls-5" d="M10.75,60.77a9.82,9.82,0,0,0,3.8-2.24l.26-.26"/>
        <path class="cls-5" d="M11.63,62a8,8,0,0,0,3.87-2.36q.16-.18.3-.36"/>
        <path class="cls-5" d="M12.58,63.16a6.15,6.15,0,0,0,3.55-2.39l.23-.4"/>
        <path class="cls-5" d="M13.7,64.67a7.65,7.65,0,0,0,3.51-2.43c.07-.08.13-.17.2-.26"/>
        <path class="cls-5" d="M20.31,73.87a6.37,6.37,0,0,0,2.58-2.05,4.89,4.89,0,0,0,.38-.59"/>
        <path class="cls-5" d="M21.23,74.78A5,5,0,0,0,23.81,73c.12-.18.23-.36.32-.53"/>
        <path class="cls-5" d="M22.21,75.91a9.69,9.69,0,0,0,2.45-1.51l.38-.34"/>
        <path class="cls-5" d="M23,77a5.9,5.9,0,0,0,2.53-1.51c.11-.11.21-.23.3-.34"/>
        <path class="cls-5" d="M24,78.28a3.85,3.85,0,0,0,2.75-1.54,3.36,3.36,0,0,0,.19-.38"/>
        <path class="cls-5" d="M25,79.56a9.19,9.19,0,0,0,2.46-1.47l.3-.26"/>
        <path class="cls-5" d="M26,80.73a5.67,5.67,0,0,0,2.23-1.43l.26-.3"/>
        <path class="cls-5" d="M26.28,82.24a11.19,11.19,0,0,0,2.61-1.66l.41-.37"/>
        <path class="cls-5" d="M26.74,83.56a8.19,8.19,0,0,0,3.09-1.81l.3-.3"/>
        <path class="cls-5" d="M27.34,85.07a6.33,6.33,0,0,0,3.52-2.16c.11-.15.22-.3.31-.45"/>
        <path class="cls-5" d="M28,86.93a5.89,5.89,0,0,0,3.75-2.08,3.32,3.32,0,0,0,.28-.41"/>
        <path class="cls-5" d="M28.75,89.22a8.39,8.39,0,0,0,3.85-3.07c.13-.2.24-.39.35-.59"/>
        <path class="cls-5" d="M29.74,91.64a9.67,9.67,0,0,0,3.75-3.86c.13-.25.24-.5.34-.75"/>
        <path class="cls-5" d="M105.21,40.65a5.89,5.89,0,0,0,2.65-.42,3.71,3.71,0,0,0,.4-.19"/>
        <path class="cls-5" d="M106.37,41.45A3.7,3.7,0,0,0,108.2,41l.34-.21"/>
        <path class="cls-5" d="M107.38,42.09a4.69,4.69,0,0,0,1.77-.52,3.62,3.62,0,0,0,.48-.31"/>
        <path class="cls-5" d="M108.29,42.64a3.43,3.43,0,0,0,1.56-.58,2.48,2.48,0,0,0,.3-.25"/>
        <path class="cls-5" d="M109,43.28a2.35,2.35,0,0,0,1.74-.61,1.86,1.86,0,0,0,.21-.28"/>
        <path class="cls-5" d="M109.76,43.92a2.56,2.56,0,0,0,1.61-.46,2.32,2.32,0,0,0,.28-.24"/>
        <path class="cls-5" d="M110.61,44.65a3.57,3.57,0,0,0,1.25-.34,3.46,3.46,0,0,0,.43-.24"/>
        <path class="cls-5" d="M111.31,45.26a1.9,1.9,0,0,0,1.22-.37,2.7,2.7,0,0,0,.34-.33"/>
        <path class="cls-5" d="M112,45.93a1.85,1.85,0,0,0,1.5-.12,1.29,1.29,0,0,0,.27-.25"/>
        <path class="cls-5" d="M112.83,46.91a2.91,2.91,0,0,0,1.26-.31l.33-.21"/>
        <path class="cls-5" d="M113.38,47.67a3.35,3.35,0,0,0,1.35-.28,3.13,3.13,0,0,0,.45-.24"/>
        <path class="cls-5" d="M113.93,48.55a5.14,5.14,0,0,0,1.62-.36,2.53,2.53,0,0,0,.33-.16"/>
        <path class="cls-5" d="M114.27,49.44a4.35,4.35,0,0,0,2.35-.28A3,3,0,0,0,117,49"/>
      </g>
    </g>
  </g>
</svg>
