<svg xmlns="http://www.w3.org/2000/svg" width="292.21" height="52.51" viewBox="0 0 292.21 52.51">
  <defs>
    <style>
      .cls-1 {
        fill: #415b93;
      }

      .cls-2 {
        fill: #fff;
      }
    </style>
  </defs>
  <title>facebook_knap</title>
  <g id="Layer_2" data-name="Layer 2">
    <g id="Layer_1-2" data-name="Layer 1">
      <g>
        <rect class="cls-1" width="292.21" height="52.51" rx="7.87"/>
        <path class="cls-2" d="M26.39,37.67v8.11c0,.73-.11.83-.85.83H20c-.73,0-.84-.11-.84-.84V30c0-.19,0-.38,0-.58,0-.44-.18-.64-.67-.63-1.52,0-3,0-4.57,0-.67,0-.76-.1-.77-.78,0-1.84,0-3.67,0-5.5,0-.78.06-.84.81-.84h4.11c1.07,0,1.09,0,1.09-1.05,0-1.68,0-3.36,0-5a8.28,8.28,0,0,1,2.94-6.27A7.64,7.64,0,0,1,26.34,7.5a48.17,48.17,0,0,1,6.47,0,.59.59,0,0,1,.66.68c0,1.68,0,3.36,0,5,0,.62-.18.78-.79.79a34.93,34.93,0,0,0-4.22.12,2.26,2.26,0,0,0-1.75,1.47,9.42,9.42,0,0,0-.31,3.25c0,.7,0,1.4,0,2.09a.53.53,0,0,0,.55.64c.23,0,.47,0,.7,0h4.86c.71,0,.83.07.72.77-.21,1.43-.33,2.86-.53,4.29-.07.5-.2,1-.25,1.48s-.28.58-.69.58c-1.47,0-2.94,0-4.4,0-.95,0-.95,0-.95,1Z"/>
        <g>
          <path class="cls-2" d="M64.36,24.54q0,6.21-2.61,9.63T54.07,37.6H47.52V11.4h6.59a9,9,0,0,1,7.64,3.46Q64.36,18.33,64.36,24.54Zm-4.44,0a16.83,16.83,0,0,0-.43-4.07,8.74,8.74,0,0,0-1.2-2.89,5.2,5.2,0,0,0-1.85-1.72,4.9,4.9,0,0,0-2.33-.57H52V33.71h2.11a4.9,4.9,0,0,0,2.33-.57,5.29,5.29,0,0,0,1.85-1.72,8.8,8.8,0,0,0,1.2-2.87A16.54,16.54,0,0,0,59.92,24.54Z"/>
          <path class="cls-2" d="M71.42,29.23a9.3,9.3,0,0,0,.23,2.09A5.74,5.74,0,0,0,72.29,33a3.59,3.59,0,0,0,1,1.14,2.62,2.62,0,0,0,3.26-.31,6.11,6.11,0,0,0,1.09-1.7l3.07,1.77a7.66,7.66,0,0,1-2.31,3.13,6,6,0,0,1-3.83,1.16,6.37,6.37,0,0,1-5.3-2.59q-2-2.58-2-7.43a15.68,15.68,0,0,1,.51-4.13,10.16,10.16,0,0,1,1.48-3.2,6.91,6.91,0,0,1,2.28-2.05,6.59,6.59,0,0,1,6,0,5.86,5.86,0,0,1,2.07,2,9.42,9.42,0,0,1,1.17,3,17.92,17.92,0,0,1,.37,3.77v1.59Zm5.81-3a7.6,7.6,0,0,0-.66-3.42,2.2,2.2,0,0,0-2.08-1.32,2.07,2.07,0,0,0-1.38.48,3.73,3.73,0,0,0-.93,1.21,7.08,7.08,0,0,0-.53,1.55,6.68,6.68,0,0,0-.19,1.5Z"/>
          <path class="cls-2" d="M85,37.6v-28h4.18v28Z"/>
          <path class="cls-2" d="M115.9,28.12a19.31,19.31,0,0,1-.39,4,11.08,11.08,0,0,1-1.17,3.2,6.12,6.12,0,0,1-1.92,2.13,4.71,4.71,0,0,1-2.63.75,4,4,0,0,1-2.68-.9,4.77,4.77,0,0,1-1.46-2.2h-.08V46.48h-4.1V18.73h4v2.66h.07A6,6,0,0,1,107,19a3.78,3.78,0,0,1,2.77-.94,4.53,4.53,0,0,1,2.61.76,6.19,6.19,0,0,1,1.91,2.1,11.51,11.51,0,0,1,1.18,3.19A18.33,18.33,0,0,1,115.9,28.12Zm-4.18,0a16.72,16.72,0,0,0-.19-2.51,8.59,8.59,0,0,0-.55-2,3.72,3.72,0,0,0-1-1.35,2.11,2.11,0,0,0-1.4-.5,2.07,2.07,0,0,0-1.37.5,3.86,3.86,0,0,0-1,1.35,8.09,8.09,0,0,0-.59,2,15.17,15.17,0,0,0,0,5,8.29,8.29,0,0,0,.59,2,3.69,3.69,0,0,0,1,1.37,2,2,0,0,0,1.37.5,2.06,2.06,0,0,0,1.4-.5,3.56,3.56,0,0,0,1-1.37,8.82,8.82,0,0,0,.55-2A16.75,16.75,0,0,0,111.72,28.12Z"/>
          <path class="cls-2" d="M127.63,34.78a4.55,4.55,0,0,1-1.48,2.43,4.41,4.41,0,0,1-2.85.87,5,5,0,0,1-1.67-.3,3.93,3.93,0,0,1-1.53-1A5.18,5.18,0,0,1,119,35a6.87,6.87,0,0,1-.45-2.64,6.55,6.55,0,0,1,.73-3.28,5.61,5.61,0,0,1,1.85-2,7,7,0,0,1,2.51-1,13.51,13.51,0,0,1,2.72-.28h1V25.2a4,4,0,0,0-.76-2.72,2.62,2.62,0,0,0-2-.83,3.87,3.87,0,0,0-1.94.5,5.07,5.07,0,0,0-1.5,1.31l-2-2.62a7,7,0,0,1,2.63-2,7.59,7.59,0,0,1,3.15-.72,7,7,0,0,1,2.94.55,4.77,4.77,0,0,1,1.94,1.61,6.87,6.87,0,0,1,1.05,2.61,17.79,17.79,0,0,1,.32,3.51V37.6H127.7V34.78ZM128.85,13a4.08,4.08,0,0,1-1,2.79A3.35,3.35,0,0,1,125.22,17a3.31,3.31,0,0,1-2.61-1.13,4.11,4.11,0,0,1-1-2.79,4.16,4.16,0,0,1,1-2.8,3.3,3.3,0,0,1,2.61-1.12,3.35,3.35,0,0,1,2.63,1.12A4.12,4.12,0,0,1,128.85,13Zm-1.37,15.72h-1.22a9.1,9.1,0,0,0-1.5.13,3.53,3.53,0,0,0-1.28.5,2.77,2.77,0,0,0-.89,1,3.62,3.62,0,0,0-.33,1.65,3.16,3.16,0,0,0,.65,2.18,2,2,0,0,0,1.5.7,2.21,2.21,0,0,0,1.44-.48,3.47,3.47,0,0,0,.94-1.22,6.26,6.26,0,0,0,.52-1.65,9.77,9.77,0,0,0,.17-1.75ZM127.26,13a2.8,2.8,0,0,0-.54-1.7,1.74,1.74,0,0,0-1.5-.74,1.69,1.69,0,0,0-1.48.74,3,3,0,0,0,0,3.4,1.71,1.71,0,0,0,1.48.74,1.76,1.76,0,0,0,1.5-.74A2.8,2.8,0,0,0,127.26,13Z"/>
          <path class="cls-2" d="M147.72,15.4v7.17h6.73v3.78h-6.7V37.6h-4.47V11.4H155v4Z"/>
          <path class="cls-2" d="M165.48,34.78A4.49,4.49,0,0,1,164,37.21a4.41,4.41,0,0,1-2.85.87,5,5,0,0,1-1.67-.3,4,4,0,0,1-1.53-1A5.18,5.18,0,0,1,156.82,35a6.88,6.88,0,0,1-.44-2.64,6.67,6.67,0,0,1,.72-3.28,5.61,5.61,0,0,1,1.85-2,7,7,0,0,1,2.51-1,13.51,13.51,0,0,1,2.72-.28h1V25.2a4,4,0,0,0-.76-2.72,2.62,2.62,0,0,0-2-.83,3.87,3.87,0,0,0-1.94.5,5.07,5.07,0,0,0-1.5,1.31l-2-2.62a7,7,0,0,1,2.63-2,7.59,7.59,0,0,1,3.15-.72,7,7,0,0,1,2.94.55,4.77,4.77,0,0,1,1.94,1.61,6.87,6.87,0,0,1,1.05,2.61,17.79,17.79,0,0,1,.32,3.51V37.6h-3.48V34.78Zm-.15-6h-1.22a9.1,9.1,0,0,0-1.5.13,3.53,3.53,0,0,0-1.28.5,2.66,2.66,0,0,0-.88,1,3.48,3.48,0,0,0-.34,1.65,3.16,3.16,0,0,0,.65,2.18,2,2,0,0,0,1.5.7,2.21,2.21,0,0,0,1.44-.48,3.5,3.5,0,0,0,1-1.22,6.64,6.64,0,0,0,.51-1.65,9.77,9.77,0,0,0,.17-1.75Z"/>
          <path class="cls-2" d="M182.28,37.76a6.51,6.51,0,0,1-2.52.46,6.08,6.08,0,0,1-5.31-2.83,9.9,9.9,0,0,1-1.35-3.2,17.2,17.2,0,0,1-.45-4.07,16.72,16.72,0,0,1,.47-4.07,9.82,9.82,0,0,1,1.38-3.18,6.43,6.43,0,0,1,2.24-2.05,6.29,6.29,0,0,1,3.06-.72,6.06,6.06,0,0,1,2.6.51,6.2,6.2,0,0,1,1.72,1.15l-1.88,3.15a3.43,3.43,0,0,0-1-.74,2.62,2.62,0,0,0-1.31-.3,2.53,2.53,0,0,0-2.35,1.72,10.93,10.93,0,0,0-.79,4.53,10.63,10.63,0,0,0,.81,4.52,2.63,2.63,0,0,0,2.48,1.7,2.75,2.75,0,0,0,1.33-.3,2.85,2.85,0,0,0,1-.81l1.74,3.26A5.53,5.53,0,0,1,182.28,37.76Z"/>
          <path class="cls-2" d="M189.75,29.23a9.31,9.31,0,0,0,.22,2.09,5.75,5.75,0,0,0,.65,1.71,3.56,3.56,0,0,0,1,1.14,2.62,2.62,0,0,0,3.26-.31,5.69,5.69,0,0,0,1.09-1.7l3.07,1.77a7.49,7.49,0,0,1-2.31,3.13,6,6,0,0,1-3.83,1.16,6.34,6.34,0,0,1-5.29-2.59q-2-2.58-2-7.43a15.26,15.26,0,0,1,.52-4.13,10,10,0,0,1,1.48-3.2,6.82,6.82,0,0,1,2.28-2.05,6.59,6.59,0,0,1,6,0,5.86,5.86,0,0,1,2.07,2,9.19,9.19,0,0,1,1.16,3,17.92,17.92,0,0,1,.37,3.77v1.59Zm5.81-3a7.46,7.46,0,0,0-.67-3.42,2.18,2.18,0,0,0-2.07-1.32,2.1,2.1,0,0,0-1.39.48,3.7,3.7,0,0,0-.92,1.21A6.61,6.61,0,0,0,190,24.7a7.32,7.32,0,0,0-.19,1.5Z"/>
          <path class="cls-2" d="M203.36,9.62h4.19V21.09h.07A4.36,4.36,0,0,1,209.09,19a4.08,4.08,0,0,1,2.62-.85,4.67,4.67,0,0,1,2.62.74,6,6,0,0,1,1.92,2.05A10.68,10.68,0,0,1,217.41,24a19.57,19.57,0,0,1,.38,4,19.18,19.18,0,0,1-.4,4.05,11.94,11.94,0,0,1-1.18,3.25,6.27,6.27,0,0,1-1.92,2.17,4.45,4.45,0,0,1-2.58.77,3.79,3.79,0,0,1-2.8-1,5.65,5.65,0,0,1-1.4-2.37h-.08V37.6h-4.07Zm4,18.54a14.15,14.15,0,0,0,.2,2.5,8.71,8.71,0,0,0,.59,2,3.8,3.8,0,0,0,1,1.37,2.15,2.15,0,0,0,2.76,0,3.62,3.62,0,0,0,.94-1.37,8.76,8.76,0,0,0,.56-2,16.42,16.42,0,0,0,.18-2.5,16.79,16.79,0,0,0-.18-2.52,8.94,8.94,0,0,0-.56-2.05,3.7,3.7,0,0,0-.94-1.37,2.06,2.06,0,0,0-1.39-.5,2.08,2.08,0,0,0-1.37.5,3.89,3.89,0,0,0-1,1.37,8.89,8.89,0,0,0-.59,2.05A14.46,14.46,0,0,0,207.4,28.16Z"/>
          <path class="cls-2" d="M235.22,28.2a15.76,15.76,0,0,1-.5,4.07,9.59,9.59,0,0,1-1.45,3.16,6.84,6.84,0,0,1-2.28,2,6.61,6.61,0,0,1-6.08,0,6.84,6.84,0,0,1-2.28-2,9.59,9.59,0,0,1-1.45-3.16,15.76,15.76,0,0,1-.5-4.07,16.12,16.12,0,0,1,.5-4.13,10.11,10.11,0,0,1,1.43-3.2A6.26,6.26,0,0,1,228,18.1a6.29,6.29,0,0,1,3,.72,6.63,6.63,0,0,1,2.28,2.05,9.91,9.91,0,0,1,1.45,3.2A16.12,16.12,0,0,1,235.22,28.2Zm-4.18,0a16.54,16.54,0,0,0-.18-2.53,8.35,8.35,0,0,0-.58-2,4,4,0,0,0-1-1.37,2.18,2.18,0,0,0-2.78,0,3.82,3.82,0,0,0-.94,1.37,8.39,8.39,0,0,0-.55,2,15.32,15.32,0,0,0-.19,2.53,15.54,15.54,0,0,0,.19,2.52,8.06,8.06,0,0,0,.55,2,3.73,3.73,0,0,0,.94,1.35,2,2,0,0,0,1.39.5,2.1,2.1,0,0,0,1.41-.5,3.65,3.65,0,0,0,1-1.35,8.48,8.48,0,0,0,.56-2A16.79,16.79,0,0,0,231,28.16Z"/>
          <path class="cls-2" d="M252.54,28.2a15.76,15.76,0,0,1-.5,4.07,9.8,9.8,0,0,1-1.45,3.16,6.84,6.84,0,0,1-2.28,2,6.63,6.63,0,0,1-6.09,0,6.84,6.84,0,0,1-2.28-2,9.58,9.58,0,0,1-1.44-3.16,15.33,15.33,0,0,1-.5-4.07,15.69,15.69,0,0,1,.5-4.13,10.32,10.32,0,0,1,1.42-3.2,6.29,6.29,0,0,1,5.35-2.77,6.32,6.32,0,0,1,3,.72,6.63,6.63,0,0,1,2.28,2.05,10.13,10.13,0,0,1,1.45,3.2A16.12,16.12,0,0,1,252.54,28.2Zm-4.18,0a16.49,16.49,0,0,0-.19-2.53,7.94,7.94,0,0,0-.57-2,4,4,0,0,0-1-1.37,2.08,2.08,0,0,0-1.39-.5,2,2,0,0,0-1.39.5,3.7,3.7,0,0,0-.94,1.37,8.85,8.85,0,0,0-.56,2,16.54,16.54,0,0,0-.18,2.53,16.79,16.79,0,0,0,.18,2.52,8.48,8.48,0,0,0,.56,2,3.62,3.62,0,0,0,.94,1.35,2,2,0,0,0,1.39.5,2.06,2.06,0,0,0,1.4-.5,3.56,3.56,0,0,0,1-1.35,8.5,8.5,0,0,0,.55-2A16.75,16.75,0,0,0,248.36,28.16Z"/>
          <path class="cls-2" d="M265.71,37.6l-5-9.07h-.07V37.6h-4.18v-28h4.18V26.68h.07l4.81-7.95h4.85l-5.92,8.69,6.18,10.18Z"/>
        </g>
      </g>
    </g>
  </g>
</svg>
