<svg xmlns="http://www.w3.org/2000/svg" width="375" height="667" viewBox="0 0 375 667">
  <defs>
    <style>
      .cls-1 {
        fill: #99687a;
        stroke: #000;
        stroke-miterlimit: 10;
      }

      .cls-2 {
        fill: #e58247;
      }

      .cls-3 {
        fill: #efb491;
      }
    </style>
  </defs>
  <title>Artboard 10</title>
  <g id="Layer_21" data-name="Layer 21">
    <rect class="cls-1" width="375" height="667"/>
    <path class="cls-2" d="M-1.26,8.3,8.88,6.89A17.22,17.22,0,0,1,20.34,15.3c1.74,5.67-2.92,8.89-3.48,12.23s4.76,16.06,6.46,17.83a10.88,10.88,0,0,1,2.46,7.85c-.33,2.48.24,11.42,4,14.23s3.89,2.59,5,0-4.57-8.89-5-10.8-1.66-6.49.31-8.12,9.9,2.3,11.41,3.79,3.77,4.23,4.36,7.12,3.59,13.73,7.88,11.4-4.09-8.59-3.56-11.72,4.64-2.81,6.34-2.37,11.09,5.68,13.88,3.67-.65-4.9-3.52-6.09S55,50.55,49.4,50.76,41.69,47.68,40.32,47,30.24,45.2,28.8,42.69,22.22,27.51,24,23.74s5.46-5.57,8-4.69,5.69,1.6,9.63,9.21S50.05,41.76,56.52,41s12,.45,12.34,1.18,10.11,7.7,12.2,5.24-.06-4-2.55-5.3-5.37-5.33-21.59-3.94C47.69,35,44.51,30.05,46.16,27.89s9-1.8,11.71-.34,5,1.59,5.07.16a4.22,4.22,0,0,0-4.69-4c-3.12.47-13.73-.07-15.07-1.19s-6.3-2.73-4.7-8.89c3.76-4,11.9-.31,11.9-.31s10.68,6.57,12.24,5.43.86-5.42-.82-6.67S53.25,7,48.13,7.49,36.1,12.32,33.71,12s-7.51-.85-8.27-3.38S17,1.79,14.49.59s2.26-5.14,3.91-6.36,8.79-5.4,10-5.13,9.64,5,12.17,4.58S46-6,46.07-8.71s-11.51-4.81-11.51-4.81l1.5-5.69s6.85-.45,8.67.52,7.59.63,8.09-1.73-1.36-6.35-6.86-5.7a123.24,123.24,0,0,0-14,3L.37.77Z"/>
    <path class="cls-3" d="M-11.75,21.46S-.88,39-3.78,47.91s-1,19.49,2.24,23.17c.73,2.53-1.23,6.48-1.23,6.48S-5.26,85.31-.36,91.7C4,93.92,3.41,89.92,3.41,89.92A9.9,9.9,0,0,0,.57,84.71c-2.3-2,0-8.76,1.13-9.26s6.72,5,6.72,5,2.87,4.31,7.23,3.56c4-2.76-.27-5.75-.27-5.75s-6.08-3-7-3.15-7.58-9.33-8-11,11.37,1.43,11.37,1.43,4.34-.63,5.79-2.17,10.9,1.46,12.59,4.21,4.39.23,4.39.23,1.34-1-.63-4.49c0,0-1.38-4.38-9.8-5s-12.36,1.83-12.36,1.83a14.37,14.37,0,0,1-7.33.24c-3.39-1-6.34-1.57-5.34-6.84s1.69-13.87.83-16c0,0,12.5,3,13.54.87s6,.17,6,.17,3.4,5.38,3.47,7.21S26.6,50.26,28,48.47s.82-6.52-1.62-7-4.62-3.43-4.62-3.43-1.36-2.81,2.16-4.68S37,35.87,37,35.87s4.5,3.53,5.83,2.08,1.6-5.1-1.32-6.35-18.32-3.49-18.32-3.49-10,3.47-13,5.32S.75,31.52.75,31.52s-5.21-5.31-7.14-9Z"/>
    <path class="cls-2" d="M377.18,659.07,363.44,659s-9.09-2.57-13.61-13.39c-1.22-7.87,5.6-11.24,7-15.57s-3.23-22.25-5.15-24.93a14.63,14.63,0,0,1-1.75-10.9c.92-3.24,1.88-15.23-2.62-19.69s-4.66-4.19-6.59-.88,4.36,12.68,4.62,15.32.94,8.94-2,10.73-12.71-5-14.43-7.25-4.2-6.34-4.42-10.29-2.13-18.93-8.28-16.67,3.79,12.2,2.47,16.26-6.69,2.84-8.87,1.92-13.63-9.67-17.73-7.54-.08,6.62,3.5,8.77,15,7.2,22.48,8,9.64,5.58,11.34,6.72,13,4.35,14.47,8,5.81,21.43,2.68,26.09-8.32,6.34-11.47,4.7-7.25-3.22-11-14.1-8.6-19.55-17.35-19.75-15.83-2.91-16.16-3.95-11.95-12.18-15.2-9.31-.7,5.35,2.36,7.53,6.11,8.11,27.92,9.4c11.66,6,14.93,13.14,12.32,15.7s-12.28.66-15.62-1.81-6.3-3.07-6.7-1.19,1.21,6.28,5.45,6.26,18.23,2.74,19.79,4.49,7.84,4.84,4.54,12.71c-5.77,4.59-15.88-1.88-15.88-1.88s-12.91-10.78-15.21-9.57-2.18,7-.19,9,10.37,8.41,17.27,8.69,16.91-4.1,20-3.26,9.82,2.58,10.34,6.09,9.86,10.73,13,12.82-4,6.39-6.42,7.69-12.71,5.48-14.23,4.9-11.85-8.43-15.29-8.43-7.24-1.43-7.8,2.1,14.36,8.61,14.36,8.61l-3.09,7.28s-9.19-.73-11.42-2.38-9.95-2.29-11.07.75.58,8.7,8,8.89S327,694.39,327,694.39l46.58-25.64Z"/>
    <path class="cls-3" d="M393.65,643.61s-11-25.42-5.48-36.68,5.07-25.7,1.48-31.2c-.48-3.51,2.89-8.38,2.89-8.38s4.8-9.81-.48-19.25c-5.39-3.79-5.35,1.64-5.35,1.64a13.24,13.24,0,0,0,2.76,7.47c2.68,3.13-1.62,11.65-3.28,12.08s-8-7.88-8-7.88-3-6.28-8.92-6.13c-5.85,2.89-.74,7.7-.74,7.7s7.49,5.13,8.68,5.53,8.28,13.86,8.47,16.12-14.83-4.09-14.83-4.09-5.88,0-8.11,1.77-14.19-4-15.91-8-5.78-1.15-5.78-1.15-2,1,0,6.08c0,0,1,6.1,12.05,8.56s16.78,0,16.78,0,5.46-.91,9.77,1.09,8.13,3.31,5.78,10.11S380.51,617,381.25,620c0,0-16-6.38-17.82-3.78s-7.9-1.37-7.9-1.37S352,607,352.3,604.59s-4-6.64-6.24-4.52-2.34,8.49.81,9.58,5.48,5.44,5.48,5.44,1.27,4-3.77,5.81-16.95-5.85-16.95-5.85-5.3-5.54-7.34-3.88-3.12,6.47.53,8.7S348.48,628,348.48,628s14-2.67,18.33-4.56S379,627.84,379,627.84s5.89,8,7.73,13.38Z"/>
  </g>
</svg>
