<svg xmlns="http://www.w3.org/2000/svg" width="375" height="667" viewBox="0 0 375 667">
  <defs>
    <style>
      .cls-1 {
        opacity: 0.5;
      }

      .cls-2 {
        fill: #feb913;
        stroke: #996779;
        stroke-miterlimit: 10;
        stroke-width: 3px;
      }
    </style>
  </defs>
  <title>gameover</title>
  <g id="Layer_2" data-name="Layer 2">
    <g id="Layer_1-2" data-name="Layer 1">
      <rect class="cls-1" width="375" height="667"/>
      <g>
        <path class="cls-2" d="M53.34,233.92a7.42,7.42,0,0,1,3.35-.75c1.56-.08,3.2-.09,4.94,0s3.36.15,4.86.28,2.51.2,3,.2h.16l.08.08q.47,4.19.63,8.88a42.25,42.25,0,0,1-.63,9,10,10,0,0,1-2.45,6.16,13.36,13.36,0,0,1-5.06,3.24c-1.31.37-2.68.7-4.1,1a39.28,39.28,0,0,1-4.35.63,21.35,21.35,0,0,1-4.31,0,14.49,14.49,0,0,1-4-1,11,11,0,0,1-4.82-3.63,17.62,17.62,0,0,1-2.61-5.69c-.16-.58-.33-1.38-.51-2.41s-.33-2.06-.44-3.12c-.16-1.68-.29-3.21-.39-4.58s-.2-2.73-.28-4.07-.13-2.76-.16-4.26,0-3.23,0-5.18c0-1.68.13-3.41.24-5.17s.29-3.49.55-5.18a22.62,22.62,0,0,1,1.38-5,8.79,8.79,0,0,1,3.28-4,10.24,10.24,0,0,1,3.56-2,26.92,26.92,0,0,1,4.1-.95,25.19,25.19,0,0,1,8.3.28,16.92,16.92,0,0,1,6.79,3,13,13,0,0,1,4.27,5.65,16.9,16.9,0,0,1,.87,8.34l-.08.47c-.11.16-.34.24-.71.24s-1,0-1.82.08-1.46,0-2,0-1.11,0-1.66,0-1.12,0-1.7-.08-1.26-.13-2.05-.24c-.16-.53-.39-1.17-.68-1.94a9.76,9.76,0,0,0-1.1-2.13,8.89,8.89,0,0,0-1.54-1.74,3.06,3.06,0,0,0-2.06-.75c-.89,0-1.76-.08-2.6-.08a3.06,3.06,0,0,0-2.22.95,3.18,3.18,0,0,0-.43.83,9.4,9.4,0,0,0-.43,1.3,30.47,30.47,0,0,0-.91,4.59q-.36,2.69-.52,5.72c-.1,2-.13,4.13-.07,6.28s.15,4.22.31,6.17A30.18,30.18,0,0,0,48,247a5.61,5.61,0,0,0,2,3.24,5.39,5.39,0,0,0,1.81.71,8.07,8.07,0,0,0,2.49-.08,15.66,15.66,0,0,0,2.41-.63,4.77,4.77,0,0,0,1.5-1.07,4.15,4.15,0,0,0,1-1.78c0-.21.12-.56.2-1.06a15.44,15.44,0,0,0,.16-1.54c0-.53,0-1,0-1.43s-.12-.65-.28-.71a7.17,7.17,0,0,0-1.3,0l-1.74.08a15.28,15.28,0,0,1-1.66,0,3.71,3.71,0,0,1-1.14-.19c-.11-.85-.18-1.58-.2-2.22s0-1.25,0-1.85,0-1.23,0-1.86-.06-1.42-.16-2.37v-.08c0-.05,0-.08.08-.08Z"/>
        <path class="cls-2" d="M100.18,233.69l5.93,27.65v.08a22.26,22.26,0,0,1-5.22.35,31.28,31.28,0,0,1-5.37-.67h-.08a27,27,0,0,1-.9-3c-.3-1.16-.59-2.35-.87-3.56s-.6-2.37-.91-3.47a19.58,19.58,0,0,0-1-2.85,12.21,12.21,0,0,0-1.58-.16h-1c-.29,0-.6,0-1,0s-.8,0-1.38,0a15.36,15.36,0,0,0-.91,3c-.23,1.13-.47,2.31-.71,3.55s-.49,2.44-.75,3.59a12.61,12.61,0,0,1-1.1,3.09c-.06,0-.1,0-.12,0a.21.21,0,0,1-.12,0,15.2,15.2,0,0,1-3.16,0q-2.53-.17-7.9-.08a.24.24,0,0,1-.16-.08c.11-.37.29-1.4.55-3.08s.64-3.88,1.11-6.56,1-5.78,1.7-9.28,1.43-7.23,2.33-11.18,1.87-8.06,2.92-12.33,2.21-8.5,3.48-12.71a7.38,7.38,0,0,1,1.18-.08h1.66c.69,0,1.57,0,2.65,0s2.49-.12,4.23-.28q.23,1,.75,3.12c.34,1.4.71,3,1.1,4.74l1.27,5.65c.44,2,.88,3.92,1.3,5.77s.82,3.52,1.18,5.05S100,232.79,100.18,233.69Zm-8.06,5.13q-.78-6.8-1.38-10.59a39.17,39.17,0,0,0-1-5.13c-.28-.89-.58-1.09-.86-.59a9.87,9.87,0,0,0-.79,3c-.24,1.53-.51,3.45-.79,5.77s-.62,4.82-1,7.5c.89.05,1.84.07,2.84,0S91.12,238.82,92.12,238.82Z"/>
        <path class="cls-2" d="M142.13,236.29l-.24,25.2a20.71,20.71,0,0,0-2.6-.15h-2.85c-.94,0-1.85,0-2.72,0s-1.62,0-2.25,0q-.16-3.41-.2-7.35t-.08-8.06c0-2.74-.11-5.42-.24-8.06s-.33-5-.59-7.27a15.84,15.84,0,0,0-1.26,2.73c-.48,1.24-.95,2.52-1.43,3.83s-.92,2.48-1.34,3.48-.74,1.5-1,1.5-.56-.28-.91-.83a13.78,13.78,0,0,1-1-2.1c-.35-.84-.7-1.73-1.07-2.68s-.68-1.82-.95-2.61-.58-1.71-.94-2.76a133.61,133.61,0,0,0-.44,15q.2,7.58.67,14.93a30.32,30.32,0,0,1-5.53.31c-2-.05-3.84-.07-5.53-.07-.1,0-.18-.08-.23-.24a9.76,9.76,0,0,1-.16-1.5q-.09-1.19-.12-3.6t0-6.36q0-3.94,0-9.79t.08-13.91q0-8.06.12-18.8a9.93,9.93,0,0,1,2.37-.39c.89-.06,1.81-.07,2.76,0l2.85.08c.94,0,1.86,0,2.76,0h.08a9.08,9.08,0,0,1,1.42,2.41c.47,1.08.92,2.22,1.34,3.43s.83,2.37,1.23,3.48a12,12,0,0,0,1.22,2.6.69.69,0,0,0,.48.24c.16,0,.4-.44.75-1.5s.71-2.28,1.1-3.67.85-2.78,1.35-4.15a11.91,11.91,0,0,1,1.46-3,12.81,12.81,0,0,0,2,0l3.16-.16q1.69-.07,3.48-.12c1.18,0,2.2,0,3,0q-.32,7.59,0,15t.32,7.39S142.39,231.24,142.13,236.29Z"/>
        <path class="cls-2" d="M182,250.67v.16c.1,1.69.13,3.44.07,5.25a22.18,22.18,0,0,1-.71,5.1q-8.05-.07-16.39.2a140,140,0,0,1-16-.36q0-6.87-.15-13.63t-.24-13.47q-.09-6.71,0-13.43t.47-13.51c2.06-.1,4.28-.19,6.68-.27s4.8-.15,7.23-.2l7-.16q3.39-.07,6-.08c1.74,0,3.13,0,4.19.08a6.66,6.66,0,0,1,1.58.16,26.88,26.88,0,0,1,.2,5.61c-.14,1.9-.2,3.77-.2,5.61v.08a30.45,30.45,0,0,1-5.1.67c-1.71.08-3.43.1-5.17.08s-3.48,0-5.22,0-3.47.08-5.21.23h-.24l-.08.08a31.16,31.16,0,0,1-.19,4.7,12.24,12.24,0,0,0,.27,4.55l.08.08c1.58.1,3.19.15,4.82.15s3.27,0,4.9.08v.08a26.85,26.85,0,0,1,.24,5.37c-.11,1.8-.14,3.67-.08,5.61a11.91,11.91,0,0,1-2.69.36c-1,0-2,0-2.88,0s-1.75,0-2.49.08a2.84,2.84,0,0,0-1.5.39,23.9,23.9,0,0,0-.28,5.14c.08,1.89.17,3.47.28,4.74l.08.08c3.47,0,6.9.09,10.27.27S178.44,250.78,182,250.67Z"/>
        <path class="cls-2" d="M218,214.65a12.07,12.07,0,0,1,.83,2.41c.18.81.33,1.64.43,2.48.11,1.32.17,2.63.2,3.92s0,2.59,0,3.91q-.24,4.19-.16,8.13c.06,2.64,0,5.32-.23,8.06l-.24,2.61a30.24,30.24,0,0,1-.87,5.57,17.66,17.66,0,0,1-2.13,5.09,9.93,9.93,0,0,1-3.52,3.05,24.9,24.9,0,0,1-9.08,2.56,31.41,31.41,0,0,1-4.55,0c-1.1-.1-2.17-.25-3.2-.43a12.55,12.55,0,0,1-2.92-.91,9.88,9.88,0,0,1-2.49-1.62,7.51,7.51,0,0,1-1.81-2.57,12.55,12.55,0,0,1-1.47-4.22,38.48,38.48,0,0,1-.43-4.55c-.16-4.1-.33-8.23-.51-12.36a112.31,112.31,0,0,1,.12-12.44,35.16,35.16,0,0,1,.9-7.15,14.36,14.36,0,0,1,3.28-6.36,9.63,9.63,0,0,1,1.82-1.42,22.45,22.45,0,0,1,5.65-1.86,24.4,24.4,0,0,1,6.08-.43,23.82,23.82,0,0,1,5.93,1.06,17,17,0,0,1,5.17,2.65A11.27,11.27,0,0,1,218,214.65Zm-8.45,19.27-.16-5.37q0-.08-.12-1.62c-.08-1-.15-2-.2-2.88a9,9,0,0,0-1.22-4,6.63,6.63,0,0,0-2.89-2.69,5.18,5.18,0,0,0-3.23-.23,7.79,7.79,0,0,0-2.93,1.34,10.3,10.3,0,0,0-3.71,5.45,37.31,37.31,0,0,0-.75,6.32q-.12,3.31,0,6.64.39,2.76.55,5.64a23.35,23.35,0,0,0,.95,5.5,5.69,5.69,0,0,0,2.29,2.44,7.39,7.39,0,0,0,3.24,1,8.91,8.91,0,0,0,3.48-.47,6.77,6.77,0,0,0,2.92-1.94,12.45,12.45,0,0,0,1-1.54,3.35,3.35,0,0,0,.4-1.3,11.39,11.39,0,0,0,0-1.7,19.33,19.33,0,0,1,.12-2.65q.07-1.57.12-2.76c0-.79,0-1.24,0-1.35Z"/>
        <path class="cls-2" d="M256.21,207.38q-1.35,7-2.89,13.74t-3.2,13.36q-1.65,6.63-3.4,13.31t-3.63,13.55a19.67,19.67,0,0,0-2,.15,25,25,0,0,1-3,.16c-1.15,0-2.33,0-3.51-.12a13.42,13.42,0,0,1-3-.51,263.25,263.25,0,0,1-5.85-26.27q-2.29-13.47-3.4-27.13v-.08a3.46,3.46,0,0,1,2.06-.79,27,27,0,0,1,3.4-.28c1.21,0,2.36,0,3.47,0a12.8,12.8,0,0,1,2.29.24,33.79,33.79,0,0,1,.4,5.13c0,2.37.18,5.22.39,8.53s.57,7,1.07,11a108.18,108.18,0,0,0,2.33,12.4q1.5-6.41,2.45-11.73t1.66-9.84c.47-3,.92-5.77,1.34-8.29s.92-4.9,1.5-7.11a.14.14,0,0,1,.16-.16,13.28,13.28,0,0,0,2.76.35c.95,0,1.91,0,2.89,0s2,0,2.92,0A19.38,19.38,0,0,1,256.21,207.38Z"/>
        <path class="cls-2" d="M292.39,250.67v.16c.1,1.69.13,3.44.07,5.25a22.18,22.18,0,0,1-.71,5.1q-8.06-.07-16.39.2a140,140,0,0,1-16-.36q0-6.87-.15-13.63T259,233.92q-.08-6.71,0-13.43t.47-13.51c2.06-.1,4.28-.19,6.68-.27s4.8-.15,7.23-.2l7-.16q3.39-.07,6-.08c1.74,0,3.14,0,4.19.08a6.66,6.66,0,0,1,1.58.16,26.88,26.88,0,0,1,.2,5.61c-.14,1.9-.2,3.77-.2,5.61v.08a30.45,30.45,0,0,1-5.1.67c-1.71.08-3.43.1-5.17.08s-3.48,0-5.21,0-3.48.08-5.22.23h-.24l-.08.08a31.16,31.16,0,0,1-.19,4.7,12.46,12.46,0,0,0,.27,4.55l.08.08c1.58.1,3.19.15,4.82.15s3.27,0,4.9.08v.08a26.85,26.85,0,0,1,.24,5.37c-.11,1.8-.13,3.67-.08,5.61a11.91,11.91,0,0,1-2.69.36c-1,0-2,0-2.88,0s-1.75,0-2.49.08a2.84,2.84,0,0,0-1.5.39,23.9,23.9,0,0,0-.28,5.14c.08,1.89.17,3.47.28,4.74l.08.08c3.47,0,6.9.09,10.27.27S288.8,250.78,292.39,250.67Z"/>
        <path class="cls-2" d="M334.57,261.18h.08c-1.84,0-3.9.07-6.16.2a57.67,57.67,0,0,1-6.95,0h-.08c-.53-1.22-1.19-2.66-2-4.35s-1.66-3.45-2.6-5.29-2-3.66-3.09-5.45a46.29,46.29,0,0,0-3.31-4.74l-.16-.24a34.87,34.87,0,0,0-.24,4.46c0,1.77,0,3.59.12,5.45s.17,3.65.28,5.34.18,3,.23,4a11.63,11.63,0,0,1-3.51.71c-1.45.1-2.89.17-4.31.19s-2.7,0-3.83,0a11,11,0,0,0-2.09,0,6.08,6.08,0,0,0,.23-2.18c.06-1.45.08-3.36.08-5.73v-8.17q0-4.62,0-9.56c0-3.29-.08-6.56-.15-9.8s-.15-6.21-.2-8.92-.12-5-.2-7-.17-3.22-.28-3.91q4.43-.63,9.72-1.18a51.89,51.89,0,0,1,11.06.08,16.44,16.44,0,0,1,8.37,2.68,17.72,17.72,0,0,1,5.77,6.09,16.83,16.83,0,0,1,2.17,8,15.45,15.45,0,0,1-2.33,8.49,14.32,14.32,0,0,1-4,4.74,11.29,11.29,0,0,1-6.28,2.13h-.39v.08q1.67,2.93,3.63,5.81c1.32,1.92,2.61,3.86,3.87,5.8s2.48,3.94,3.64,6A41,41,0,0,1,334.57,261.18ZM308,217.25c.05.69.09,1.47.12,2.33s0,1.76,0,2.65,0,1.77,0,2.61a14.73,14.73,0,0,0,.19,2.13h.08c1.21.11,2.53.19,3.95.24a20.23,20.23,0,0,0,4-.24,3.58,3.58,0,0,0,2.33-1.54,5.82,5.82,0,0,0,1-2.69,7,7,0,0,0-.32-2.92,4.7,4.7,0,0,0-1.58-2.33A5.91,5.91,0,0,0,313.4,216,16.78,16.78,0,0,0,308,217.25Z"/>
      </g>
    </g>
  </g>
</svg>
