<svg xmlns="http://www.w3.org/2000/svg" width="163.67" height="178.11" viewBox="0 0 163.67 178.11">
  <defs>
    <style>
      .cls-1 {
        fill: #3f5060;
      }

      .cls-2 {
        fill: #7da0c1;
      }

      .cls-3 {
        fill: #576674;
      }

      .cls-4 {
        fill: #939e67;
      }

      .cls-5 {
        fill: #bec5a4;
      }

      .cls-6 {
        fill: #25281a;
      }

      .cls-7 {
        fill: #4a4f34;
      }

      .cls-8 {
        fill: #c1507a;
      }

      .cls-9 {
        fill: #e58247;
      }

      .cls-10 {
        fill: #ac6235;
      }
    </style>
  </defs>
  <title>koral2</title>
  <g id="Layer_2" data-name="Layer 2">
    <g id="Layer_1-2" data-name="Layer 1">
      <g id="forgrund">
        <g id="koral_gr_2">
          <g>
            <path class="cls-1" d="M116.12,51.92S95.09,81.13,94.8,96s12.08,32,12.08,32L127,140.53l12.24-31"/>
            <path class="cls-2" d="M117.81,51s-3.7.06-1.69,6.32a20.33,20.33,0,0,1,0,11.9s-3.38,10.1.54,14.65,3.8,4.46,4.91,7.85-.33,8.43.77,10.41,7.69,15,7.69,15l9.22-7.58-3.19-4.83s.44-12.95-1.2-16.46-5.49-7-5.6-10S124.58,52.66,117.81,51Z"/>
            <path class="cls-1" d="M122.74,73.14c-1,3.58-3.55,10.67-10.14,14.29a16.12,16.12,0,0,1-2.16,1"/>
            <path class="cls-1" d="M129.56,93.42c-.31,1.38-2.75,11.86-10.64,14.29a11.78,11.78,0,0,1-3.32.5"/>
            <path class="cls-3" d="M122.63,100.58c-.94-1.83.29-6.5-.66-9.63s-.85-3.07-4.22-7.27-.47-13.55-.47-13.55a20.11,20.11,0,0,0,0-11c-1.73-5.8,1.45-5.85,1.45-5.85,5.83,1.56,9.76,22.52,9.85,25.26s3.4,6,4.82,9.24,1,15.24,1,15.24l4.28,7,.53-.43-3.19-4.83s.44-12.95-1.2-16.46-5.49-7-5.6-10S124.58,52.66,117.81,51c0,0-3.7.06-1.69,6.32a20.33,20.33,0,0,1,0,11.9s-3.38,10.1.54,14.65,3.8,4.46,4.91,7.85-.33,8.43.77,10.41,7.69,15,7.69,15l1-.8C129.1,112.78,123.42,102.1,122.63,100.58Z"/>
            <path class="cls-2" d="M113.24,70.84A26.32,26.32,0,0,1,106,85.48a22.78,22.78,0,0,1-1.92,1.69"/>
            <path class="cls-2" d="M117.09,91.13c-1.52,4.3-5,11.69-12.49,16.13a25.32,25.32,0,0,1-3.12,1.57"/>
            <path class="cls-2" d="M125.87,110.81c-1.09,3.8-4.11,12.2-12.23,17.69a28.11,28.11,0,0,1-5.47,2.87"/>
            <path class="cls-4" d="M54.77,11.92s-4.05,8,0,32.83,3,52.71,3,52.71l10.81,12,15.06,9.21L94,114.34s4.83-33.63,16.24-48.95S54.77,11.92,54.77,11.92Z"/>
            <path class="cls-5" d="M59.57,3.13S46.21,17,60.2,35.52c0,0,2.2,5.37,9.43,8.58,3.31,3.68,6.14,10,7.08,12.17s3,9.38,11,8.23c2.35,0,5.34-3.71,5.34-3.71s5,.67,6,2.25,6.44,3.93,11.16,2.35,5.92-15.09,5.92-15.09-2-14.15-15.2-29.4S77.34,2.19,77.34,2.19,67.75-3.31,59.57,3.13Z"/>
            <path class="cls-6" d="M66.94,7.67a157.05,157.05,0,0,0,4.61,32.79c.8,3.2,1.68,6.27,2.61,9.2"/>
            <path class="cls-6" d="M81.22,15.56a83.79,83.79,0,0,1,0,26.86c-.41,2.46-.91,4.79-1.47,7"/>
            <path class="cls-6" d="M105.56,40.25a88.79,88.79,0,0,1-4.41,16.56c-.64,1.71-1.32,3.35-2,4.91"/>
            <path class="cls-6" d="M95.32,29.53a100.15,100.15,0,0,0-5.22,24c-.16,1.75-.27,3.47-.33,5.14"/>
            <path class="cls-7" d="M100.92,20.9C87.72,5.65,77.34,2.19,77.34,2.19s-9.59-5.5-17.77.94c0,0-13.36,13.84.63,32.39,0,0,2.2,5.37,9.43,8.58,3.31,3.68,6.14,10,7.08,12.17s3,9.38,11,8.23c2.35,0,5.34-3.71,5.34-3.71s5,.67,6,2.25,6.44,3.93,11.16,2.35,5.92-15.09,5.92-15.09S114.13,36.15,100.92,20.9Zm7.67,41.5c-4.42,1.45-9.57-.72-10.45-2.17s-5.6-2.07-5.6-2.07-2.79,3.42-5,3.42C80,62.64,78.12,56,77.23,54s-3.53-7.83-6.62-11.22c-6.77-3-8.83-7.92-8.83-7.92C48.68,17.75,61.19,5,61.19,5,68.84-1,77.82,4.12,77.82,4.12S87.54,7.31,99.9,21.37s14.23,27.11,14.23,27.11S113,61,108.59,62.4Z"/>
            <path class="cls-6" d="M94.8,66.79C90.59,76,84.52,91.68,82.61,110.1c-.24,2.27-.39,4.44-.49,6.51"/>
            <path class="cls-6" d="M70.48,50.46a151.89,151.89,0,0,1-1,53.88c-.33,1.6-.68,3.18-1.05,4.73"/>
          </g>
          <path class="cls-8" d="M125.87,128.51l5.24-.39a8.84,8.84,0,0,0,4.86-5.46c.26-3-2.43-4.15-3.07-5.77s.66-8.58,1.32-9.65a5.54,5.54,0,0,0,.39-4.21c-.43-1.22-1.11-5.77.5-7.59s1.67-1.72,2.49-.51-1.34,5-1.37,6-.13,3.44,1,4,4.72-2.23,5.32-3.14a8,8,0,0,0,1.42-4c0-1.52.33-7.29,2.74-6.58s-1.14,4.76-.53,6.27,2.63.91,3.44.51,5-4,6.58-3.34.2,2.53-1.12,3.44a27.94,27.94,0,0,1-8.37,3.64c-2.86.51-3.54,2.38-4.16,2.86s-4.87,2-5.32,3.42-1.67,8.33-.36,10,3.34,2.21,4.51,1.5,2.68-1.41,3.84-5.66,2.78-7.69,6.12-8,6-1.52,6.07-1.92,4.25-5,5.57-4,.4,2-.71,2.94-2.13,3.25-10.42,4.31c-4.3,2.58-5.37,5.4-4.3,6.31s4.7-.06,5.92-1.09,2.32-1.34,2.53-.63a2.17,2.17,0,0,1-1.93,2.53c-1.62.1-6.89,1.52-7.44,2.23s-2.87,2-1.41,5c2.33,1.6,6-1.13,6-1.13s4.65-4.45,5.57-4,1,2.63.3,3.44-3.75,3.47-6.38,3.76-6.56-1.13-7.73-.73-3.69,1.24-3.79,2.59-3.49,4.36-4.64,5.23,1.69,2.34,2.66,2.77,5,1.77,5.55,1.51,4.32-3.53,5.63-3.61,2.73-.74,3,.6-5.26,3.66-5.26,3.66l1.37,2.7s3.49-.52,4.3-1.2,3.74-1.14,4.25,0,0,3.34-2.84,3.6a63.54,63.54,0,0,1-7.35,0l-18.45-8.6Z"/>
          <path class="cls-8" d="M61.05,104.47l-8.47-.62A14.29,14.29,0,0,1,44.74,95c-.43-4.91,3.92-6.7,5-9.32s-1.07-13.86-2.14-15.59a9,9,0,0,1-.63-6.8c.7-2,1.79-9.32-.8-12.26s-2.7-2.78-4-.82,2.16,8,2.21,9.65.21,5.55-1.67,6.53S35,62.83,34.05,61.36a12.82,12.82,0,0,1-2.3-6.54c0-2.45-.53-11.77-4.42-10.62s1.83,7.68.85,10.13-4.25,1.47-5.56.82-8-6.54-10.62-5.4-.33,4.09,1.8,5.56,8.92,5.07,13.53,5.88,5.72,3.85,6.72,4.62,7.86,3.23,8.59,5.52,2.7,13.46.58,16.21S37.82,91.1,35.94,90s-4.34-2.29-6.21-9.15S25.24,68.39,19.84,67.9,10.2,65.44,10,64.79s-6.87-8-9-6.37S.4,61.68,2.19,63.16s3.44,5.26,16.84,7C26,74.29,27.69,78.85,26,80.32s-7.6-.1-9.56-1.77-3.76-2.16-4.08-1a3.49,3.49,0,0,0,3.1,4.08c2.62.17,11.13,2.46,12,3.6s4.64,3.31,2.28,8C26,95.84,20,91.43,20,91.43s-7.52-7.19-9-6.54-1.64,4.25-.49,5.56,6,5.62,10.3,6.08,10.6-1.83,12.49-1.18,6,2,6.13,4.19,5.63,7,7.48,8.45-2.73,3.77-4.29,4.47-8.07,2.86-9,2.44-7-5.7-9.08-5.84-4.41-1.18-4.9,1,8.5,5.91,8.5,5.91L26,120.3s-5.63-.83-6.94-1.94-6.05-1.83-6.87,0,0,5.4,4.58,5.82a100.17,100.17,0,0,0,11.87,0l29.81-13.89Z"/>
          <g>
            <path class="cls-9" d="M71.35,84.06c.27-1.67,2.88-16.93,10.49-18.09,3-.46,5.65,1.52,6.51,2.17,7.24,5.49,6,17.68,4.7,29.67-1.24,11.8-3.74,14-5.43,14.83-3.42,1.72-7.45-.12-8-.36C71.19,108.26,69.81,93.58,71.35,84.06Z"/>
            <path class="cls-9" d="M103.44,77.51c.59-.42,8.65-6.05,13.18-3.09,2.33,1.52,2.66,4.62,3.08,9.06a43.4,43.4,0,0,1-4.32,23c-2.64,5.41-4.33,8.89-8.23,10.29a12.28,12.28,0,0,1-11.94-2.47C87.32,107,91.67,85.91,103.44,77.51Z"/>
            <path class="cls-9" d="M123.82,99.74C132,102,135.45,112,134.32,119.3c-1.7,10.9-14.3,19.72-22.85,16.26-7.64-3.1-10.68-15.45-6.79-24.29C107.59,104.63,115.51,97.44,123.82,99.74Z"/>
            <path class="cls-9" d="M113.53,135.76c8.66-7.29,22.52-5.06,30.05,1.44,1.67,1.44,5.91,5.11,5.36,9.27-1,7.26-15.69,9.79-17.5,10.09-6.92,1.12-21.48,1.42-24.29-6C105.2,145.49,109.7,139,113.53,135.76Z"/>
            <path class="cls-9" d="M60.6,89.61C74.13,98.37,77,113.46,77.69,117.45c.9,4.78,1.61,8.59-.55,10.75-5,5-21.53-3.1-31.42-10.2-9.43-6.76-26.24-22.2-22.33-30C27,80.81,47.22,80.94,60.6,89.61Z"/>
            <path class="cls-9" d="M69.13,112c2.62-5.27,9.32-8.86,14.41-7.21a9.34,9.34,0,0,1,3.91,2.68c5.89,6,4.06,15.72,3.91,16.47-.92,4.51-4.27,13.12-9.88,13.38S71.92,129.37,70.77,127C69.17,123.69,66.27,117.73,69.13,112Z"/>
            <path class="cls-9" d="M83.21,120.76c8.48-17,8.29-22.54,11.85-22.88,4.44-.41,8.69,7.91,10.2,12.13,3.92,11-1.26,20.64-2.21,22.33-2.14,3.82-5.69,10.14-11.57,10.2S80.55,136.5,79.9,131C79.51,127.67,80.82,125.54,83.21,120.76Z"/>
            <path class="cls-9" d="M76.59,151.91c6.82-3.38,16.21-1.83,20.4,4.68a14.25,14.25,0,0,1,0,15.16c-6.1,9-24.73,8-28.94-.27C65.13,165.74,68.76,155.78,76.59,151.91Z"/>
            <path class="cls-9" d="M88.35,146.28c-.75-9.6-10.86-14.61-17.73-15.19a14.83,14.83,0,0,0-8.32,1.45c-6.26,3.26-10.08,11.68-8,19.17,2.53,8.89,12.79,14.23,21.71,11.58C83.24,161.15,89,154,88.35,146.28Z"/>
            <path class="cls-9" d="M87.62,134.35c3.81-7.26,12.44-15.44,19.54-13.39,4.09,1.18,6.24,5.34,7.6,8,4.25,8.21,1.91,16.59,1.08,19.53-1.16,4.16-2.83,10.13-8.68,14.11-3.86,2.63-10.93,5.34-16.28,2.54C82.42,160.67,82.27,144.56,87.62,134.35Z"/>
            <path class="cls-9" d="M43.64,149.71C28.17,145.2,21.14,131.56,19.27,128c-2.23-4.32-4-7.77-2.55-10.46,3.37-6.27,21.52-3.21,33,.75,11,3.78,31.51,13.74,30,22.38C78.39,148.48,59,154.18,43.64,149.71Z"/>
            <g>
              <path class="cls-10" d="M67.32,97.89s4.4,3.56,8.81,12.09C76.13,110,74.61,100.47,67.32,97.89Z"/>
              <path class="cls-10" d="M65.84,113.67s3-8.55,10.85-7.4C76.69,106.27,73,104.75,65.84,113.67Z"/>
              <path class="cls-10" d="M79,107.25s4.41,3.56,8.82,12.09C87.8,119.34,86.28,109.83,79,107.25Z"/>
              <path class="cls-10" d="M84.33,103.94s3.07-5.68,6.6-6A24.29,24.29,0,0,0,84.33,103.94Z"/>
              <path class="cls-10" d="M104.29,112.68s1.53-8.28,12.12-11.73A38.87,38.87,0,0,0,104.29,112.68Z"/>
              <path class="cls-10" d="M104.29,120.84s6.08-2.65,12.12,8.14C116.41,129,111.68,122.6,104.29,120.84Z"/>
              <path class="cls-10" d="M87.8,149.52a16.89,16.89,0,0,0-12.27-17.59S91.21,132.36,87.8,149.52Z"/>
              <path class="cls-10" d="M116.41,132.59s1.24,14,0,15.84A21.49,21.49,0,0,0,116.41,132.59Z"/>
              <path class="cls-10" d="M100.07,101s4.15,12.41,4.22,15.71C104.29,116.66,105,103.88,100.07,101Z"/>
              <path class="cls-10" d="M86.27,140.29s-3.79-5.45,5.62-13.48C91.89,126.81,86.56,132.69,86.27,140.29Z"/>
              <path class="cls-10" d="M66,133.42a16.87,16.87,0,0,0-11.28,18.24S48.88,137.09,66,133.42Z"/>
              <path class="cls-10" d="M47.28,117.44s16,4.68,20.86,9.37"/>
            </g>
          </g>
        </g>
      </g>
    </g>
  </g>
</svg>
