<svg xmlns="http://www.w3.org/2000/svg" width="200" height="200" viewBox="0 0 200 200">
  <defs>
    <style>
      .cls-1 {
        fill: #d6d9da;
      }

      .cls-2 {
        fill: #bec9ce;
      }

      .cls-3 {
        fill: #989fa2;
      }
    </style>
  </defs>
  <title>milkcan</title>
  <g id="milkcan">
    <path class="cls-1" d="M99.19,14.82s.55-.29,1.54-.77A66.61,66.61,0,0,1,112.9,9c6.09-.57,14-1.79,19.72-2-2.05,5.33-5.48,15.92-5.48,15.92L100.5,24.62Z"/>
    <path class="cls-2" d="M58.3,15.52l3.81,12.06L45.61,66.94l8.25,50.79,5.23,4-1.59,1.15,2.88,1.88-3.31,3.75h1L53.86,135s0,25.58,4.14,43.4c0,0-.91,9.14-2.28,12.79s34.72,3.2,41.12,2.29,30.61-5.48,36.09-9.6c0,0,11.42-6.39,18.27-6.85,0,0,1.37-24.67-5.48-49.8L139,124.16l5.32-9.57s-3.72-25-6.91-32.16l-4.52-31.1-3.19-8.24a124.7,124.7,0,0,1,2.92-36.15s-3.56,7.56-26,9c0,0-6.34-7.7-16.65-6.31S58.3,15.52,58.3,15.52Z"/>
    <polyline class="cls-3" points="53.52 115.63 66.12 123.1 59.82 127.84 60.62 128.48 58.7 131.81 63.69 128.86 54.1 142.71 53.86 135.04 58.08 128.55 57.07 128.55 60.38 124.8 57.5 122.92 59.09 121.77 53.86 117.73 53.52 115.63"/>
    <path class="cls-3" d="M87.92,122.64l-6-55.8s6.28,33.18,8.29,45,1,10.81,1,10.81L99,124.9l20.54-2.52s-18.62,3.77-21.12,5.53-8,2.27-8,2.27l3.27,4s-1.26,19.85,2,25.88c0,0-5.28-32.17-13.82-33.17C81.89,126.91,88.25,125.67,87.92,122.64Z"/>
    <path class="cls-3" d="M80.89,194.16s12-.93,12.49-2.47,5.3-21,1.71-26.85c0,0,4.65,7.69,4,25.65l16.9-.74s-19.43,4.84-35,4.41"/>
    <path class="cls-3" d="M58,178.44s2.72,6.52,2.56,9.8S78,194.16,78,194.16s-20.18.33-22.28-2.6,0-.33,0-.33,2.06-10.44,2.28-12.79"/>
    <path class="cls-3" d="M130.6,185.23s8.12-7.33,18.5-10.1A46.27,46.27,0,0,0,150.63,156c-1.3-11.22,1.75,16.6.57,21.12Z"/>
    <path class="cls-3" d="M148.38,139s-4.19-8.36-10.53-11.48L139.7,126l-3.6-1.46,3.6-4.78s-9.35,4.39-10.13,4.39c0,0,12.61-8.76,11.47-10.67,0,0,.91-14.09-.59-20.24s3.87,21.37,3.87,21.37L139,124.16l6.72,3.11Z"/>
    <path class="cls-3" d="M54.88,60.4s-4.61,2.93-5.58,5.44c0,0,18.54,1.25,24.81,4.18h-28l-.5-3.08S47.07,63.75,54.88,60.4Z"/>
    <path class="cls-3" d="M67.7,65.21l12.55.91.69,2.23A56,56,0,0,0,67.7,65.21Z"/>
    <path class="cls-3" d="M63.9,34.53S72,54.41,80,64.58Z"/>
    <path class="cls-3" d="M87.51,63.45S113,59.7,115.74,58.33s17.64-3.63,17.64-3.63-12.94.4-17.33,1.67S87.51,63.45,87.51,63.45Z"/>
    <path class="cls-3" d="M117.93,24.37s7.3,16.09,9.53,18.77a17.44,17.44,0,0,0,3.62,3.52l-1.38-3.57,1.38-28.43s-3.77,14.92-3.47,18.8S117.93,24.37,117.93,24.37Z"/>
    <path class="cls-3" d="M91,20.49s-24.47,5.25-28.85,7.09h0S77.7,21.39,91,20.49Z"/>
    <path class="cls-3" d="M63.11,38.71a149.79,149.79,0,0,1-1,16.66c-.19,1.32-2,2.13-2.59,3.13-.46.72,2.82-1.65,3.65-1.69,0,0,2.63,1.2,3.7.87A4.84,4.84,0,0,1,63.92,55C62.31,50,63.73,40.09,63.11,38.71Z"/>
    <path class="cls-3" d="M62.11,27.58l1.32,5.15-1.32-3s-5.76,12.72-9.45,20.37Z"/>
    <path class="cls-3" d="M99,10.7A47.4,47.4,0,0,1,105,16.42c.56.7,1.17,7.91,1.39,8.48,0,0,.58-6.81,1.68-7.21,2.79-1,7.87-2.82,8.87-3,1.39-.29-10.24,1.27-10.24,1.27A23,23,0,0,0,99,10.7Z"/>
  </g>
</svg>
