<svg xmlns="http://www.w3.org/2000/svg" width="375" height="667" viewBox="0 0 375 667">
  <defs>
    <style>
      .cls-1 {
        opacity: 0.5;
      }

      .cls-2 {
        fill: #d9d2c0;
      }

      .cls-3 {
        fill: #fbf8ee;
        stroke: #d9d2c0;
        stroke-width: 2px;
      }

      .cls-3, .cls-5 {
        stroke-miterlimit: 10;
      }

      .cls-4 {
        fill: #a39e90;
      }

      .cls-5 {
        fill: #feb913;
        stroke: #996779;
        stroke-width: 3px;
      }

      .cls-6 {
        fill: #996779;
      }
    </style>
  </defs>
  <title>regler_v2</title>
  <g id="Layer_2" data-name="Layer 2">
    <g id="Layer_1-2" data-name="Layer 1">
      <rect class="cls-1" width="375" height="667"/>
      <g>
        <g>
          <path class="cls-2" d="M282.85,407s24.27,16.71,16.16,38.33-9.46,33.78-6.08,41.21S280.77,498.68,274,497.33s-.67,6.08-12.84,2-19.56.71-21.94-1.67-22.65,8.43-29.4,1.67-17.33,13.75-23.19,3.84-14.65,8.32-22.08.89-13.52,9.46-24.33,4.05-29,11.49-28.37,0-1.35-25.67,4.73-29.05-20.27-17.57-4.06-45.94S282.85,407,282.85,407Z"/>
          <path class="cls-3" d="M346.49,377.74a37.85,37.85,0,0,0,5.41-32.43c-5.41-18.91,21.62-13.51-.68-49.32,0,0,23-24.32-1.35-40.54S331,210.86,331,210.86,341.77,198.7,299.2,194c0,0-14.86-9.46-14.19-14.19s13.51-9.46-13.51-9.46-27-9.46-27-9.46-22.22-17-43.54-7.8-5.78,5.78-5.78,5.78-12.16,10.81-27,6.75-16.9-4.73-32.44-4.05-27,27-27,27-51.2,15-45.19,38.59S45.83,251.4,45.83,251.4s-17.56,14.86-17.56,33.78S41.11,298,41.11,298s-29.73,17.57-23,41.89l13.52,13.51-2,19.59s87.83,55.41,96.62,68.24,72.29,102,155.39-6.75C281.63,434.5,324.87,387.2,346.49,377.74Z"/>
        </g>
        <path class="cls-2" d="M257.6,445.92q10.71-14.22,21.8-28.15t22.54-27.56c7.65-9.07,15.46-18,23.63-26.63,4.11-4.28,8.29-8.5,12.66-12.52a88.65,88.65,0,0,1,14-10.95l0,0c-1.24.83-2.52,1.57-3.68,2.49L346.79,344l-1.71,1.41c-1.17.92-2.27,1.91-3.39,2.89s-2.2,2-3.29,3c-4.32,4.05-8.47,8.29-12.54,12.6-8.15,8.63-16,17.54-23.68,26.57S287,408.64,279.56,417.9s-14.74,18.6-21.93,28Z"/>
        <path class="cls-2" d="M243.55,452.82c7.44-15.17,15.54-30,24-44.64s17.46-28.95,26.84-43S313.68,337.39,324,324l7.92-9.91c2.69-3.26,5.47-6.44,8.21-9.66l4.11-4.82c1.4-1.58,2.86-3.12,4.28-4.68l8.58-9.33,0,0-8.51,9.39c-1.42,1.57-2.86,3.11-4.25,4.71l-4.08,4.84c-2.7,3.25-5.47,6.44-8.13,9.72l-7.84,9.95c-10.36,13.34-20.34,27-29.68,41.07s-18.39,28.36-26.92,42.94-16.67,29.41-24.16,44.56Z"/>
        <path class="cls-2" d="M227.91,456.05q23.53-57.43,48.41-114.29c8.34-18.93,16.82-37.8,25.67-56.5,4.45-9.34,9-18.62,13.8-27.8q3.58-6.88,7.41-13.63a123.14,123.14,0,0,1,8.43-13l0,0a120.35,120.35,0,0,0-8.34,13.06q-3.79,6.76-7.33,13.66c-4.73,9.2-9.24,18.51-13.64,27.87C293.48,304.11,285,323,276.61,341.89S260,379.8,251.94,398.83s-16.11,38.11-24,57.23Z"/>
        <path class="cls-2" d="M223,419.74q6.54-31.1,13.67-62t14.67-61.81c5.12-20.54,10.36-41.06,16-61.48s11.65-40.73,18.21-60.86h0c-6.45,20.17-12.28,40.53-17.86,60.95s-10.89,40.92-16,61.46-10,41.15-14.8,61.77-9.4,41.29-13.82,62Z"/>
        <polygon class="cls-2" points="202.42 399.14 200.88 276.92 200.15 215.81 199.63 154.7 199.67 154.7 200.55 215.81 201.21 276.92 202.46 399.14 202.42 399.14"/>
        <path class="cls-2" d="M187.76,442.44q-7.63-32.26-15.81-64.39t-16.86-64.12c-5.84-21.32-11.9-42.57-18.53-63.66-3.28-10.54-6.69-21.06-10.46-31.44-.94-2.6-1.94-5.18-2.9-7.76s-2.06-5.13-3.1-7.69l-1.68-3.78-.84-1.9-.93-1.85c-.63-1.23-1.19-2.49-1.88-3.69l-2.09-3.58,0,0,2.11,3.57c.69,1.2,1.26,2.46,1.9,3.68l.93,1.85.85,1.89,1.71,3.78c1.06,2.55,2.12,5.11,3.14,7.67s2,5.16,3,7.75c3.83,10.37,7.29,20.87,10.63,31.4,6.61,21.1,12.64,42.37,18.45,63.69s11.36,42.73,16.75,64.16,10.62,42.91,15.65,64.43Z"/>
        <path class="cls-2" d="M170,431.62q-24.24-51.57-49.19-102.79c-8.34-17.06-16.76-34.08-25.41-51-4.29-8.47-8.64-16.91-13.14-25.27-2.25-4.18-4.53-8.34-6.92-12.45-1.2-2.05-2.42-4.08-3.7-6.08a31.14,31.14,0,0,0-4.3-5.64l0,0A32,32,0,0,1,71.66,234c1.3,2,2.53,4,3.74,6.07,2.41,4.09,4.73,8.24,7,12.4,4.55,8.34,9,16.75,13.3,25.2,8.62,16.92,17,34,25.34,51Q146,379.95,170,431.6Z"/>
        <path class="cls-2" d="M167.86,455.37q-19-19.89-37-40.74c-5.95-7-11.89-14-17.62-21.12-2.92-3.54-5.69-7.2-8.53-10.79l-4.15-5.49c-1.39-1.83-2.76-3.66-4.08-5.54l-4-5.59-3.85-5.71C86.07,356.6,83.6,352.75,81,349c-5.2-7.55-10.76-14.84-16.49-22s-11.65-14.15-17.82-20.94-12.51-13.41-19.18-19.7l0,0c6.71,6.25,13.09,12.85,19.31,19.58s12.21,13.7,18,20.84,11.28,14.47,16.48,22c2.62,3.77,5.1,7.63,7.67,11.42l3.83,5.71,4,5.59c1.31,1.88,2.68,3.72,4.06,5.54l4.13,5.5c2.84,3.6,5.6,7.26,8.51,10.8,5.71,7.17,11.63,14.18,17.57,21.16q17.94,20.85,36.85,40.84Z"/>
        <path class="cls-2" d="M180.08,478.77a110.23,110.23,0,0,1-12.48-8.18c-4-3-7.84-6.14-11.51-9.51s-7.23-6.85-10.55-10.57c-1.71-1.81-3.29-3.74-4.9-5.64S137.55,441,136,439l0,0-65.81-63.4,0,0q-9.81-7.2-19.93-14c-3.38-2.24-6.79-4.44-10.26-6.54a69,69,0,0,0-10.81-5.56l0,0A70.43,70.43,0,0,1,40.11,355c3.48,2.08,6.91,4.26,10.31,6.48q10.17,6.69,20,13.83h0l65.69,63.51h0c1.55,1.95,3,3.95,4.62,5.86s3.17,3.83,4.87,5.65c3.31,3.72,6.87,7.21,10.51,10.59s7.5,6.54,11.47,9.54a111.57,111.57,0,0,0,12.45,8.22Z"/>
        <path class="cls-4" d="M289.28,445.42c.77,8,1.24,16,1.27,24a115.18,115.18,0,0,1-.48,12,54.43,54.43,0,0,1-1,6,17.32,17.32,0,0,1-2.15,5.61l0,0a19.38,19.38,0,0,0,1.93-5.65,53.38,53.38,0,0,0,.83-5.94c.38-4,.52-8,.56-12s-.06-8-.24-12-.41-8-.75-12Z"/>
        <path class="cls-4" d="M273.4,474.85,272,485c-.22,1.7-.46,3.39-.72,5.08s-.57,3.38-.94,5.06h0c.14-1.71.37-3.41.58-5.11s.52-3.38.8-5.07l1.66-10.14Z"/>
        <path class="cls-4" d="M157.34,492.36l.34,4.37c.06.73.13,1.46.14,2.19a20.29,20.29,0,0,1-.07,2.2h0a20,20,0,0,1-.29-2.18c-.06-.73,0-1.46-.06-2.19l-.06-4.39Z"/>
        <path class="cls-4" d="M145.19,469l2.13,15.74q.54,3.93,1,7.88c.27,2.63.6,5.26.81,7.9h0c-.45-2.62-.78-5.24-1.17-7.86s-.65-5.26-.95-7.89L145.15,469Z"/>
      </g>
      <g>
        <path class="cls-5" d="M141.3,260.61h.06c-1.49,0-3.16.05-5,.16a46.09,46.09,0,0,1-5.63,0h-.07c-.42-1-1-2.15-1.6-3.52s-1.34-2.79-2.11-4.28-1.6-3-2.49-4.42a39.16,39.16,0,0,0-2.69-3.84l-.13-.19a28.28,28.28,0,0,0-.19,3.61c0,1.43,0,2.91.09,4.42s.14,3,.23,4.32.15,2.46.19,3.26a9.26,9.26,0,0,1-2.85.58c-1.17.09-2.33.14-3.49.16s-2.18,0-3.1,0a10.91,10.91,0,0,0-1.7,0c.09,0,.15-.59.2-1.76s.06-2.72.06-4.64v-6.63q0-3.74,0-7.74c0-2.67-.07-5.31-.13-7.94s-.12-5-.16-7.23-.1-4.07-.16-5.63-.14-2.61-.22-3.17c2.38-.34,5-.66,7.87-1a42,42,0,0,1,9,.07,13.25,13.25,0,0,1,6.78,2.17,14.34,14.34,0,0,1,4.67,4.93,13.7,13.7,0,0,1,1.76,6.5,12.56,12.56,0,0,1-1.88,6.88,11.7,11.7,0,0,1-3.24,3.84,9.08,9.08,0,0,1-5.08,1.72h-.32v.07q1.34,2.37,2.94,4.7c1.07,1.56,2.11,3.13,3.14,4.71s2,3.19,2.94,4.83A33.06,33.06,0,0,1,141.3,260.61ZM119.73,225c0,.56.07,1.19.1,1.89s0,1.42,0,2.14,0,1.43,0,2.12a11.23,11.23,0,0,0,.16,1.73h.06c1,.08,2,.14,3.2.19a16.5,16.5,0,0,0,3.27-.19,3,3,0,0,0,1.89-1.25,4.88,4.88,0,0,0,.8-2.18,5.67,5.67,0,0,0-.26-2.37,3.9,3.9,0,0,0-1.28-1.89,4.81,4.81,0,0,0-3.58-1.18A13.48,13.48,0,0,0,119.73,225Z"/>
        <path class="cls-5" d="M171.06,252.09v.13q.12,2.06.06,4.26a17.44,17.44,0,0,1-.58,4.13q-6.53-.08-13.28.16a112.54,112.54,0,0,1-13-.29q0-5.57-.12-11c-.09-3.65-.15-7.29-.2-10.91s0-7.26,0-10.88.17-7.28.39-11c1.66-.08,3.46-.16,5.41-.22s3.89-.12,5.85-.16l5.7-.13q2.74-.06,4.86-.06t3.39.06a4.8,4.8,0,0,1,1.28.13,20.83,20.83,0,0,1,.16,4.54c-.1,1.54-.16,3-.16,4.55v.06a24,24,0,0,1-4.12.54c-1.39.07-2.79.09-4.2.07s-2.81,0-4.22,0-2.82.06-4.22.19h-.2l-.06.06a25.91,25.91,0,0,1-.16,3.81,10.19,10.19,0,0,0,.22,3.68l.07.06c1.28.09,2.58.13,3.9.13s2.65,0,4,.07v.06a21.14,21.14,0,0,1,.19,4.35c-.08,1.45-.1,3-.06,4.55a9.46,9.46,0,0,1-2.18.28c-.81,0-1.59,0-2.33,0s-1.42,0-2,.06a2.34,2.34,0,0,0-1.22.32,20.26,20.26,0,0,0-.22,4.16c.06,1.54.14,2.82.22,3.84l.07.06c2.81,0,5.59.08,8.32.23S168.15,252.18,171.06,252.09Z"/>
        <path class="cls-5" d="M187.76,238.53a6,6,0,0,1,2.72-.61c1.26-.07,2.59-.08,4,0s2.72.11,3.94.22,2,.16,2.46.16H201l.06.06q.39,3.4.51,7.2a33.19,33.19,0,0,1-.51,7.27,8.09,8.09,0,0,1-2,5,10.85,10.85,0,0,1-4.1,2.63c-1.07.29-2.17.56-3.33.79a31.08,31.08,0,0,1-3.52.52,18.35,18.35,0,0,1-3.48,0,11.8,11.8,0,0,1-3.24-.84,9,9,0,0,1-3.9-2.94,14.25,14.25,0,0,1-2.11-4.61q-.19-.7-.42-1.95c-.15-.83-.26-1.67-.35-2.53-.13-1.36-.24-2.6-.32-3.71s-.16-2.21-.22-3.3-.11-2.24-.13-3.45,0-2.62,0-4.2c0-1.36.11-2.76.19-4.19s.24-2.82.45-4.19a18.32,18.32,0,0,1,1.12-4.1,7.12,7.12,0,0,1,2.66-3.26,8.32,8.32,0,0,1,2.88-1.6,20.86,20.86,0,0,1,3.32-.77,20,20,0,0,1,6.72.23,13.54,13.54,0,0,1,5.51,2.4,10.45,10.45,0,0,1,3.45,4.57A13.66,13.66,0,0,1,201,230l-.07.39c-.08.13-.27.19-.57.19s-.79,0-1.47.06-1.19,0-1.64,0-.89,0-1.34,0a13,13,0,0,1-1.38-.07c-.47,0-1-.1-1.66-.19-.13-.42-.31-1-.54-1.56a8.59,8.59,0,0,0-.9-1.73,7.05,7.05,0,0,0-1.25-1.41,2.43,2.43,0,0,0-1.66-.61c-.73,0-1.43-.06-2.11-.06a2.47,2.47,0,0,0-1.8.76,3,3,0,0,0-.35.68,6.8,6.8,0,0,0-.35,1.05,26.34,26.34,0,0,0-.74,3.71c-.19,1.46-.33,3-.41,4.65s-.11,3.33-.07,5.08.13,3.42.26,5a23.19,23.19,0,0,0,.51,3.08,4.53,4.53,0,0,0,1.6,2.62,4.3,4.3,0,0,0,1.47.58,6.59,6.59,0,0,0,2-.07,13.19,13.19,0,0,0,1.95-.51,3.8,3.8,0,0,0,1.22-.86,3.54,3.54,0,0,0,.77-1.44c0-.17.09-.46.16-.87a12.32,12.32,0,0,0,.12-1.25,11,11,0,0,0,0-1.15c0-.34-.09-.53-.22-.57a4.79,4.79,0,0,0-1.06,0l-1.4.07q-.73,0-1.35,0a3.27,3.27,0,0,1-.93-.16c-.08-.68-.13-1.28-.16-1.79s0-1,0-1.51,0-1,0-1.5,0-1.15-.13-1.92v-.07a.05.05,0,0,1,.06-.06Z"/>
        <path class="cls-5" d="M232.24,255c.08,1.54.13,2.7.13,3.49a7,7,0,0,1-.16,1.73c-.11.36-.29.56-.55.58s-.62,0-1.08,0a13.79,13.79,0,0,0-1.83,0c-.75,0-2,.08-3.78.13s-4.2.06-7.29.06-7.22,0-12.39-.13v-1.15q.19-4.8.33-8.67t.16-7.23q0-3.36,0-6.5t-.07-6.4q-.06-3.27-.12-6.94t-.13-8.16a8.53,8.53,0,0,1,2-.42,23.81,23.81,0,0,1,2.88-.16,22.84,22.84,0,0,1,3,.19,9.1,9.1,0,0,1,2.37.58q-.14,4.16-.1,8.54t.1,8.8q.06,4.42.09,8.8c0,2.93,0,5.75,0,8.48v.07a6.53,6.53,0,0,1,1.7-.1c.83,0,1.8,0,2.91.1s2.29.09,3.55.16l3.59.16,3,.09a15.44,15.44,0,0,0,1.83,0,13.31,13.31,0,0,1-.07,1.41c0,.43-.07.86-.09,1.31A7.37,7.37,0,0,0,232.24,255Z"/>
        <path class="cls-5" d="M262.13,252.09v.13q.12,2.06.06,4.26a18,18,0,0,1-.57,4.13c-4.36-.05-8.78,0-13.29.16a112.32,112.32,0,0,1-13-.29c0-3.71,0-7.39-.13-11s-.15-7.29-.2-10.91,0-7.26,0-10.88.17-7.28.39-11c1.66-.08,3.47-.16,5.41-.22s3.89-.12,5.85-.16l5.7-.13c1.83,0,3.46-.06,4.86-.06s2.54,0,3.4.06a4.89,4.89,0,0,1,1.28.13,22.16,22.16,0,0,1,.16,4.54c-.11,1.54-.16,3-.16,4.55v.06a24.21,24.21,0,0,1-4.13.54c-1.39.07-2.79.09-4.19.07s-2.82,0-4.23,0-2.81.06-4.22.19H245l-.06.06a25.91,25.91,0,0,1-.16,3.81,10.19,10.19,0,0,0,.22,3.68l.07.06c1.28.09,2.58.13,3.9.13s2.65,0,4,.07v.06a21.14,21.14,0,0,1,.19,4.35c-.08,1.45-.1,3-.06,4.55a9.46,9.46,0,0,1-2.18.28c-.81,0-1.59,0-2.33,0s-1.42,0-2,.06a2.34,2.34,0,0,0-1.22.32,20.26,20.26,0,0,0-.22,4.16c.06,1.54.14,2.82.22,3.84l.07.06q4.23,0,8.32.23C256.41,252.15,259.22,252.18,262.13,252.09Z"/>
        <path class="cls-5" d="M296.3,260.61h.07c-1.5,0-3.16.05-5,.16a46.26,46.26,0,0,1-5.64,0h-.06c-.43-1-1-2.15-1.6-3.52s-1.35-2.79-2.11-4.28-1.6-3-2.5-4.42a37.52,37.52,0,0,0-2.69-3.84l-.13-.19a30.25,30.25,0,0,0-.19,3.61c0,1.43,0,2.91.1,4.42s.14,3,.22,4.32.15,2.46.19,3.26a9.13,9.13,0,0,1-2.84.58c-1.18.09-2.34.14-3.49.16s-2.19,0-3.11,0a10.77,10.77,0,0,0-1.69,0A4.84,4.84,0,0,0,266,259c0-1.17.06-2.72.06-4.64v-6.63q0-3.74,0-7.74c0-2.67-.06-5.31-.13-7.94s-.11-5-.16-7.23-.09-4.07-.16-5.63-.14-2.61-.22-3.17q3.58-.51,7.87-1a42,42,0,0,1,9,.07,13.29,13.29,0,0,1,6.79,2.17,14.44,14.44,0,0,1,4.67,4.93,13.7,13.7,0,0,1,1.76,6.5,12.66,12.66,0,0,1-1.89,6.88,11.67,11.67,0,0,1-3.23,3.84,9.11,9.11,0,0,1-5.09,1.72h-.32v.07q1.35,2.37,2.94,4.7t3.14,4.71c1,1.58,2,3.19,2.94,4.83A33.06,33.06,0,0,1,296.3,260.61ZM274.73,225c0,.56.08,1.19.1,1.89s0,1.42,0,2.14,0,1.43,0,2.12a14.46,14.46,0,0,0,.16,1.73h.07c1,.08,2.05.14,3.2.19a16.39,16.39,0,0,0,3.26-.19,3,3,0,0,0,1.89-1.25,4.77,4.77,0,0,0,.8-2.18,5.51,5.51,0,0,0-.26-2.37,3.83,3.83,0,0,0-1.28-1.89,4.81,4.81,0,0,0-3.58-1.18A13.59,13.59,0,0,0,274.73,225Z"/>
      </g>
      <g>
        <path class="cls-6" d="M93.28,291.83h-5v-2.42h5Z"/>
        <path class="cls-6" d="M109.72,284.6H106V297h-3V284.6H99.38v-2.51h10.34Z"/>
        <path class="cls-6" d="M116.12,288.72l-1-.08a1.58,1.58,0,0,0-1.61,1V297h-2.91v-11.1h2.73l.09,1.2a2.08,2.08,0,0,1,1.89-1.4,2,2,0,0,1,.8.13Z"/>
        <path class="cls-6" d="M121.35,292.19l1.48-6.27h3.09l-3.65,12.76c-.54,1.88-1.57,2.82-3.08,2.82a4.29,4.29,0,0,1-1.19-.2V299h.34a1.63,1.63,0,0,0,1-.27,1.61,1.61,0,0,0,.51-.9l.23-.75-3.2-11.21H120Z"/>
        <path class="cls-6" d="M130.85,292.74l-.78.87V297h-2.91V281.27h2.91v8.51l.36-.54,2-3.32h3.45l-3.22,4.57L136.2,297h-3.32Z"/>
        <path class="cls-6" d="M150.7,291.82a7.42,7.42,0,0,1-.9,4,3,3,0,0,1-2.67,1.39,2.55,2.55,0,0,1-2.17-1.1v5.16h-2.91V285.92h2.69l.1,1a2.6,2.6,0,0,1,2.27-1.22,3,3,0,0,1,2.67,1.29,7.13,7.13,0,0,1,.92,4Zm-2.89-.73a5.2,5.2,0,0,0-.36-2.28,1.23,1.23,0,0,0-1.19-.66,1.37,1.37,0,0,0-1.3.75v5.19a1.37,1.37,0,0,0,1.32.72,1.19,1.19,0,0,0,1.19-.73,5.75,5.75,0,0,0,.34-2.26Z"/>
        <path class="cls-6" d="M157.72,297a4.11,4.11,0,0,1-.24-.87,2.47,2.47,0,0,1-2.12,1.07,3.14,3.14,0,0,1-2.31-.92,3.26,3.26,0,0,1-.92-2.39,3.35,3.35,0,0,1,1.12-2.7,4.87,4.87,0,0,1,3.2-1h.88v-.89a1.7,1.7,0,0,0-.25-1.06.93.93,0,0,0-.75-.31c-.73,0-1.09.43-1.09,1.27h-2.9a3.19,3.19,0,0,1,1.15-2.53,4.28,4.28,0,0,1,2.92-1,3.92,3.92,0,0,1,2.82.94,3.57,3.57,0,0,1,1,2.72v5.22a5.56,5.56,0,0,0,.41,2.24V297ZM154,282.46a2,2,0,0,1,.67-1.5,2.46,2.46,0,0,1,3.23,0,1.93,1.93,0,0,1,.67,1.51,1.9,1.9,0,0,1-.65,1.46,2.51,2.51,0,0,1-3.27,0A1.89,1.89,0,0,1,154,282.46Zm2,12.48a1.63,1.63,0,0,0,.82-.19,1.4,1.4,0,0,0,.5-.46V292h-.7a1.49,1.49,0,0,0-1.16.47,1.85,1.85,0,0,0-.43,1.26C155,294.53,155.37,294.94,156,294.94Zm.3-11.39a1,1,0,0,0,.81-.32,1.12,1.12,0,0,0,.29-.77,1.14,1.14,0,0,0-.3-.8,1.06,1.06,0,0,0-.8-.32,1,1,0,0,0-.79.32,1.17,1.17,0,0,0,0,1.59A1.09,1.09,0,0,0,156.31,283.55Z"/>
        <path class="cls-6" d="M172.09,294a.91.91,0,0,0-.36-.68,7,7,0,0,0-1.57-.85,6.49,6.49,0,0,1-2.47-1.5,2.91,2.91,0,0,1-.67-1.94,3.12,3.12,0,0,1,1-2.41,4,4,0,0,1,2.79-.94,4.32,4.32,0,0,1,2.92.94,3.17,3.17,0,0,1,1.1,2.53H172c0-.9-.37-1.35-1.12-1.35a1,1,0,0,0-.76.29,1,1,0,0,0-.3.8.85.85,0,0,0,.33.65,7.13,7.13,0,0,0,1.55.8,6.51,6.51,0,0,1,2.5,1.46,3,3,0,0,1,.74,2.09,2.94,2.94,0,0,1-1.12,2.39,4.53,4.53,0,0,1-2.93.9,4.67,4.67,0,0,1-2.16-.48,3.59,3.59,0,0,1-1.46-1.32,3.45,3.45,0,0,1-.53-1.84h2.76a1.74,1.74,0,0,0,.36,1.14,1.38,1.38,0,0,0,1.09.38C171.7,295.1,172.09,294.75,172.09,294Z"/>
        <path class="cls-6" d="M180.39,292.74l-.78.87V297h-2.9V281.27h2.9v8.51l.36-.54,2-3.32h3.46l-3.22,4.57,3.53,6.53h-3.33Z"/>
        <path class="cls-6" d="M192.24,288.72l-1-.08a1.59,1.59,0,0,0-1.61,1V297h-2.91v-11.1h2.74l.08,1.2a2.09,2.09,0,0,1,1.9-1.4,2.06,2.06,0,0,1,.8.13Z"/>
        <path class="cls-6" d="M198.69,297a3.49,3.49,0,0,1-.25-.87,2.46,2.46,0,0,1-2.11,1.07,3.14,3.14,0,0,1-2.31-.92,3.22,3.22,0,0,1-.92-2.39,3.38,3.38,0,0,1,1.11-2.7,4.87,4.87,0,0,1,3.2-1h.89v-.89a1.7,1.7,0,0,0-.26-1.06.91.91,0,0,0-.75-.31c-.72,0-1.09.43-1.09,1.27h-2.9a3.2,3.2,0,0,1,1.16-2.53,4.25,4.25,0,0,1,2.91-1,4,4,0,0,1,2.83.94,3.57,3.57,0,0,1,1,2.72v5.22a5.39,5.39,0,0,0,.41,2.24V297ZM197,294.94a1.61,1.61,0,0,0,.82-.19,1.36,1.36,0,0,0,.51-.46V292h-.7a1.49,1.49,0,0,0-1.16.47,1.8,1.8,0,0,0-.43,1.26Q196,294.94,197,294.94Z"/>
        <path class="cls-6" d="M206.35,297h-2.92V281.27h2.92Z"/>
        <path class="cls-6" d="M208.2,291.13a7.29,7.29,0,0,1,.92-4.07,3,3,0,0,1,2.69-1.34,2.58,2.58,0,0,1,2.13,1.1v-5.55h2.93V297h-2.64l-.13-1.13a2.67,2.67,0,0,1-2.3,1.33,3,3,0,0,1-2.66-1.33,7,7,0,0,1-.94-3.92Zm2.91.73a5.32,5.32,0,0,0,.35,2.29,1.24,1.24,0,0,0,1.18.65,1.42,1.42,0,0,0,1.3-.77V289a1.36,1.36,0,0,0-1.29-.82,1.25,1.25,0,0,0-1.17.64,5.13,5.13,0,0,0-.37,2.3Z"/>
        <path class="cls-6" d="M223.48,297.22a4.56,4.56,0,0,1-3.49-1.33,5.39,5.39,0,0,1-1.25-3.82v-.88a6.34,6.34,0,0,1,1.15-4.05,4,4,0,0,1,3.29-1.42,3.76,3.76,0,0,1,3.15,1.33,6.38,6.38,0,0,1,1.08,4v1.42h-5.78a3.08,3.08,0,0,0,.55,1.81,1.84,1.84,0,0,0,1.49.57,3.27,3.27,0,0,0,2.43-1l1.13,1.75a3.8,3.8,0,0,1-1.54,1.2A5.42,5.42,0,0,1,223.48,297.22Zm-1.82-6.81h2.9v-.26a3.22,3.22,0,0,0-.33-1.51,1.15,1.15,0,0,0-1.07-.51,1.21,1.21,0,0,0-1.1.54A3.7,3.7,0,0,0,221.66,290.41Z"/>
        <path class="cls-6" d="M232.42,283.19v2.73h1.49v2.18h-1.49v5.51a1.59,1.59,0,0,0,.18.9.79.79,0,0,0,.69.25,2.66,2.66,0,0,0,.69-.07l0,2.25a4.41,4.41,0,0,1-1.6.28q-2.81,0-2.84-3.22v-5.9h-1.28v-2.18h1.28v-2.73Z"/>
        <path class="cls-6" d="M240.34,283.05a1.5,1.5,0,0,1,.43-1.11,1.74,1.74,0,0,1,2.29,0,1.51,1.51,0,0,1,.44,1.11,1.57,1.57,0,0,1-.43,1.11,1.54,1.54,0,0,1-1.15.44,1.48,1.48,0,0,1-1.58-1.55Zm3,14h-2.91v-11.1h2.91Z"/>
        <path class="cls-6" d="M248.28,285.92l.09,1.1a3.06,3.06,0,0,1,2.57-1.3c1.91,0,2.89,1.33,2.94,4V297H251v-7.08a2.55,2.55,0,0,0-.28-1.37,1.11,1.11,0,0,0-1-.42,1.35,1.35,0,0,0-1.23.81V297h-2.91v-11.1Z"/>
        <path class="cls-6" d="M255.57,291.13a7.2,7.2,0,0,1,.93-4.07,3,3,0,0,1,2.68-1.34,2.61,2.61,0,0,1,2.14,1.1v-5.55h2.92V297H261.6l-.13-1.13a2.66,2.66,0,0,1-2.3,1.33,3,3,0,0,1-2.66-1.33,7.1,7.1,0,0,1-.94-3.92Zm2.92.73a5.17,5.17,0,0,0,.35,2.29,1.22,1.22,0,0,0,1.17.65,1.43,1.43,0,0,0,1.31-.77V289a1.38,1.38,0,0,0-1.29-.82,1.23,1.23,0,0,0-1.17.64,5,5,0,0,0-.37,2.3Z"/>
        <path class="cls-6" d="M270.85,297.22a4.52,4.52,0,0,1-3.48-1.33,5.35,5.35,0,0,1-1.25-3.82v-.88a6.34,6.34,0,0,1,1.14-4.05,4,4,0,0,1,3.3-1.42,3.75,3.75,0,0,1,3.14,1.33,6.32,6.32,0,0,1,1.08,4v1.42H269a3,3,0,0,0,.54,1.81,1.84,1.84,0,0,0,1.49.57,3.27,3.27,0,0,0,2.43-1l1.14,1.75a3.91,3.91,0,0,1-1.55,1.2A5.39,5.39,0,0,1,270.85,297.22ZM269,290.41h2.9v-.26a3,3,0,0,0-.33-1.51,1.13,1.13,0,0,0-1.06-.51,1.22,1.22,0,0,0-1.11.54A3.7,3.7,0,0,0,269,290.41Z"/>
        <path class="cls-6" d="M279.08,285.92l.08,1.1a3.07,3.07,0,0,1,2.57-1.3c1.91,0,2.89,1.33,2.95,4V297h-2.92v-7.08a2.55,2.55,0,0,0-.28-1.37,1.11,1.11,0,0,0-1-.42,1.37,1.37,0,0,0-1.23.81V297h-2.91v-11.1Z"/>
        <path class="cls-6" d="M291.21,291.13a7.29,7.29,0,0,1,.92-4.07,3,3,0,0,1,2.69-1.34,2.61,2.61,0,0,1,2.13,1.1v-5.55h2.92V297h-2.63l-.14-1.13a2.66,2.66,0,0,1-2.29,1.33,3,3,0,0,1-2.66-1.33,6.93,6.93,0,0,1-.94-3.92Zm2.91.73a5.32,5.32,0,0,0,.35,2.29,1.23,1.23,0,0,0,1.18.65A1.42,1.42,0,0,0,297,294V289a1.38,1.38,0,0,0-1.29-.82,1.23,1.23,0,0,0-1.17.64,5,5,0,0,0-.37,2.3Z"/>
        <path class="cls-6" d="M306.49,297.22a4.54,4.54,0,0,1-3.49-1.33,5.39,5.39,0,0,1-1.25-3.82v-.88a6.28,6.28,0,0,1,1.15-4.05,4,4,0,0,1,3.29-1.42,3.78,3.78,0,0,1,3.15,1.33,6.38,6.38,0,0,1,1.07,4v1.42h-5.77a3,3,0,0,0,.54,1.81,1.84,1.84,0,0,0,1.49.57,3.27,3.27,0,0,0,2.43-1l1.14,1.75a3.84,3.84,0,0,1-1.55,1.2A5.38,5.38,0,0,1,306.49,297.22Zm-1.83-6.81h2.9v-.26a3,3,0,0,0-.33-1.51,1.13,1.13,0,0,0-1.06-.51,1.19,1.19,0,0,0-1.1.54A3.69,3.69,0,0,0,304.66,290.41Z"/>
        <path class="cls-6" d="M315.43,283.19v2.73h1.48v2.18h-1.48v5.51a1.59,1.59,0,0,0,.18.9.79.79,0,0,0,.69.25,2.66,2.66,0,0,0,.69-.07l0,2.25a4.45,4.45,0,0,1-1.6.28c-1.88,0-2.82-1.07-2.84-3.22v-5.9h-1.29v-2.18h1.29v-2.73Z"/>
        <path class="cls-6" d="M93.53,312.72l-1-.08a1.58,1.58,0,0,0-1.61,1V321H88.05v-11.1h2.73l.09,1.2a2.08,2.08,0,0,1,1.89-1.4,2,2,0,0,1,.8.13Z"/>
        <path class="cls-6" d="M100,321a4.11,4.11,0,0,1-.24-.87,2.47,2.47,0,0,1-2.12,1.07,3.14,3.14,0,0,1-2.31-.92,3.26,3.26,0,0,1-.92-2.39,3.35,3.35,0,0,1,1.12-2.7,4.87,4.87,0,0,1,3.2-1h.88v-.89a1.7,1.7,0,0,0-.25-1.06.92.92,0,0,0-.75-.31c-.73,0-1.09.43-1.09,1.27H94.6a3.19,3.19,0,0,1,1.15-2.53,4.28,4.28,0,0,1,2.92-1,3.92,3.92,0,0,1,2.82.94,3.57,3.57,0,0,1,1,2.72v5.22a5.56,5.56,0,0,0,.41,2.24V321Zm-1.71-2.08a1.63,1.63,0,0,0,.82-.19,1.4,1.4,0,0,0,.5-.46V316h-.7a1.49,1.49,0,0,0-1.16.47,1.84,1.84,0,0,0-.42,1.26Q97.31,318.94,98.27,318.94Z"/>
        <path class="cls-6" d="M107.32,309.92l.09,1a3.1,3.1,0,0,1,2.57-1.23,2.4,2.4,0,0,1,2.35,1.49,3,3,0,0,1,2.71-1.49c1.95,0,2.94,1.34,3,4V321h-2.9v-7.09a2.59,2.59,0,0,0-.27-1.37,1,1,0,0,0-.9-.41,1.3,1.3,0,0,0-1.21,1l0,.35V321h-2.9V314a2.83,2.83,0,0,0-.26-1.38,1,1,0,0,0-.91-.42,1.32,1.32,0,0,0-1.19.81V321h-2.9v-11.1Z"/>
        <path class="cls-6" d="M122.9,309.92l.08,1a3.12,3.12,0,0,1,2.57-1.23,2.4,2.4,0,0,1,2.35,1.49,3.05,3.05,0,0,1,2.72-1.49c1.94,0,2.94,1.34,3,4V321h-2.9v-7.09a2.71,2.71,0,0,0-.26-1.37,1,1,0,0,0-.91-.41c-.54,0-.94.33-1.21,1l0,.35V321h-2.9V314a2.85,2.85,0,0,0-.25-1.38,1,1,0,0,0-.92-.42,1.34,1.34,0,0,0-1.19.81V321h-2.9v-11.1Z"/>
        <path class="cls-6" d="M140.23,321.22a4.56,4.56,0,0,1-3.49-1.33,5.39,5.39,0,0,1-1.25-3.82v-.88a6.28,6.28,0,0,1,1.15-4.05,4,4,0,0,1,3.29-1.42,3.77,3.77,0,0,1,3.15,1.33,6.45,6.45,0,0,1,1.08,4v1.42h-5.78a3,3,0,0,0,.55,1.81,1.82,1.82,0,0,0,1.48.57,3.27,3.27,0,0,0,2.43-1l1.14,1.75a3.77,3.77,0,0,1-1.55,1.2A5.34,5.34,0,0,1,140.23,321.22Zm-1.83-6.81h2.9v-.26a3.11,3.11,0,0,0-.32-1.51,1.15,1.15,0,0,0-1.07-.51,1.2,1.2,0,0,0-1.1.54A3.69,3.69,0,0,0,138.4,314.41Z"/>
        <path class="cls-6" d="M151.27,312.72l-1-.08a1.58,1.58,0,0,0-1.61,1V321h-2.91v-11.1h2.73l.09,1.2a2.08,2.08,0,0,1,1.89-1.4,2,2,0,0,1,.8.13Z"/>
        <path class="cls-6" d="M160.43,310.9a2.86,2.86,0,0,1,2.32-1.18,2.67,2.67,0,0,1,2.3,1.06,5.28,5.28,0,0,1,.8,3.18V321h-2.91v-7a2.55,2.55,0,0,0-.3-1.41,1.11,1.11,0,0,0-1-.43,1.36,1.36,0,0,0-1.23.72V321h-2.9V305.27h2.9Z"/>
        <path class="cls-6" d="M173.2,321a4.11,4.11,0,0,1-.24-.87,2.47,2.47,0,0,1-2.11,1.07,3.17,3.17,0,0,1-2.32-.92,3.25,3.25,0,0,1-.91-2.39,3.38,3.38,0,0,1,1.11-2.7,4.87,4.87,0,0,1,3.2-1h.88v-.89a1.7,1.7,0,0,0-.25-1.06.91.91,0,0,0-.75-.31c-.72,0-1.09.43-1.09,1.27h-2.9a3.22,3.22,0,0,1,1.15-2.53,4.3,4.3,0,0,1,2.92-1,4,4,0,0,1,2.83.94,3.61,3.61,0,0,1,1,2.72v5.22a5.39,5.39,0,0,0,.41,2.24V321Zm-1.71-2.08a1.61,1.61,0,0,0,.82-.19,1.25,1.25,0,0,0,.5-.46V316h-.69a1.53,1.53,0,0,0-1.17.47,1.84,1.84,0,0,0-.42,1.26Q170.53,318.94,171.49,318.94Z"/>
        <path class="cls-6" d="M181.31,316.91l1.4-7h3l-3,11.1h-2.77l-3-11.1h3Z"/>
        <path class="cls-6" d="M195.75,315.83a7.54,7.54,0,0,1-.86,4,3,3,0,0,1-2.71,1.35,2.66,2.66,0,0,1-2.31-1.3l-.09,1.1H187.1V305.27H190v5.55a2.58,2.58,0,0,1,2.16-1.1,3,3,0,0,1,2.71,1.33,7.35,7.35,0,0,1,.88,3.93Zm-2.9-.73a5.34,5.34,0,0,0-.34-2.35,1.24,1.24,0,0,0-1.18-.6A1.38,1.38,0,0,0,190,313v5a1.38,1.38,0,0,0,1.35.78,1.24,1.24,0,0,0,1.16-.54,4.79,4.79,0,0,0,.34-2.11Z"/>
        <path class="cls-6" d="M203,320a2.87,2.87,0,0,1-2.42,1.22,2.73,2.73,0,0,1-2.32-1.05,5.08,5.08,0,0,1-.79-3.06v-7.19h2.91v7.26c0,1.08.37,1.62,1.07,1.62a1.51,1.51,0,0,0,1.44-.86v-8h2.92V321H203Z"/>
        <path class="cls-6" d="M210.49,309.92l.08,1.1a3.07,3.07,0,0,1,2.57-1.3c1.91,0,2.89,1.33,3,4V321h-2.92v-7.08a2.55,2.55,0,0,0-.28-1.37,1.1,1.1,0,0,0-1-.42,1.37,1.37,0,0,0-1.23.81V321h-2.91v-11.1Z"/>
        <path class="cls-6" d="M217.78,315.13a7.29,7.29,0,0,1,.92-4.07,3,3,0,0,1,2.69-1.34,2.61,2.61,0,0,1,2.13,1.1v-5.55h2.92V321h-2.63l-.14-1.13a2.66,2.66,0,0,1-2.29,1.33,3,3,0,0,1-2.66-1.33,6.93,6.93,0,0,1-.94-3.92Zm2.91.73a5.32,5.32,0,0,0,.35,2.29,1.23,1.23,0,0,0,1.18.65,1.42,1.42,0,0,0,1.3-.77V313a1.38,1.38,0,0,0-1.29-.82,1.24,1.24,0,0,0-1.17.64,5,5,0,0,0-.37,2.3Z"/>
        <path class="cls-6" d="M233.06,321.22a4.54,4.54,0,0,1-3.49-1.33,5.39,5.39,0,0,1-1.25-3.82v-.88a6.28,6.28,0,0,1,1.15-4.05,4,4,0,0,1,3.29-1.42,3.78,3.78,0,0,1,3.15,1.33,6.38,6.38,0,0,1,1.07,4v1.42h-5.77a3,3,0,0,0,.54,1.81,1.86,1.86,0,0,0,1.49.57,3.27,3.27,0,0,0,2.43-1l1.14,1.75a3.84,3.84,0,0,1-1.55,1.2A5.38,5.38,0,0,1,233.06,321.22Zm-1.83-6.81h2.9v-.26a3,3,0,0,0-.33-1.51,1.13,1.13,0,0,0-1.06-.51,1.2,1.2,0,0,0-1.1.54A3.69,3.69,0,0,0,231.23,314.41Z"/>
        <path class="cls-6" d="M241.28,309.92l.08,1.1a3.09,3.09,0,0,1,2.58-1.3c1.9,0,2.88,1.33,2.94,4V321H244v-7.08a2.54,2.54,0,0,0-.29-1.37,1.08,1.08,0,0,0-1-.42,1.37,1.37,0,0,0-1.24.81V321h-2.91v-11.1Z"/>
        <path class="cls-6" d="M93.28,348.83h-5v-2.42h5Z"/>
        <path class="cls-6" d="M100.67,354V339.09h4a5.4,5.4,0,0,1,4.16,1.66,6.48,6.48,0,0,1,1.59,4.55v2.42a6.57,6.57,0,0,1-1.55,4.62,5.57,5.57,0,0,1-4.29,1.68Zm3-12.42v9.91h.91a2.53,2.53,0,0,0,2.12-.79,4.72,4.72,0,0,0,.64-2.74v-2.6a5.35,5.35,0,0,0-.58-2.92,2.39,2.39,0,0,0-2-.86Z"/>
        <path class="cls-6" d="M116.87,354.22a4.56,4.56,0,0,1-3.49-1.33,5.39,5.39,0,0,1-1.25-3.82v-.88a6.34,6.34,0,0,1,1.15-4.05,4,4,0,0,1,3.29-1.42,3.76,3.76,0,0,1,3.15,1.33,6.45,6.45,0,0,1,1.08,4v1.42H115a3,3,0,0,0,.55,1.81,1.82,1.82,0,0,0,1.48.57,3.27,3.27,0,0,0,2.43-1l1.14,1.75a3.77,3.77,0,0,1-1.55,1.2A5.34,5.34,0,0,1,116.87,354.22ZM115,347.41H118v-.26a3.22,3.22,0,0,0-.33-1.51,1.15,1.15,0,0,0-1.07-.51,1.21,1.21,0,0,0-1.1.54A3.81,3.81,0,0,0,115,347.41Z"/>
        <path class="cls-6" d="M127.91,345.72l-1-.08a1.59,1.59,0,0,0-1.61,1V354h-2.91v-11.1h2.74l.08,1.2a2.09,2.09,0,0,1,1.89-1.4,2,2,0,0,1,.8.13Z"/>
        <path class="cls-6" d="M138.72,354.22a4.56,4.56,0,0,1-3.49-1.33,5.39,5.39,0,0,1-1.25-3.82v-.88a6.34,6.34,0,0,1,1.15-4.05,4,4,0,0,1,3.29-1.42,3.76,3.76,0,0,1,3.15,1.33,6.38,6.38,0,0,1,1.08,4v1.42h-5.77a3,3,0,0,0,.54,1.81,1.84,1.84,0,0,0,1.49.57,3.27,3.27,0,0,0,2.43-1l1.13,1.75a3.8,3.8,0,0,1-1.54,1.2A5.42,5.42,0,0,1,138.72,354.22Zm-1.82-6.81h2.9v-.26a3.22,3.22,0,0,0-.33-1.51,1.15,1.15,0,0,0-1.07-.51,1.21,1.21,0,0,0-1.1.54A3.7,3.7,0,0,0,136.9,347.41Z"/>
        <path class="cls-6" d="M149.76,345.72l-1-.08a1.59,1.59,0,0,0-1.61,1V354h-2.91v-11.1H147l.08,1.2a2.09,2.09,0,0,1,1.9-1.4,2,2,0,0,1,.79.13Z"/>
        <path class="cls-6" d="M158.59,345.23H160a1.32,1.32,0,0,0,1.17-.56,2.63,2.63,0,0,0,.38-1.49,2.19,2.19,0,0,0-.39-1.39,1.29,1.29,0,0,0-2,0,1.86,1.86,0,0,0-.38,1.19h-2.91a4,4,0,0,1,.54-2.09,3.79,3.79,0,0,1,1.51-1.46,4.55,4.55,0,0,1,2.15-.52,4.44,4.44,0,0,1,3.23,1.14,4.15,4.15,0,0,1,1.17,3.12,3.68,3.68,0,0,1-1.92,3.21,3.18,3.18,0,0,1,1.57,1.35,4.15,4.15,0,0,1,.52,2.13,4.19,4.19,0,0,1-1.26,3.19,4.66,4.66,0,0,1-3.33,1.2,4.08,4.08,0,0,1-4.31-4.3h2.9a2.13,2.13,0,0,0,.42,1.35,1.3,1.3,0,0,0,1.07.54,1.41,1.41,0,0,0,1.18-.55,2.33,2.33,0,0,0,.44-1.48c0-1.47-.57-2.21-1.71-2.21h-1.43Z"/>
        <path class="cls-6" d="M175.31,347.84a8.34,8.34,0,0,1-1.13,4.74,4,4,0,0,1-6.38.05,8.11,8.11,0,0,1-1.17-4.57v-2.82a8.29,8.29,0,0,1,1.12-4.72,4,4,0,0,1,6.42,0,8.29,8.29,0,0,1,1.14,4.63Zm-2.92-3a7.72,7.72,0,0,0-.34-2.65,1.17,1.17,0,0,0-1.09-.88c-.92,0-1.4,1.08-1.44,3.23v3.72a7.53,7.53,0,0,0,.36,2.69,1.16,1.16,0,0,0,1.1.88A1.12,1.12,0,0,0,172,351a7.14,7.14,0,0,0,.36-2.53Z"/>
        <path class="cls-6" d="M187.09,351a.91.91,0,0,0-.36-.68,7,7,0,0,0-1.57-.85,6.49,6.49,0,0,1-2.47-1.5,2.91,2.91,0,0,1-.67-1.94,3.12,3.12,0,0,1,1-2.41,4,4,0,0,1,2.79-.94,4.32,4.32,0,0,1,2.92.94,3.17,3.17,0,0,1,1.1,2.53H187c0-.9-.38-1.35-1.13-1.35a1,1,0,0,0-.76.29,1,1,0,0,0-.3.8.85.85,0,0,0,.33.65,7.13,7.13,0,0,0,1.55.8,6.57,6.57,0,0,1,2.51,1.46,3,3,0,0,1,.73,2.09,2.91,2.91,0,0,1-1.12,2.39,4.53,4.53,0,0,1-2.93.9,4.67,4.67,0,0,1-2.16-.48,3.66,3.66,0,0,1-1.46-1.32,3.44,3.44,0,0,1-.52-1.84h2.75a1.74,1.74,0,0,0,.36,1.14,1.38,1.38,0,0,0,1.09.38C186.7,352.1,187.09,351.75,187.09,351Z"/>
        <path class="cls-6" d="M195.09,340.19v2.73h1.48v2.18h-1.48v5.51a1.59,1.59,0,0,0,.18.9.78.78,0,0,0,.69.25,2.53,2.53,0,0,0,.68-.07l0,2.25a4.36,4.36,0,0,1-1.59.28c-1.88,0-2.82-1.07-2.85-3.22v-5.9H190.9v-2.18h1.28v-2.73Z"/>
        <path class="cls-6" d="M201.72,349.19l1.48-6.27h3.09l-3.65,12.76c-.54,1.88-1.57,2.82-3.08,2.82a4.29,4.29,0,0,1-1.19-.2V356h.34a1.7,1.7,0,0,0,1-.26,1.62,1.62,0,0,0,.51-.91l.23-.75-3.2-11.21h3.12Z"/>
        <path class="cls-6" d="M211.22,349.74l-.78.87V354h-2.9V338.27h2.9v8.51l.35-.54,2-3.32h3.46L213,347.49l3.53,6.53h-3.32Z"/>
        <path class="cls-6" d="M221.26,349.74l-.77.87V354h-2.91V338.27h2.91v8.51l.35-.54,2-3.32h3.46l-3.22,4.57,3.53,6.53h-3.33Z"/>
        <path class="cls-6" d="M231.91,354.22a4.56,4.56,0,0,1-3.49-1.33,5.39,5.39,0,0,1-1.25-3.82v-.88a6.28,6.28,0,0,1,1.15-4.05,4,4,0,0,1,3.29-1.42,3.77,3.77,0,0,1,3.15,1.33,6.45,6.45,0,0,1,1.08,4v1.42h-5.78a3,3,0,0,0,.55,1.81,1.82,1.82,0,0,0,1.48.57,3.27,3.27,0,0,0,2.43-1l1.14,1.75a3.77,3.77,0,0,1-1.55,1.2A5.34,5.34,0,0,1,231.91,354.22Zm-1.83-6.81H233v-.26a3.11,3.11,0,0,0-.32-1.51,1.15,1.15,0,0,0-1.07-.51,1.2,1.2,0,0,0-1.1.54A3.69,3.69,0,0,0,230.08,347.41Z"/>
        <path class="cls-6" d="M243,345.72l-1-.08a1.58,1.58,0,0,0-1.61,1V354h-2.91v-11.1h2.73l.09,1.2a2.08,2.08,0,0,1,1.89-1.4,2,2,0,0,1,.8.13Z"/>
        <path class="cls-6" d="M254.19,351a.93.93,0,0,0-.35-.68,7.1,7.1,0,0,0-1.58-.85,6.43,6.43,0,0,1-2.46-1.5,2.87,2.87,0,0,1-.68-1.94,3.13,3.13,0,0,1,1.06-2.41,4,4,0,0,1,2.78-.94,4.31,4.31,0,0,1,2.92.94,3.17,3.17,0,0,1,1.1,2.53h-2.9c0-.9-.38-1.35-1.13-1.35a1,1,0,0,0-.76.29,1,1,0,0,0-.3.8.85.85,0,0,0,.33.65,7.4,7.4,0,0,0,1.55.8,6.57,6.57,0,0,1,2.51,1.46,3,3,0,0,1,.73,2.09,2.91,2.91,0,0,1-1.12,2.39,4.52,4.52,0,0,1-2.93.9,4.63,4.63,0,0,1-2.15-.48,3.53,3.53,0,0,1-1.46-1.32,3.37,3.37,0,0,1-.53-1.84h2.76a1.74,1.74,0,0,0,.35,1.14,1.4,1.4,0,0,0,1.09.38C253.8,352.1,254.19,351.75,254.19,351Z"/>
        <path class="cls-6" d="M262.5,349.74l-.78.87V354h-2.9V338.27h2.9v8.51l.36-.54,2-3.32h3.46l-3.22,4.57,3.53,6.53h-3.32Z"/>
        <path class="cls-6" d="M274.34,345.72l-1-.08a1.58,1.58,0,0,0-1.61,1V354h-2.92v-11.1h2.74l.08,1.2a2.09,2.09,0,0,1,1.9-1.4,2,2,0,0,1,.8.13Z"/>
        <path class="cls-6" d="M280.79,354a4,4,0,0,1-.25-.87,2.46,2.46,0,0,1-2.11,1.07,3.14,3.14,0,0,1-2.31-.92,3.26,3.26,0,0,1-.92-2.39,3.38,3.38,0,0,1,1.11-2.7,4.88,4.88,0,0,1,3.21-1h.88v-.89a1.7,1.7,0,0,0-.26-1.06.91.91,0,0,0-.75-.31c-.72,0-1.08.43-1.08,1.27h-2.9a3.19,3.19,0,0,1,1.15-2.53,4.28,4.28,0,0,1,2.92-1,4,4,0,0,1,2.82.94,3.57,3.57,0,0,1,1,2.72v5.22a5.39,5.39,0,0,0,.41,2.24V354ZM279.08,352a1.63,1.63,0,0,0,.82-.2,1.4,1.4,0,0,0,.5-.46V349h-.7a1.49,1.49,0,0,0-1.16.47,1.8,1.8,0,0,0-.43,1.26C278.11,351.54,278.43,352,279.08,352Z"/>
        <path class="cls-6" d="M288.45,354h-2.91V338.27h2.91Z"/>
        <path class="cls-6" d="M290.3,348.13a7.2,7.2,0,0,1,.93-4.07,3,3,0,0,1,2.68-1.34,2.61,2.61,0,0,1,2.14,1.1v-5.55H299V354h-2.64l-.13-1.13a2.66,2.66,0,0,1-2.3,1.33,3,3,0,0,1-2.66-1.33,7.1,7.1,0,0,1-.94-3.92Zm2.92.73a5.17,5.17,0,0,0,.35,2.29,1.22,1.22,0,0,0,1.17.65,1.43,1.43,0,0,0,1.31-.77V346a1.39,1.39,0,0,0-1.3-.82,1.25,1.25,0,0,0-1.17.64,5.16,5.16,0,0,0-.36,2.3Z"/>
        <path class="cls-6" d="M93.28,381.83h-5v-2.42h5Z"/>
        <path class="cls-6" d="M100.67,387V372.09h4a5.4,5.4,0,0,1,4.16,1.66,6.47,6.47,0,0,1,1.59,4.55v2.42a6.57,6.57,0,0,1-1.55,4.62,5.57,5.57,0,0,1-4.29,1.68Zm3-12.42v9.91h.91a2.53,2.53,0,0,0,2.12-.79,4.72,4.72,0,0,0,.64-2.74v-2.6a5.33,5.33,0,0,0-.58-2.92,2.36,2.36,0,0,0-2-.86Z"/>
        <path class="cls-6" d="M117.84,386a2.85,2.85,0,0,1-2.42,1.22,2.71,2.71,0,0,1-2.31-1.05,5,5,0,0,1-.79-3.06v-7.19h2.9v7.26q0,1.62,1.08,1.62a1.49,1.49,0,0,0,1.43-.86v-8h2.92V387h-2.72Z"/>
        <path class="cls-6" d="M130.39,376.89a2.89,2.89,0,0,1,2.32-1.17,2.7,2.7,0,0,1,2.31,1.06,5.36,5.36,0,0,1,.8,3.18V387h-2.91v-7a2.45,2.45,0,0,0-.31-1.41,1.09,1.09,0,0,0-1-.43,1.39,1.39,0,0,0-1.23.72V387h-2.9V371.27h2.9Z"/>
        <path class="cls-6" d="M143.17,387a4.9,4.9,0,0,1-.25-.87,2.44,2.44,0,0,1-2.11,1.07,3.14,3.14,0,0,1-2.31-.92,3.26,3.26,0,0,1-.92-2.39,3.38,3.38,0,0,1,1.11-2.7,4.9,4.9,0,0,1,3.21-1h.88v-.89a1.61,1.61,0,0,0-.26-1.06.9.9,0,0,0-.74-.31c-.73,0-1.09.43-1.09,1.27h-2.9a3.19,3.19,0,0,1,1.15-2.53,4.28,4.28,0,0,1,2.92-1,3.92,3.92,0,0,1,2.82.94,3.57,3.57,0,0,1,1,2.72v5.22a5.56,5.56,0,0,0,.41,2.24V387Zm-1.71-2.08a1.63,1.63,0,0,0,.82-.19,1.4,1.4,0,0,0,.5-.46V382h-.7a1.49,1.49,0,0,0-1.16.47,1.85,1.85,0,0,0-.43,1.26C140.49,384.53,140.82,384.94,141.46,384.94Z"/>
        <path class="cls-6" d="M153.26,378.72l-1-.08a1.58,1.58,0,0,0-1.61,1V387h-2.92v-11.1h2.74l.08,1.2a2.1,2.1,0,0,1,1.9-1.4,2,2,0,0,1,.8.13Z"/>
        <path class="cls-6" d="M162.09,378.23h1.4a1.32,1.32,0,0,0,1.18-.56,2.63,2.63,0,0,0,.37-1.49,2.25,2.25,0,0,0-.38-1.39,1.25,1.25,0,0,0-1-.5,1.21,1.21,0,0,0-1,.47,1.81,1.81,0,0,0-.39,1.19h-2.9a4.1,4.1,0,0,1,.54-2.1,3.83,3.83,0,0,1,1.51-1.45,5,5,0,0,1,5.38.62,4.19,4.19,0,0,1,1.16,3.12,3.58,3.58,0,0,1-.52,1.88,3.69,3.69,0,0,1-1.39,1.33,3.18,3.18,0,0,1,1.57,1.35,4.63,4.63,0,0,1-.75,5.32,4.63,4.63,0,0,1-3.33,1.2,4.07,4.07,0,0,1-4.3-4.3h2.9a2.13,2.13,0,0,0,.42,1.35,1.3,1.3,0,0,0,1.07.54,1.41,1.41,0,0,0,1.18-.55,2.33,2.33,0,0,0,.44-1.48c0-1.47-.57-2.21-1.72-2.21h-1.42Z"/>
        <path class="cls-6" d="M178.1,387h-2.92V371.27h2.92Z"/>
        <path class="cls-6" d="M180.34,373.05a1.5,1.5,0,0,1,.43-1.11,1.75,1.75,0,0,1,2.3,0,1.5,1.5,0,0,1,.43,1.11,1.58,1.58,0,1,1-3.16,0Zm3,14h-2.92v-11.1h2.92Z"/>
        <path class="cls-6" d="M189.27,382.91l1.41-7h3l-3,11.1h-2.77l-3.06-11.1h3Z"/>
      </g>
    </g>
  </g>
</svg>
