<svg xmlns="http://www.w3.org/2000/svg" width="324.22" height="125.02" viewBox="0 0 324.22 125.02">
  <defs>
    <style>
      .cls-1 {
        fill: #feb913;
      }

      .cls-1, .cls-2 {
        stroke: #996779;
        stroke-miterlimit: 10;
        stroke-width: 3px;
      }

      .cls-2 {
        fill: #fff;
      }
    </style>
  </defs>
  <title>retry</title>
  <g id="Layer_2" data-name="Layer 2">
    <g id="Layer_1-2" data-name="Layer 1">
      <path class="cls-1" d="M145,2C131.8,2,130.52,3.3,121.88,4.49a100,100,0,0,1-23.13.83c-3.49-.26-10.55-.18-14,0a78.22,78.22,0,0,0-9.92.83c-6.32,1.26-7.72-.44-14,.82C46,9.9,29.53,10.14,18.7,20.53,11.79,27.17,7.49,36.12,4.79,45.32.56,59.76.05,75.6,5.35,89.68s16.84,26.13,31.34,30.16c11.77,3.28,24.26,1.23,36.41,0a268.27,268.27,0,0,1,56.8.26c12.67,1.4,25.32,3.72,38.07,3.41,9.57-.23,19.06-1.94,28.63-2.35,15.81-.68,31.59,2.21,47.41,2a239,239,0,0,0,25.89-2.21c9.11-1.11,18.31-2.24,26.92-5.42s16.7-8.63,21.26-16.6c6-10.43,5.11-23.34,3.29-35.24-1.79-11.73-4.4-23.57-10.32-33.85s-15.6-18.94-27.26-21.17C278,7.53,271.94,8.05,266,7.72,259.44,7.35,253,6,246.47,5c-27.71-3.86-56.2,1.34-83.75-3.54Z"/>
      <g>
        <path class="cls-2" d="M62.57,52.73v1.05a5.29,5.29,0,0,1-.07.9A15.07,15.07,0,0,1,60.23,61a18.21,18.21,0,0,1-10.62,7.82,15.75,15.75,0,0,1-6.77.32c0,.67.08,1.33.08,2v2.81c0,1.22,0,2.87,0,4.93s.08,4.85.18,8.35v.07a.18.18,0,0,0-.11,0,.15.15,0,0,1-.1,0,13,13,0,0,1-2.56.39q-1.55.1-3.24.15c-1.13,0-2.24,0-3.35,0s-2.06-.12-2.88-.22c-.14-3.5-.21-7.31-.21-11.41V63.6q0-6.47,0-13t-.25-12.52a40.89,40.89,0,0,1,6.44-1.16,38,38,0,0,1,7-.07,33.84,33.84,0,0,1,6.8,1.26A18.48,18.48,0,0,1,56.49,41a15.7,15.7,0,0,1,4.21,4.79A15.48,15.48,0,0,1,62.57,52.73Zm-12.6-3a9,9,0,0,0-4.17-1.84,11.51,11.51,0,0,0-4.68.18.29.29,0,0,0-.22.08c.05.86.06,1.77,0,2.73s0,1.92,0,2.88.07,1.89.14,2.77a10,10,0,0,0,.47,2.41h.21c.77,0,1.59-.08,2.45-.1s1.72-.09,2.56-.18a12.76,12.76,0,0,0,2.45-.54,5.35,5.35,0,0,0,2.05-1.26A5.3,5.3,0,0,0,52.1,55a4.92,4.92,0,0,0,.07-2,5.27,5.27,0,0,0-.72-1.87A4.44,4.44,0,0,0,50,49.71Z"/>
        <path class="cls-2" d="M100.66,87.87h.07q-2.52,0-5.61.18a49.78,49.78,0,0,1-6.34,0h-.07q-.72-1.65-1.8-4t-2.38-4.82q-1.29-2.52-2.81-5a41,41,0,0,0-3-4.32l-.14-.21a30.94,30.94,0,0,0-.22,4.06c0,1.61,0,3.27.11,5s.15,3.33.25,4.86.17,2.76.22,3.67a10.35,10.35,0,0,1-3.21.65c-1.32.1-2.63.16-3.92.18s-2.46,0-3.49,0a11,11,0,0,0-1.91,0,5.39,5.39,0,0,0,.21-2c.05-1.31.07-3,.07-5.22V73.43c0-2.8,0-5.71,0-8.71s-.07-6-.14-8.93-.14-5.66-.18-8.13-.11-4.59-.18-6.34-.16-2.94-.26-3.56q4-.59,8.86-1.08a47.29,47.29,0,0,1,10.08.07,14.94,14.94,0,0,1,7.63,2.45,16.06,16.06,0,0,1,5.26,5.54,15.42,15.42,0,0,1,2,7.31,14.17,14.17,0,0,1-2.13,7.74,12.9,12.9,0,0,1-3.63,4.32,10.25,10.25,0,0,1-5.73,1.94h-.36v.08c1,1.77,2.12,3.54,3.32,5.29s2.37,3.51,3.52,5.29S96.94,80.3,98,82.14A38.09,38.09,0,0,1,100.66,87.87Zm-24.26-40c0,.62.08,1.33.1,2.12s0,1.6,0,2.41,0,1.61,0,2.38a12.23,12.23,0,0,0,.18,1.94h.07c1.1.1,2.3.17,3.6.22a17.51,17.51,0,0,0,3.67-.22,3.27,3.27,0,0,0,2.12-1.4,5.18,5.18,0,0,0,.9-2.45,6.38,6.38,0,0,0-.28-2.66,4.36,4.36,0,0,0-1.44-2.13,5.41,5.41,0,0,0-4-1.33A15.11,15.11,0,0,0,76.4,47.84Z"/>
        <path class="cls-2" d="M133.27,56.84q-.06,5.53-.14,11a63.91,63.91,0,0,1-1.08,10.83A11.8,11.8,0,0,1,128.42,85a11.4,11.4,0,0,1-6.74,2.84,34.68,34.68,0,0,1-4.1.18,28.54,28.54,0,0,0-3.82.18h-.14a1.08,1.08,0,0,1-.18.36,3.14,3.14,0,0,1-.76.72l-.07.07h.07a10.83,10.83,0,0,1-1.87.18c-.77,0-1.6,0-2.48,0s-1.79,0-2.7,0-1.73,0-2.45,0c-.1-.15-.07-.5.07-1s.33-1.16.54-1.83.44-1.32.68-2,.44-1.12.58-1.51c0-.05,0-.07,0-.07s0,0,0-.07,0-.07,0-.07,0,0,0-.08a66.58,66.58,0,0,1-2-14.11q-.25-7.05.18-14.26c.09-.86.15-1.73.18-2.62s.07-1.78.14-2.67a24.1,24.1,0,0,1,.36-2.59,9.16,9.16,0,0,1,.9-2.48A14.46,14.46,0,0,1,107.64,40l.22-.22a9.74,9.74,0,0,1,2.88-1.54,14.45,14.45,0,0,1,3.31-.72,23.5,23.5,0,0,1,3.46-.11c1.15.05,2.25.12,3.31.21.1,0,.15-.15.18-.32s0-.35.07-.54a2.18,2.18,0,0,1,.11-.5.33.33,0,0,1,.36-.22h.07a17.19,17.19,0,0,0,2.56.11c.93,0,1.87-.06,2.8-.11a21.81,21.81,0,0,1,2.56,0,3.74,3.74,0,0,1,1.8.5,6.14,6.14,0,0,1-.75,2.67,4,4,0,0,0-.55,2.45,11.5,11.5,0,0,1,2.09,3.42,17.08,17.08,0,0,1,1,3.77,27.59,27.59,0,0,1,.29,4C133.42,54.21,133.37,55.54,133.27,56.84ZM111,68q1.45-4.6,3.28-9.94t3.42-10.44v-.07h-.57a5.7,5.7,0,0,0-2.89,1.26,6.1,6.1,0,0,0-2,2.55,35.8,35.8,0,0,0-.43,4.58,39.85,39.85,0,0,1-.43,4.57c0,.29-.09.56-.11.83s-.06.54-.11.83-.1.92-.15,1.47l-.14,1.66a11.64,11.64,0,0,0,0,1.54A5,5,0,0,0,111,68Zm13-8.07v-.28c-.48,1.29-1,2.73-1.55,4.31s-1.12,3.22-1.69,4.9-1.17,3.36-1.77,5l-1.69,4.75s.07,0,.07,0,0,0,.07,0a14.39,14.39,0,0,0,1.7-.46,11.1,11.1,0,0,0,1.87-.83,9.3,9.3,0,0,0,1.66-1.19,3.52,3.52,0,0,0,1-1.62,24.63,24.63,0,0,0,.68-4.53,38.84,38.84,0,0,0,0-4c-.07-1.24-.15-2.37-.25-3.38S124,60.75,124,59.93Z"/>
        <path class="cls-2" d="M166.83,38.84q-1.23,6.4-2.63,12.52t-2.92,12.17q-1.51,6.06-3.09,12.14T154.88,88a16.27,16.27,0,0,0-1.8.15,25.15,25.15,0,0,1-2.74.14c-1.06,0-2.12,0-3.2-.11a11.54,11.54,0,0,1-2.78-.47A238.44,238.44,0,0,1,139,63.79q-2.1-12.28-3.1-24.74V39a3.15,3.15,0,0,1,1.87-.72,24.48,24.48,0,0,1,3.1-.25c1.1,0,2.16,0,3.17,0a12.4,12.4,0,0,1,2.08.21,30.62,30.62,0,0,1,.36,4.68q.07,3.24.36,7.78c.19,3,.52,6.36,1,10A99.07,99.07,0,0,0,150,72q1.36-5.84,2.23-10.69t1.51-9c.44-2.73.84-5.25,1.23-7.56s.84-4.46,1.37-6.48a.12.12,0,0,1,.14-.14,12.33,12.33,0,0,0,2.52.32c.86,0,1.74,0,2.63,0s1.77,0,2.66,0A16.21,16.21,0,0,1,166.83,38.84Z"/>
        <path class="cls-2" d="M193.83,37.47h1.72v.29q0,6.2-.17,12.45t-.29,12.57q-.12,6.3,0,12.56t.43,12.38a3.8,3.8,0,0,1-2.41.69c-1.22.07-2.54.08-4,0s-2.77-.11-4.07-.19a9.27,9.27,0,0,0-2.66.11q.5-6.48.43-13t-.25-13q-.18-6.44-.22-12.74A111.51,111.51,0,0,1,183,37.25v-.14a5.35,5.35,0,0,1,1.41,0c.69.07,1.21.1,1.55.1l3,.18C190,37.51,191.67,37.52,193.83,37.47Z"/>
        <path class="cls-2" d="M215.79,63a6.89,6.89,0,0,1,3.06-.69q2.11-.11,4.5,0c1.58,0,3.06.13,4.42.25s2.3.18,2.78.18h.14l.07.07q.44,3.82.58,8.1a38.29,38.29,0,0,1-.58,8.18,9.1,9.1,0,0,1-2.23,5.61,12,12,0,0,1-4.61,3c-1.2.34-2.45.64-3.74.9a34.65,34.65,0,0,1-4,.58,19.07,19.07,0,0,1-3.93,0,13.1,13.1,0,0,1-3.63-.93,10.09,10.09,0,0,1-4.39-3.32,16.13,16.13,0,0,1-2.38-5.18c-.14-.53-.3-1.26-.47-2.2s-.3-1.88-.39-2.84c-.15-1.53-.27-2.93-.36-4.18s-.18-2.48-.25-3.7-.13-2.52-.15-3.89,0-2.94,0-4.72c0-1.53.12-3.1.21-4.71s.27-3.18.51-4.72a20.59,20.59,0,0,1,1.26-4.61,8.09,8.09,0,0,1,3-3.67,9.56,9.56,0,0,1,3.24-1.8,23.81,23.81,0,0,1,3.75-.86,22.65,22.65,0,0,1,7.56.25,15.36,15.36,0,0,1,6.19,2.7,11.86,11.86,0,0,1,3.89,5.15,15.4,15.4,0,0,1,.79,7.59l-.07.43c-.1.15-.31.22-.65.22s-.89,0-1.66.07-1.33,0-1.83,0-1,0-1.51,0-1,0-1.55-.08-1.15-.12-1.87-.21c-.15-.48-.35-1.07-.62-1.77a9.61,9.61,0,0,0-1-1.94,7.93,7.93,0,0,0-1.41-1.58,2.76,2.76,0,0,0-1.87-.69c-.82,0-1.61-.07-2.38-.07a2.3,2.3,0,0,0-2.41,1.62,7.5,7.5,0,0,0-.39,1.19,27.12,27.12,0,0,0-.83,4.17c-.22,1.64-.37,3.38-.47,5.22s-.12,3.76-.07,5.73.14,3.84.29,5.61a24.6,24.6,0,0,0,.57,3.46,5.09,5.09,0,0,0,1.8,3,4.68,4.68,0,0,0,1.66.65,7.28,7.28,0,0,0,2.27-.07,14.54,14.54,0,0,0,2.19-.58,4.21,4.21,0,0,0,1.37-1,3.91,3.91,0,0,0,.86-1.62c0-.19.11-.52.18-1a12.94,12.94,0,0,0,.15-1.41q0-.72,0-1.29c0-.39-.11-.6-.25-.65a6,6,0,0,0-1.19,0l-1.58.08c-.56,0-1.06,0-1.52,0a3.85,3.85,0,0,1-1-.18c-.1-.77-.16-1.45-.18-2a15.88,15.88,0,0,1,0-1.69c0-.55,0-1.12,0-1.69a19,19,0,0,0-.14-2.16v-.08a.06.06,0,0,1,.07-.07Z"/>
        <path class="cls-2" d="M266.26,78.29v.15c.09,1.53.12,3.13.07,4.78a20.07,20.07,0,0,1-.65,4.65q-7.33-.08-14.94.18a124.67,124.67,0,0,1-14.58-.33q0-6.25-.14-12.42T235.8,63q-.08-6.12,0-12.24t.43-12.31c1.88-.1,3.9-.18,6.09-.25s4.38-.14,6.59-.18l6.4-.15c2.07,0,3.89-.07,5.48-.07s2.85,0,3.81.07a5.34,5.34,0,0,1,1.44.15,24.17,24.17,0,0,1,.18,5.11c-.12,1.72-.18,3.43-.18,5.11v.07a26.93,26.93,0,0,1-4.64.61c-1.56.08-3.13.1-4.72.08s-3.17,0-4.75,0-3.17.07-4.75.22H247l-.07.07a28.24,28.24,0,0,1-.18,4.28A11.33,11.33,0,0,0,247,57.7l.07.07c1.44.1,2.91.15,4.39.15s3,0,4.47.07v.07a24.39,24.39,0,0,1,.22,4.9c-.1,1.63-.12,3.33-.08,5.11a10.45,10.45,0,0,1-2.44.32c-.92,0-1.79,0-2.63,0s-1.6,0-2.27.07a2.67,2.67,0,0,0-1.37.36,22.34,22.34,0,0,0-.25,4.68c.07,1.73.15,3.17.25,4.32l.07.07c3.17,0,6.29.09,9.36.25S263,78.39,266.26,78.29Z"/>
        <path class="cls-2" d="M298.08,88.45c-1,0-2.06-.07-3.31-.19s-2.35-.17-3.31-.17q-2.38-5.34-4.72-10.34t-4-9.61L282,66q-.28-.8-.54-1.47c-.16-.46-.3-.69-.39-.69a7.72,7.72,0,0,0-.18,1.73c-.07,1.15-.13,2.62-.18,4.39s-.09,3.74-.11,5.9,0,4.25,0,6.27v3.2c0,1,0,2,.07,2.78a9.82,9.82,0,0,1-1.59.28c-.53,0-1.05.08-1.58.08a29.46,29.46,0,0,1-3.49-.22,29.11,29.11,0,0,0-3.42-.22V83q0-6.84-.11-13t-.11-13q0-5,.15-9.83t.5-9.46a13.44,13.44,0,0,1,1.55-.22c.55,0,1.11-.07,1.69-.07l1.44,0q1,0,2,.15c.68.07,1.26.15,1.77.25s.75.19.75.29c.34.86.65,1.58.94,2.16s.56,1.13.83,1.65.55,1.12.86,1.77.69,1.47,1.12,2.48c.09.24.31.7.65,1.37s.72,1.45,1.15,2.34l1.37,2.81c.48,1,.92,1.87,1.33,2.66s.75,1.47,1,2a3,3,0,0,0,.51.83c.14-.1.26-.58.36-1.45a24.2,24.2,0,0,0,.14-2.51c0-1.92,0-3.71-.11-5.37s-.11-3.35-.11-5.07c0-1,0-2,0-3.06s.06-2.15.11-3.35a29.57,29.57,0,0,1,5.18-.44,23.34,23.34,0,0,1,4.75.44V60.58q.08,3,.08,6.12v6.19c0,1.4,0,2.74,0,4s0,2.62,0,4c0,1,0,1.93,0,2.88s0,1.93,0,2.88v1.45l-.65.21A6.86,6.86,0,0,1,298.08,88.45Z"/>
      </g>
    </g>
  </g>
</svg>
