<svg xmlns="http://www.w3.org/2000/svg" width="109.29" height="163.78" viewBox="0 0 109.29 163.78">
  <defs>
    <style>
      .cls-1 {
        fill: #e8daad;
      }

      .cls-2 {
        fill: #ede1bd;
      }

      .cls-3 {
        fill: #f1e9ce;
      }

      .cls-4 {
        fill: #aea382;
        opacity: 0.7;
      }
    </style>
  </defs>
  <title>skraldepose</title>
  <g id="Layer_2" data-name="Layer 2">
    <g id="pose">
      <path class="cls-1" d="M15.91,10.3s1,39,12,52-5-53-5-53h-7Z"/>
      <path class="cls-2" d="M46.91,56.3s25,3,27,1,7-30,20-40l6,13s-13,4-13,22,9,11,9,11l-5,14-45-10Z"/>
      <path class="cls-3" d="M15.29,9s15,30,10,53-3,20-3,20-7,1-9,13-5,5-1,22l-5,1s-9,13-7,15,11,0,11,0,9,9,30,9,13,2,13,2,13,10,39,18c0,0,4,4,3,0s-6-9-5-14,11-24,10-27-3-22-2-23a12.35,12.35,0,0,0,4-13c-2-8-4-11-2-29a179.52,179.52,0,0,1,8-35l-16-4s1,42-7,47-35-6-35-6-14-49-21-58C30.29,0,21.29,7,15.29,9Z"/>
      <path class="cls-4" d="M31.45,88.51a11.1,11.1,0,0,1-9-7S23.08,87,26,89C29.45,91.51,31.45,88.51,31.45,88.51Z"/>
      <path class="cls-4" d="M35.91,105.3c-5-4-11-13-11-13s3.5,8.5,6.5,10.5A22.1,22.1,0,0,0,35.91,105.3Z"/>
      <path class="cls-4" d="M62.91,100.3c-8,6-18,5-18,5s6,1,10,0S62.91,100.3,62.91,100.3Z"/>
      <path class="cls-4" d="M86,64.84a14.49,14.49,0,0,1-9.1,3.46s6.48-2,7.24-3Z"/>
      <polygon class="cls-4" points="80.91 76.3 64.91 85.3 80.91 80.3 71.91 82.3 80.91 76.3"/>
      <path class="cls-4" d="M84.91,86.3c-4,0-9-3-9-3l4,3Z"/>
      <path class="cls-4" d="M96.91,103.3c-2,2-6,3-6,3l4-1Z"/>
      <path class="cls-4" d="M94.91,106.3c-4,2-7,7-7,7s1-3,2-4A32.08,32.08,0,0,1,94.91,106.3Z"/>
      <path class="cls-4" d="M63.91,107.3a35.69,35.69,0,0,1-13,5s6,0,9-1A6.83,6.83,0,0,0,63.91,107.3Z"/>
      <path class="cls-4" d="M51.91,113.3c-12,6-19,4-19,4l5,2Z"/>
      <path class="cls-4" d="M52.91,116.3s-4,3-7,3-8,3-8,3,8-2,9-1S52.91,116.3,52.91,116.3Z"/>
      <path class="cls-4" d="M91.86,150.7c-2-.6-2-11.4-2-11.4s1,10,2,10Z"/>
      <path class="cls-4" d="M11.91,133.3c0-1-3-3-3-3s2,2,2,3Z"/>
      <path class="cls-4" d="M55.91,70.3a7.27,7.27,0,0,1-5-5s0,3,1,4S55.91,70.3,55.91,70.3Z"/>
      <path class="cls-4" d="M55.91,68.3c-3-2-4-7-4-7s0,3,1,4Z"/>
      <path class="cls-4" d="M55.84,143.37s-.76-.49,0-.54c3.79-.26,16.87-1,18.2-1.51,2.19-.93.17,1.15-.42,1.34S55.84,143.37,55.84,143.37Z"/>
    </g>
  </g>
</svg>
