<svg xmlns="http://www.w3.org/2000/svg" width="324.22" height="125.02" viewBox="0 0 324.22 125.02">
  <defs>
    <style>
      .cls-1 {
        fill: #feb913;
      }

      .cls-1, .cls-2 {
        stroke: #996779;
        stroke-miterlimit: 10;
        stroke-width: 3px;
      }

      .cls-2 {
        fill: #fff;
      }
    </style>
  </defs>
  <title>Asset 5</title>
  <g id="Layer_2" data-name="Layer 2">
    <g id="Layer_1-2" data-name="Layer 1">
      <path class="cls-1" d="M145,2C131.8,2,130.52,3.3,121.88,4.49a100,100,0,0,1-23.13.83c-3.49-.26-10.55-.18-14,0a78.22,78.22,0,0,0-9.92.83c-6.32,1.26-7.72-.44-14,.82C46,9.9,29.53,10.14,18.7,20.53,11.79,27.17,7.49,36.12,4.79,45.32.56,59.76.05,75.6,5.35,89.68s16.84,26.13,31.34,30.16c11.77,3.28,24.26,1.23,36.41,0a268.27,268.27,0,0,1,56.8.26c12.67,1.4,25.32,3.72,38.07,3.41,9.57-.23,19.06-1.94,28.63-2.35,15.81-.68,31.59,2.21,47.41,2a239,239,0,0,0,25.89-2.21c9.11-1.11,18.31-2.24,26.92-5.42s16.7-8.63,21.26-16.6c6-10.43,5.11-23.34,3.29-35.24-1.79-11.73-4.4-23.57-10.32-33.85s-15.6-18.94-27.26-21.17C278,7.53,271.94,8.05,266,7.72,259.44,7.35,253,6,246.47,5c-27.71-3.86-56.2,1.34-83.75-3.54Z"/>
      <g>
        <path class="cls-2" d="M117.31,54h-.08a42.17,42.17,0,0,1-5.4.54,17,17,0,0,1-5.4-.62,3.34,3.34,0,0,0-.79-3.23,5.47,5.47,0,0,0-3-1.66,5.37,5.37,0,0,0-3.35.36,3.25,3.25,0,0,0-1.91,2.74,2.72,2.72,0,0,0-.1,1c0,.31,0,.63.1,1a3.57,3.57,0,0,0,1.88,2.3,10.55,10.55,0,0,0,2.8.8,17,17,0,0,1,7.1,2.44,17.37,17.37,0,0,1,5.36,5.12,12,12,0,0,1,1.94,3.56,14.18,14.18,0,0,1,.76,3.92,16.5,16.5,0,0,1-.29,4.07,16.7,16.7,0,0,1-1.26,3.93,12,12,0,0,1-2.3,3.81,12.39,12.39,0,0,1-3.28,2.59,14.38,14.38,0,0,1-4,1.48,18,18,0,0,1-4.35.4,21.22,21.22,0,0,1-6.3-1.12A19,19,0,0,1,90,84.41a13.8,13.8,0,0,1-3.89-4.57,11.37,11.37,0,0,1-1.23-6.16v-.43a27.73,27.73,0,0,1,5.55-.18c2,.12,3.84.16,5.47.11a4.25,4.25,0,0,0,1.83,3.46,6,6,0,0,0,3.61,1.11,5,5,0,0,0,3.31-1.26,3.79,3.79,0,0,0,1-3.74,4.51,4.51,0,0,0-1.3-2.77,8.53,8.53,0,0,0-2.55-1.69,14.48,14.48,0,0,0-3.21-1l-3.24-.61a9.64,9.64,0,0,1-2.66-.93,12.16,12.16,0,0,1-2.23-1.52,14.66,14.66,0,0,1-4.29-7,15.29,15.29,0,0,1-.1-7.42,16.12,16.12,0,0,1,3.27-6.55,14.88,14.88,0,0,1,5.87-4.39,14.36,14.36,0,0,1,3.82-1,24.6,24.6,0,0,1,4.21-.15,22.43,22.43,0,0,1,4.17.61,21.23,21.23,0,0,1,3.78,1.3A12.41,12.41,0,0,1,116.44,45Q118.32,48.56,117.31,54Z"/>
        <path class="cls-2" d="M150,38.05c.1,1.58.13,3.4.11,5.47a44.67,44.67,0,0,1-.4,5.69,13.72,13.72,0,0,0-3.38-.22l-5.4.22h-.22a.15.15,0,0,1,0,.1.14.14,0,0,0,0,.11,8.84,8.84,0,0,0-.11,1.12q0,.75,0,2.37c0,1.08,0,2.5,0,4.25s.06,4,.11,6.77.1,6.07.15,9.94.12,8.41.21,13.64v.14a20.07,20.07,0,0,1-2.84.26c-1,0-2.07,0-3.1,0H132a16.51,16.51,0,0,0-2.81.22,23.76,23.76,0,0,1,0-2.59q.07-2.31.11-6.88c0-3,0-7-.07-11.7s-.25-10.49-.54-17.21l-.07-.07a5.89,5.89,0,0,0-2.16-.54c-.87-.07-1.73-.12-2.59-.14s-1.66,0-2.38,0a5.2,5.2,0,0,1-1.51-.15,5.09,5.09,0,0,1-.25-1.44c-.08-.76-.12-1.69-.15-2.77s0-2.24,0-3.49,0-2.45.14-3.6c0,0,0-.07,0-.07s0,0,0-.07q7.35-.07,15.15-.11A137.81,137.81,0,0,1,150,38.05Z"/>
        <path class="cls-2" d="M173.61,62.81,179,88v.08a20.56,20.56,0,0,1-4.75.32,28.91,28.91,0,0,1-4.9-.61h-.07a24.13,24.13,0,0,1-.83-2.74c-.26-1-.53-2.13-.79-3.24s-.54-2.16-.83-3.17a17.28,17.28,0,0,0-.94-2.59,10.93,10.93,0,0,0-1.44-.14h-.9l-.86,0c-.31,0-.73,0-1.26,0a13.91,13.91,0,0,0-.83,2.7c-.21,1-.43,2.11-.65,3.24s-.44,2.22-.68,3.28a11.38,11.38,0,0,1-1,2.8.18.18,0,0,0-.11,0,.15.15,0,0,1-.1,0,14,14,0,0,1-2.88,0c-1.54-.1-3.94-.12-7.2-.08a.21.21,0,0,1-.15-.07c.1-.33.26-1.27.51-2.81s.57-3.53,1-6,.95-5.27,1.55-8.46,1.31-6.59,2.13-10.19,1.7-7.34,2.66-11.23,2-7.75,3.17-11.59a7.2,7.2,0,0,1,1.08-.08h1.51l2.41,0c1,0,2.27-.11,3.85-.25l.69,2.84c.31,1.27.65,2.71,1,4.32l1.15,5.15c.41,1.82.8,3.57,1.19,5.25s.74,3.22,1.08,4.61S173.42,62,173.61,62.81Zm-7.35,4.68q-.72-6.18-1.26-9.65a37.08,37.08,0,0,0-.93-4.67c-.27-.82-.53-1-.79-.54a8.82,8.82,0,0,0-.72,2.77q-.33,2.09-.72,5.25t-.9,6.84c.81.05,1.68.06,2.59,0S165.35,67.49,166.26,67.49Z"/>
        <path class="cls-2" d="M215.94,87.87H216c-1.68,0-3.56.06-5.62.18a49.79,49.79,0,0,1-6.34,0H204q-.72-1.65-1.8-4t-2.37-4.82c-.87-1.68-1.8-3.34-2.81-5a42.49,42.49,0,0,0-3-4.32l-.14-.21a32.79,32.79,0,0,0-.22,4.06c0,1.61,0,3.27.11,5s.16,3.33.25,4.86.17,2.76.22,3.67a10.28,10.28,0,0,1-3.2.65c-1.33.1-2.63.16-3.93.18s-2.46,0-3.49,0a11,11,0,0,0-1.91,0c.1,0,.17-.66.22-2s.07-3,.07-5.22V73.43c0-2.8,0-5.71,0-8.71s-.07-6-.14-8.93-.13-5.66-.18-8.13-.11-4.59-.18-6.34-.16-2.94-.25-3.56c2.68-.39,5.64-.75,8.85-1.08a47.28,47.28,0,0,1,10.08.07,15,15,0,0,1,7.64,2.45A16.13,16.13,0,0,1,213,44.74a15.42,15.42,0,0,1,2,7.31,14.16,14.16,0,0,1-2.12,7.74,13,13,0,0,1-3.64,4.32,10.25,10.25,0,0,1-5.72,1.94h-.36v.08c1,1.77,2.11,3.54,3.31,5.29s2.38,3.51,3.53,5.29,2.25,3.59,3.31,5.43A37.13,37.13,0,0,1,215.94,87.87Zm-24.26-40c0,.62.08,1.33.11,2.12s0,1.6,0,2.41,0,1.61,0,2.38a12.23,12.23,0,0,0,.18,1.94h.07c1.11.1,2.31.17,3.6.22a17.46,17.46,0,0,0,3.67-.22,3.29,3.29,0,0,0,2.13-1.4,5.4,5.4,0,0,0,.9-2.45,6.39,6.39,0,0,0-.29-2.66,4.36,4.36,0,0,0-1.44-2.13,5.4,5.4,0,0,0-4-1.33A15.11,15.11,0,0,0,191.68,47.84Z"/>
        <path class="cls-2" d="M247.19,38.05c.1,1.58.13,3.4.11,5.47a46.59,46.59,0,0,1-.4,5.69,13.72,13.72,0,0,0-3.38-.22l-5.4.22h-.22a.15.15,0,0,1,0,.1.14.14,0,0,0,0,.11,8.84,8.84,0,0,0-.11,1.12q0,.75,0,2.37c0,1.08,0,2.5,0,4.25s.06,4,.11,6.77.1,6.07.15,9.94.11,8.41.21,13.64v.14a20.07,20.07,0,0,1-2.84.26l-3.1,0h-3.06a16.51,16.51,0,0,0-2.81.22,23.76,23.76,0,0,1,0-2.59q.08-2.31.11-6.88T226.42,67q-.1-7.12-.54-17.21l-.07-.07a5.89,5.89,0,0,0-2.16-.54c-.87-.07-1.73-.12-2.6-.14s-1.65,0-2.37,0a5.2,5.2,0,0,1-1.51-.15,5.09,5.09,0,0,1-.25-1.44c-.08-.76-.13-1.69-.15-2.77s0-2.24,0-3.49,0-2.45.14-3.6c0,0,0-.07,0-.07s0,0,0-.07c4.89,0,9.95-.09,15.15-.11A137.81,137.81,0,0,1,247.19,38.05Z"/>
      </g>
    </g>
  </g>
</svg>
