<svg xmlns="http://www.w3.org/2000/svg" width="375.62" height="667" viewBox="0 0 375.62 667">
  <defs>
    <style>
      .cls-1 {
        fill: #c1507a;
      }

      .cls-2 {
        fill: #e58247;
      }

      .cls-3 {
        fill: #ac6235;
      }
    </style>
  </defs>
  <title>Artboard 10</title>
  <g id="Layer_21" data-name="Layer 21">
    <path class="cls-1" d="M326.51,157.24l-13.16-1s-8.54-3-12.17-13.7c-.67-7.62,6.08-10.41,7.69-14.47s-1.66-21.53-3.32-24.22a14,14,0,0,1-1-10.56c1.09-3,2.79-14.46-1.23-19S299.14,70,297.07,73s3.37,12.44,3.44,15,.33,8.63-2.59,10.16-11.86-5.59-13.35-7.87S281,83.93,281,80.13s-.82-18.28-6.86-16.5,2.84,11.93,1.32,15.73-6.6,2.29-8.63,1.27-12.44-10.15-16.5-8.37-.51,6.34,2.79,8.63,13.86,7.87,21,9.14,8.88,6,10.43,7.17,12.21,5,13.35,8.56,4.19,20.91.89,25.18-8.39,5.53-11.3,3.76-6.74-3.56-9.65-14.22-7-19.29-15.35-20-15-3.81-15.22-4.82-10.67-12.44-14-9.9-1,5.08,1.77,7.36,5.33,8.17,26.15,10.81C272,110.36,274.7,117.44,272,119.72s-11.8-.16-14.85-2.74-5.83-3.35-6.34-1.57.76,6.09,4.82,6.34,17.29,3.81,18.67,5.59,7.2,5.13,3.53,12.46c-5.83,4-15.09-2.82-15.09-2.82s-11.68-11.17-14-10.15-2.54,6.6-.76,8.63,9.39,8.72,16,9.44,16.47-2.84,19.4-1.83,9.24,3.11,9.51,6.5,8.75,10.92,11.62,13.13-4.24,5.85-6.65,7-12.53,4.43-13.94,3.77-10.82-8.84-14.11-9.06-6.85-1.84-7.61,1.51,13.2,9.18,13.2,9.18L272,181.82s-8.75-1.29-10.78-3-9.4-2.85-10.67,0,0,8.37,7.11,9a157.52,157.52,0,0,0,18.44,0l46.29-21.57Z"/>
    <path class="cls-1" d="M375.1,97.2s-21.51-22.71-34.64-20.78-27.34-4.35-31.59-10.63c-3.32-1.93-9.32,0-9.32,0a21.63,21.63,0,0,1-19-8.16C278.62,50,284,52.14,284,52.14a14.39,14.39,0,0,1,6.49,6.13c2.19,4.29,12.15,2.74,13.16,1S298.54,47,298.54,47s-5.22-5.9-3-12.64c4.88-5.56,7.92,2.19,7.92,2.19S306,47.2,306,48.71s11,15,13.14,16.08,1-18.61,1-18.61,2-6.74,4.55-8.59.84-17.86-2.53-21.4.85-7.08.85-7.08,1.68-1.85,6.06,2.36c0,0,5.73,3.54,4.38,17.19s-5.81,19.21-5.81,19.21-2.78,5.9-2.28,11.63.51,10.61,8.09,10.61,19.72,1.52,22.42,3.54c0,0-.85-20.89,2.35-21.91s1.35-9.6,1.35-9.6-6.57-7.08-9.1-7.75-5.22-7.25-2.36-8.93,9.27.67,9.27,4.72,3.54,8.42,3.54,8.42,3.54,3,7.08-2,0-21.74,0-21.74-3.71-8.26-1.35-9.94a5.61,5.61,0,0,1,8.48,4c1,5.06,0,30.34,0,30.34s-7.47,15-10.84,19.21.17,15.67.17,15.67,6,9.94,10.67,14.15Z"/>
    <path class="cls-1" d="M375.1,114.43l-12.72-3.69s-4.12-6.73-4.77-9.55-1.53-14.33-5.22-15.41-4.05,3.47-4.05,3.47,3.41,10.64,5.14,12.37-.21,6.73-.21,6.73-4.13,2.39-13.68-.87c-6.08-4.12-11.77-18.88-11.77-18.88s-3-7.6-6.9-5.86,2.61,13.46,2.61,13.46,6.94,11.94,10.2,12.8,6.95,8,26.27,6.52c18.66,4.77,15.1,9.76,15.1,9.76Z"/>
    <path class="cls-1" d="M345.61,141.87s9.34-9.45,6.06-22.28c-4.15-5.88-6.06,0-6.06,0s-1.86,8.74-1.15,12.3-3.92,2.5-3.92,2.5-2.43.17-8-10.7-8.76-1.42-8.76-1.42a8,8,0,0,0,2.72,7.15c3.51,3.18,13.78,9.06,15,13.7S345.61,141.87,345.61,141.87Z"/>
    <path class="cls-2" d="M375.1,156.53s-31.73-35-50.52-3.71-19.92,23.34-19.92,23.34-24.48-6.83-29-5.13-6.84,5.7-9.11,22.2,5.2,68.31,33.62,84.25,34.69,13.29,34.69,13.29,3.41,11.76,1.14,15.75-10.25,19.29-5.7,47.5c0,0-25-3.67-54.07,71.47s27.53,100.7,27.53,100.7-43.47,10.87-48,39.9-7.8,61.48,7.48,71.73S375.1,665.71,375.1,665.71V156.53Z"/>
    <g>
      <path class="cls-3" d="M339.59,285.72c-3.31,3.68,9.71-20.78,35.51-31.37"/>
      <path class="cls-3" d="M336.06,355.28l35.41,10"/>
      <path class="cls-3" d="M372,368c-5.61-4.49-16.64-11.86-31.66-12.85a52.41,52.41,0,0,0-9.86.3"/>
      <path class="cls-3" d="M314.45,524.89c12-2.3,33.19-4.19,51.95,7.34a57.1,57.1,0,0,1,5.65,3.95"/>
      <path class="cls-3" d="M350.19,179.05c-1.81-.75-3.7.36-6.05,1.73-1.84,1.07-3.63,2.12-3.47,3,.37,2.05,10.57,3.4,12.12.43C353.58,182.72,352.18,179.87,350.19,179.05Z"/>
      <path class="cls-3" d="M339.25,190c-.9-.37-1.85.18-3,.87-.91.54-1.81,1.06-1.73,1.51.19,1,5.29,1.71,6.06.22C341,191.82,340.25,190.39,339.25,190Z"/>
      <path class="cls-3" d="M347.39,197.16c-1.89.55-2.68,2.59-3.67,5.13-.77,2-1.52,3.91-.82,4.52,1.56,1.39,10.39-3.91,9.75-7.2C352.32,197.92,349.45,196.57,347.39,197.16Z"/>
      <path class="cls-3" d="M354.66,192.84c.62.76,1.71.73,3.08.68,1.06,0,2.09-.06,2.24-.5.33-1-3.84-4-5.23-3.08C354,190.42,354,192,354.66,192.84Z"/>
      <path class="cls-3" d="M365.56,198.69c-1.61-.74-3.3.36-5.38,1.73-1.64,1.08-3.22,2.12-3.08,3,.32,2.06,9.39,3.4,10.76.43C368.57,202.36,367.32,199.51,365.56,198.69Z"/>
      <path class="cls-3" d="M364.82,179.05c-1.21-.75-2.48.36-4.05,1.73-1.23,1.07-2.43,2.12-2.32,3,.25,2.05,7.07,3.4,8.11.43A5.4,5.4,0,0,0,364.82,179.05Z"/>
      <g>
        <path class="cls-3" d="M344.25,213.19c-2.05-.85-4.19.4-6.84,1.95-2.08,1.21-4.1,2.39-3.91,3.42.41,2.32,11.94,3.85,13.68.49C348.08,217.33,346.5,214.11,344.25,213.19Z"/>
        <path class="cls-3" d="M331.89,225.54c-1-.42-2.09.2-3.42,1-1,.6-2.05,1.19-2,1.71.21,1.16,6,1.92,6.85.24C333.81,227.61,333,226,331.89,225.54Z"/>
        <path class="cls-3" d="M349.3,228.77c.7.86,1.93.82,3.47.77,1.2,0,2.37-.08,2.54-.58.37-1.11-4.34-4.53-5.91-3.47C348.6,226,348.53,227.83,349.3,228.77Z"/>
        <path class="cls-3" d="M361.61,235.38c-1.82-.85-3.72.4-6.08,2-1.85,1.22-3.64,2.39-3.48,3.43.37,2.32,10.61,3.84,12.16.48C365,239.52,363.6,236.3,361.61,235.38Z"/>
        <path class="cls-3" d="M360.78,213.19c-1.37-.85-2.8.4-4.58,1.95-1.39,1.21-2.74,2.39-2.62,3.42.28,2.32,8,3.85,9.16.49C363.34,217.33,362.28,214.11,360.78,213.19Z"/>
      </g>
      <g>
        <path class="cls-3" d="M306.63,183.23c-1.5.57-2,2.28-2.64,4.41-.49,1.66-1,3.28-.37,3.73,1.36,1,8.18-3.87,7.45-6.5C310.69,183.52,308.27,182.61,306.63,183.23Z"/>
        <path class="cls-3" d="M306.22,195.83c-.75.29-1,1.14-1.32,2.21-.25.83-.49,1.64-.19,1.86.68.51,4.09-1.93,3.73-3.25A1.85,1.85,0,0,0,306.22,195.83Z"/>
        <path class="cls-3" d="M315.06,195.57c-.82,1.37-.15,3,.67,5.09.65,1.61,1.28,3.17,2,3.15,1.7-.05,4-8.12,1.78-9.72C318.41,193.27,316,194.06,315.06,195.57Z"/>
        <path class="cls-3" d="M317,189c.8.1,1.43-.53,2.21-1.31.62-.62,1.21-1.21,1.05-1.56-.35-.77-4.52-.24-4.82,1.09C315.26,187.85,316.11,188.83,317,189Z"/>
        <path class="cls-3" d="M326.71,186.35c-1.37.45-1.75,2.05-2.23,4-.37,1.55-.74,3.05-.14,3.52,1.34,1,7.48-3.22,6.64-5.75C330.55,186.85,328.22,185.85,326.71,186.35Z"/>
        <path class="cls-3" d="M315.33,175.08c-1.14.23-1.28,1.59-1.45,3.29-.13,1.32-.26,2.61.31,3.09,1.29,1.09,6.11-1.92,5.07-4.26A4.42,4.42,0,0,0,315.33,175.08Z"/>
      </g>
      <path class="cls-3" d="M303.25,212.27c-1.48-.61-3,.29-4.94,1.42-1.5.87-3,1.72-2.83,2.47.3,1.67,8.62,2.77,9.88.35C306,215.26,304.87,212.94,303.25,212.27Z"/>
      <path class="cls-3" d="M294.32,221.19c-.74-.3-1.51.15-2.47.71-.75.44-1.48.86-1.41,1.23.15.84,4.31,1.39,4.94.18C295.71,222.69,295.13,221.53,294.32,221.19Z"/>
      <path class="cls-3" d="M301,227.05c-1.54.44-2.19,2.11-3,4.18-.63,1.62-1.24,3.19-.67,3.69,1.27,1.13,8.47-3.19,7.95-5.87C305,227.67,302.64,226.56,301,227.05Z"/>
      <path class="cls-3" d="M306.89,223.52c.51.62,1.4.6,2.51.56.87,0,1.71-.06,1.83-.41.27-.81-3.13-3.28-4.26-2.51A1.84,1.84,0,0,0,306.89,223.52Z"/>
      <path class="cls-3" d="M315.78,228.3c-1.31-.61-2.69.29-4.39,1.41-1.33.87-2.63,1.72-2.51,2.47.26,1.68,7.66,2.77,8.78.35C318.24,231.29,317.22,229,315.78,228.3Z"/>
      <path class="cls-3" d="M315.18,212.27c-1-.61-2,.29-3.31,1.42-1,.87-2,1.72-1.88,2.47.19,1.67,5.76,2.77,6.61.35A4.4,4.4,0,0,0,315.18,212.27Z"/>
      <path class="cls-3" d="M339.37,149.64c-1.93-.39-3.57,1.06-5.61,2.86-1.6,1.41-3.15,2.78-2.82,3.64.76,2,11,1.3,12-1.91C343.4,152.58,341.47,150.06,339.37,149.64Z"/>
      <path class="cls-3" d="M330.74,162.48c-1-.2-1.78.53-2.8,1.43-.8.7-1.58,1.39-1.41,1.82.38,1,5.51.65,6-1C332.76,164,331.8,162.69,330.74,162.48Z"/>
      <path class="cls-3" d="M340.11,168c-1.75.9-2.13,3.06-2.61,5.74-.37,2.09-.73,4.13.07,4.6,1.8,1.05,9.44-5.85,8.17-8.95C345.1,167.74,342,167,340.11,168Z"/>
      <path class="cls-3" d="M346.41,162.31c.76.62,1.82.38,3.15.07,1-.24,2-.47,2.1-.93.13-1-4.54-3.2-5.72-2C345.34,160.05,345.58,161.62,346.41,162.31Z"/>
      <path class="cls-3" d="M358.23,166c-1.72-.43-3.16,1-5,2.73-1.39,1.37-2.75,2.7-2.43,3.57.71,1.95,9.87,1.52,10.65-1.66C361.89,169,360.12,166.41,358.23,166Z"/>
      <path class="cls-3" d="M353.72,146.81c-1.33-.5-2.36.83-3.64,2.48-1,1.29-2,2.55-1.69,3.42.63,2,7.59,2,8-1.14C356.65,150,355.18,147.36,353.72,146.81Z"/>
      <g>
        <path class="cls-3" d="M273.45,182.67c-1.58.44-2.25,2.15-3.08,4.26-.65,1.66-1.28,3.27-.7,3.78,1.3,1.16,8.69-3.24,8.17-6C277.57,183.31,275.17,182.18,273.45,182.67Z"/>
        <path class="cls-3" d="M271.93,195.49c-.79.23-1.12,1.08-1.54,2.14-.32.82-.64,1.63-.35,1.89.65.57,4.35-1.62,4.09-3A1.9,1.9,0,0,0,271.93,195.49Z"/>
        <path class="cls-3" d="M281,196c-1,1.33-.42,3.08.25,5.26.52,1.7,1,3.35,1.8,3.39,1.74.1,4.78-7.94,2.66-9.77C284.61,193.94,282,194.53,281,196Z"/>
        <path class="cls-3" d="M283.51,189.4c.8.17,1.5-.42,2.37-1.15.68-.57,1.34-1.13,1.21-1.49-.3-.82-4.59-.65-5,.69C281.85,188.13,282.63,189.2,283.51,189.4Z"/>
        <path class="cls-3" d="M293.68,187.59c-1.44.35-2,1.94-2.63,3.92-.52,1.55-1,3.05-.45,3.58,1.27,1.18,7.91-2.63,7.28-5.29C297.55,188.44,295.26,187.22,293.68,187.59Z"/>
        <path class="cls-3" d="M283,175.1c-1.19.14-1.44,1.52-1.76,3.23-.26,1.34-.5,2.64,0,3.18,1.23,1.22,6.4-1.42,5.54-3.91A4.51,4.51,0,0,0,283,175.1Z"/>
      </g>
      <path class="cls-3" d="M332.88,203.7c-1.81-.75-3.7.36-6.05,1.73-1.84,1.08-3.63,2.12-3.46,3,.36,2.06,10.56,3.4,12.11.43C336.27,207.37,334.87,204.52,332.88,203.7Z"/>
      <g>
        <path class="cls-3" d="M319,258.29c-1.49.57-2,2.28-2.64,4.41-.49,1.66-1,3.28-.37,3.73,1.36,1,8.19-3.87,7.45-6.5C323,258.58,320.6,257.67,319,258.29Z"/>
        <path class="cls-3" d="M318.55,270.89c-.75.29-1,1.14-1.32,2.21-.25.83-.49,1.64-.18,1.86.68.51,4.09-1.93,3.72-3.25A1.85,1.85,0,0,0,318.55,270.89Z"/>
        <path class="cls-3" d="M327.39,270.63c-.82,1.37-.15,3,.68,5.09.64,1.61,1.27,3.17,2,3.15,1.7-.05,4-8.12,1.78-9.72C330.75,268.33,328.29,269.12,327.39,270.63Z"/>
        <path class="cls-3" d="M329.31,264c.79.1,1.42-.53,2.2-1.31.62-.62,1.21-1.21,1.05-1.56-.35-.77-4.51-.24-4.82,1.09C327.59,262.91,328.44,263.89,329.31,264Z"/>
        <path class="cls-3" d="M339.05,261.41c-1.38.45-1.76,2-2.24,4-.37,1.55-.73,3.05-.14,3.52,1.34,1,7.48-3.22,6.64-5.75C342.88,261.91,340.55,260.91,339.05,261.41Z"/>
        <path class="cls-3" d="M327.66,250.14c-1.14.23-1.27,1.59-1.44,3.29-.14,1.32-.27,2.61.31,3.09,1.29,1.09,6.1-1.92,5.06-4.26A4.42,4.42,0,0,0,327.66,250.14Z"/>
      </g>
      <g>
        <path class="cls-3" d="M297.94,240.54c-1.37-.36-2.61.62-4.16,1.82-1.21.95-2.39,1.87-2.18,2.5.46,1.43,7.88,1.41,8.69-.86C300.71,242.83,299.44,240.94,297.94,240.54Z"/>
        <path class="cls-3" d="M291.18,249.41c-.69-.18-1.31.31-2.08.91-.61.47-1.19.93-1.09,1.25.23.72,3.94.71,4.35-.43C292.57,250.56,291.93,249.61,291.18,249.41Z"/>
        <path class="cls-3" d="M297.68,253.76c-1.29.57-1.66,2.1-2.12,4-.36,1.49-.71,2.94-.15,3.31,1.25.84,7-3.8,6.27-6.08C301.28,253.82,299.1,253.13,297.68,253.76Z"/>
        <path class="cls-3" d="M302.46,250c.52.48,1.3.35,2.27.18.75-.12,1.49-.25,1.55-.57.14-.74-3.13-2.5-4-1.7A1.65,1.65,0,0,0,302.46,250Z"/>
        <path class="cls-3" d="M310.81,253.09c-1.22-.38-2.32.58-3.68,1.76-1.06.92-2.09,1.82-1.9,2.46.43,1.44,7,1.52,7.73-.73C313.32,255.42,312.15,253.51,310.81,253.09Z"/>
        <path class="cls-3" d="M308.39,239.13c-.94-.42-1.74.5-2.73,1.63-.77.88-1.53,1.74-1.36,2.39.37,1.44,5.38,1.74,5.83-.48A3.89,3.89,0,0,0,308.39,239.13Z"/>
      </g>
      <path class="cls-3" d="M347.74,247.22c-1.82-.75-3.71.36-6.06,1.73-1.84,1.07-3.62,2.12-3.46,3,.36,2.05,10.57,3.4,12.11.43C351.13,250.89,349.72,248,347.74,247.22Z"/>
      <path class="cls-3" d="M352.2,261c.62.76,1.72.73,3.08.68,1.06,0,2.1-.06,2.24-.5.33-1-3.84-4-5.22-3.08C351.59,258.59,351.53,260.18,352.2,261Z"/>
      <path class="cls-3" d="M362.37,247.22c-1.22-.75-2.48.36-4.06,1.73-1.23,1.07-2.42,2.12-2.31,3,.24,2.05,7.07,3.4,8.1.43C364.63,250.89,363.7,248,362.37,247.22Z"/>
      <path class="cls-3" d="M274.34,225.82c-.16,2,1.46,3.43,3.48,5.25,1.58,1.43,3.11,2.82,3.94,2.39,1.84-1,0-11.11-3.25-11.68C276.81,221.48,274.52,223.68,274.34,225.82Z"/>
      <path class="cls-3" d="M286.14,217.39c.54-.82.17-1.85-.28-3.13-.36-1-.7-2-1.16-2-1.05,0-2.67,4.87-1.35,5.91C284,218.72,285.55,218.29,286.14,217.39Z"/>
      <path class="cls-3" d="M269.92,211.88c-.35,1.38,1.09,2.25,2.88,3.34,1.39.85,2.74,1.67,3.58,1.29,1.89-.85,1.11-7.77-2-7.86C272.73,208.61,270.3,210.36,269.92,211.88Z"/>
      <path class="cls-3" d="M333.82,234.54c-2.18-.44-4,1.19-6.35,3.22-1.81,1.58-3.56,3.13-3.19,4.1.85,2.2,12.46,1.5,13.53-2.12C338.36,237.87,336.2,235,333.82,234.54Z"/>
      <g>
        <path class="cls-3" d="M355.8,275.24c-1.41,0-2.35,1.29-3.52,2.87-.91,1.23-1.79,2.43-1.42,3,.82,1.26,8-.76,8.14-3.16C359.09,276.7,357.35,275.21,355.8,275.24Z"/>
        <path class="cls-3" d="M351.67,285.59c-.7,0-1.17.65-1.76,1.44-.45.62-.9,1.22-.71,1.5.41.62,4-.38,4.07-1.59C353.32,286.32,352.45,285.58,351.67,285.59Z"/>
        <path class="cls-3" d="M359.1,288c-1.09.9-1,2.48-1,4.44.05,1.53.11,3,.74,3.23,1.43.47,5.77-5.55,4.41-7.55C362.59,287.13,360.3,287.05,359.1,288Z"/>
        <path class="cls-3" d="M362.69,283.1c.63.33,1.34,0,2.23-.43.7-.32,1.37-.64,1.34-1-.06-.75-3.68-1.57-4.33-.55A1.62,1.62,0,0,0,362.69,283.1Z"/>
        <path class="cls-3" d="M371.57,283.87c-1.28,0-2.07,1.17-3.07,2.68-.77,1.17-1.53,2.32-1.17,2.88.8,1.27,7.19-.42,7.25-2.78C374.61,285.44,373,283.91,371.57,283.87Z"/>
        <path class="cls-3" d="M365.49,271.07c-1-.15-1.54.94-2.19,2.3-.51,1.06-1,2.09-.67,2.67.75,1.29,5.65.24,5.49-2A3.87,3.87,0,0,0,365.49,271.07Z"/>
      </g>
      <g>
        <path class="cls-3" d="M370.82,300.81c.19-1.4-.92-2.52-2.31-3.91-1.08-1.08-2.14-2.14-2.74-1.86-1.37.63-.45,8,1.91,8.53C368.89,303.84,370.62,302.35,370.82,300.81Z"/>
        <path class="cls-3" d="M357.68,302.16c-.72-1.22-2.29-1.4-4.24-1.62-1.53-.18-3-.35-3.31.25-.68,1.34,4.63,6.53,6.8,5.49C358.05,305.74,358.47,303.49,357.68,302.16Z"/>
        <path class="cls-3" d="M362,306.44c-.42.57-.19,1.33.09,2.27.21.74.43,1.45.76,1.47.75.05,2.1-3.41,1.19-4.2A1.63,1.63,0,0,0,362,306.44Z"/>
        <path class="cls-3" d="M359.93,315.11c.23-1.26-.85-2.23-2.19-3.44-1.05-.94-2.06-1.86-2.67-1.59-1.38.6-.66,7.17,1.66,7.59C357.92,317.88,359.68,316.49,359.93,315.11Z"/>
        <path class="cls-3" d="M373.49,311c.3-1-.7-1.66-1.94-2.51-1-.66-1.92-1.3-2.54-1.06-1.39.54-1.08,5.55,1.18,5.73A3.87,3.87,0,0,0,373.49,311Z"/>
      </g>
      <g>
        <path class="cls-3" d="M349.71,328.14c-1.15-1.3-3.09-1.15-5.5-1-1.89.15-3.72.29-3.94,1.08-.51,1.78,7.12,6.81,9.5,5C351,332.38,351,329.57,349.71,328.14Z"/>
        <path class="cls-3" d="M336.74,332.63c-.58-.65-1.55-.58-2.76-.49-.94.08-1.85.14-2,.54-.26.89,3.55,3.41,4.75,2.52A2,2,0,0,0,336.74,332.63Z"/>
        <path class="cls-3" d="M340.45,341.51c-1.72-.29-3.14,1-4.92,2.68-1.38,1.28-2.72,2.53-2.41,3.29.71,1.71,9.82.9,10.58-2C344.09,344,342.33,341.84,340.45,341.51Z"/>
        <path class="cls-3" d="M347.93,340.88c.2.85,1.09,1.25,2.19,1.74.87.39,1.7.76,2,.46.65-.66-1.51-4.69-3-4.48A2,2,0,0,0,347.93,340.88Z"/>
        <path class="cls-3" d="M354.36,349.78c-1-1.22-2.76-1-5-.7-1.72.22-3.39.44-3.63,1.22-.53,1.77,6.18,6.36,8.43,4.52C355.35,353.88,355.45,351.12,354.36,349.78Z"/>
        <path class="cls-3" d="M361.39,333.81c-.68-1.06-2.11-.67-3.9-.19-1.4.38-2.76.75-3,1.52-.6,1.74,4.33,5.46,6.31,3.49A4.79,4.79,0,0,0,361.39,333.81Z"/>
      </g>
      <g>
        <path class="cls-3" d="M341,310.05c-.82-.22-1.57.37-2.5,1.09-.73.57-1.44,1.13-1.32,1.51.28.86,4.75.85,5.24-.52C342.64,311.43,341.87,310.28,341,310.05Z"/>
        <path class="cls-3" d="M336.89,315.39c-.41-.11-.79.19-1.26.55s-.71.56-.65.75c.14.43,2.37.43,2.62-.26C337.73,316.08,337.34,315.51,336.89,315.39Z"/>
        <path class="cls-3" d="M340.81,318c-.78.34-1,1.27-1.28,2.42-.22.9-.43,1.77-.09,2,.75.5,4.25-2.29,3.78-3.67A2,2,0,0,0,340.81,318Z"/>
        <path class="cls-3" d="M343.69,315.73c.31.29.78.21,1.36.11s.9-.15.94-.35c.09-.45-1.89-1.5-2.43-1A1,1,0,0,0,343.69,315.73Z"/>
        <path class="cls-3" d="M348.72,317.61c-.73-.23-1.39.35-2.21,1.06-.64.56-1.27,1.1-1.15,1.48.26.87,4.24.92,4.66-.44A2,2,0,0,0,348.72,317.61Z"/>
        <path class="cls-3" d="M347.26,309.19c-.56-.25-1,.3-1.64,1-.47.53-.92,1.05-.82,1.43.22.88,3.24,1.06,3.51-.28A2.36,2.36,0,0,0,347.26,309.19Z"/>
      </g>
      <g>
        <path class="cls-3" d="M362.81,317.93c-.82-.21-1.57.37-2.51,1.1-.72.57-1.43,1.12-1.31,1.51.28.86,4.75.85,5.24-.52C364.49,319.31,363.72,318.17,362.81,317.93Z"/>
        <path class="cls-3" d="M358.74,323.28c-.41-.11-.79.18-1.26.55s-.71.56-.65.75c.13.43,2.37.43,2.62-.26C359.57,324,359.19,323.4,358.74,323.28Z"/>
        <path class="cls-3" d="M362.66,325.9c-.78.34-1,1.27-1.28,2.42-.22.9-.43,1.77-.09,2,.75.51,4.24-2.29,3.78-3.66A2,2,0,0,0,362.66,325.9Z"/>
        <path class="cls-3" d="M365.54,323.61c.31.29.78.22,1.36.12s.9-.15.94-.35c.08-.45-1.89-1.51-2.43-1A1,1,0,0,0,365.54,323.61Z"/>
        <path class="cls-3" d="M370.57,325.5c-.73-.23-1.39.34-2.21,1.06-.64.55-1.27,1.09-1.15,1.48.26.87,4.24.92,4.66-.44A2,2,0,0,0,370.57,325.5Z"/>
        <path class="cls-3" d="M369.11,317.08c-.56-.25-1,.3-1.64,1s-.92,1.05-.82,1.44c.22.87,3.24,1.06,3.51-.28A2.36,2.36,0,0,0,369.11,317.08Z"/>
      </g>
      <g>
        <path class="cls-3" d="M372.21,347.32c.29-.8-.23-1.6-.88-2.59-.5-.78-1-1.53-1.38-1.44-.89.2-1.26,4.66.06,5.27A2,2,0,0,0,372.21,347.32Z"/>
        <path class="cls-3" d="M367.24,342.8c.14-.4-.12-.8-.44-1.3s-.5-.76-.69-.72c-.44.1-.63,2.33,0,2.64A1,1,0,0,0,367.24,342.8Z"/>
        <path class="cls-3" d="M364.29,346.48c-.27-.81-1.18-1.11-2.3-1.49-.88-.29-1.73-.58-2-.26-.57.71,1.91,4.43,3.33,4.08A2,2,0,0,0,364.29,346.48Z"/>
        <path class="cls-3" d="M366.32,349.55c-.32.28-.28.76-.24,1.35s.08.9.27,1c.44.12,1.66-1.75,1.23-2.33A1,1,0,0,0,366.32,349.55Z"/>
        <path class="cls-3" d="M364,354.4c.29-.72-.22-1.42-.86-2.3-.5-.69-1-1.36-1.38-1.28-.88.19-1.28,4.15,0,4.69A2.06,2.06,0,0,0,364,354.4Z"/>
        <path class="cls-3" d="M372.51,353.67c.3-.54-.2-1.07-.83-1.72s-1-1-1.36-.94c-.89.14-1.34,3.14,0,3.52A2.33,2.33,0,0,0,372.51,353.67Z"/>
      </g>
      <path class="cls-3" d="M371.72,329.8c-1.22-.75-2.48.35-4.06,1.73-1.23,1.07-2.42,2.11-2.31,3,.24,2.06,7.07,3.41,8.1.44C374,333.46,373.05,330.62,371.72,329.8Z"/>
      <path class="cls-3" d="M348.24,291c-1.22-.74-2.48.36-4.06,1.73-1.22,1.08-2.42,2.12-2.31,3,.24,2.06,7.07,3.4,8.1.43A5.37,5.37,0,0,0,348.24,291Z"/>
      <g>
        <path class="cls-3" d="M360,371.77c-1.16-1.3-3.1-1.15-5.51-1-1.88.14-3.71.28-3.93,1.08-.51,1.78,7.12,6.81,9.5,5C361.27,376,361.25,373.19,360,371.77Z"/>
        <path class="cls-3" d="M347,376.25c-.58-.65-1.55-.57-2.76-.48-.94.07-1.85.14-2,.54-.25.89,3.56,3.41,4.76,2.52A2,2,0,0,0,347,376.25Z"/>
        <path class="cls-3" d="M350.72,385.14c-1.72-.3-3.15,1-4.92,2.67-1.38,1.29-2.73,2.54-2.41,3.3.71,1.71,9.81.9,10.58-2C354.36,387.66,352.6,385.47,350.72,385.14Z"/>
        <path class="cls-3" d="M358.2,384.51c.2.85,1.09,1.25,2.19,1.74.86.38,1.7.76,2,.46.65-.66-1.51-4.69-3-4.48A2,2,0,0,0,358.2,384.51Z"/>
        <path class="cls-3" d="M364.63,393.41c-1-1.22-2.77-1-5-.71-1.72.23-3.39.44-3.63,1.23-.54,1.76,6.18,6.36,8.43,4.52C365.61,397.5,365.72,394.75,364.63,393.41Z"/>
        <path class="cls-3" d="M371.66,377.44c-.68-1.07-2.12-.68-3.91-.19-1.39.38-2.75.75-3,1.52-.6,1.74,4.33,5.46,6.3,3.49A4.79,4.79,0,0,0,371.66,377.44Z"/>
      </g>
      <g>
        <path class="cls-3" d="M358.82,405.08c-1.16-1.3-3.1-1.16-5.51-1-1.88.14-3.71.28-3.94,1.07-.5,1.78,7.12,6.82,9.51,5.05C360.1,409.32,360.09,406.5,358.82,405.08Z"/>
        <path class="cls-3" d="M345.84,409.56c-.58-.65-1.55-.57-2.75-.48-.94.07-1.86.14-2,.54-.25.89,3.56,3.4,4.75,2.52A2,2,0,0,0,345.84,409.56Z"/>
        <path class="cls-3" d="M349.55,418.45c-1.71-.3-3.14,1-4.91,2.67-1.38,1.29-2.73,2.53-2.41,3.29.71,1.71,9.81.91,10.58-2C353.2,421,351.43,418.78,349.55,418.45Z"/>
        <path class="cls-3" d="M357,417.82c.2.85,1.08,1.24,2.19,1.74.86.38,1.7.76,2,.46.64-.66-1.51-4.69-3-4.48A2,2,0,0,0,357,417.82Z"/>
        <path class="cls-3" d="M363.47,426.72c-1-1.22-2.77-1-5-.71-1.72.23-3.39.44-3.63,1.23-.54,1.76,6.18,6.36,8.43,4.52C364.45,430.81,364.56,428.06,363.47,426.72Z"/>
        <path class="cls-3" d="M370.5,410.75c-.68-1.07-2.12-.68-3.91-.19-1.4.38-2.75.75-3,1.52-.61,1.73,4.32,5.46,6.3,3.49A4.79,4.79,0,0,0,370.5,410.75Z"/>
      </g>
      <g>
        <path class="cls-3" d="M321.26,368c-1,.75-1,2.13-1,3.85,0,1.34,0,2.65.55,2.85,1.23.46,5.22-4.67,4.09-6.46C324.34,367.3,322.34,367.16,321.26,368Z"/>
        <path class="cls-3" d="M323.74,377.42c-.5.38-.5,1.07-.5,1.93,0,.67,0,1.32.28,1.42.61.23,2.61-2.33,2-3.23A1.41,1.41,0,0,0,323.74,377.42Z"/>
        <path class="cls-3" d="M330.24,375.28c-.31,1.2.56,2.28,1.62,3.63.84,1,1.65,2.07,2.21,1.89,1.25-.41,1.17-6.91-.82-7.61C332.22,372.83,330.57,374,330.24,375.28Z"/>
        <path class="cls-3" d="M330.2,369.94c.61-.1.94-.7,1.35-1.46.32-.59.63-1.16.44-1.38-.44-.5-3.41.81-3.34,1.86C328.69,369.51,329.53,370,330.2,369.94Z"/>
        <path class="cls-3" d="M336.86,365.87c-.92.64-.85,1.9-.77,3.48.06,1.23.12,2.43.67,2.64,1.22.48,4.84-4,3.66-5.73A3,3,0,0,0,336.86,365.87Z"/>
        <path class="cls-3" d="M325.92,360c-.79.42-.59,1.47-.34,2.76.19,1,.38,2,.91,2.23,1.19.52,4.1-2.77,2.82-4.28A3.42,3.42,0,0,0,325.92,360Z"/>
      </g>
      <g>
        <path class="cls-3" d="M325.77,388.57c-1.26-1.42-3.38-1.26-6-1.06-2.05.16-4.05.31-4.29,1.17-.56,1.95,7.76,7.44,10.37,5.51C327.17,393.19,327.16,390.12,325.77,388.57Z"/>
        <path class="cls-3" d="M311.62,393.46c-.64-.71-1.69-.63-3-.53-1,.08-2,.16-2.15.59-.27,1,3.89,3.72,5.19,2.75A2.19,2.19,0,0,0,311.62,393.46Z"/>
        <path class="cls-3" d="M315.66,403.16c-1.87-.33-3.42,1.12-5.36,2.91-1.51,1.4-3,2.76-2.63,3.59.78,1.87,10.71,1,11.54-2.15C319.64,405.9,317.71,403.51,315.66,403.16Z"/>
        <path class="cls-3" d="M323.83,402.47c.21.92,1.18,1.36,2.39,1.89.94.42,1.85.83,2.17.51.7-.72-1.65-5.12-3.25-4.89A2.18,2.18,0,0,0,323.83,402.47Z"/>
        <path class="cls-3" d="M330.84,412.17c-1.08-1.33-3-1.08-5.42-.76-1.87.24-3.7.48-4,1.33-.58,1.93,6.74,6.94,9.2,4.93C331.92,416.64,332,413.64,330.84,412.17Z"/>
        <path class="cls-3" d="M338.51,394.75c-.74-1.16-2.31-.73-4.26-.2-1.52.41-3,.81-3.3,1.66-.66,1.89,4.72,6,6.88,3.8A5.23,5.23,0,0,0,338.51,394.75Z"/>
      </g>
      <g>
        <path class="cls-3" d="M358.8,440.08c-1.24-.51-2.52.24-4.12,1.17-1.25.73-2.46,1.44-2.35,2.06.25,1.4,7.18,2.31,8.23.29C361.1,442.57,360.15,440.63,358.8,440.08Z"/>
        <path class="cls-3" d="M351.36,447.51c-.61-.26-1.26.12-2.05.58-.63.37-1.24.72-1.18,1,.12.7,3.59,1.16,4.12.15A1.52,1.52,0,0,0,351.36,447.51Z"/>
        <path class="cls-3" d="M361.83,449.45c.42.51,1.17.49,2.09.46.72,0,1.43-.05,1.53-.34.22-.68-2.61-2.73-3.55-2.09A1.52,1.52,0,0,0,361.83,449.45Z"/>
        <path class="cls-3" d="M369.24,453.42c-1.1-.51-2.24.25-3.66,1.18-1.11.73-2.19,1.44-2.09,2.06.22,1.39,6.38,2.31,7.31.29C371.28,455.91,370.44,454,369.24,453.42Z"/>
        <path class="cls-3" d="M368.74,440.08c-.83-.51-1.69.24-2.76,1.17-.83.73-1.64,1.44-1.57,2.06.16,1.4,4.8,2.31,5.51.29A3.66,3.66,0,0,0,368.74,440.08Z"/>
      </g>
      <g>
        <path class="cls-3" d="M320.19,422.12c-2.1-.82-4.3.4-7,1.91-2.13,1.19-4.21,2.34-4,3.35.42,2.27,12.27,3.75,14.07.48C324.13,426.17,322.5,423,320.19,422.12Z"/>
        <path class="cls-3" d="M307.49,434.2c-1.05-.42-2.15.19-3.51.95-1.07.59-2.11,1.17-2,1.67.21,1.14,6.13,1.88,7,.24C309.46,436.22,308.65,434.65,307.49,434.2Z"/>
        <path class="cls-3" d="M325.38,437.35c.72.84,2,.8,3.57.75,1.23,0,2.43-.07,2.6-.56.38-1.09-4.45-4.43-6.06-3.39C324.66,434.68,324.59,436.43,325.38,437.35Z"/>
        <path class="cls-3" d="M338,443.81c-1.87-.82-3.82.4-6.25,1.91-1.9,1.19-3.74,2.34-3.57,3.35.37,2.27,10.9,3.75,12.49.48C341.52,447.86,340.08,444.72,338,443.81Z"/>
        <path class="cls-3" d="M337.17,422.12c-1.41-.82-2.88.4-4.7,1.91-1.43,1.19-2.82,2.34-2.69,3.35.28,2.27,8.21,3.75,9.41.48A5.79,5.79,0,0,0,337.17,422.12Z"/>
      </g>
      <g>
        <path class="cls-3" d="M351,497.73c-2.1-.83-4.3.39-7,1.91-2.13,1.18-4.21,2.33-4,3.34.42,2.27,12.27,3.76,14.06.48C354.91,501.77,353.28,498.63,351,497.73Z"/>
        <path class="cls-3" d="M338.27,509.8c-1-.41-2.15.2-3.52,1-1.06.59-2.1,1.16-2,1.67.21,1.13,6.13,1.88,7,.24C340.24,511.82,339.42,510.25,338.27,509.8Z"/>
        <path class="cls-3" d="M356.16,513c.72.84,2,.8,3.57.75,1.23,0,2.43-.08,2.6-.56.38-1.1-4.45-4.43-6.06-3.4C355.44,510.29,355.37,512,356.16,513Z"/>
        <path class="cls-3" d="M368.81,519.42c-1.87-.83-3.83.39-6.25,1.91-1.9,1.18-3.74,2.33-3.57,3.34.37,2.27,10.9,3.76,12.49.48C372.3,523.46,370.86,520.32,368.81,519.42Z"/>
        <path class="cls-3" d="M368,497.73c-1.41-.83-2.88.39-4.7,1.91-1.43,1.18-2.82,2.33-2.69,3.34.28,2.27,8.21,3.76,9.41.48C370.59,501.77,369.5,498.63,368,497.73Z"/>
      </g>
      <g>
        <path class="cls-3" d="M299.92,441.16c-2.11-.83-4.3.4-7,1.91-2.14,1.19-4.21,2.34-4,3.35.42,2.26,12.27,3.75,14.06.47C303.85,445.21,302.22,442.07,299.92,441.16Z"/>
        <path class="cls-3" d="M287.22,453.23c-1.05-.41-2.15.2-3.52,1-1.06.59-2.1,1.17-2,1.67.21,1.14,6.14,1.88,7,.24C289.19,455.26,288.37,453.69,287.22,453.23Z"/>
        <path class="cls-3" d="M305.1,456.39c.72.84,2,.8,3.57.75,1.24,0,2.44-.07,2.61-.56.38-1.09-4.46-4.43-6.07-3.39C304.39,453.72,304.32,455.47,305.1,456.39Z"/>
        <path class="cls-3" d="M317.75,462.85c-1.87-.83-3.82.39-6.24,1.91-1.9,1.19-3.74,2.34-3.57,3.35.37,2.26,10.9,3.75,12.49.47C321.25,466.9,319.8,463.76,317.75,462.85Z"/>
        <path class="cls-3" d="M316.9,441.16c-1.41-.83-2.88.4-4.71,1.91-1.42,1.19-2.81,2.34-2.68,3.35.28,2.26,8.2,3.75,9.41.47A5.82,5.82,0,0,0,316.9,441.16Z"/>
      </g>
      <g>
        <path class="cls-3" d="M348.54,472.23c-1.19,1.11-1.19,3.17-1.19,5.72,0,2,0,3.92.66,4.23,1.49.67,6.29-6.94,4.94-9.59C352.25,471.22,349.84,471,348.54,472.23Z"/>
        <path class="cls-3" d="M351.52,486.24c-.59.56-.59,1.58-.59,2.86,0,1,0,2,.33,2.11.74.34,3.14-3.46,2.46-4.79A1.48,1.48,0,0,0,351.52,486.24Z"/>
        <path class="cls-3" d="M359.36,483.06c-.37,1.78.67,3.39,1.95,5.38,1,1.56,2,3.08,2.66,2.81,1.51-.61,1.41-10.25-1-11.29C361.75,479.43,359.76,481.11,359.36,483.06Z"/>
        <path class="cls-3" d="M359.31,475.14c.74-.14,1.13-1,1.63-2.17.38-.87.76-1.72.52-2.05-.52-.73-4.1,1.21-4,2.77A1.75,1.75,0,0,0,359.31,475.14Z"/>
        <path class="cls-3" d="M367.33,469.09c-1.11,1-1,2.84-.93,5.17.08,1.83.16,3.61.81,3.92,1.47.71,5.84-6,4.42-8.5A3.09,3.09,0,0,0,367.33,469.09Z"/>
        <path class="cls-3" d="M354.16,460.41c-1,.62-.72,2.17-.42,4.09.23,1.5.46,3,1.1,3.3,1.44.78,4.94-4.1,3.39-6.34C357.43,460.31,355.2,459.72,354.16,460.41Z"/>
      </g>
      <g>
        <path class="cls-3" d="M321.21,456.87c-2.21-.73-4.77.56-7.94,2.17-2.49,1.25-4.9,2.47-4.82,3.45.19,2.22,13,3.2,15.38-.1C325.05,460.7,323.64,457.67,321.21,456.87Z"/>
        <path class="cls-3" d="M305.82,469.27c-1.1-.37-2.38.28-4,1.08-1.25.63-2.45,1.24-2.41,1.73.1,1.11,6.51,1.6,7.69-.05C307.74,471.18,307,469.67,305.82,469.27Z"/>
        <path class="cls-3" d="M315.23,476.69c-2.47.68-3.75,2.94-5.35,5.74-1.24,2.19-2.45,4.32-1.65,5,1.81,1.43,13.76-4.75,13.39-8.29C321.42,477.28,317.94,476,315.23,476.69Z"/>
        <path class="cls-3" d="M325.08,471.65c.68.8,2.09.71,3.83.6,1.36-.09,2.68-.18,2.92-.66.55-1.09-4.36-4.18-6.25-3.1A2.27,2.27,0,0,0,325.08,471.65Z"/>
        <path class="cls-3" d="M338.19,477.5c-2-.74-4.25.54-7.09,2.13-2.23,1.24-4.39,2.45-4.32,3.44.14,2.21,11.51,3.25,13.66,0C341.54,481.34,340.33,478.31,338.19,477.5Z"/>
        <path class="cls-3" d="M339.86,456.19c-1.45-.76-3.21.5-5.4,2.07-1.71,1.22-3.37,2.41-3.35,3.4,0,2.22,8.56,3.36,10.27.09C342.26,460.06,341.44,457,339.86,456.19Z"/>
      </g>
      <g>
        <path class="cls-3" d="M311.27,492.37c-1.16-1.3-3.1-1.15-5.51-1-1.88.14-3.71.28-3.94,1.08-.51,1.78,7.12,6.81,9.51,5C312.55,496.61,312.54,493.79,311.27,492.37Z"/>
        <path class="cls-3" d="M298.29,496.85c-.58-.65-1.55-.57-2.75-.48-.94.07-1.86.14-2,.54-.25.89,3.56,3.41,4.75,2.52A2,2,0,0,0,298.29,496.85Z"/>
        <path class="cls-3" d="M302,505.74c-1.71-.29-3.14,1-4.91,2.67-1.39,1.29-2.73,2.54-2.41,3.3.71,1.71,9.81.9,10.57-2C305.65,508.26,303.88,506.07,302,505.74Z"/>
        <path class="cls-3" d="M309.48,505.11c.2.85,1.09,1.25,2.2,1.74.86.38,1.7.76,2,.46.65-.66-1.5-4.69-3-4.48C309.93,502.94,309.27,504.18,309.48,505.11Z"/>
        <path class="cls-3" d="M315.92,514c-1-1.22-2.77-1-5-.71-1.72.23-3.39.44-3.63,1.23-.54,1.76,6.18,6.36,8.42,4.52C316.9,518.1,317,515.35,315.92,514Z"/>
        <path class="cls-3" d="M323,498c-.68-1.07-2.12-.67-3.91-.19-1.4.38-2.76.75-3,1.52-.61,1.74,4.32,5.46,6.3,3.49A4.79,4.79,0,0,0,323,498Z"/>
      </g>
      <path class="cls-3" d="M294.36,402c-1.88.54-2.68,2.58-3.66,5.12-.77,2-1.52,3.91-.83,4.53,1.57,1.38,10.39-3.92,9.76-7.21C299.3,402.76,296.43,401.41,294.36,402Z"/>
      <path class="cls-3" d="M296.87,418.52c-1.21-.75-2.48.36-4.05,1.73-1.23,1.07-2.42,2.11-2.32,3,.25,2.05,7.08,3.4,8.11.43A5.39,5.39,0,0,0,296.87,418.52Z"/>
      <path class="cls-3" d="M292.71,476.3c-2.08-1.28-4.26.62-7,3-2.12,1.84-4.17,3.63-4,5.2.41,3.53,12.15,5.85,13.93.75C296.61,482.6,295,477.71,292.71,476.3Z"/>
      <path class="cls-3" d="M281.31,429.19c-3.14.9-4.47,4.31-6.11,8.54-1.28,3.31-2.53,6.52-1.37,7.55,2.6,2.3,17.32-6.53,16.25-12C289.54,430.45,284.75,428.2,281.31,429.19Z"/>
      <path class="cls-3" d="M285.65,462.07c-2.11-.83-4.3.39-7,1.91-2.13,1.18-4.2,2.33-4,3.34.42,2.27,12.27,3.76,14.06.48C289.58,466.11,288,463,285.65,462.07Z"/>
      <g>
        <path class="cls-3" d="M340.87,540.77c-2.21-.72-4.77.57-7.95,2.17-2.48,1.25-4.9,2.47-4.81,3.45.19,2.22,13,3.2,15.38-.09C344.7,544.6,343.29,541.57,340.87,540.77Z"/>
        <path class="cls-3" d="M325.47,553.17c-1.1-.36-2.38.28-4,1.08-1.24.63-2.45,1.24-2.41,1.73.1,1.11,6.51,1.6,7.69-.05C327.39,555.08,326.69,553.57,325.47,553.17Z"/>
        <path class="cls-3" d="M334.89,560.59c-2.48.68-3.76,2.94-5.35,5.74-1.25,2.2-2.46,4.33-1.65,5,1.81,1.43,13.76-4.74,13.38-8.28C341.08,561.18,337.6,559.85,334.89,560.59Z"/>
        <path class="cls-3" d="M344.73,555.55c.69.8,2.09.71,3.83.6,1.36-.09,2.68-.17,2.92-.66.56-1.09-4.35-4.18-6.24-3.09A2.26,2.26,0,0,0,344.73,555.55Z"/>
        <path class="cls-3" d="M357.84,561.4c-1.95-.74-4.24.54-7.09,2.13-2.22,1.25-4.38,2.45-4.32,3.44.14,2.22,11.52,3.26,13.66,0C361.19,565.24,360,562.21,357.84,561.4Z"/>
        <path class="cls-3" d="M359.51,540.09c-1.45-.76-3.21.5-5.39,2.07-1.71,1.22-3.37,2.41-3.36,3.4,0,2.22,8.56,3.36,10.27.09C361.91,544,361.1,540.92,359.51,540.09Z"/>
      </g>
      <g>
        <path class="cls-3" d="M297.5,537.64c-2.1-.83-4.3.39-7,1.91-2.13,1.19-4.21,2.34-4,3.34.42,2.27,12.27,3.76,14.07.48C301.44,541.69,299.81,538.54,297.5,537.64Z"/>
        <path class="cls-3" d="M284.8,549.71c-1.05-.41-2.15.2-3.51,1-1.07.59-2.11,1.17-2,1.67.21,1.13,6.13,1.88,7,.24C286.77,551.74,286,550.17,284.8,549.71Z"/>
        <path class="cls-3" d="M302.69,552.87c.72.84,2,.8,3.57.75,1.23,0,2.43-.07,2.6-.56.38-1.09-4.45-4.43-6.06-3.39C302,550.2,301.9,552,302.69,552.87Z"/>
        <path class="cls-3" d="M315.34,559.33c-1.87-.83-3.82.39-6.25,1.91-1.89,1.18-3.74,2.34-3.57,3.34.38,2.27,10.9,3.76,12.5.48C318.84,563.38,317.39,560.23,315.34,559.33Z"/>
        <path class="cls-3" d="M314.48,537.64c-1.4-.83-2.87.39-4.7,1.91-1.43,1.19-2.81,2.34-2.69,3.34.28,2.27,8.21,3.76,9.41.48C317.12,541.69,316,538.54,314.48,537.64Z"/>
      </g>
      <path class="cls-3" d="M276.39,563.39c-3.14.9-4.47,4.31-6.11,8.54-1.28,3.31-2.53,6.52-1.37,7.55,2.6,2.3,17.32-6.53,16.25-12C284.62,564.65,279.83,562.4,276.39,563.39Z"/>
      <path class="cls-3" d="M267,619.78c-2.08-1.29-4.26.61-7,3-2.11,1.85-4.16,3.64-4,5.21.42,3.53,12.16,5.85,13.94.74C270.94,626.08,269.33,621.19,267,619.78Z"/>
      <g>
        <path class="cls-3" d="M328.19,577.37c-1.26-1.42-3.38-1.25-6-1-2.05.15-4.05.31-4.29,1.17-.56,1.94,7.76,7.44,10.37,5.5C329.59,582,329.58,578.93,328.19,577.37Z"/>
        <path class="cls-3" d="M314,582.27c-.64-.71-1.69-.63-3-.53-1,.08-2,.15-2.15.59-.27,1,3.89,3.71,5.19,2.75A2.19,2.19,0,0,0,314,582.27Z"/>
        <path class="cls-3" d="M318.08,592c-1.87-.32-3.42,1.12-5.36,2.92-1.51,1.4-3,2.76-2.63,3.59.78,1.86,10.71,1,11.54-2.15C322.06,594.71,320.13,592.32,318.08,592Z"/>
        <path class="cls-3" d="M326.25,591.28c.21.92,1.18,1.35,2.39,1.89.94.42,1.85.83,2.17.51.7-.73-1.65-5.12-3.25-4.89A2.18,2.18,0,0,0,326.25,591.28Z"/>
        <path class="cls-3" d="M333.26,601c-1.08-1.33-3-1.08-5.42-.77-1.87.25-3.7.48-4,1.34-.59,1.92,6.74,6.94,9.2,4.93C334.34,605.45,334.45,602.44,333.26,601Z"/>
        <path class="cls-3" d="M340.93,583.56c-.74-1.16-2.31-.74-4.26-.21-1.52.42-3,.82-3.3,1.66-.66,1.89,4.72,6,6.88,3.81A5.23,5.23,0,0,0,340.93,583.56Z"/>
      </g>
      <g>
        <path class="cls-3" d="M293.4,587.69c-1.09-2.64-4.18-3.46-8-4.48-3-.8-5.92-1.57-6.7-.46-1.75,2.49,7.36,14.43,12,13C293.1,595,294.6,590.59,293.4,587.69Z"/>
        <path class="cls-3" d="M270.83,587.63c-.54-1.32-2.09-1.73-4-2.24-1.5-.4-3-.79-3.35-.23-.87,1.24,3.68,7.21,6,6.48C270.68,591.27,271.43,589.08,270.83,587.63Z"/>
        <path class="cls-3" d="M271.78,603.43c-2.5-1.39-5.43-.11-9.07,1.49-2.85,1.24-5.61,2.45-5.53,3.8.18,3,14.74,6.72,17.48,2.67C276.07,609.32,274.52,605,271.78,603.43Z"/>
        <path class="cls-3" d="M283.73,606.51c-.15,1.42,1,2.52,2.46,3.88,1.13,1.06,2.23,2.1,2.84,1.8,1.36-.68.19-8.1-2.2-8.57C285.6,603.38,283.89,605,283.73,606.51Z"/>
        <path class="cls-3" d="M288.89,623.8c-.88-2.44-3.75-3-7.33-3.79-2.78-.58-5.5-1.15-6.29-.06-1.8,2.45,6.14,13.21,10.63,11.58C288.2,630.69,289.86,626.47,288.89,623.8Z"/>
        <path class="cls-3" d="M308.45,602.82c-.47-2-2.92-2.19-6-2.41-2.37-.16-4.68-.33-5.51.73-1.88,2.36,3.75,10.81,7.89,8.82C307,608.94,309,605,308.45,602.82Z"/>
      </g>
      <g>
        <path class="cls-3" d="M348.87,596c-1.19,1.12-1.19,3.17-1.19,5.72,0,2,0,3.93.66,4.23,1.49.68,6.29-6.94,4.94-9.59C352.58,595,350.17,594.76,348.87,596Z"/>
        <path class="cls-3" d="M351.85,610c-.59.55-.59,1.58-.6,2.85,0,1,0,2,.33,2.12.75.34,3.15-3.47,2.47-4.8A1.48,1.48,0,0,0,351.85,610Z"/>
        <path class="cls-3" d="M359.68,606.8c-.36,1.78.67,3.39,2,5.39,1,1.56,2,3.07,2.66,2.8,1.5-.61,1.41-10.25-1-11.28C362.08,603.17,360.09,604.85,359.68,606.8Z"/>
        <path class="cls-3" d="M359.64,598.88c.74-.14,1.13-1,1.63-2.16.38-.88.76-1.73.52-2.06-.52-.73-4.1,1.21-4,2.77A1.74,1.74,0,0,0,359.64,598.88Z"/>
        <path class="cls-3" d="M367.66,592.84c-1.11.95-1,2.83-.93,5.17.08,1.82.16,3.6.81,3.91,1.47.71,5.84-6,4.42-8.49A3.08,3.08,0,0,0,367.66,592.84Z"/>
        <path class="cls-3" d="M354.48,584.15c-1,.63-.71,2.17-.41,4.09.23,1.5.45,3,1.09,3.31,1.45.77,4.95-4.11,3.4-6.35C357.76,584.05,355.53,583.46,354.48,584.15Z"/>
      </g>
      <g>
        <path class="cls-3" d="M327.53,611.8c-2.22-1.84-5.94-1.63-10.56-1.37-3.62.21-7.13.4-7.56,1.52-1,2.52,13.66,9.64,18.24,7.13C330,617.8,330,613.82,327.53,611.8Z"/>
        <path class="cls-3" d="M302.64,618.14c-1.11-.92-3-.81-5.28-.68-1.81.1-3.56.2-3.78.76-.49,1.26,6.83,4.82,9.12,3.57C303.87,621.14,303.86,619.15,302.64,618.14Z"/>
        <path class="cls-3" d="M309.76,630.71c-3.29-.42-6,1.45-9.43,3.77-2.65,1.82-5.23,3.58-4.63,4.66,1.37,2.41,18.83,1.27,20.3-2.79C316.75,634.27,313.36,631.17,309.76,630.71Z"/>
        <path class="cls-3" d="M324.11,629.82c.39,1.19,2.09,1.75,4.21,2.45,1.65.54,3.26,1.07,3.81.66,1.24-.94-2.89-6.63-5.71-6.34A2.8,2.8,0,0,0,324.11,629.82Z"/>
        <path class="cls-3" d="M336.45,642.39c-1.91-1.72-5.31-1.4-9.53-1-3.3.31-6.5.62-7,1.73-1,2.49,11.85,9,16.16,6.39C338.34,648.18,338.55,644.29,336.45,642.39Z"/>
        <path class="cls-3" d="M349.94,619.82c-1.3-1.51-4.06-1-7.5-.27-2.68.54-5.28,1.06-5.8,2.15-1.15,2.45,8.3,7.72,12.1,4.93C350.69,625.2,351.37,621.47,349.94,619.82Z"/>
      </g>
      <path class="cls-3" d="M367.56,567.6c-2,.58-2.87,2.78-3.93,5.5-.83,2.12-1.63,4.19-.89,4.85,1.68,1.48,11.15-4.2,10.46-7.72C372.85,568.42,369.77,567,367.56,567.6Z"/>
    </g>
  </g>
</svg>
