<svg xmlns="http://www.w3.org/2000/svg" width="200" height="200" viewBox="0 0 200 200">
  <defs>
    <style>
      .cls-1 {
        fill: #bec9ce;
      }

      .cls-2 {
        fill: #cbd4d8;
      }

      .cls-3 {
        fill: #5f6567;
      }

      .cls-4 {
        fill: #8f979b;
      }
    </style>
  </defs>
  <title>straw</title>
  <g id="plasticstraw">
    <g>
      <rect class="cls-1" x="63.07" y="18.73" width="65.96" height="8.03" transform="translate(6.37 -18.5) rotate(11.37)"/>
      <path class="cls-1" d="M128.16,36.34,80.87,185c-.16.5,1.42,1.45,3.54,2.12s4,.81,4.11.32L135.81,38.77Z"/>
      <rect class="cls-2" x="26.81" y="109.94" width="156.88" height="0.53" transform="translate(-31.68 177.08) rotate(-72.35)"/>
      <ellipse class="cls-3" cx="63.78" cy="16.25" rx="4.02" ry="0.67" transform="matrix(0.2, -0.98, 0.98, 0.2, 35.27, 75.58)"/>
      <ellipse class="cls-1" cx="128.51" cy="29.27" rx="4.5" ry="1.06" transform="translate(74.47 149.49) rotate(-78.63)"/>
      <ellipse class="cls-1" cx="129.5" cy="29.8" rx="4.5" ry="1.06" transform="translate(45.81 133.02) rotate(-63.92)"/>
      <ellipse class="cls-1" cx="130.52" cy="30.48" rx="4.5" ry="1.06" transform="translate(30.64 119.86) rotate(-54.97)"/>
      <ellipse class="cls-1" cx="131.42" cy="31.15" rx="4.5" ry="1.06" transform="translate(16.47 102.05) rotate(-45)"/>
      <ellipse class="cls-1" cx="132.02" cy="31.93" rx="4.5" ry="1.06" transform="translate(4.58 78.93) rotate(-33.84)"/>
      <ellipse class="cls-1" cx="132.39" cy="32.84" rx="4.5" ry="1.06" transform="translate(-2.64 52.16) rotate(-22.07)"/>
      <ellipse class="cls-1" cx="132.72" cy="33.65" rx="4.5" ry="1.06" transform="translate(-3.94 25.21) rotate(-10.69)"/>
      <ellipse class="cls-1" cx="132.75" cy="34.59" rx="4.5" ry="1.06" transform="translate(-0.98 3.99) rotate(-1.72)"/>
      <ellipse class="cls-1" cx="132.69" cy="35.48" rx="1.06" ry="4.5" transform="translate(77.31 161.17) rotate(-81.19)"/>
      <ellipse class="cls-1" cx="132.39" cy="36.29" rx="1.06" ry="4.5" transform="translate(57.67 151.44) rotate(-72.35)"/>
      <ellipse class="cls-1" cx="132.21" cy="36.85" rx="1.06" ry="4.5" transform="translate(57 151.66) rotate(-72.35)"/>
      <ellipse class="cls-1" cx="132.07" cy="37.3" rx="1.06" ry="4.5" transform="translate(56.48 151.84) rotate(-72.35)"/>
      <path class="cls-2" d="M81.21,184.87s-.79.42,2.18,1.56c0,0-2.14-1.2-1.68-1.4"/>
      <path class="cls-2" d="M64.87,12.5s.49.69.06,3.59a5.45,5.45,0,0,0,.69-2.89s3.12.08,3.5.18A43.27,43.27,0,0,0,64.87,12.5Z"/>
      <ellipse class="cls-1" cx="128.51" cy="29.27" rx="4.5" ry="1.06" transform="translate(74.47 149.49) rotate(-78.63)"/>
      <ellipse class="cls-1" cx="129.5" cy="29.8" rx="4.5" ry="1.06" transform="translate(45.81 133.02) rotate(-63.92)"/>
      <ellipse class="cls-1" cx="130.52" cy="30.48" rx="4.5" ry="1.06" transform="translate(30.64 119.86) rotate(-54.97)"/>
      <ellipse class="cls-1" cx="131.42" cy="31.15" rx="4.5" ry="1.06" transform="translate(16.47 102.05) rotate(-45)"/>
      <path class="cls-4" d="M133.26,27.26s-1,2.15-1.21,2.29l.51-.38A6.48,6.48,0,0,0,133.26,27.26Z"/>
      <path class="cls-4" d="M134.68,28.35s-1.32,2-1.5,2.11.56-.31.56-.31A6.14,6.14,0,0,0,134.68,28.35Z"/>
      <ellipse class="cls-1" cx="132.02" cy="31.93" rx="4.5" ry="1.06" transform="translate(4.58 78.93) rotate(-33.84)"/>
      <path class="cls-4" d="M135.73,29.89a25.52,25.52,0,0,1-1.94,1.7c-.21.07.61-.17.61-.17A6.19,6.19,0,0,0,135.73,29.89Z"/>
      <ellipse class="cls-1" cx="132.39" cy="32.84" rx="4.5" ry="1.06" transform="translate(-2.64 52.16) rotate(-22.07)"/>
      <path class="cls-4" d="M136.5,31.51s-2,1.32-2.2,1.35l.63-.06A6.18,6.18,0,0,0,136.5,31.51Z"/>
      <ellipse class="cls-1" cx="132.72" cy="33.65" rx="4.5" ry="1.06" transform="translate(-3.94 25.21) rotate(-10.69)"/>
      <path class="cls-4" d="M137,33.16a25.6,25.6,0,0,1-2.42.91l.64.06A6,6,0,0,0,137,33.16Z"/>
      <ellipse class="cls-1" cx="132.75" cy="34.59" rx="4.5" ry="1.06" transform="translate(-0.98 3.99) rotate(-1.72)"/>
      <path class="cls-4" d="M137,34.82s-2.33.49-2.54.44.61.18.61.18A6,6,0,0,0,137,34.82Z"/>
      <ellipse class="cls-1" cx="132.69" cy="35.48" rx="1.06" ry="4.5" transform="translate(77.31 161.17) rotate(-81.19)"/>
      <path class="cls-4" d="M136.88,36.46s-2.39.1-2.59,0l.57.27A6.27,6.27,0,0,0,136.88,36.46Z"/>
      <ellipse class="cls-1" cx="132.39" cy="36.29" rx="1.06" ry="4.5" transform="translate(57.67 151.44) rotate(-72.35)"/>
      <path class="cls-4" d="M136.41,37.92s.19-.18-.6-.6Z"/>
      <path class="cls-4" d="M131.68,26.12a25.87,25.87,0,0,1-.77,2.47c-.14.16.43-.46.43-.46A6.26,6.26,0,0,0,131.68,26.12Z"/>
      <ellipse class="cls-1" cx="132.21" cy="36.85" rx="1.06" ry="4.5" transform="translate(57 151.66) rotate(-72.35)"/>
      <path class="cls-4" d="M136.34,38.41s.2-.18-.6-.59Z"/>
      <path class="cls-4" d="M129.7,25.2s-.07,2.39-.16,2.58.31-.55.31-.55A6.16,6.16,0,0,0,129.7,25.2Z"/>
      <ellipse class="cls-1" cx="132.07" cy="37.3" rx="1.06" ry="4.5" transform="translate(56.48 151.84) rotate(-72.35)"/>
      <path class="cls-2" d="M127.2,32.84a27.33,27.33,0,0,1,.88-6C128.8,24.83,127.19,31,127.2,32.84Z"/>
      <path class="cls-2" d="M129.88,27.06c1.22-1.74-1.95,3.76-2.43,5.57a27.07,27.07,0,0,1,2.43-5.57"/>
      <path class="cls-2" d="M131.43,27.78c1.44-1.55-2.44,3.47-3.17,5.19a26.91,26.91,0,0,1,3.17-5.19"/>
      <path class="cls-2" d="M133,28.51c1.76-1.17-3.18,2.82-4.28,4.33A27,27,0,0,1,133,28.51"/>
      <path class="cls-2" d="M133.93,29.7c1.94-.86-3.61,2.22-5,3.51a27,27,0,0,1,5-3.51"/>
      <path class="cls-2" d="M134.78,31c2.07-.44-4,1.45-5.57,2.45A27.45,27.45,0,0,1,134.78,31"/>
      <path class="cls-2" d="M135.21,32.35c2.12,0-4.2.62-5.94,1.29a27.45,27.45,0,0,1,5.94-1.29"/>
      <path class="cls-2" d="M135.78,33.71c2.09.34-4.24-.11-6.08.25a27.15,27.15,0,0,1,6.08-.25"/>
      <path class="cls-2" d="M135.5,35.09c2,.72-4.15-.89-6-.89a27.56,27.56,0,0,1,6,.89"/>
      <path class="cls-2" d="M135.38,36.42c1.85,1-3.94-1.57-5.79-1.87a27.47,27.47,0,0,1,5.79,1.87"/>
      <path class="cls-2" d="M135.29,37.05c1.87,1-4-1.5-5.82-1.76a27.14,27.14,0,0,1,5.82,1.76"/>
      <path class="cls-2" d="M135.2,37.62c1.87,1-4-1.5-5.82-1.77a27.21,27.21,0,0,1,5.82,1.77"/>
    </g>
  </g>
</svg>
