<svg xmlns="http://www.w3.org/2000/svg" width="324.22" height="125.02" viewBox="0 0 324.22 125.02">
  <defs>
    <style>
      .cls-1 {
        fill: #feb913;
      }

      .cls-1, .cls-2 {
        stroke: #996779;
        stroke-miterlimit: 10;
        stroke-width: 3px;
      }

      .cls-2 {
        fill: #fff;
      }
    </style>
  </defs>
  <title>submit</title>
  <g id="Layer_2" data-name="Layer 2">
    <g id="Layer_1-2" data-name="Layer 1">
      <path class="cls-1" d="M145,2C131.8,2,130.52,3.3,121.88,4.49a100,100,0,0,1-23.13.83c-3.49-.26-10.55-.18-14,0a78.22,78.22,0,0,0-9.92.83c-6.32,1.26-7.72-.44-14,.82C46,9.9,29.53,10.14,18.7,20.53,11.79,27.17,7.49,36.12,4.79,45.32.56,59.76.05,75.6,5.35,89.68s16.84,26.13,31.34,30.16c11.77,3.28,24.26,1.23,36.41,0a268.27,268.27,0,0,1,56.8.26c12.67,1.4,25.32,3.72,38.07,3.41,9.57-.23,19.06-1.94,28.63-2.35,15.81-.68,31.59,2.21,47.41,2a239,239,0,0,0,25.89-2.21c9.11-1.11,18.31-2.24,26.92-5.42s16.7-8.63,21.26-16.6c6-10.43,5.11-23.34,3.29-35.24-1.79-11.73-4.4-23.57-10.32-33.85s-15.6-18.94-27.26-21.17C278,7.53,271.94,8.05,266,7.72,259.44,7.35,253,6,246.47,5c-27.71-3.86-56.2,1.34-83.75-3.54Z"/>
      <g>
        <path class="cls-2" d="M84.06,54H84a42.17,42.17,0,0,1-5.4.54,17,17,0,0,1-5.4-.62,3.36,3.36,0,0,0-.79-3.23,5.5,5.5,0,0,0-3-1.66,5.34,5.34,0,0,0-3.34.36,3.25,3.25,0,0,0-1.91,2.74,2.52,2.52,0,0,0-.11,1c0,.31.06.63.11,1a3.56,3.56,0,0,0,1.87,2.3,10.51,10.51,0,0,0,2.81.8A17,17,0,0,1,76,59.57a17.46,17.46,0,0,1,5.36,5.11,12,12,0,0,1,2,3.57A14.55,14.55,0,0,1,84,72.17a16.48,16.48,0,0,1-.28,4.07,17.68,17.68,0,0,1-1.26,3.93A12.17,12.17,0,0,1,80.17,84a12.5,12.5,0,0,1-3.27,2.59,14.62,14.62,0,0,1-4,1.48,18.07,18.07,0,0,1-4.36.4,21.33,21.33,0,0,1-6.3-1.12,19,19,0,0,1-5.58-2.92,13.91,13.91,0,0,1-3.89-4.57,11.28,11.28,0,0,1-1.22-6.16v-.43a27.66,27.66,0,0,1,5.54-.18c2,.12,3.84.16,5.47.11a4.26,4.26,0,0,0,1.84,3.46A6,6,0,0,0,68,77.75a5,5,0,0,0,3.31-1.26,3.76,3.76,0,0,0,1-3.74A4.45,4.45,0,0,0,71,70a8.45,8.45,0,0,0-2.56-1.69,14.39,14.39,0,0,0-3.2-1L62,66.7a9.51,9.51,0,0,1-2.67-.94,12,12,0,0,1-2.23-1.51,14.64,14.64,0,0,1-4.28-7,15.18,15.18,0,0,1-.11-7.42A16.27,16.27,0,0,1,56,43.3a14.78,14.78,0,0,1,5.86-4.39,14.56,14.56,0,0,1,3.82-1,24.64,24.64,0,0,1,4.21-.15,21.74,21.74,0,0,1,4.18.62,20.46,20.46,0,0,1,3.78,1.29A12.47,12.47,0,0,1,83.2,45Q85.06,48.56,84.06,54Z"/>
        <path class="cls-2" d="M116.75,38.05c.09,1.58.13,3.4.1,5.47a44.76,44.76,0,0,1-.39,5.69,13.72,13.72,0,0,0-3.38-.22l-5.41.22h-.21a.12.12,0,0,1,0,.1.18.18,0,0,0,0,.11,7.28,7.28,0,0,0-.11,1.12c0,.5,0,1.29,0,2.37s0,2.5,0,4.25.06,4,.11,6.77.09,6.07.14,9.94.12,8.41.22,13.64v.14a20.36,20.36,0,0,1-2.85.26q-1.55,0-3.09,0H98.75a16.43,16.43,0,0,0-2.81.22,19,19,0,0,1,0-2.59c0-1.54.08-3.83.11-6.88s0-7-.08-11.7-.25-10.49-.54-17.21l-.07-.07a5.79,5.79,0,0,0-2.16-.54c-.86-.07-1.73-.12-2.59-.15l-2.38,0a5.2,5.2,0,0,1-1.51-.15,5.49,5.49,0,0,1-.25-1.43c-.07-.77-.12-1.7-.14-2.78s0-2.24,0-3.49,0-2.45.14-3.6c0,0,0-.07,0-.07s0,0,0-.07q7.35-.07,15.16-.11A135.53,135.53,0,0,1,116.75,38.05Z"/>
        <path class="cls-2" d="M150,56.84q-.07,5.53-.14,11a63.91,63.91,0,0,1-1.08,10.83A11.75,11.75,0,0,1,145.15,85a11.37,11.37,0,0,1-6.73,2.84,34.84,34.84,0,0,1-4.11.18,28.31,28.31,0,0,0-3.81.18h-.15a1.08,1.08,0,0,1-.18.36,3.25,3.25,0,0,1-.75.72l-.07.07h.07a10.94,10.94,0,0,1-1.87.18c-.77,0-1.6,0-2.49,0s-1.79,0-2.7,0-1.73,0-2.45,0a1.66,1.66,0,0,1,.08-1q.21-.83.54-1.83c.21-.67.44-1.32.68-2l.58-1.51c0-.05,0-.07,0-.07s0,0,0-.07,0-.07,0-.07,0,0,0-.08a66.6,66.6,0,0,1-2.06-14.11q-.24-7.05.18-14.26c.1-.86.16-1.73.18-2.62s.08-1.78.15-2.67a21.53,21.53,0,0,1,.36-2.59,9.16,9.16,0,0,1,.9-2.48A14.27,14.27,0,0,1,124.38,40l.21-.22a10,10,0,0,1,2.88-1.54,14.54,14.54,0,0,1,3.32-.72,23.41,23.41,0,0,1,3.45-.11c1.15.05,2.26.12,3.31.21.1,0,.16-.15.18-.32s.05-.35.08-.54a2.94,2.94,0,0,1,.1-.5.33.33,0,0,1,.36-.22h.08a17.05,17.05,0,0,0,2.55.11c.94,0,1.87-.06,2.81-.11a21.81,21.81,0,0,1,2.56,0,3.81,3.81,0,0,1,1.8.5,6,6,0,0,1-.76,2.67,3.92,3.92,0,0,0-.54,2.45,11.71,11.71,0,0,1,2.09,3.42,17.65,17.65,0,0,1,1,3.77,27.6,27.6,0,0,1,.28,4C150.15,54.21,150.11,55.54,150,56.84ZM127.69,68q1.44-4.6,3.28-9.94t3.42-10.44v-.07h-.58a5.71,5.71,0,0,0-2.88,1.26,6.21,6.21,0,0,0-2,2.55,37.69,37.69,0,0,0-.43,4.58,37.72,37.72,0,0,1-.43,4.57c-.05.29-.08.56-.11.83s-.06.54-.11.83-.09.92-.14,1.47-.1,1.11-.14,1.66a11.64,11.64,0,0,0,0,1.54A4.15,4.15,0,0,0,127.69,68Zm13-8.07v-.28c-.48,1.29-1,2.73-1.55,4.31l-1.69,4.9q-.85,2.52-1.76,5c-.6,1.68-1.17,3.27-1.69,4.75,0,0,.07,0,.07,0s0,0,.07,0a14.29,14.29,0,0,0,1.69-.46,10.76,10.76,0,0,0,1.87-.83,9,9,0,0,0,1.66-1.19,3.52,3.52,0,0,0,1-1.62,23.86,23.86,0,0,0,.69-4.53,38.84,38.84,0,0,0,0-4c-.07-1.24-.16-2.37-.25-3.38S140.72,60.75,140.72,59.93Z"/>
        <path class="cls-2" d="M183.13,38.05c.1,1.58.13,3.4.11,5.47a46.59,46.59,0,0,1-.4,5.69,13.72,13.72,0,0,0-3.38-.22l-5.4.22h-.22a.15.15,0,0,1,0,.1.14.14,0,0,0,0,.11,7.28,7.28,0,0,0-.11,1.12q0,.75,0,2.37c0,1.08,0,2.5,0,4.25s.06,4,.11,6.77.1,6.07.14,9.94.12,8.41.22,13.64v.14a20.07,20.07,0,0,1-2.84.26l-3.1,0h-3.06a16.51,16.51,0,0,0-2.81.22,19,19,0,0,1,0-2.59q.08-2.31.11-6.88T162.36,67q-.11-7.12-.54-17.21l-.07-.07a5.89,5.89,0,0,0-2.16-.54c-.87-.07-1.73-.12-2.6-.15l-2.37,0a5.16,5.16,0,0,1-1.51-.15,4.94,4.94,0,0,1-.26-1.43c-.07-.77-.12-1.7-.14-2.78s0-2.24,0-3.49.05-2.45.15-3.6c0,0,0-.07,0-.07s0,0,0-.07q7.33-.07,15.15-.11A135.53,135.53,0,0,1,183.13,38.05Z"/>
        <path class="cls-2" d="M227.55,88.45c-1,0-2.06-.07-3.31-.19s-2.35-.17-3.31-.17q-2.38-5.34-4.72-10.34t-4-9.61L211.5,66q-.28-.8-.54-1.47c-.17-.46-.3-.69-.4-.69a7.72,7.72,0,0,0-.18,1.73c-.07,1.15-.13,2.62-.18,4.39s-.08,3.74-.11,5.9,0,4.25,0,6.27v3.2c0,1,0,2,.07,2.78a9.89,9.89,0,0,1-1.58.28c-.53,0-1.06.08-1.59.08a29.6,29.6,0,0,1-3.49-.22,29.11,29.11,0,0,0-3.42-.22V83q0-6.84-.11-13t-.11-13q0-5,.15-9.83c.09-3.24.26-6.39.5-9.47.48-.09,1-.16,1.55-.21s1.12-.07,1.69-.07l1.44,0c.67,0,1.35.08,2,.15s1.26.15,1.76.25.76.19.76.29q.5,1.29.93,2.16l.83,1.65.87,1.77c.31.64.68,1.47,1.11,2.48.1.24.31.7.65,1.37s.72,1.45,1.15,2.34l1.37,2.81c.48,1,.92,1.87,1.33,2.66l1.05,2a2.88,2.88,0,0,0,.5.83c.14-.1.26-.58.36-1.45a24.2,24.2,0,0,0,.14-2.51c0-1.92,0-3.71-.1-5.37s-.11-3.35-.11-5.07q0-1.52,0-3.06c0-1,.06-2.15.11-3.35a29.61,29.61,0,0,1,5.19-.44,23.41,23.41,0,0,1,4.75.44V60.58q.07,3,.07,6.12v6.19c0,1.4,0,2.74,0,4s0,2.62,0,4q0,1.45,0,2.88c0,1,0,1.93,0,2.88v1.45l-.65.21A6.86,6.86,0,0,1,227.55,88.45Z"/>
        <path class="cls-2" d="M266.65,39.92q.44,9.21.29,18.61t-1.16,18.68a14.13,14.13,0,0,1-3.6,8.07,12.2,12.2,0,0,1-8.2,3.81,24.22,24.22,0,0,1-6.27-.25,19.22,19.22,0,0,1-5.87-1.94,13.36,13.36,0,0,1-4.39-3.75,9.92,9.92,0,0,1-1.91-5.65q0-9.5.22-19.15t.07-19.15l-.07-.07h.07c.72,0,1.53,0,2.41-.08S240,39,240.94,39s1.8,0,2.67.11a12.72,12.72,0,0,1,2.37.4v.07a283,283,0,0,0,.65,35.35,4.15,4.15,0,0,0,1.84,2.52,4.82,4.82,0,0,0,2.77.72,4.64,4.64,0,0,0,2.66-1,4.27,4.27,0,0,0,1.59-2.59q.36-8.64.39-17.57t.26-17.28c.62-.05,1.42-.13,2.41-.25s2-.2,3-.25a18.23,18.23,0,0,1,2.88.07A5.6,5.6,0,0,1,266.65,39.92Z"/>
      </g>
    </g>
  </g>
</svg>
