<svg xmlns="http://www.w3.org/2000/svg" width="420.25" height="306.66" viewBox="0 0 420.25 306.66">
  <defs>
    <style>
      .cls-1 {
        fill: #afb3a4;
      }

      .cls-2, .cls-4 {
        fill: none;
        stroke-miterlimit: 10;
      }

      .cls-2 {
        stroke: #000;
        stroke-width: 2px;
      }

      .cls-3 {
        fill: #959d6e;
      }

      .cls-4 {
        stroke: #4b4f37;
      }

      .cls-5 {
        fill: #83867b;
      }

      .cls-6 {
        fill: #333;
      }
    </style>
  </defs>
  <title>tang</title>
  <g id="Layer_2" data-name="Layer 2">
    <g id="Layer_7" data-name="Layer 7">
      <g>
        <g>
          <path class="cls-1" d="M287.68,106.26a27.06,27.06,0,0,0,9.16-7.52c6-8.49,9.5-20.38.53-27.94s-19.78-2.57-27.06,5.38c-4.06,4.44-6.09,11.38-5.55,17.54-3.71,2.7-6.31,5.28-8.05,9.78a31.17,31.17,0,0,0-1.31,15.78,32.24,32.24,0,0,0-5,9.64,37.17,37.17,0,0,0-1,20.51C245,152,241.75,155,239.36,159.74c-2.78,5.6-3.16,11.7-2.07,17.88-4,2.49-6.89,4.83-9.3,9.19-3.46,6.23-4.11,13.07-3.53,20.29-7.51,2-13,7.51-17.2,13.88-7,10.71-11.09,25.65.05,34.72s24.49,3.45,32.36-7.47c4.67-6.46,5.64-15.5,4-23.48,5.94-2.49,9.75-5.44,13.21-11.22a30.91,30.91,0,0,0,3.44-24.27,26.44,26.44,0,0,0,8.1-9.45,27.08,27.08,0,0,0,2.24-19.42c4.69-2.73,7.69-5.8,9.36-11.12s.93-10.69-.09-16.06a35.15,35.15,0,0,0,5.06-9.44A43.16,43.16,0,0,0,287.68,106.26Z"/>
          <path class="cls-2" d="M289,78.69c-15.18,20.2-19.85,35.14-24.44,58.88-5.11,26.48-11.44,36.89-22,63.05-7.12,17.7-17.26,36.66-36.12,48.68"/>
        </g>
        <g>
          <path class="cls-3" d="M291.39,107.86c3.27-1.9,7.05-4.38,9.25-7.47,6-8.5,9.45-20.39.48-27.94s-19.74-2.57-27.05,5.37a23.38,23.38,0,0,0-5.55,17.42c-3.78,2.61-6.33,4.94-8.13,9.34-2,4.86-2.12,10.23-1.37,15.44a28.67,28.67,0,0,0-5,9.43,40.23,40.23,0,0,0-.66,20.52c-4.49,2.48-7.76,5.38-10.11,10.15A28.55,28.55,0,0,0,241,177.75c-4,2.49-6.86,4.69-9.33,9-3.53,6.14-4.31,12.85-3.71,20-7.63,1.84-12.91,7.38-16.85,13.94-6.62,11-11,25.73.28,34.9s24.15,3.3,32-7.61c4.63-6.46,5.31-15.54,3.79-23.46,5.84-2.39,9.8-5.31,13.41-10.85a29.57,29.57,0,0,0,3.58-24,27.12,27.12,0,0,0,8.2-9.33,26.7,26.7,0,0,0,2.25-19.34c4.47-2.61,7.46-5.88,9-11s1-10.53-.16-15.77a37.88,37.88,0,0,0,5.22-9.06A41,41,0,0,0,291.39,107.86Z"/>
          <path class="cls-4" d="M292.75,80.35c-14.77,19.76-20.38,34.39-24.47,57.79-4.56,26.1-11.54,37.11-21.95,62.34-7,17.08-17.67,37.42-35.8,48.74"/>
        </g>
      </g>
      <g>
        <g>
          <path class="cls-1" d="M413.26,83.3c-7.93-8.56-19.36-3.87-27.12,2.92-2.3,2-4.46,5.62-5.79,8.47-7.62-1.73-13.9,0-20.31,4.33a29.83,29.83,0,0,0-4.28,4,25.78,25.78,0,0,0-17.16,5.5A25.24,25.24,0,0,0,329,124.72a26,26,0,0,0-10.95,10,27.14,27.14,0,0,0-3.2,9.29,24,24,0,0,0-13.51,14.17,35.23,35.23,0,0,0-1.84,9.51,30,30,0,0,0-8.64,6.79,36.2,36.2,0,0,0-6,9.86,44,44,0,0,0-9.57,5.28c-6.8,5.32-11.27,11.54-13.25,20a33.16,33.16,0,0,0-12.61,4.19,35,35,0,0,0-11.5,11.6A32.62,32.62,0,0,0,217,230c-10.95,7.19-19.87,19.55-12.67,32.18s22.39,11.61,34,5.39c4.46-2.38,8.28-7.1,11-11.43,7.39.66,13.91-.39,20.38-4.3,8-4.83,13.23-11.44,15.44-20.58,5.24-1,9.89-2.36,14.3-5.52a27.85,27.85,0,0,0,11.36-16.14,26.62,26.62,0,0,0,4.93-4.19A31.17,31.17,0,0,0,323.06,188a29.51,29.51,0,0,0,9.85-12.55c1.52-3.44,2-7.4,2.38-11.17a27.75,27.75,0,0,0,12.12-10.72,27.43,27.43,0,0,0,3.86-12.9,28.17,28.17,0,0,0,8.49-4.5,29.71,29.71,0,0,0,4-3.94,24.51,24.51,0,0,0,16.43-4.9c3.45-2.49,5.8-5.84,7.9-9.53a21.52,21.52,0,0,0,21.51-6.49C416.78,103.51,421.18,91.87,413.26,83.3Z"/>
          <path class="cls-2" d="M404.08,95.84c-10.8,11-40.93,18.29-51.1,27.35-15.4,13.71-29.27,30-36.49,43.81-7.93,15.19-28.3,43-34.05,47.81-24.76,20.76-37.13,30.41-62.95,41.93"/>
        </g>
        <g>
          <path class="cls-3" d="M416,86.74c-7.92-8.55-19.33-3.87-27.08,2.9-2.3,2-4.44,5.61-5.77,8.45-7.53-1.84-13.82,0-20.18,4.22a29.93,29.93,0,0,0-4.24,4,25.7,25.7,0,0,0-26.59,21.62,24.48,24.48,0,0,0-14,19.15c-6.63,2.75-10.67,7.21-13.29,13.93a36.45,36.45,0,0,0-1.8,9.25,26.66,26.66,0,0,0-8.62,6.52,36.25,36.25,0,0,0-5.89,9.75,46.38,46.38,0,0,0-9.47,5.32c-6.69,5.3-11.16,11.59-13.16,19.93a32.48,32.48,0,0,0-12.61,4.08,34.34,34.34,0,0,0-11.52,11.5A31.28,31.28,0,0,0,221,232c-10.91,7.26-19.82,19.58-12.6,32.23s22.22,11.47,33.84,5.3c4.46-2.37,8.22-7.16,10.87-11.48,7.39.73,13.89-.33,20.43-4.14,8.09-4.72,13.29-11.27,15.46-20.46,5.24-.95,9.89-2.34,14.3-5.49a27.62,27.62,0,0,0,11.21-16.06,25.39,25.39,0,0,0,4.85-4.12,30.09,30.09,0,0,0,7.25-17.21,28.83,28.83,0,0,0,9.79-12.33,31.41,31.41,0,0,0,2.21-11.06,26.62,26.62,0,0,0,12-10.58,27.19,27.19,0,0,0,3.76-12.79,28.52,28.52,0,0,0,8.4-4.46,27.93,27.93,0,0,0,3.93-3.91,24.32,24.32,0,0,0,16.35-4.82c3.44-2.48,5.74-5.8,7.82-9.47a21.42,21.42,0,0,0,21.47-6.46C419.57,106.94,424,95.3,416,86.74Z"/>
          <path class="cls-4" d="M406.87,99.28c-10.75,10.89-40.71,18.18-50.84,27.13C340.71,140,327.27,156.21,320,169.76c-8.05,14.9-28,42.42-33.69,47.23-24.49,20.72-37.28,30-62.71,41.82"/>
        </g>
      </g>
      <g>
        <g>
          <path class="cls-5" d="M213.65,257c.88-7.12-2.5-14.24-7.56-19.37,3.1-6.46,2.58-12.71.15-19.3-8.06-1.67-16.12-3.35-24.17-5.09,6.32,16.07,11.12,31.14,11.08,48.5-2.43-17.14-8.31-32.93-14.13-49.16-4.79-1-9.56-2.11-14.34-3.19l.26.22a27.77,27.77,0,0,0,2.56,15.88c2.41,5.07,6.49,9.35,10.74,13.17a25.15,25.15,0,0,0-4.64,15.16c.38,11.8,5.28,24.39,18.37,25.39S212.14,269.07,213.65,257Z"/>
          <path class="cls-1" d="M207.65,257.11c1.19-7.07-1.72-14.78-6.72-20.06,3.3-7,3.34-13.27.5-20.68-1.94-5.05-5.84-9.63-10-13.28a25,25,0,0,0,.34-13.16,34.75,34.75,0,0,0-9.7-17.15,31.4,31.4,0,0,0-2.4-15,36.94,36.94,0,0,0-10.48-13.69c.84-4,1.41-7.36.64-11.5-1.45-7.91-5.63-14.23-11.72-19.49a27.91,27.91,0,0,0-.84-12.29,35.93,35.93,0,0,0-6.48-12.06,25.81,25.81,0,0,0,3.29-12.64,34.62,34.62,0,0,0-2.84-13.88c3.15-2.76,5.81-5.56,7.57-9.42a31.51,31.51,0,0,0,2.6-13.5c3.68-2.94,7.32-7.1,8.71-11.58,3.14-10.12,2.44-22.19-8.46-26.57s-19.46,4.11-23.93,13.6c-1.6,3.42-1.9,8.15-1.73,12-3.53,2.75-6.43,5.64-8.36,9.73a24.84,24.84,0,0,0-1.46,18.29c-3.81,4.35-6.09,9-6.41,14.92s1.46,11.26,4.52,16.36a26.26,26.26,0,0,0-1.3,17.29,32.18,32.18,0,0,0,8,14.34,32.91,32.91,0,0,0-1.54,15.86,32.12,32.12,0,0,0,10.25,19.3,28.29,28.29,0,0,0,2.08,15.58,34.38,34.38,0,0,0,9.06,11.85,26.78,26.78,0,0,0,.26,10.2c1.48,6.69,5,12,9.9,16.81a28.85,28.85,0,0,0,1.89,16.28c2.13,5.23,6,9.88,10.2,13.82a26.74,26.74,0,0,0-5.26,15.45c.21,11.81,4.11,25.1,17.33,26.54S205.62,269.1,207.65,257.11Z"/>
          <path class="cls-2" d="M158.31,10.44c-11.53,20.47-21.44,38.73-21.45,63.34,0,22.07,10.87,46.39,16.45,68.27,4.75,18.65,14.19,41.63,20.34,57.87,8.66,22.85,13.69,38.52,13.58,61.76"/>
        </g>
        <g>
          <path class="cls-3" d="M211.74,257.12c1.18-7.08-1.75-14.68-6.68-20,3.27-7,3.39-13.26.55-20.65-1.93-5-5.67-9.57-9.87-13.18a25.31,25.31,0,0,0,.19-13.05,33.05,33.05,0,0,0-9.54-17.12A31.52,31.52,0,0,0,184,158.17a36.61,36.61,0,0,0-10.53-13.58c.83-4,1.35-7.28.59-11.48-1.44-8-5.43-14-11.63-19.35a27,27,0,0,0-.88-12.23,33.52,33.52,0,0,0-6.53-12A25.43,25.43,0,0,0,158.12,77a34,34,0,0,0-2.86-13.82,25.91,25.91,0,0,0,7.59-9.38,31.5,31.5,0,0,0,2.58-13.5c3.68-2.94,7.32-7.1,8.71-11.58,3.14-10.12,2.44-22.19-8.46-26.56s-19.46,4.1-23.93,13.6c-1.6,3.41-1.9,8.14-1.74,12-3.52,2.74-6.46,5.64-8.37,9.73a25,25,0,0,0-1.48,18.25,22.77,22.77,0,0,0-6.33,14.84,27.7,27.7,0,0,0,4.62,16.3,25.33,25.33,0,0,0-1.24,17.2,33.29,33.29,0,0,0,8.07,14.27,32.66,32.66,0,0,0-1.54,15.8A31.7,31.7,0,0,0,144,153.29a28,28,0,0,0,2.09,15.54,33.46,33.46,0,0,0,9.14,11.78,26.39,26.39,0,0,0,.18,10.13c1.47,6.59,5,12.06,9.93,16.72a28.06,28.06,0,0,0,1.86,16.23,39.63,39.63,0,0,0,10.21,13.71,26.74,26.74,0,0,0-5.26,15.42c.06,11.79,3.94,25.12,17.16,26.55S209.75,269.15,211.74,257.12Z"/>
          <path class="cls-4" d="M162.32,11.46c-11.58,20.4-21.43,38.64-21.38,63.16,0,22,11,46.15,16.62,67.91,4.79,18.54,14.27,41.44,20.41,57.63,8.63,22.8,13.58,38.36,13.37,61.53"/>
        </g>
      </g>
      <g>
        <g id="right_shadow">
          <path class="cls-5" d="M108.2,192a28.44,28.44,0,0,0,3.86,11.56,34,34,0,0,0,10.61,10.56A173.74,173.74,0,0,1,108.2,192Z"/>
          <path class="cls-5" d="M190.93,252.57c-1.72-7.19-8.24-12.77-14.46-16.6-.38-8.51-3.85-14.63-9.82-20.84-3.42-3.55-8.56-6.17-13.18-8.26.65-6.89-.81-12.42-4.31-18.6a36.18,36.18,0,0,0-11.31-11.83c6-11.08,1.88-21.21-6.22-30a25.87,25.87,0,0,0-2.92-2.35c-2.8,6.65-5.43,13.69-8.34,20.08,7.33,15.92,8.31,23.87,17.7,41.35,8.66,16.1,24.71,39.27,31.69,58.43-14.14-16.88-32.69-31.05-46.44-48.92-1.08,9.23,3,16.32,9.26,23.12,3.21,3.46,8.51,6.45,13,8.43-.46,4.92-.24,11.12,1.88,15.6,5.46,11.52,14.31,24.43,28.39,21.24S194,265.56,190.93,252.57Z"/>
        </g>
        <g id="left_side">
          <path class="cls-1" d="M184.41,254.56c-1.67-7.14-8.78-12.95-14.82-16.77-.35-8.58-3.94-14.92-10-21.06-3.49-3.51-8.68-6.48-13.21-8.73.83-7.06-.61-12.62-4.19-19a40.11,40.11,0,0,0-11.32-12.2c5.75-11.17,2.23-21.42-6.42-30.16-3.07-3.09-7.69-5.17-11.81-6.68.08-10.6-5.28-17.66-14.91-22.59-7-3.6-15.47-3.85-23.29-2.07C74.53,105.6,69.29,99,61,93.79c-5.3-3.33-12.41-4.75-18.78-5,3.94-8.9,2.23-17.29-2.78-25.64C36.63,58.36,32,54.82,27.1,52.2c3.31-3.19,6.53-7.65,7.56-12.1C37,29.82,35.16,17.8,24,14.61S4.48,20.2,1.18,30.4C-1.58,38.91.51,48.1,7.39,54.09-.65,63.39-.23,74,6.11,84.4c4.45,7.3,11.48,11.24,19.83,12.38-4.31,11.27.52,20.48,10.62,27.35,6.95,4.72,16.5,5.3,24.92,3.55-.18,10.46,6.81,17.34,15.66,22.18a42.46,42.46,0,0,0,8.28,2.81c-.6,9.37,3.56,16.55,10.32,22.92a40.18,40.18,0,0,0,7.51,5c-3.33,8.29-2.55,15.73,1.81,23.78a31.62,31.62,0,0,0,11.18,11.28c-.84,9.46,2.82,16.93,9.22,24.06,3.2,3.57,8.42,6.69,13,8.73-.45,5,0,11,2,15.64,5.19,11.85,14.5,24.56,28.63,21.4S187.44,267.46,184.41,254.56Z"/>
          <path class="cls-2" d="M21.57,21c-4.28,18.59-5.22,33,.35,52.22,3.8,13.12,17.5,26.69,27.16,35,18,15.49,35.07,18.73,50.81,36.25,16.17,18,18.35,37.74,31.26,62.43,7.17,13.69,25.29,41.85,31.35,58.6"/>
        </g>
        <g id="original">
          <path class="cls-3" d="M188.53,252.14c-1.83-7.14-8.46-12.81-14.68-16.63-.38-8.49-3.83-14.66-9.75-20.87-3.39-3.54-8.71-6.22-13.21-8.45.94-6.86-.55-12.54-4.07-18.73-2.66-4.69-6.82-8.65-11.19-12,5.86-11.07,2.21-21.33-6.3-30-3-3.09-7.64-5.24-11.71-6.76.09-10.64-5.08-17.77-14.77-22.73-7.06-3.61-15.38-4.05-23.22-2.12.09-9.65-5.29-16.27-13.44-21.52C61,88.89,53.67,87.53,47.28,87.42c3.89-8.85,2.08-17.27-2.92-25.53C41.5,57.18,36.88,53.57,32,51c3.31-3.2,6.53-7.65,7.56-12.11,2.38-10.27.5-22.29-10.67-25.48S9.35,19,6.05,29.18c-2.76,8.51-.66,17.7,6.22,23.69-8,9.31-7.65,19.86-1.28,30.31,4.47,7.33,11.5,11.23,19.93,12.28-4.46,11.33.61,20.47,10.76,27.15,7,4.59,16.69,5.18,25,3.54-.24,10.6,6.62,17.36,15.58,22.24a43.83,43.83,0,0,0,8.18,2.92c-.72,9.48,3.46,16.51,10.26,22.93a37,37,0,0,0,7.34,5c-3.43,8.07-2.75,15.65,1.67,23.52a32.43,32.43,0,0,0,11.13,11.08c-1.27,9.39,2.65,16.78,9.11,23.7,3.24,3.46,8.34,6.59,12.92,8.57-.44,5-.11,11.08,2,15.6,5.38,11.61,14.62,24.37,28.63,21.22S191.82,265,188.53,252.14Z"/>
          <path class="cls-4" d="M26.45,19.77c-4.3,18.57-5.21,33,.34,52.21,3.78,13.1,17.79,26.54,27.46,34.71C72.32,122,89.32,125.57,104.93,143c16,17.93,17.91,37.75,30.86,62.14,7.19,13.53,25,41.27,31.18,57.74"/>
        </g>
      </g>
      <g id="stone">
        <ellipse class="cls-5" cx="182.9" cy="281.57" rx="40.25" ry="24.36" transform="translate(-33.11 24.52) rotate(-7.04)"/>
        <ellipse class="cls-5" cx="193.45" cy="272.46" rx="38.42" ry="26.57" transform="translate(-31.91 25.75) rotate(-7.04)"/>
        <ellipse class="cls-5" cx="210.61" cy="282.06" rx="43.3" ry="23.8" transform="translate(-32.96 27.92) rotate(-7.04)"/>
        <path class="cls-6" d="M158,267.23a12.76,12.76,0,0,1,7.81-.79,12.47,12.47,0,0,0-7.08-1c-8.37,1.12-15.38,9.67-15.66,19.08a17.93,17.93,0,0,0,.65,5.38C143.35,280.69,149.72,270.58,158,267.23Z"/>
        <path class="cls-6" d="M209,258.81c21.65-.75,40,7.06,44.58,18.14a.57.57,0,0,0,0-.13c-1.61-13.05-22.15-21.25-45.89-18.32-1.71.21-3.38.48-5,.79Q205.75,258.93,209,258.81Z"/>
        <path class="cls-6" d="M193.66,247.28a69.58,69.58,0,0,1,13.75-.5,52.64,52.64,0,0,0-17.2-.64c-14.58,1.8-26.54,9-31.93,18.13C166.15,255.76,178.8,249.31,193.66,247.28Z"/>
        <path class="cls-6" d="M210,305.75c-21.65.75-40-7.06-44.58-18.14a.57.57,0,0,0,0,.13c1.61,13.05,22.15,21.25,45.89,18.32,1.71-.21,3.38-.48,5-.79Q213.24,305.63,210,305.75Z"/>
      </g>
    </g>
  </g>
</svg>
