<svg xmlns="http://www.w3.org/2000/svg" width="200" height="200" viewBox="0 0 200 200">
  <defs>
    <style>
      .cls-1 {
        fill: #8f979b;
      }

      .cls-2 {
        fill: #484c4e;
      }
    </style>
  </defs>
  <title>Artboard 15</title>
  <g id="trashcan">
    <path class="cls-1" d="M118.64,148.09h-41c-6.6,0-10-5.4-10-12l-4-73c0-6.6,7.4-4,14-4h41c6.6,0,13-4.6,13,2l-2,75C129.64,142.69,125.24,148.09,118.64,148.09Z"/>
    <path class="cls-1" d="M135.64,63.09l-1-7a4,4,0,0,0-4-4h-66a4,4,0,0,0-4,4L60,60.87h0l-.4,3.22Z"/>
    <path class="cls-1" d="M108.1,44.68H86.18A2.18,2.18,0,0,0,84,46.85v7.82a2.18,2.18,0,0,0,2.17,2.17h1.64a2.13,2.13,0,0,1-.29-1.06V49.37a2.18,2.18,0,0,1,2.18-2.17h14.87a2.17,2.17,0,0,1,2.17,2.17v6.41a2.13,2.13,0,0,1-.29,1.06h1.64a2.18,2.18,0,0,0,2.17-2.17V46.85A2.18,2.18,0,0,0,108.1,44.68Z"/>
    <path class="cls-2" d="M131.59,63.14s-20.27-.31-24.16.32a33.08,33.08,0,0,1-9.79,0,27.58,27.58,0,0,0,9.77.63c3-.42,16.21-.39,22.19,0,2.13.13,1.78,4.18,1.88,2.89C131.55,66.13,131.59,63.14,131.59,63.14Z"/>
    <path class="cls-2" d="M64,69.21s.73-4.5,1.52-4.32,10.7-1.67,14.9-1.08c0,0-14.87-.27-16.71.22Z"/>
    <path class="cls-2" d="M63.69,64a15.12,15.12,0,0,0-4,.06S61.7,64,63.69,64Z"/>
    <path class="cls-2" d="M135.64,63.09s-4.1-.38-5.31,0Z"/>
    <path class="cls-2" d="M85.32,63.75a27.3,27.3,0,0,1,6.86-.09"/>
    <path class="cls-2" d="M68.31,69.71s8.53-1.14,10.22,0c-.87-.59.76,38,.87,33.6,0,0,0-18.5-.35-19.28S78.8,73,78,70.2c0,0-9.24-1.9-9.42,2.34C68.57,73.23,68.31,70.65,68.31,69.71Z"/>
    <path class="cls-2" d="M95.79,69.72s-8.54-1.16-10.22,0S84.7,104,84.7,104s0-18.87.34-19.66.26-11.22,1-14.11A76.66,76.66,0,0,1,95.79,69.72Z"/>
    <path class="cls-2" d="M95.79,137.73s-8.54,1.17-10.22,0-.87-34.26-.87-34.26,0,18.87.34,19.66.26,11.21,1,14.1A76.66,76.66,0,0,0,95.79,137.73Z"/>
    <path class="cls-2" d="M80.46,137.9s-8.53,1.15-10.22,0-.87-33.59-.87-33.59,0,18.5.35,19.27.26,11,1,13.83A77.92,77.92,0,0,0,80.46,137.9Z"/>
    <path class="cls-2" d="M68.07,78.18s1.35,13.93,1.11,16C69.18,94.16,69.49,84.55,68.07,78.18Z"/>
    <path class="cls-2" d="M79.14,128.94s.3-9.6-1.11-16"/>
    <path class="cls-2" d="M95.74,76.82S96.39,96,96.32,104s.22,21.44,0,24.61-.42-29-.42-29S95.56,87.2,95.74,76.82Z"/>
    <path class="cls-2" d="M113.15,137.73s-8.54,1.17-10.22,0-.87-34.34-.87-34.34,0,18.91.34,19.7.26,11.24,1,14.14c0,0,9.25,1.94,9.43-2.39C112.88,134.13,113.15,136.77,113.15,137.73Z"/>
    <path class="cls-2" d="M111.84,79s.65,19.19.58,27.23.22,21.49,0,24.66-.42-29.09-.42-29.09S111.66,89.37,111.84,79Z"/>
    <path class="cls-2" d="M111.79,72.34a10,10,0,0,0,0-2.76c-.25-.48-9.2-.86-11,0a35.65,35.65,0,0,0,0,4.76,19.11,19.11,0,0,1-.08,5.43,22.57,22.57,0,0,0,.45-5.35,15.82,15.82,0,0,1,.22-4.29s7.53-1.11,9.51-.09A2.73,2.73,0,0,1,111.79,72.34Z"/>
    <path class="cls-2" d="M129.4,69.82s-8.53-1.24-10.22-.11S118,103.29,118,103.29s.19-18.5.54-19.27.37-11,1.18-13.82c0,0,9.26-1.8,9.39,2.44C129.09,73.33,129.39,70.75,129.4,69.82Z"/>
    <path class="cls-2" d="M118,134.21a8.84,8.84,0,0,0,0,2.43c.23.42,8.29.76,9.88,0a29.34,29.34,0,0,0,0-4.2,16.84,16.84,0,0,1,.08-4.78,19.13,19.13,0,0,0-.41,4.71,13.77,13.77,0,0,1-.2,3.78s-6.78,1-8.56.09A2.39,2.39,0,0,1,118,134.21Z"/>
    <path class="cls-2" d="M128.58,84s.15,10.87,0,15.42-.16,12.16-.35,14,.15-16.47.15-16.47S128.31,89.84,128.58,84Z"/>
    <path class="cls-2" d="M118,126.63s-.54-14-.18-16C117.82,110.61,117,120.18,118,126.63Z"/>
    <path class="cls-2" d="M60.59,56.47s.16-4.12,4-4.38C64.64,52.09,61.43,53.61,60.59,56.47Z"/>
  </g>
</svg>
