<svg id="waterbottle" xmlns="http://www.w3.org/2000/svg" width="200" height="200" viewBox="0 0 200 200">
  <defs>
    <style>
      .cls-1 {
        fill: #bec9ce;
        opacity: 0.42;
      }

      .cls-2 {
        fill: #505c61;
        fill-opacity: 0.5;
      }

      .cls-3 {
        fill: none;
        stroke: #505c61;
        stroke-miterlimit: 10;
        stroke-width: 0.5px;
      }

      .cls-3, .cls-4 {
        opacity: 0.5;
      }

      .cls-4 {
        fill: #6a7a81;
      }
    </style>
  </defs>
  <title>plasticbottle</title>
  <g>
    <path class="cls-1" d="M34,150.85s-4.61,1.59,2.95,9.78S26.5,178.85,55.14,183.1c0,0,9,.41,20.36-17.45,0,0,6.58-1.83,11-10,0,0,11.5-5,20.85-4.83,0,0,18.71-18.74,24.89-30.56,0,0,9.4-4.25,10.25-7.69,0,0,33-14.72,30.52-62,0,0-1.43-5.79.21-15.64l-16.92-5.12a43.66,43.66,0,0,1-7.92,7.61c-5,3.72-23.11,10.54-26.5,16.44,0,0,4.4,3.86,4.87,5.36s-11.42-.29-13.49,1.75-6,11.71-7.85,16.27-10.41-2-11.16-3.8S88.83,79.19,86,81.61s-11.15,0-18.36,19.27c0,0-14.63,3.28-25.45,8.46,0,0,1.82,12.61-17.77,17.41,0,0-11.33,8.07-4.49,18.28S34,150.85,34,150.85Z"/>
    <path class="cls-2" d="M179.92,22l-20.55-6.2a.62.62,0,0,0-.78.41l-3,9.93-1.72-.52a1.32,1.32,0,0,0-1.64.88l-.2.64a1.33,1.33,0,0,0,.89,1.65l24.5,7.39a1.32,1.32,0,0,0,1.65-.88l.19-.64a1.32,1.32,0,0,0-.88-1.64l-1-.32,3-9.92A.63.63,0,0,0,179.92,22Z"/>
    <line class="cls-3" x1="158.41" y1="17.53" x2="179.98" y2="24.85"/>
    <line class="cls-3" x1="157.5" y1="20.35" x2="179.01" y2="27.73"/>
    <line class="cls-3" x1="157.97" y1="18.93" x2="179.48" y2="26.31"/>
    <line class="cls-3" x1="157.03" y1="21.78" x2="178.54" y2="29.16"/>
    <line class="cls-3" x1="156.55" y1="23.21" x2="178.07" y2="30.59"/>
    <line class="cls-3" x1="156.08" y1="24.63" x2="177.6" y2="32.02"/>
    <path class="cls-4" d="M83,160.14s5.64-17.95,6.56-28.19c0,0,2.86,9.13,1.65,14.06s8-20.06,7.21-22.6c0,0-.77,19.92-2.58,21.94s11.33-6.18,11.33-6.18L104.59,151a59.17,59.17,0,0,0-18.08,4.71h0S83.91,160.09,83,160.14Z"/>
    <path class="cls-4" d="M37,160.63s.88-20.55-.06-22c0,0,3.34,25.25,2,26.13A7.9,7.9,0,0,0,37,160.63Z"/>
    <path class="cls-4" d="M50.81,105.85s9.21,8.35,4.95,25.27,4.68,24.81,4.68,24.81a10.31,10.31,0,0,0,7,3.86s-3.5-2.61-4.2-3.84c0,0,4.51-1.8,5.64-4.49,0,0-4.29.47-5.8-1.43,0,0,13.74-9.72,15.79-16.27,0,0-13.75,12.12-17,12.61s-3.5-4.89-3.5-4.89,1.38-25.09,3.64-29.65c0,0,2.22,2.32,4.43.89,0,0-.1,3.63,2.18,4.42,0,0-2.36-8.41.84-20.65l-1.79,4.39S55.87,103.75,50.81,105.85Z"/>
    <path class="cls-4" d="M122.46,134s12.85-23.88,10.17-31.43c0,0,4.6,9.08,4,11.15,0,0,4-10.22,3.67-18,0,0,3.52,8.35,2.81,10.17,0,0,14.8-34.34,14.3-39.52,0,0-5,31.59-7.14,33.38s11.31-3.94,11.31-3.94-11.08,14.55-19,16.8c0,0,.39,3-10.25,7.69C132.25,120.28,131.56,123.57,122.46,134Z"/>
    <path class="cls-4" d="M108.83,68.81a4.66,4.66,0,0,1,4.22-2.94c3.15,0,6,5.66,6,5.66s-1.62-5.57-2.4-6.47,7.25,1.64,7.25,1.64-5.6-4.18-6.81-4.27,16.69-1.5,18.13.19-9.58-9.09-11.13-9.33,13.47-10,13.47-10-12.44,5.84-15.64,10.54c0,0,4.58,3.89,4.87,5.36s-11.62-.29-13.49,1.75S108.83,68.81,108.83,68.81Z"/>
    <path class="cls-4" d="M139.86,63.27s11.35-1.16,13,.19,1.24,4.09,1.24,4.09,2-4.86.75-6.18c0,0,5-2.12-1.72-10.24,0,0,2.11,5.12-.68,7S139.86,63.27,139.86,63.27Z"/>
    <path class="cls-4" d="M32.79,154.43s3.27.72,2.66-10.54c0,0-4.26,8.56-5.54,8,0,0,3.28-.44,3.74-.89S32.05,151.64,32.79,154.43Z"/>
  </g>
</svg>
