<svg id="Layer_1" data-name="Layer 1" xmlns="http://www.w3.org/2000/svg" width="2000" height="1000" viewBox="0 0 2000 1000">
  <defs>
    <style>
      .cls-1 {
        fill: #d9e2e7;
      }

      .cls-2 {
        fill: #a3aaad;
      }

      .cls-3 {
        fill: #acaf8e;
      }

      .cls-4 {
        fill: #c3b4c0;
      }

      .cls-5 {
        fill: #efcfbb;
      }

      .cls-14, .cls-5 {
        opacity: 0.8;
      }

      .cls-12, .cls-13, .cls-15, .cls-18, .cls-20, .cls-21, .cls-22, .cls-6 {
        fill: none;
      }

      .cls-12, .cls-13, .cls-6 {
        stroke: #e09e76;
      }

      .cls-12, .cls-20, .cls-6 {
        stroke-linecap: round;
      }

      .cls-12, .cls-13, .cls-15, .cls-18, .cls-20, .cls-21, .cls-22, .cls-6, .cls-7 {
        stroke-miterlimit: 10;
      }

      .cls-13, .cls-15, .cls-18, .cls-21, .cls-6, .cls-7 {
        stroke-width: 2px;
      }

      .cls-7, .cls-9 {
        fill: #fff;
      }

      .cls-21, .cls-7 {
        stroke: #bea6af;
      }

      .cls-8 {
        fill: #111;
      }

      .cls-10 {
        fill: #f0ecec;
      }

      .cls-11 {
        fill: #e09e76;
      }

      .cls-12, .cls-20 {
        stroke-width: 1.5px;
      }

      .cls-14 {
        fill: #f7e7dd;
      }

      .cls-15, .cls-20 {
        stroke: #e8b698;
      }

      .cls-16 {
        fill: #dab5ad;
      }

      .cls-17 {
        fill: #936a7a;
      }

      .cls-18 {
        stroke: #6c432a;
        stroke-opacity: 0.7;
      }

      .cls-19 {
        fill: #bba6a1;
      }

      .cls-22 {
        stroke: #eacf92;
        stroke-width: 4px;
      }

      .cls-23 {
        fill: #d88654;
      }
    </style>
  </defs>
  <title>fish_spritesheet</title>
  <rect id="background" class="cls-1" width="500" height="500"/>
  <rect id="background-2" data-name="background" class="cls-2" x="500.13" width="500" height="500"/>
  <rect id="background-3" data-name="background" class="cls-3" x="1000" width="500" height="500"/>
  <rect id="background-4" data-name="background" class="cls-4" x="1500" width="500" height="500"/>
  <rect id="background-5" data-name="background" class="cls-1" x="1500" y="500" width="500" height="500"/>
  <rect id="background-6" data-name="background" class="cls-4" x="500.02" y="500" width="500" height="500"/>
  <rect id="background-7" data-name="background" class="cls-3" y="500" width="500" height="500"/>
  <rect id="background-8" data-name="background" class="cls-2" x="999.59" y="500" width="500" height="500"/>
  <g id="scared_fish1">
    <g id="left_fin">
      <ellipse class="cls-5" cx="171.59" cy="844.6" rx="49.5" ry="44.43" transform="translate(-645.65 570.9) rotate(-60)"/>
      <path class="cls-6" d="M179.49,877.76c.16-2.56,2.31-30.73,22.12-39.82a30.44,30.44,0,0,1,10.62-2.65"/>
      <path class="cls-6" d="M160,870.68c.71-7.84,3.81-30.54,22.12-46a57.44,57.44,0,0,1,12.39-8"/>
      <path class="cls-6" d="M139.67,859.18c3.08-12.28,10-31.21,26.55-46.9a87.79,87.79,0,0,1,9.73-8"/>
    </g>
    <g id="left_eye">
      <circle class="cls-7" cx="142.5" cy="747.5" r="38.5"/>
      <circle class="cls-8" cx="141" cy="741.49" r="28"/>
      <circle class="cls-9" cx="148.1" cy="737.3" r="4.96"/>
      <path class="cls-10" d="M168.49,721.39a38.29,38.29,0,0,0-25.9-11.26,38.47,38.47,0,0,1,17.91,10.15c14.86,14.86,15.08,38.73.49,53.32a36.9,36.9,0,0,1-27.42,10.76A37.18,37.18,0,0,0,169,774.7C183.57,760.12,183.35,736.25,168.49,721.39Z"/>
      <circle class="cls-9" cx="133.17" cy="726.36" r="8.34"/>
    </g>
    <g id="pelvic_fin_left">
      <path class="cls-5" d="M219.5,853.5s20,88,23,93,11-49,16-54c0,0-23-25-24-29S219.5,853.5,219.5,853.5Z"/>
      <path class="cls-11" d="M230.66,864.13a1,1,0,0,1-.95.67,13.14,13.14,0,0,1-8.5-2.5c-3.86-2.75,4.6-5.5,7.67-6.38a1.55,1.55,0,0,1,1.74.73C231.23,857.88,231.87,860.29,230.66,864.13Z"/>
      <path class="cls-12" d="M229,867.89a144.4,144.4,0,0,0,9,43.82q.94,2.49,1.95,4.87"/>
      <path class="cls-12" d="M231.46,867a127.89,127.89,0,0,0,11.77,36.56c.68,1.34,1.37,2.66,2.08,3.93"/>
      <path class="cls-12" d="M234.1,866.35a111.17,111.17,0,0,0,16.12,26.19q1.14,1.35,2.28,2.61"/>
    </g>
    <g id="body">
      <g id="tail_fin_left">
        <path class="cls-5" d="M332.31,799.07l1.43-24.39s14.35-37.3,25.83-42.33,28.69,29.42,28.69,29.42S397.69,811,374.75,835,332.31,799.07,332.31,799.07Z"/>
        <path class="cls-13" d="M338.78,778c6.59-4.39,17.24-13,23.21-27.37a56.08,56.08,0,0,0,2.9-9.12"/>
        <path class="cls-13" d="M341.68,790.86c3.74-.92,18.15-4.92,25.29-18.24a32.76,32.76,0,0,0,3.31-9.54"/>
      </g>
      <g id="tail_fin_right">
        <path class="cls-14" d="M344.63,799.19s18.48-37,52-50.77c0,0,19.75,21.31-.94,88.06s-57.77-12.81-57.77-12.81Z"/>
        <g>
          <path class="cls-15" d="M360.72,795.87c7.48-2.61,19.93-8.31,29.28-20.74a57.05,57.05,0,0,0,5.08-8.12"/>
          <path class="cls-15" d="M360.34,809c3.86,0,18.8-.26,29-11.39a32.69,32.69,0,0,0,5.58-8.42"/>
          <path class="cls-15" d="M357.27,819.38c6.31,1.64,17.6,3.43,29.06-1.54a39.54,39.54,0,0,0,4.95-2.58"/>
          <path class="cls-15" d="M354.51,826.8a66.75,66.75,0,0,1,20.89,20.34c.88,1.35,1.67,2.7,2.39,4"/>
        </g>
      </g>
      <path id="body-2" data-name="body" class="cls-16" d="M120.26,786.18h0c4.66,3.3,68.39,48.36,85.73,62.81,18,15,48,31,86,20,36.6-10.6,50-39.74,50.95-41.88a.7.7,0,0,0,.05-.25c-.12-3.16-2.6-64.73-31.77-152.31a2.41,2.41,0,0,0-.53-.87l-19.48-19.47a.66.66,0,0,1-.2-.53c.16-2.88,1.85-25.13,15.5-41a.69.69,0,0,0-.85-1c-4.6,2.37-13.05,7.24-19.4,13.83a.69.69,0,0,1-1.14-.72c3.2-8.48,13.06-31.17,21-42.19a.8.8,0,0,0-1.11-1.11c-9.86,6.93-31.18,22.88-35,33.57,0,0,37-60,33-63s-31.2,22.26-50.17,56.5a.68.68,0,0,1-1.26-.17A93.12,93.12,0,0,1,254.1,559a.69.69,0,0,0-1.22-.62c-7.28,10.81-24.95,40-26.76,71.56a.68.68,0,0,1-1.32.21,81.27,81.27,0,0,1,1.63-60.74.69.69,0,0,0-1.18-.69c-9.35,12.86-32,51-19.33,103.92a.61.61,0,0,1-.14.56C202,677.41,149.15,735.33,126,771l-2,4c-.16.45-11-3.48-14.85,1.79a.27.27,0,0,0,0,.37Z"/>
      <path class="cls-16" d="M310,673.39s34.93,54.54,34.93,119.47c0,0,.91,3.18,6.81,5.45s11.35,11.81-2.72,22.25-11.36,14.08-11.36,14.08l-33.14-160.3Z"/>
      <path class="cls-17" d="M207.63,670.74s-7.29-53.73,8.63-80.59L214.6,622Z"/>
      <path class="cls-17" d="M246.43,573.24s-.34.56-.94,1.6c-3.52,6.19-15.78,29.58-16.63,57.1Z"/>
      <path class="cls-17" d="M255.39,609.06s29.84-46.1,41.12-51.4S260.69,612.37,258,610.71Z"/>
      <path class="cls-17" d="M270,615s16.89-19.21,27.17-25.51S272,616,272,616Z"/>
      <path class="cls-17" d="M278.27,637.57c2.32-3.31,12.93-16.24,19.56-19.23,0,0-18.24,21.56-16.91,24.21S278.27,637.57,278.27,637.57Z"/>
      <path class="cls-17" d="M269.28,836.66c3.65-41.7-.58-105.4-24.15-141l-15.39-.16c7.07-5.6,14.7-8.33,23.78-7.32C284.84,721.48,275.6,795.2,269.28,836.66Z"/>
      <path class="cls-17" d="M294.82,807.59c3-34.73-.49-87.78-20.12-117.47L261.88,690c5.89-4.66,12.25-6.94,19.82-6.09C307.78,711.66,300.08,773.06,294.82,807.59Z"/>
      <path class="cls-17" d="M312.93,770.9c2.1-24-.34-60.78-13.93-81.34l-8.87-.09a18,18,0,0,1,13.71-4.22C321.9,704.48,316.57,747,312.93,770.9Z"/>
      <path class="cls-17" d="M347.6,796.66c4.35,3.7,7.67,11.64,2.32,21l-5.21,3.59a33.78,33.78,0,0,0,8.62-4.73C361.48,805.61,352.84,799.72,347.6,796.66Z"/>
      <path class="cls-17" d="M339.53,795.15c4.8,4.08,8.46,12.83,2.56,23.16l-5.75,4a37.65,37.65,0,0,0,9.51-5.21C354.84,805,345.31,798.52,339.53,795.15Z"/>
      <path class="cls-18" d="M124,775s7.64,1.71,10.16,7.77"/>
      <path class="cls-19" d="M199.81,792.64c-12.69-2.08-23.22-8.44-29.25-16.61,5.2,9.27,15.8,16.6,28.9,18.75s25.46-1.41,33.36-8.52C224.49,792.06,212.49,794.72,199.81,792.64Z"/>
      <path class="cls-19" d="M199.11,797.94c-12.47-3.13-22.44-10.35-27.77-19,4.42,9.67,14.37,17.86,27.24,21.1s25.5.72,34-5.71C223.75,799.43,211.57,801.07,199.11,797.94Z"/>
    </g>
    <g id="pelvic_fin_right">
      <path class="cls-14" d="M253.5,864.5s33,63,53,77c0,0-12-65-10-69C296.5,872.5,262.5,872.5,253.5,864.5Z"/>
      <path class="cls-11" d="M256.75,861.06a1,1,0,0,1,1.15.2,13.15,13.15,0,0,1,4.18,7.81c.75,4.68-7.15.59-9.93-1a1.56,1.56,0,0,1-.7-1.75C251.9,865,253.17,862.89,256.75,861.06Z"/>
      <path class="cls-20" d="M264.23,876.63a144.25,144.25,0,0,0,25.57,36.71q1.84,1.92,3.71,3.72"/>
      <path class="cls-20" d="M266.13,874.86a128,128,0,0,0,25.24,28.95q1.74,1.44,3.46,2.79"/>
      <path class="cls-20" d="M268.3,873.21a110.9,110.9,0,0,0,25.15,17.71c1.05.53,2.09,1,3.12,1.51"/>
    </g>
    <g id="right_fin">
      <path class="cls-14" d="M311,824l42.24.46s45.94,1.56,38.35,52c0,0-4.59,21.49-20.59,36.49s-72-15-75-71Z"/>
      <path class="cls-11" d="M291,824.54a2.62,2.62,0,0,1,1.34-2.38A21.3,21.3,0,0,1,310,821c9.08,3.3-5,16.82-10.2,21.44a2.61,2.61,0,0,1-3.75-.27C294.08,839.76,291.28,834.61,291,824.54Z"/>
      <path class="cls-15" d="M307,851.49c2.76,7.58,17.91,47.16,49.56,53a43.35,43.35,0,0,0,9.77.7"/>
      <path class="cls-15" d="M316.12,843.82c4.27,6.77,28.4,43.92,57.93,41.18a33.86,33.86,0,0,0,7-1.4"/>
      <path class="cls-15" d="M324.49,837.53c4.75,5.58,21.49,23.82,46.07,24.43a52.33,52.33,0,0,0,13.26-1.39"/>
    </g>
    <g id="right_eye">
      <circle class="cls-7" cx="204.5" cy="751.5" r="38.5"/>
      <circle class="cls-8" cx="202" cy="745.89" r="28"/>
      <circle class="cls-9" cx="198.65" cy="728.94" r="8.34"/>
      <circle class="cls-9" cx="215.08" cy="740.3" r="4.96"/>
      <path class="cls-10" d="M241.71,751.46a38.3,38.3,0,0,0-10.34-26.27A38.43,38.43,0,0,1,236.84,745c0,21-16.72,38.05-37.35,38.05a36.91,36.91,0,0,1-27-11.77,37.2,37.2,0,0,0,31.87,18.2C225,789.51,241.71,772.48,241.71,751.46Z"/>
      <circle class="cls-21" cx="204.5" cy="751.5" r="38.5"/>
    </g>
  </g>
  <g id="scared_fish2">
    <g id="tail_fin_left-2" data-name="tail_fin_left">
      <path id="tailfin1" class="cls-5" d="M822.63,747.86s9.42-46.12,16.49-49.2S865,757.08,865,775.53s-35.34,43.05-35.34,43.05Z"/>
      <path class="cls-13" d="M815.58,751c6.59-4.39,17.25-13,23.22-27.37a56.08,56.08,0,0,0,2.9-9.12"/>
      <path class="cls-13" d="M818.48,763.83c3.74-.92,18.15-4.92,25.29-18.24a32.81,32.81,0,0,0,3.32-9.54"/>
    </g>
    <g id="left_fin-2" data-name="left_fin">
      <ellipse class="cls-5" cx="671.59" cy="844.6" rx="49.5" ry="44.43" transform="translate(-395.65 1003.91) rotate(-60)"/>
      <path class="cls-6" d="M679.49,877.76c.16-2.56,2.31-30.73,22.12-39.82a30.44,30.44,0,0,1,10.62-2.65"/>
      <path class="cls-6" d="M660,870.68c.71-7.84,3.81-30.54,22.12-46a57.44,57.44,0,0,1,12.39-8"/>
      <path class="cls-6" d="M639.67,859.18c3.08-12.28,10-31.21,26.55-46.9a87.79,87.79,0,0,1,9.73-8"/>
    </g>
    <g id="tail_fin_right-2" data-name="tail_fin_right">
      <path id="tailfin2" class="cls-14" d="M838,770s32-39,39-54,15,56,15,56,2,44-11,64-42-43-42-43Z"/>
      <path class="cls-15" d="M850.49,776.19c6.59-4.39,17.24-13,23.21-27.36a56.7,56.7,0,0,0,2.9-9.12"/>
      <path class="cls-15" d="M853.39,789c3.74-.92,18.15-4.92,25.29-18.24a32.76,32.76,0,0,0,3.31-9.54"/>
      <path class="cls-15" d="M853,799.82c6.52,0,17.91-1.05,27.78-8.71a38,38,0,0,0,4.14-3.73"/>
      <path class="cls-15" d="M852.14,807.69a66.74,66.74,0,0,1,25.29,14.51q1.77,1.65,3.32,3.32"/>
    </g>
    <g id="pelvic_fin_left-2" data-name="pelvic_fin_left">
      <path class="cls-5" d="M719.5,853.5s20,88,23,93,11-49,16-54c0,0-23-25-24-29S719.5,853.5,719.5,853.5Z"/>
      <path class="cls-11" d="M730.66,864.13a1,1,0,0,1-.95.67,13.14,13.14,0,0,1-8.5-2.5c-3.86-2.75,4.6-5.5,7.67-6.38a1.55,1.55,0,0,1,1.74.73C731.23,857.88,731.87,860.29,730.66,864.13Z"/>
      <path class="cls-12" d="M729,867.89a144.4,144.4,0,0,0,9,43.82q.94,2.49,2,4.87"/>
      <path class="cls-12" d="M731.46,867a127.89,127.89,0,0,0,11.77,36.56c.68,1.34,1.37,2.66,2.08,3.93"/>
      <path class="cls-12" d="M734.1,866.35a111.17,111.17,0,0,0,16.12,26.19q1.14,1.35,2.28,2.61"/>
    </g>
    <g id="left_eye-2" data-name="left_eye">
      <circle class="cls-7" cx="642.5" cy="747.5" r="38.5"/>
      <circle class="cls-8" cx="641" cy="741.49" r="28"/>
      <circle class="cls-9" cx="648.1" cy="737.3" r="4.96"/>
      <path class="cls-10" d="M668.49,721.39a38.29,38.29,0,0,0-25.9-11.26,38.47,38.47,0,0,1,17.91,10.15c14.86,14.86,15.08,38.73.49,53.32a36.9,36.9,0,0,1-27.42,10.76A37.18,37.18,0,0,0,669,774.7C683.57,760.12,683.35,736.25,668.49,721.39Z"/>
      <circle class="cls-9" cx="633.17" cy="726.36" r="8.34"/>
    </g>
    <g id="body-3" data-name="body">
      <path id="body-4" data-name="body" class="cls-16" d="M620.26,786.18h0c4.66,3.3,68.39,48.36,85.73,62.81,18,15,48,31,86,20,36.6-10.6,50-39.74,51-41.88a.7.7,0,0,0,0-.25c-.12-3.16-2.6-64.73-31.77-152.31a2.41,2.41,0,0,0-.53-.87l-19.48-19.47a.66.66,0,0,1-.2-.53c.16-2.88,1.85-25.13,15.5-41a.69.69,0,0,0-.85-1c-4.6,2.37-13,7.24-19.4,13.83a.69.69,0,0,1-1.14-.72c3.2-8.48,13.06-31.17,21-42.19a.8.8,0,0,0-1.11-1.11c-9.86,6.93-31.18,22.88-35,33.57,0,0,37-60,33-63s-31.2,22.26-50.17,56.5a.68.68,0,0,1-1.26-.17A93.12,93.12,0,0,1,754.1,559a.69.69,0,0,0-1.22-.62c-7.28,10.81-25,40-26.76,71.56a.68.68,0,0,1-1.32.21,81.27,81.27,0,0,1,1.63-60.74.69.69,0,0,0-1.18-.69c-9.35,12.86-32,51-19.33,103.92a.61.61,0,0,1-.14.56C702,677.41,649.15,735.33,626,771l-2,4c-.16.45-11-3.48-14.85,1.79a.27.27,0,0,0,.05.37Z"/>
      <path class="cls-16" d="M810.7,673.69S845.49,743.25,843,827.12Z"/>
      <path class="cls-17" d="M707.63,670.74s-7.29-53.73,8.63-80.59L714.6,622Z"/>
      <path class="cls-17" d="M746.43,573.24s-.34.56-.94,1.6c-3.52,6.19-15.78,29.58-16.63,57.1Z"/>
      <path class="cls-17" d="M755.39,609.06s29.84-46.1,41.12-51.4S760.69,612.37,758,610.71Z"/>
      <path class="cls-17" d="M770,615s16.89-19.21,27.17-25.51S772,616,772,616Z"/>
      <path class="cls-17" d="M778.27,637.57c2.32-3.31,12.93-16.24,19.56-19.23,0,0-18.24,21.56-16.91,24.21S778.27,637.57,778.27,637.57Z"/>
      <path class="cls-17" d="M769.28,836.66c3.65-41.7-.58-105.4-24.15-141l-15.39-.16c7.07-5.6,14.7-8.33,23.78-7.32C784.84,721.48,775.6,795.2,769.28,836.66Z"/>
      <path class="cls-17" d="M794.82,807.59c3-34.73-.49-87.78-20.12-117.47L761.88,690c5.89-4.66,12.25-6.94,19.82-6.09C807.78,711.66,800.08,773.06,794.82,807.59Z"/>
      <path class="cls-17" d="M812.93,770.9c2.1-24-.34-60.78-13.93-81.34l-8.87-.09a18,18,0,0,1,13.71-4.22C821.9,704.48,816.57,747,812.93,770.9Z"/>
      <path class="cls-18" d="M624,775s7.64,1.71,10.16,7.77"/>
      <path class="cls-19" d="M699.81,792.64c-12.69-2.08-23.22-8.44-29.25-16.61,5.2,9.27,15.8,16.6,28.9,18.75s25.47-1.41,33.36-8.52C724.49,792.06,712.49,794.72,699.81,792.64Z"/>
      <path class="cls-19" d="M699.11,797.94c-12.47-3.13-22.44-10.35-27.77-19,4.42,9.67,14.37,17.86,27.24,21.1s25.5.72,34-5.71C723.76,799.43,711.57,801.07,699.11,797.94Z"/>
    </g>
    <g id="pelvic_fin_right-2" data-name="pelvic_fin_right">
      <path class="cls-14" d="M753.5,864.5s33,63,53,77c0,0-12-65-10-69C796.5,872.5,762.5,872.5,753.5,864.5Z"/>
      <path class="cls-11" d="M756.75,861.06a1,1,0,0,1,1.15.2,13.15,13.15,0,0,1,4.18,7.81c.75,4.68-7.15.59-9.93-1a1.56,1.56,0,0,1-.7-1.75C751.9,865,753.17,862.89,756.75,861.06Z"/>
      <path class="cls-20" d="M764.23,876.63a144.25,144.25,0,0,0,25.57,36.71q1.85,1.92,3.71,3.72"/>
      <path class="cls-20" d="M766.13,874.86a128,128,0,0,0,25.24,28.95q1.74,1.44,3.46,2.79"/>
      <path class="cls-20" d="M768.3,873.21a110.9,110.9,0,0,0,25.15,17.71c1,.53,2.09,1,3.12,1.51"/>
    </g>
    <g id="right_fin-2" data-name="right_fin">
      <path class="cls-14" d="M811,824l42.24.46s45.94,1.56,38.35,52c0,0-4.59,21.49-20.59,36.49s-72-15-75-71Z"/>
      <path class="cls-11" d="M791,824.54a2.62,2.62,0,0,1,1.34-2.38A21.3,21.3,0,0,1,810,821c9.08,3.3-5,16.82-10.2,21.44a2.61,2.61,0,0,1-3.75-.27C794.08,839.76,791.28,834.61,791,824.54Z"/>
      <path class="cls-15" d="M807,851.49c2.76,7.58,17.91,47.16,49.56,53a43.35,43.35,0,0,0,9.77.7"/>
      <path class="cls-15" d="M816.12,843.82c4.27,6.77,28.4,43.92,57.93,41.18a33.86,33.86,0,0,0,7-1.4"/>
      <path class="cls-15" d="M824.49,837.53c4.75,5.58,21.49,23.82,46.07,24.43a52.33,52.33,0,0,0,13.26-1.39"/>
    </g>
    <g id="right_eye-2" data-name="right_eye">
      <circle class="cls-7" cx="704.5" cy="751.5" r="38.5"/>
      <circle class="cls-8" cx="702" cy="745.89" r="28"/>
      <circle class="cls-9" cx="698.65" cy="728.94" r="8.34"/>
      <circle class="cls-9" cx="715.08" cy="740.3" r="4.96"/>
      <path class="cls-10" d="M741.71,751.46a38.3,38.3,0,0,0-10.34-26.27A38.43,38.43,0,0,1,736.84,745c0,21-16.72,38.05-37.35,38.05a36.91,36.91,0,0,1-27-11.77,37.2,37.2,0,0,0,31.87,18.2C725,789.51,741.71,772.48,741.71,751.46Z"/>
      <circle class="cls-21" cx="704.5" cy="751.5" r="38.5"/>
    </g>
  </g>
  <g id="scared_fish3">
    <g id="tail_fin_left-3" data-name="tail_fin_left">
      <path id="tailfin1-2" data-name="tailfin1" class="cls-5" d="M1305.16,750.32s5.86-46.71,12.68-50.32,30.33,56.26,31.74,74.65-31.94,45.63-31.94,45.63Z"/>
      <path class="cls-13" d="M1298.38,754c6.24-4.88,16.2-14.29,21-29.07a56.42,56.42,0,0,0,2.19-9.31"/>
      <path class="cls-13" d="M1302.26,766.56c3.66-1.21,17.72-6.3,23.81-20.13a32.77,32.77,0,0,0,2.58-9.76"/>
    </g>
    <g id="left_fin-3" data-name="left_fin">
      <ellipse class="cls-5" cx="1171.59" cy="844.6" rx="49.5" ry="44.43" transform="matrix(0.5, -0.87, 0.87, 0.5, -145.65, 1436.93)"/>
      <path class="cls-6" d="M1179.49,877.76c.16-2.56,2.31-30.73,22.12-39.82a30.44,30.44,0,0,1,10.62-2.65"/>
      <path class="cls-6" d="M1160,870.68c.71-7.84,3.81-30.54,22.12-46a57.44,57.44,0,0,1,12.39-8"/>
      <path class="cls-6" d="M1139.67,859.18c3.08-12.28,10-31.21,26.55-46.9a87.79,87.79,0,0,1,9.73-8"/>
    </g>
    <g id="tail_fin_right-3" data-name="tail_fin_right">
      <path id="tailfin2-2" data-name="tailfin2" class="cls-14" d="M1322.19,771.21s28.91-41.34,34.74-56.83,19.26,54.68,19.26,54.68,5.37,43.72-6.06,64.66S1325,794.07,1325,794.07Z"/>
      <path class="cls-15" d="M1335.12,776.42c6.23-4.87,16.19-14.28,21-29.06a55.73,55.73,0,0,0,2.2-9.31"/>
      <path class="cls-15" d="M1339,789c3.66-1.21,17.71-6.3,23.81-20.13a32.85,32.85,0,0,0,2.58-9.76"/>
      <path class="cls-15" d="M1339.41,799.79c6.5-.48,17.77-2.41,27-10.81a37,37,0,0,0,3.84-4"/>
      <path class="cls-15" d="M1339.19,807.71a66.91,66.91,0,0,1,26.33,12.53c1.26,1,2.44,2,3.56,3"/>
    </g>
    <g id="pelvic_fin_left-3" data-name="pelvic_fin_left">
      <path class="cls-5" d="M1219.5,853.5s20,88,23,93,11-49,16-54c0,0-23-25-24-29S1219.5,853.5,1219.5,853.5Z"/>
      <path class="cls-11" d="M1230.66,864.13a1,1,0,0,1-1,.67,13.14,13.14,0,0,1-8.5-2.5c-3.86-2.75,4.6-5.5,7.67-6.38a1.55,1.55,0,0,1,1.74.73C1231.23,857.88,1231.87,860.29,1230.66,864.13Z"/>
      <path class="cls-12" d="M1229,867.89a144.4,144.4,0,0,0,9,43.82q.95,2.49,2,4.87"/>
      <path class="cls-12" d="M1231.46,867a127.89,127.89,0,0,0,11.77,36.56c.68,1.34,1.37,2.66,2.08,3.93"/>
      <path class="cls-12" d="M1234.1,866.35a111.17,111.17,0,0,0,16.12,26.19q1.14,1.35,2.28,2.61"/>
    </g>
    <g id="left_eye-3" data-name="left_eye">
      <circle class="cls-7" cx="1142.5" cy="747.5" r="38.5"/>
      <circle class="cls-8" cx="1141" cy="741.49" r="28"/>
      <circle class="cls-9" cx="1148.1" cy="737.3" r="4.96"/>
      <path class="cls-10" d="M1168.49,721.39a38.29,38.29,0,0,0-25.9-11.26,38.47,38.47,0,0,1,17.91,10.15c14.86,14.86,15.08,38.73.49,53.32a36.9,36.9,0,0,1-27.42,10.76A37.18,37.18,0,0,0,1169,774.7C1183.57,760.12,1183.35,736.25,1168.49,721.39Z"/>
      <circle class="cls-9" cx="1133.17" cy="726.36" r="8.34"/>
    </g>
    <g id="body-5" data-name="body">
      <path id="body-6" data-name="body" class="cls-16" d="M1120.26,786.18h0c4.66,3.3,68.39,48.36,85.73,62.81,18,15,48,31,86,20,36.6-10.6,50-39.74,51-41.88a.7.7,0,0,0,0-.25c-.12-3.16-2.6-64.73-31.77-152.31a2.41,2.41,0,0,0-.53-.87l-19.48-19.47a.66.66,0,0,1-.2-.53c.16-2.88,1.85-25.13,15.5-41a.69.69,0,0,0-.85-1c-4.6,2.37-13.05,7.24-19.4,13.83a.69.69,0,0,1-1.14-.72c3.2-8.48,13.06-31.17,21-42.19a.8.8,0,0,0-1.11-1.11c-9.86,6.93-31.18,22.88-35,33.57,0,0,37-60,33-63s-31.2,22.26-50.17,56.5a.68.68,0,0,1-1.26-.17A93.12,93.12,0,0,1,1254.1,559a.69.69,0,0,0-1.22-.62c-7.28,10.81-25,40-26.76,71.56a.68.68,0,0,1-1.32.21,81.27,81.27,0,0,1,1.63-60.74.69.69,0,0,0-1.18-.69c-9.35,12.86-32,51-19.33,103.92a.61.61,0,0,1-.14.56c-3.82,4.17-56.63,62.09-79.78,97.76l-2,4c-.16.45-11-3.48-14.85,1.79a.27.27,0,0,0,0,.37Z"/>
      <path class="cls-16" d="M1310.7,673.69s34.79,69.56,32.25,153.43Z"/>
      <path class="cls-17" d="M1207.63,670.74s-7.29-53.73,8.63-80.59L1214.6,622Z"/>
      <path class="cls-17" d="M1246.43,573.24s-.34.56-.94,1.6c-3.52,6.19-15.78,29.58-16.63,57.1Z"/>
      <path class="cls-17" d="M1255.39,609.06s29.84-46.1,41.12-51.4-35.82,54.71-38.47,53.05Z"/>
      <path class="cls-17" d="M1270,615s16.89-19.21,27.17-25.51S1272,616,1272,616Z"/>
      <path class="cls-17" d="M1278.27,637.57c2.32-3.31,12.93-16.24,19.56-19.23,0,0-18.24,21.56-16.91,24.21S1278.27,637.57,1278.27,637.57Z"/>
      <path class="cls-17" d="M1269.28,836.66c3.65-41.7-.58-105.4-24.15-141l-15.39-.16c7.07-5.6,14.7-8.33,23.78-7.32C1284.84,721.48,1275.6,795.2,1269.28,836.66Z"/>
      <path class="cls-17" d="M1294.82,807.59c3-34.73-.49-87.78-20.12-117.47l-12.82-.13c5.89-4.66,12.25-6.94,19.82-6.09C1307.78,711.66,1300.08,773.06,1294.82,807.59Z"/>
      <path class="cls-17" d="M1312.93,770.9c2.1-24-.34-60.78-13.93-81.34l-8.87-.09a18,18,0,0,1,13.71-4.22C1321.9,704.48,1316.57,747,1312.93,770.9Z"/>
      <path class="cls-18" d="M1124,775s7.64,1.71,10.16,7.77"/>
      <path class="cls-19" d="M1199.81,792.64c-12.69-2.08-23.22-8.44-29.25-16.61,5.2,9.27,15.8,16.6,28.9,18.75s25.47-1.41,33.36-8.52C1224.49,792.06,1212.49,794.72,1199.81,792.64Z"/>
      <path class="cls-19" d="M1199.11,797.94c-12.47-3.13-22.44-10.35-27.77-19,4.42,9.67,14.37,17.86,27.24,21.1s25.5.72,34-5.71C1223.76,799.43,1211.57,801.07,1199.11,797.94Z"/>
    </g>
    <g id="pelvic_fin_right-3" data-name="pelvic_fin_right">
      <path class="cls-14" d="M1253.5,864.5s33,63,53,77c0,0-12-65-10-69C1296.5,872.5,1262.5,872.5,1253.5,864.5Z"/>
      <path class="cls-11" d="M1256.75,861.06a1,1,0,0,1,1.15.2,13.15,13.15,0,0,1,4.18,7.81c.75,4.68-7.15.59-9.93-1a1.56,1.56,0,0,1-.7-1.75C1251.9,865,1253.17,862.89,1256.75,861.06Z"/>
      <path class="cls-20" d="M1264.23,876.63a144.25,144.25,0,0,0,25.57,36.71q1.85,1.92,3.71,3.72"/>
      <path class="cls-20" d="M1266.13,874.86a128,128,0,0,0,25.24,28.95q1.74,1.44,3.46,2.79"/>
      <path class="cls-20" d="M1268.3,873.21a110.9,110.9,0,0,0,25.15,17.71c1,.53,2.09,1,3.12,1.51"/>
    </g>
    <g id="right_fin-3" data-name="right_fin">
      <path class="cls-14" d="M1311,824l42.24.46s45.94,1.56,38.35,52c0,0-4.59,21.49-20.59,36.49s-72-15-75-71Z"/>
      <path class="cls-11" d="M1291,824.54a2.62,2.62,0,0,1,1.34-2.38A21.3,21.3,0,0,1,1310,821c9.08,3.3-5,16.82-10.2,21.44a2.61,2.61,0,0,1-3.75-.27C1294.08,839.76,1291.28,834.61,1291,824.54Z"/>
      <path class="cls-15" d="M1307,851.49c2.76,7.58,17.91,47.16,49.56,53a43.35,43.35,0,0,0,9.77.7"/>
      <path class="cls-15" d="M1316.12,843.82c4.27,6.77,28.4,43.92,57.93,41.18a33.86,33.86,0,0,0,7-1.4"/>
      <path class="cls-15" d="M1324.49,837.53c4.75,5.58,21.49,23.82,46.07,24.43a52.33,52.33,0,0,0,13.26-1.39"/>
    </g>
    <g id="right_eye-3" data-name="right_eye">
      <circle class="cls-9" cx="1204.5" cy="752.5" r="38.5"/>
      <circle class="cls-8" cx="1202" cy="755" r="28"/>
      <circle class="cls-9" cx="1192.38" cy="750.68" r="8.34"/>
      <circle class="cls-9" cx="1205.97" cy="760.66" r="4.96"/>
      <path class="cls-10" d="M1204.42,713.45a38.27,38.27,0,0,0-26.27,10.35,38.31,38.31,0,0,1,19.84-5.48c21,0,38,16.72,38,37.35a36.92,36.92,0,0,1-11.78,27,37.19,37.19,0,0,0,18.21-31.87C1242.47,730.17,1225.43,713.45,1204.42,713.45Z"/>
      <circle class="cls-21" cx="1204.5" cy="751.5" r="38.5"/>
    </g>
    <g id="right_eye-4" data-name="right_eye">
      <circle class="cls-7" cx="1204.5" cy="751.5" r="38.5"/>
      <circle class="cls-8" cx="1202" cy="745.89" r="28"/>
      <circle class="cls-9" cx="1198.65" cy="728.94" r="8.34"/>
      <circle class="cls-9" cx="1215.08" cy="740.3" r="4.96"/>
      <path class="cls-10" d="M1241.71,751.46a38.3,38.3,0,0,0-10.34-26.27,38.43,38.43,0,0,1,5.47,19.84c0,21-16.72,38.05-37.35,38.05a36.91,36.91,0,0,1-27-11.77,37.2,37.2,0,0,0,31.87,18.2C1225,789.51,1241.71,772.48,1241.71,751.46Z"/>
      <circle class="cls-21" cx="1204.5" cy="751.5" r="38.5"/>
    </g>
  </g>
  <g id="scared_fish4">
    <g id="tail_fin_left-4" data-name="tail_fin_left">
      <path id="tailfin1-3" data-name="tailfin1" class="cls-5" d="M1822.63,747.86s9.42-46.12,16.49-49.2S1865,757.08,1865,775.53s-35.34,43.05-35.34,43.05Z"/>
      <path class="cls-13" d="M1815.58,751c6.59-4.39,17.25-13,23.22-27.37a56.08,56.08,0,0,0,2.9-9.12"/>
      <path class="cls-13" d="M1818.48,763.83c3.74-.92,18.15-4.92,25.29-18.24a32.81,32.81,0,0,0,3.32-9.54"/>
    </g>
    <g id="left_fin-4" data-name="left_fin">
      <ellipse class="cls-5" cx="1671.59" cy="844.6" rx="49.5" ry="44.43" transform="matrix(0.5, -0.87, 0.87, 0.5, 104.35, 1869.94)"/>
      <path class="cls-6" d="M1679.49,877.76c.16-2.56,2.31-30.73,22.12-39.82a30.44,30.44,0,0,1,10.62-2.65"/>
      <path class="cls-6" d="M1660,870.68c.71-7.84,3.81-30.54,22.12-46a57.44,57.44,0,0,1,12.39-8"/>
      <path class="cls-6" d="M1639.67,859.18c3.08-12.28,10-31.21,26.55-46.9a87.79,87.79,0,0,1,9.73-8"/>
    </g>
    <g id="tail_fin_right-4" data-name="tail_fin_right">
      <path id="tailfin2-3" data-name="tailfin2" class="cls-14" d="M1838,770s32-39,39-54,15,56,15,56,2,44-11,64-42-43-42-43Z"/>
      <path class="cls-15" d="M1850.49,776.19c6.59-4.39,17.24-13,23.21-27.36a56.7,56.7,0,0,0,2.9-9.12"/>
      <path class="cls-15" d="M1853.39,789c3.74-.92,18.15-4.92,25.29-18.24a32.76,32.76,0,0,0,3.31-9.54"/>
      <path class="cls-15" d="M1853,799.82c6.52,0,17.91-1.05,27.78-8.71a38,38,0,0,0,4.14-3.73"/>
      <path class="cls-15" d="M1852.14,807.69a66.74,66.74,0,0,1,25.29,14.51q1.77,1.65,3.32,3.32"/>
    </g>
    <g id="pelvic_fin_left-4" data-name="pelvic_fin_left">
      <path id="pelvic_fin_left-5" data-name="pelvic_fin_left" class="cls-5" d="M1719.5,853.5s20,88,23,93,11-49,16-54c0,0-23-25-24-29S1719.5,853.5,1719.5,853.5Z"/>
      <path class="cls-11" d="M1730.66,864.13a1,1,0,0,1-1,.67,13.14,13.14,0,0,1-8.5-2.5c-3.86-2.75,4.6-5.5,7.67-6.38a1.55,1.55,0,0,1,1.74.73C1731.23,857.88,1731.87,860.29,1730.66,864.13Z"/>
      <path class="cls-12" d="M1729,867.89a144.4,144.4,0,0,0,9,43.82q.95,2.49,2,4.87"/>
      <path class="cls-12" d="M1731.46,867a127.89,127.89,0,0,0,11.77,36.56c.68,1.34,1.37,2.66,2.08,3.93"/>
      <path class="cls-12" d="M1734.1,866.35a111.17,111.17,0,0,0,16.12,26.19q1.14,1.35,2.28,2.61"/>
    </g>
    <g id="left_eye-4" data-name="left_eye">
      <circle class="cls-7" cx="1642.5" cy="747.5" r="38.5"/>
      <circle class="cls-8" cx="1641" cy="741.49" r="28"/>
      <circle class="cls-9" cx="1648.1" cy="737.3" r="4.96"/>
      <path class="cls-10" d="M1668.49,721.39a38.29,38.29,0,0,0-25.9-11.26,38.47,38.47,0,0,1,17.91,10.15c14.86,14.86,15.08,38.73.49,53.32a36.9,36.9,0,0,1-27.42,10.76A37.18,37.18,0,0,0,1669,774.7C1683.57,760.12,1683.35,736.25,1668.49,721.39Z"/>
      <circle class="cls-9" cx="1633.17" cy="726.36" r="8.34"/>
    </g>
    <g id="body-7" data-name="body">
      <path id="body-8" data-name="body" class="cls-16" d="M1620.26,786.18h0c4.66,3.3,68.39,48.36,85.73,62.81,18,15,48,31,86,20,36.6-10.6,50-39.74,51-41.88a.7.7,0,0,0,0-.25c-.12-3.16-2.6-64.73-31.77-152.31a2.41,2.41,0,0,0-.53-.87l-19.48-19.47a.66.66,0,0,1-.2-.53c.16-2.88,1.85-25.13,15.5-41a.69.69,0,0,0-.85-1c-4.6,2.37-13.05,7.24-19.4,13.83a.69.69,0,0,1-1.14-.72c3.2-8.48,13.06-31.17,21-42.19a.8.8,0,0,0-1.11-1.11c-9.86,6.93-31.18,22.88-35,33.57,0,0,37-60,33-63s-31.2,22.26-50.17,56.5a.68.68,0,0,1-1.26-.17A93.12,93.12,0,0,1,1754.1,559a.69.69,0,0,0-1.22-.62c-7.28,10.81-25,40-26.76,71.56a.68.68,0,0,1-1.32.21,81.27,81.27,0,0,1,1.63-60.74.69.69,0,0,0-1.18-.69c-9.35,12.86-32,51-19.33,103.92a.61.61,0,0,1-.14.56c-3.82,4.17-56.63,62.09-79.78,97.76l-2,4c-.16.45-11-3.48-14.85,1.79a.27.27,0,0,0,0,.37Z"/>
      <path class="cls-16" d="M1810.7,673.69s34.79,69.56,32.25,153.43Z"/>
      <path class="cls-17" d="M1707.63,670.74s-7.29-53.73,8.63-80.59L1714.6,622Z"/>
      <path class="cls-17" d="M1746.43,573.24s-.34.56-.94,1.6c-3.52,6.19-15.78,29.58-16.63,57.1Z"/>
      <path class="cls-17" d="M1755.39,609.06s29.84-46.1,41.12-51.4-35.82,54.71-38.47,53.05Z"/>
      <path class="cls-17" d="M1770,615s16.89-19.21,27.17-25.51S1772,616,1772,616Z"/>
      <path class="cls-17" d="M1778.27,637.57c2.32-3.31,12.93-16.24,19.56-19.23,0,0-18.24,21.56-16.91,24.21S1778.27,637.57,1778.27,637.57Z"/>
      <path class="cls-17" d="M1769.28,836.66c3.65-41.7-.58-105.4-24.15-141l-15.39-.16c7.07-5.6,14.7-8.33,23.78-7.32C1784.84,721.48,1775.6,795.2,1769.28,836.66Z"/>
      <path class="cls-17" d="M1794.82,807.59c3-34.73-.49-87.78-20.12-117.47l-12.82-.13c5.89-4.66,12.25-6.94,19.82-6.09C1807.78,711.66,1800.08,773.06,1794.82,807.59Z"/>
      <path class="cls-17" d="M1812.93,770.9c2.1-24-.34-60.78-13.93-81.34l-8.87-.09a18,18,0,0,1,13.71-4.22C1821.9,704.48,1816.57,747,1812.93,770.9Z"/>
      <path class="cls-18" d="M1624,775s7.64,1.71,10.16,7.77"/>
      <path class="cls-19" d="M1699.81,792.64c-12.69-2.08-23.22-8.44-29.25-16.61,5.2,9.27,15.8,16.6,28.9,18.75s25.47-1.41,33.36-8.52C1724.49,792.06,1712.49,794.72,1699.81,792.64Z"/>
      <path class="cls-19" d="M1699.11,797.94c-12.47-3.13-22.44-10.35-27.77-19,4.42,9.67,14.37,17.86,27.24,21.1s25.5.72,34-5.71C1723.76,799.43,1711.57,801.07,1699.11,797.94Z"/>
    </g>
    <g id="pelvic_fin_right-4" data-name="pelvic_fin_right">
      <path class="cls-14" d="M1753.5,864.5s33,63,53,77c0,0-12-65-10-69C1796.5,872.5,1762.5,872.5,1753.5,864.5Z"/>
      <path class="cls-11" d="M1756.75,861.06a1,1,0,0,1,1.15.2,13.15,13.15,0,0,1,4.18,7.81c.75,4.68-7.15.59-9.93-1a1.56,1.56,0,0,1-.7-1.75C1751.9,865,1753.17,862.89,1756.75,861.06Z"/>
      <path class="cls-20" d="M1764.23,876.63a144.25,144.25,0,0,0,25.57,36.71q1.85,1.92,3.71,3.72"/>
      <path class="cls-20" d="M1766.13,874.86a128,128,0,0,0,25.24,28.95q1.74,1.44,3.46,2.79"/>
      <path class="cls-20" d="M1768.3,873.21a110.9,110.9,0,0,0,25.15,17.71c1,.53,2.09,1,3.12,1.51"/>
    </g>
    <g id="right_fin-4" data-name="right_fin">
      <path class="cls-14" d="M1811,824l42.24.46s45.94,1.56,38.35,52c0,0-4.59,21.49-20.59,36.49s-72-15-75-71Z"/>
      <path class="cls-11" d="M1791,824.54a2.62,2.62,0,0,1,1.34-2.38A21.3,21.3,0,0,1,1810,821c9.08,3.3-5,16.82-10.2,21.44a2.61,2.61,0,0,1-3.75-.27C1794.08,839.76,1791.28,834.61,1791,824.54Z"/>
      <path class="cls-15" d="M1807,851.49c2.76,7.58,17.91,47.16,49.56,53a43.35,43.35,0,0,0,9.77.7"/>
      <path class="cls-15" d="M1816.12,843.82c4.27,6.77,28.4,43.92,57.93,41.18a33.86,33.86,0,0,0,7-1.4"/>
      <path class="cls-15" d="M1824.49,837.53c4.75,5.58,21.49,23.82,46.07,24.43a52.33,52.33,0,0,0,13.26-1.39"/>
    </g>
    <g id="right_eye-5" data-name="right_eye">
      <circle class="cls-9" cx="1704.5" cy="752.5" r="38.5"/>
      <circle class="cls-8" cx="1702" cy="755" r="28"/>
      <circle class="cls-9" cx="1692.38" cy="750.68" r="8.34"/>
      <circle class="cls-9" cx="1705.97" cy="760.66" r="4.96"/>
      <path class="cls-10" d="M1704.42,713.45a38.27,38.27,0,0,0-26.27,10.35,38.31,38.31,0,0,1,19.84-5.48c21,0,38,16.72,38,37.35a36.92,36.92,0,0,1-11.78,27,37.19,37.19,0,0,0,18.21-31.87C1742.47,730.17,1725.43,713.45,1704.42,713.45Z"/>
      <circle class="cls-21" cx="1704.5" cy="751.5" r="38.5"/>
    </g>
    <g id="right_eye-6" data-name="right_eye">
      <circle class="cls-7" cx="1704.5" cy="751.5" r="38.5"/>
      <circle class="cls-8" cx="1702" cy="745.89" r="28"/>
      <circle class="cls-9" cx="1698.65" cy="728.94" r="8.34"/>
      <circle class="cls-9" cx="1715.08" cy="740.3" r="4.96"/>
      <path class="cls-10" d="M1741.71,751.46a38.3,38.3,0,0,0-10.34-26.27,38.43,38.43,0,0,1,5.47,19.84c0,21-16.72,38.05-37.35,38.05a36.91,36.91,0,0,1-27-11.77,37.2,37.2,0,0,0,31.87,18.2C1725,789.51,1741.71,772.48,1741.71,751.46Z"/>
      <circle class="cls-21" cx="1704.5" cy="751.5" r="38.5"/>
    </g>
  </g>
  <g id="fish1">
    <ellipse class="cls-5" cx="171.59" cy="344.6" rx="49.5" ry="44.43" transform="translate(-212.64 320.9) rotate(-60)"/>
    <circle class="cls-7" cx="142.5" cy="247.5" r="38.5"/>
    <circle class="cls-8" cx="141" cy="248" r="28"/>
    <path class="cls-10" d="M142.61,210.29a38.27,38.27,0,0,0-26.27,10.35,38.31,38.31,0,0,1,19.84-5.48c21,0,38,16.72,38,37.35a36.92,36.92,0,0,1-11.78,27,37.19,37.19,0,0,0,18.21-31.87C180.66,227,163.63,210.29,142.61,210.29Z"/>
    <path class="cls-5" d="M219.5,353.5s20,88,23,93,11-49,16-54c0,0-23-25-24-29S219.5,353.5,219.5,353.5Z"/>
    <path class="cls-6" d="M179.49,377.76c.16-2.56,2.31-30.73,22.12-39.82a30.44,30.44,0,0,1,10.62-2.65"/>
    <path class="cls-6" d="M160,370.68c.71-7.84,3.81-30.54,22.12-46a57.44,57.44,0,0,1,12.39-8"/>
    <path class="cls-6" d="M139.67,359.18c3.08-12.28,10-31.21,26.55-46.9a88.94,88.94,0,0,1,9.73-8"/>
    <path class="cls-11" d="M230.66,364.13a1,1,0,0,1-.95.67,13.14,13.14,0,0,1-8.5-2.5c-3.86-2.75,4.6-5.5,7.67-6.38a1.55,1.55,0,0,1,1.74.73C231.23,357.88,231.87,360.29,230.66,364.13Z"/>
    <g>
      <path class="cls-5" d="M332.31,299.07l1.43-24.39s14.35-37.3,25.83-42.33,28.69,29.42,28.69,29.42S397.69,311,374.75,335,332.31,299.07,332.31,299.07Z"/>
      <path class="cls-13" d="M338.78,278c6.59-4.39,17.24-13,23.21-27.37a56.08,56.08,0,0,0,2.9-9.12"/>
      <path class="cls-13" d="M341.68,290.86c3.74-.92,18.15-4.92,25.29-18.24a32.76,32.76,0,0,0,3.31-9.54"/>
    </g>
    <path id="body-9" data-name="body" class="cls-16" d="M120.26,286.18h0c4.66,3.3,68.39,48.36,85.73,62.81,18,15,48,31,86,20,36.6-10.6,50-39.74,50.95-41.88a.7.7,0,0,0,.05-.25c-.12-3.16-2.6-64.73-31.77-152.31a2.41,2.41,0,0,0-.53-.87l-19.48-19.47a.66.66,0,0,1-.2-.53c.16-2.88,1.85-25.13,15.5-41a.69.69,0,0,0-.85-1c-4.6,2.37-13.05,7.24-19.4,13.84a.69.69,0,0,1-1.14-.73c3.2-8.48,13.06-31.17,21-42.19A.8.8,0,0,0,305,81.43c-9.86,6.93-31.18,22.88-35,33.57,0,0,37-60,33-63s-31.2,22.26-50.17,56.5a.68.68,0,0,1-1.26-.17A93.12,93.12,0,0,1,254.1,59a.69.69,0,0,0-1.22-.62c-7.28,10.81-24.95,40-26.76,71.56a.68.68,0,0,1-1.32.21,81.27,81.27,0,0,1,1.63-60.74.69.69,0,0,0-1.18-.69c-9.35,12.86-32,51-19.33,103.92a.61.61,0,0,1-.14.56C202,177.41,149.15,235.33,126,271l-2,4c-.16.45-11-3.48-14.85,1.79a.27.27,0,0,0,0,.37Z"/>
    <path class="cls-14" d="M253.5,364.5s33,63,53,77c0,0-12-65-10-69C296.5,372.5,262.5,372.5,253.5,364.5Z"/>
    <circle class="cls-7" cx="204.5" cy="251.5" r="38.5"/>
    <circle class="cls-8" cx="202" cy="255" r="28"/>
    <path class="cls-22" d="M214.89,88.9"/>
    <path class="cls-22" d="M213.25,163.08"/>
    <path class="cls-22" d="M246.35,75.33"/>
    <path class="cls-22" d="M232.16,118.45"/>
    <path class="cls-22" d="M287.75,67.87"/>
    <path class="cls-22" d="M261.1,104.34"/>
    <path class="cls-22" d="M291.69,97.87"/>
    <path class="cls-22" d="M278,108.63"/>
    <path class="cls-18" d="M140.5,276.5s-7,6-17-1"/>
    <path class="cls-11" d="M256.75,361.06a1,1,0,0,1,1.15.2,13.15,13.15,0,0,1,4.18,7.81c.75,4.68-7.15.59-9.93-1a1.56,1.56,0,0,1-.7-1.75C251.9,365,253.17,362.89,256.75,361.06Z"/>
    <path id="body-10" data-name="body" class="cls-23" d="M343,327.12"/>
    <path class="cls-20" d="M264.23,376.63a144.47,144.47,0,0,0,25.57,36.72q1.84,1.9,3.71,3.71"/>
    <path class="cls-20" d="M266.13,374.86a128,128,0,0,0,25.24,28.95q1.74,1.44,3.46,2.79"/>
    <path class="cls-20" d="M268.3,373.22a111.19,111.19,0,0,0,25.15,17.7c1.05.53,2.09,1,3.12,1.51"/>
    <path class="cls-12" d="M229,367.89a144.4,144.4,0,0,0,9,43.82q.94,2.49,1.95,4.87"/>
    <path class="cls-12" d="M231.46,367a127.79,127.79,0,0,0,11.77,36.56q1,2,2.08,3.93"/>
    <path class="cls-12" d="M234.1,366.35a111,111,0,0,0,16.12,26.19q1.14,1.35,2.28,2.61"/>
    <circle class="cls-9" cx="192.38" cy="250.68" r="8.34"/>
    <circle class="cls-9" cx="129.26" cy="240.74" r="8.34"/>
    <circle class="cls-9" cx="205.97" cy="260.66" r="4.96"/>
    <g>
      <path class="cls-14" d="M344.63,299.19s18.48-37,52-50.77c0,0,19.75,21.31-.94,88.06s-57.77-12.81-57.77-12.81Z"/>
      <g>
        <path class="cls-15" d="M360.72,295.87c7.48-2.61,19.93-8.31,29.28-20.74a57.05,57.05,0,0,0,5.08-8.12"/>
        <path class="cls-15" d="M360.34,309c3.86,0,18.8-.26,29-11.39a32.82,32.82,0,0,0,5.58-8.41"/>
        <path class="cls-15" d="M357.27,319.38c6.31,1.64,17.6,3.43,29.06-1.54a39.54,39.54,0,0,0,4.95-2.58"/>
        <path class="cls-15" d="M354.51,326.81a66.6,66.6,0,0,1,20.89,20.33c.88,1.35,1.67,2.7,2.39,4"/>
      </g>
    </g>
    <path class="cls-16" d="M310,173.39s34.93,54.54,34.93,119.47c0,0,.91,3.18,6.81,5.45s11.35,11.81-2.72,22.25-11.36,14.08-11.36,14.08l-33.14-160.3Z"/>
    <g>
      <path class="cls-14" d="M311,324l42.24.46s45.94,1.56,38.35,52.05c0,0-4.59,21.49-20.59,36.49s-72-15-75-71Z"/>
      <path class="cls-11" d="M291,324.54a2.62,2.62,0,0,1,1.34-2.38A21.3,21.3,0,0,1,310,321c9.08,3.3-5,16.82-10.2,21.44a2.61,2.61,0,0,1-3.75-.27C294.08,339.76,291.28,334.61,291,324.54Z"/>
      <path class="cls-15" d="M307,351.49c2.76,7.58,17.91,47.16,49.56,53.05a43.35,43.35,0,0,0,9.77.7"/>
      <path class="cls-15" d="M316.12,343.82c4.27,6.77,28.4,43.92,57.93,41.18a33.86,33.86,0,0,0,7-1.4"/>
      <path class="cls-15" d="M324.49,337.53c4.75,5.58,21.49,23.82,46.07,24.43a51.43,51.43,0,0,0,13.26-1.39"/>
    </g>
    <path class="cls-10" d="M204.42,213.45a38.27,38.27,0,0,0-26.27,10.35A38.31,38.31,0,0,1,198,218.32c21,0,38,16.72,38,37.35a36.92,36.92,0,0,1-11.78,27,37.18,37.18,0,0,0,18.21-31.87C242.47,230.17,225.43,213.45,204.42,213.45Z"/>
    <circle class="cls-21" cx="204.5" cy="251.5" r="38.5"/>
    <path class="cls-17" d="M207.63,170.74s-7.29-53.72,8.63-80.58L214.6,122Z"/>
    <path class="cls-17" d="M246.43,73.24s-.34.56-.94,1.6c-3.52,6.19-15.78,29.58-16.63,57.1Z"/>
    <path class="cls-17" d="M255.39,109.06s29.84-46.1,41.12-51.4S260.69,112.37,258,110.71Z"/>
    <path class="cls-17" d="M270,115s16.89-19.21,27.17-25.51S272,116,272,116Z"/>
    <path class="cls-17" d="M278.27,137.57c2.32-3.31,12.93-16.24,19.56-19.23,0,0-18.24,21.56-16.91,24.21S278.27,137.57,278.27,137.57Z"/>
    <path class="cls-17" d="M269.28,336.66c3.65-41.7-.58-105.4-24.15-141l-15.39-.16c7.07-5.6,14.7-8.33,23.78-7.32C284.84,221.48,275.6,295.2,269.28,336.66Z"/>
    <path class="cls-17" d="M294.82,307.59c3-34.73-.49-87.78-20.12-117.47L261.88,190c5.89-4.66,12.25-6.94,19.82-6.09C307.78,211.66,300.08,273.06,294.82,307.59Z"/>
    <path class="cls-17" d="M312.93,270.9c2.1-24-.34-60.78-13.93-81.34l-8.87-.08a18,18,0,0,1,13.71-4.23C321.9,204.48,316.57,247,312.93,270.9Z"/>
    <path class="cls-17" d="M347.6,296.66c4.35,3.71,7.67,11.64,2.32,21l-5.21,3.59a34,34,0,0,0,8.62-4.72C361.48,305.61,352.84,299.72,347.6,296.66Z"/>
    <path class="cls-17" d="M339.53,295.15c4.8,4.08,8.46,12.83,2.56,23.16l-5.75,4a37.65,37.65,0,0,0,9.51-5.21C354.84,305,345.31,298.52,339.53,295.15Z"/>
  </g>
  <g id="fish2">
    <g>
      <path id="tailfin1-4" data-name="tailfin1" class="cls-5" d="M822.63,247.86s9.42-46.12,16.49-49.2S865,257.08,865,275.53s-35.34,43.05-35.34,43.05Z"/>
      <path class="cls-13" d="M815.58,251c6.59-4.39,17.25-13,23.22-27.37a56.08,56.08,0,0,0,2.9-9.12"/>
      <path class="cls-13" d="M818.48,263.83c3.74-.92,18.15-4.92,25.29-18.24a32.81,32.81,0,0,0,3.32-9.54"/>
    </g>
    <path class="cls-5" d="M719.5,353.5s20,88,23,93,11-49,16-54c0,0-23-25-24-29S719.5,353.5,719.5,353.5Z"/>
    <g id="left_fin-5" data-name="left_fin">
      <ellipse class="cls-5" cx="671.59" cy="344.6" rx="49.5" ry="44.43" transform="translate(37.36 753.91) rotate(-60)"/>
      <path class="cls-6" d="M679.49,377.76c.16-2.56,2.31-30.73,22.12-39.82a30.44,30.44,0,0,1,10.62-2.65"/>
      <path class="cls-6" d="M660,370.68c.71-7.84,3.81-30.54,22.12-46a57.44,57.44,0,0,1,12.39-8"/>
      <path class="cls-6" d="M639.67,359.18c3.08-12.28,10-31.21,26.55-46.9a88.94,88.94,0,0,1,9.73-8"/>
    </g>
    <path class="cls-11" d="M730.66,364.13a1,1,0,0,1-.95.67,13.14,13.14,0,0,1-8.5-2.5c-3.86-2.75,4.6-5.5,7.67-6.38a1.55,1.55,0,0,1,1.74.73C731.23,357.88,731.87,360.29,730.66,364.13Z"/>
    <g>
      <path id="tailfin2-4" data-name="tailfin2" class="cls-14" d="M838,270s32-39,39-54,15,56,15,56,2,44-11,64-42-43-42-43Z"/>
      <path class="cls-15" d="M850.49,276.19c6.59-4.38,17.24-13,23.21-27.36a56.7,56.7,0,0,0,2.9-9.12"/>
      <path class="cls-15" d="M853.39,289c3.74-.92,18.15-4.92,25.29-18.24a32.76,32.76,0,0,0,3.31-9.54"/>
      <path class="cls-15" d="M853,299.82c6.52,0,17.91-1.05,27.78-8.71a38,38,0,0,0,4.14-3.73"/>
      <path class="cls-15" d="M852.14,307.69a66.87,66.87,0,0,1,25.29,14.51q1.77,1.65,3.32,3.32"/>
    </g>
    <path id="body-11" data-name="body" class="cls-23" d="M843,327.12"/>
    <path class="cls-12" d="M729,367.89a144.4,144.4,0,0,0,9,43.82q.94,2.49,2,4.87"/>
    <path class="cls-12" d="M731.46,367a127.79,127.79,0,0,0,11.77,36.56q1,2,2.08,3.93"/>
    <path class="cls-12" d="M734.1,366.35a111,111,0,0,0,16.12,26.19q1.14,1.35,2.28,2.61"/>
    <g id="left_eye-5" data-name="left_eye">
      <circle class="cls-7" cx="642.5" cy="247.5" r="38.5"/>
      <circle class="cls-8" cx="641" cy="248" r="28"/>
      <path class="cls-10" d="M642.61,210.29a38.27,38.27,0,0,0-26.27,10.35,38.31,38.31,0,0,1,19.84-5.48c21,0,38.05,16.72,38.05,37.35a36.92,36.92,0,0,1-11.78,27,37.19,37.19,0,0,0,18.21-31.87C680.66,227,663.63,210.29,642.61,210.29Z"/>
      <circle class="cls-9" cx="629.26" cy="240.74" r="8.34"/>
    </g>
    <g id="body-12" data-name="body">
      <path id="body-13" data-name="body" class="cls-16" d="M620.26,286.18h0c4.66,3.3,68.39,48.36,85.73,62.81,18,15,48,31,86,20,36.6-10.6,50-39.74,51-41.88a.7.7,0,0,0,0-.25c-.12-3.16-2.6-64.73-31.77-152.31a2.41,2.41,0,0,0-.53-.87l-19.48-19.47a.66.66,0,0,1-.2-.53c.16-2.88,1.85-25.13,15.5-41a.69.69,0,0,0-.85-1c-4.6,2.37-13,7.24-19.4,13.84a.69.69,0,0,1-1.14-.73c3.2-8.48,13.06-31.17,21-42.19A.8.8,0,0,0,805,81.43c-9.86,6.93-31.18,22.88-35,33.57,0,0,37-60,33-63s-31.2,22.26-50.17,56.5a.68.68,0,0,1-1.26-.17A93.12,93.12,0,0,1,754.1,59a.69.69,0,0,0-1.22-.62c-7.28,10.81-25,40-26.76,71.56a.68.68,0,0,1-1.32.21,81.27,81.27,0,0,1,1.63-60.74.69.69,0,0,0-1.18-.69c-9.35,12.86-32,51-19.33,103.92a.61.61,0,0,1-.14.56C702,177.41,649.15,235.33,626,271l-2,4c-.16.45-11-3.48-14.85,1.79a.27.27,0,0,0,.05.37Z"/>
      <path class="cls-17" d="M707.63,170.74s-7.29-53.72,8.63-80.58L714.6,122Z"/>
      <path class="cls-17" d="M746.43,73.24s-.34.56-.94,1.6c-3.52,6.19-15.78,29.58-16.63,57.1Z"/>
      <path class="cls-17" d="M755.39,109.06s29.84-46.1,41.12-51.4S760.69,112.37,758,110.71Z"/>
      <path class="cls-17" d="M770,115s16.89-19.21,27.17-25.51S772,116,772,116Z"/>
      <path class="cls-17" d="M778.27,137.57c2.32-3.31,12.93-16.24,19.56-19.23,0,0-18.24,21.56-16.91,24.21S778.27,137.57,778.27,137.57Z"/>
      <path class="cls-17" d="M769.28,336.66c3.65-41.7-.58-105.4-24.15-141l-15.39-.16c7.07-5.6,14.7-8.33,23.78-7.32C784.84,221.48,775.6,295.2,769.28,336.66Z"/>
      <path class="cls-17" d="M794.82,307.59c3-34.73-.49-87.78-20.12-117.47L761.88,190c5.89-4.66,12.25-6.94,19.82-6.09C807.78,211.66,800.08,273.06,794.82,307.59Z"/>
      <path class="cls-17" d="M812.93,270.9c2.1-24-.34-60.78-13.93-81.34l-8.87-.08a18,18,0,0,1,13.71-4.23C821.9,204.48,816.57,247,812.93,270.9Z"/>
      <path class="cls-18" d="M640.5,276.5s-7,6-17-1"/>
    </g>
    <g id="pelvic_fin_right-5" data-name="pelvic_fin_right">
      <path class="cls-14" d="M753.5,364.5s33,63,53,77c0,0-12-65-10-69C796.5,372.5,762.5,372.5,753.5,364.5Z"/>
      <path class="cls-11" d="M756.75,361.06a1,1,0,0,1,1.15.2,13.15,13.15,0,0,1,4.18,7.81c.75,4.68-7.15.59-9.93-1a1.56,1.56,0,0,1-.7-1.75C751.9,365,753.17,362.89,756.75,361.06Z"/>
      <path class="cls-20" d="M764.23,376.63a144.47,144.47,0,0,0,25.57,36.72q1.85,1.9,3.71,3.71"/>
      <path class="cls-20" d="M766.13,374.86a128,128,0,0,0,25.24,28.95q1.74,1.44,3.46,2.79"/>
      <path class="cls-20" d="M768.3,373.22a111.19,111.19,0,0,0,25.15,17.7c1,.53,2.09,1,3.12,1.51"/>
    </g>
    <g id="right_fin-5" data-name="right_fin">
      <path class="cls-14" d="M811,324l42.24.46s45.94,1.56,38.35,52.05c0,0-4.59,21.49-20.59,36.49s-72-15-75-71Z"/>
      <path class="cls-11" d="M791,324.54a2.62,2.62,0,0,1,1.34-2.38A21.3,21.3,0,0,1,810,321c9.08,3.3-5,16.82-10.2,21.44a2.61,2.61,0,0,1-3.75-.27C794.08,339.76,791.28,334.61,791,324.54Z"/>
      <path class="cls-15" d="M807,351.49c2.76,7.58,17.91,47.16,49.56,53.05a43.35,43.35,0,0,0,9.77.7"/>
      <path class="cls-15" d="M816.12,343.82c4.27,6.77,28.4,43.92,57.93,41.18a33.86,33.86,0,0,0,7-1.4"/>
      <path class="cls-15" d="M824.49,337.53c4.75,5.58,21.49,23.82,46.07,24.43a51.43,51.43,0,0,0,13.26-1.39"/>
    </g>
    <g id="right_eye-7" data-name="right_eye">
      <circle class="cls-9" cx="704.5" cy="252.5" r="38.5"/>
      <circle class="cls-8" cx="702" cy="255" r="28"/>
      <circle class="cls-9" cx="692.38" cy="250.68" r="8.34"/>
      <circle class="cls-9" cx="705.97" cy="260.66" r="4.96"/>
      <path class="cls-10" d="M704.42,213.45a38.27,38.27,0,0,0-26.27,10.35A38.31,38.31,0,0,1,698,218.32c21,0,38,16.72,38,37.35a36.92,36.92,0,0,1-11.78,27,37.18,37.18,0,0,0,18.21-31.87C742.47,230.17,725.43,213.45,704.42,213.45Z"/>
      <circle class="cls-21" cx="704.5" cy="251.5" r="38.5"/>
    </g>
    <path class="cls-15" d="M810.7,173.69"/>
    <path class="cls-16" d="M810.7,173.69S845.49,243.25,843,327.12Z"/>
  </g>
  <g id="fish3">
    <g>
      <path id="tailfin1-5" data-name="tailfin1" class="cls-5" d="M1305.16,250.32s5.86-46.71,12.68-50.32,30.33,56.26,31.74,74.65-31.94,45.63-31.94,45.63Z"/>
      <path class="cls-13" d="M1298.38,254c6.24-4.88,16.2-14.29,21-29.07a56.42,56.42,0,0,0,2.19-9.31"/>
      <path class="cls-13" d="M1302.26,266.56c3.66-1.21,17.72-6.3,23.81-20.13a32.77,32.77,0,0,0,2.58-9.76"/>
    </g>
    <path class="cls-5" d="M1219.5,353.5s20,88,23,93,11-49,16-54c0,0-23-25-24-29S1219.5,353.5,1219.5,353.5Z"/>
    <g id="left_fin-6" data-name="left_fin">
      <ellipse class="cls-5" cx="1171.59" cy="344.6" rx="49.5" ry="44.43" transform="matrix(0.5, -0.87, 0.87, 0.5, 287.36, 1186.93)"/>
      <path class="cls-6" d="M1179.49,377.76c.16-2.56,2.31-30.73,22.12-39.82a30.44,30.44,0,0,1,10.62-2.65"/>
      <path class="cls-6" d="M1160,370.68c.71-7.84,3.81-30.54,22.12-46a57.44,57.44,0,0,1,12.39-8"/>
      <path class="cls-6" d="M1139.67,359.18c3.08-12.28,10-31.21,26.55-46.9a88.94,88.94,0,0,1,9.73-8"/>
    </g>
    <path class="cls-11" d="M1230.66,364.13a1,1,0,0,1-1,.67,13.14,13.14,0,0,1-8.5-2.5c-3.86-2.75,4.6-5.5,7.67-6.38a1.55,1.55,0,0,1,1.74.73C1231.23,357.88,1231.87,360.29,1230.66,364.13Z"/>
    <g>
      <path id="tailfin2-5" data-name="tailfin2" class="cls-14" d="M1322.19,271.21s28.91-41.34,34.74-56.83,19.26,54.68,19.26,54.68,5.37,43.72-6.06,64.66S1325,294.07,1325,294.07Z"/>
      <path class="cls-15" d="M1335.12,276.42c6.23-4.87,16.19-14.28,21-29.06a55.73,55.73,0,0,0,2.2-9.31"/>
      <path class="cls-15" d="M1339,289c3.66-1.21,17.71-6.3,23.81-20.13a32.85,32.85,0,0,0,2.58-9.76"/>
      <path class="cls-15" d="M1339.41,299.79c6.5-.48,17.77-2.41,27-10.81a37,37,0,0,0,3.84-4"/>
      <path class="cls-15" d="M1339.19,307.71a66.91,66.91,0,0,1,26.33,12.53c1.26,1,2.44,2,3.56,3.05"/>
    </g>
    <path id="body-14" data-name="body" class="cls-23" d="M1343,327.12"/>
    <path class="cls-12" d="M1229,367.89a144.4,144.4,0,0,0,9,43.82q.95,2.49,2,4.87"/>
    <path class="cls-12" d="M1231.46,367a127.79,127.79,0,0,0,11.77,36.56q1,2,2.08,3.93"/>
    <path class="cls-12" d="M1234.1,366.35a111,111,0,0,0,16.12,26.19q1.14,1.35,2.28,2.61"/>
    <g id="left_eye-6" data-name="left_eye">
      <circle class="cls-7" cx="1142.5" cy="247.5" r="38.5"/>
      <circle class="cls-8" cx="1141" cy="248" r="28"/>
      <path class="cls-10" d="M1142.61,210.29a38.27,38.27,0,0,0-26.27,10.35,38.31,38.31,0,0,1,19.84-5.48c21,0,38,16.72,38,37.35a36.92,36.92,0,0,1-11.78,27,37.19,37.19,0,0,0,18.21-31.87C1180.66,227,1163.63,210.29,1142.61,210.29Z"/>
      <circle class="cls-9" cx="1129.26" cy="240.74" r="8.34"/>
    </g>
    <g id="body-15" data-name="body">
      <path id="body-16" data-name="body" class="cls-16" d="M1120.26,286.18h0c4.66,3.3,68.39,48.36,85.73,62.81,18,15,48,31,86,20,36.6-10.6,50-39.74,51-41.88a.7.7,0,0,0,0-.25c-.12-3.16-2.6-64.73-31.77-152.31a2.41,2.41,0,0,0-.53-.87l-19.48-19.47a.66.66,0,0,1-.2-.53c.16-2.88,1.85-25.13,15.5-41a.69.69,0,0,0-.85-1c-4.6,2.37-13.05,7.24-19.4,13.84a.69.69,0,0,1-1.14-.73c3.2-8.48,13.06-31.17,21-42.19a.8.8,0,0,0-1.11-1.11c-9.86,6.93-31.18,22.88-35,33.57,0,0,37-60,33-63s-31.2,22.26-50.17,56.5a.68.68,0,0,1-1.26-.17A93.12,93.12,0,0,1,1254.1,59a.69.69,0,0,0-1.22-.62c-7.28,10.81-25,40-26.76,71.56a.68.68,0,0,1-1.32.21,81.27,81.27,0,0,1,1.63-60.74.69.69,0,0,0-1.18-.69c-9.35,12.86-32,51-19.33,103.92a.61.61,0,0,1-.14.56c-3.82,4.17-56.63,62.09-79.78,97.76l-2,4c-.16.45-11-3.48-14.85,1.79a.27.27,0,0,0,0,.37Z"/>
      <path class="cls-17" d="M1207.63,170.74s-7.29-53.72,8.63-80.58L1214.6,122Z"/>
      <path class="cls-17" d="M1246.43,73.24s-.34.56-.94,1.6c-3.52,6.19-15.78,29.58-16.63,57.1Z"/>
      <path class="cls-17" d="M1255.39,109.06s29.84-46.1,41.12-51.4-35.82,54.71-38.47,53.05Z"/>
      <path class="cls-17" d="M1270,115s16.89-19.21,27.17-25.51S1272,116,1272,116Z"/>
      <path class="cls-17" d="M1278.27,137.57c2.32-3.31,12.93-16.24,19.56-19.23,0,0-18.24,21.56-16.91,24.21S1278.27,137.57,1278.27,137.57Z"/>
      <path class="cls-17" d="M1269.28,336.66c3.65-41.7-.58-105.4-24.15-141l-15.39-.16c7.07-5.6,14.7-8.33,23.78-7.32C1284.84,221.48,1275.6,295.2,1269.28,336.66Z"/>
      <path class="cls-17" d="M1294.82,307.59c3-34.73-.49-87.78-20.12-117.47l-12.82-.13c5.89-4.66,12.25-6.94,19.82-6.09C1307.78,211.66,1300.08,273.06,1294.82,307.59Z"/>
      <path class="cls-17" d="M1312.93,270.9c2.1-24-.34-60.78-13.93-81.34l-8.87-.08a18,18,0,0,1,13.71-4.23C1321.9,204.48,1316.57,247,1312.93,270.9Z"/>
      <path class="cls-18" d="M1140.5,276.5s-7,6-17-1"/>
    </g>
    <g id="pelvic_fin_right-6" data-name="pelvic_fin_right">
      <path class="cls-14" d="M1253.5,364.5s33,63,53,77c0,0-12-65-10-69C1296.5,372.5,1262.5,372.5,1253.5,364.5Z"/>
      <path class="cls-11" d="M1256.75,361.06a1,1,0,0,1,1.15.2,13.15,13.15,0,0,1,4.18,7.81c.75,4.68-7.15.59-9.93-1a1.56,1.56,0,0,1-.7-1.75C1251.9,365,1253.17,362.89,1256.75,361.06Z"/>
      <path class="cls-20" d="M1264.23,376.63a144.47,144.47,0,0,0,25.57,36.72q1.85,1.9,3.71,3.71"/>
      <path class="cls-20" d="M1266.13,374.86a128,128,0,0,0,25.24,28.95q1.74,1.44,3.46,2.79"/>
      <path class="cls-20" d="M1268.3,373.22a111.19,111.19,0,0,0,25.15,17.7c1,.53,2.09,1,3.12,1.51"/>
    </g>
    <g id="right_fin-6" data-name="right_fin">
      <path class="cls-14" d="M1311,324l42.24.46s45.94,1.56,38.35,52.05c0,0-4.59,21.49-20.59,36.49s-72-15-75-71Z"/>
      <path class="cls-11" d="M1291,324.54a2.62,2.62,0,0,1,1.34-2.38A21.3,21.3,0,0,1,1310,321c9.08,3.3-5,16.82-10.2,21.44a2.61,2.61,0,0,1-3.75-.27C1294.08,339.76,1291.28,334.61,1291,324.54Z"/>
      <path class="cls-15" d="M1307,351.49c2.76,7.58,17.91,47.16,49.56,53.05a43.35,43.35,0,0,0,9.77.7"/>
      <path class="cls-15" d="M1316.12,343.82c4.27,6.77,28.4,43.92,57.93,41.18a33.86,33.86,0,0,0,7-1.4"/>
      <path class="cls-15" d="M1324.49,337.53c4.75,5.58,21.49,23.82,46.07,24.43a51.43,51.43,0,0,0,13.26-1.39"/>
    </g>
    <g id="right_eye-8" data-name="right_eye">
      <circle class="cls-9" cx="1204.5" cy="252.5" r="38.5"/>
      <circle class="cls-8" cx="1202" cy="255" r="28"/>
      <circle class="cls-9" cx="1192.38" cy="250.68" r="8.34"/>
      <circle class="cls-9" cx="1205.97" cy="260.66" r="4.96"/>
      <path class="cls-10" d="M1204.42,213.45a38.27,38.27,0,0,0-26.27,10.35,38.31,38.31,0,0,1,19.84-5.48c21,0,38,16.72,38,37.35a36.92,36.92,0,0,1-11.78,27,37.18,37.18,0,0,0,18.21-31.87C1242.47,230.17,1225.43,213.45,1204.42,213.45Z"/>
      <circle class="cls-21" cx="1204.5" cy="251.5" r="38.5"/>
    </g>
    <path class="cls-15" d="M1310.7,173.69"/>
    <path class="cls-16" d="M1310.7,173.69s34.79,69.56,32.25,153.43Z"/>
  </g>
  <g id="fish4">
    <g>
      <path id="tailfin1-6" data-name="tailfin1" class="cls-5" d="M1822.63,247.86s9.42-46.12,16.49-49.2S1865,257.08,1865,275.53s-35.34,43.05-35.34,43.05Z"/>
      <path class="cls-13" d="M1815.58,251c6.59-4.39,17.25-13,23.22-27.37a56.08,56.08,0,0,0,2.9-9.12"/>
      <path class="cls-13" d="M1818.48,263.83c3.74-.92,18.15-4.92,25.29-18.24a32.81,32.81,0,0,0,3.32-9.54"/>
    </g>
    <path class="cls-5" d="M1719.5,353.5s20,88,23,93,11-49,16-54c0,0-23-25-24-29S1719.5,353.5,1719.5,353.5Z"/>
    <g id="left_fin-7" data-name="left_fin">
      <ellipse class="cls-5" cx="1671.59" cy="344.6" rx="49.5" ry="44.43" transform="matrix(0.5, -0.87, 0.87, 0.5, 537.36, 1619.94)"/>
      <path class="cls-6" d="M1679.49,377.76c.16-2.56,2.31-30.73,22.12-39.82a30.44,30.44,0,0,1,10.62-2.65"/>
      <path class="cls-6" d="M1660,370.68c.71-7.84,3.81-30.54,22.12-46a57.44,57.44,0,0,1,12.39-8"/>
      <path class="cls-6" d="M1639.67,359.18c3.08-12.28,10-31.21,26.55-46.9a88.94,88.94,0,0,1,9.73-8"/>
    </g>
    <path class="cls-11" d="M1730.66,364.13a1,1,0,0,1-1,.67,13.14,13.14,0,0,1-8.5-2.5c-3.86-2.75,4.6-5.5,7.67-6.38a1.55,1.55,0,0,1,1.74.73C1731.23,357.88,1731.87,360.29,1730.66,364.13Z"/>
    <g>
      <path id="tailfin2-6" data-name="tailfin2" class="cls-14" d="M1838,270s32-39,39-54,15,56,15,56,2,44-11,64-42-43-42-43Z"/>
      <path class="cls-15" d="M1850.49,276.19c6.59-4.38,17.24-13,23.21-27.36a56.7,56.7,0,0,0,2.9-9.12"/>
      <path class="cls-15" d="M1853.39,289c3.74-.92,18.15-4.92,25.29-18.24a32.76,32.76,0,0,0,3.31-9.54"/>
      <path class="cls-15" d="M1853,299.82c6.52,0,17.91-1.05,27.78-8.71a38,38,0,0,0,4.14-3.73"/>
      <path class="cls-15" d="M1852.14,307.69a66.87,66.87,0,0,1,25.29,14.51q1.77,1.65,3.32,3.32"/>
    </g>
    <path id="body-17" data-name="body" class="cls-23" d="M1843,327.12"/>
    <path class="cls-12" d="M1729,367.89a144.4,144.4,0,0,0,9,43.82q.95,2.49,2,4.87"/>
    <path class="cls-12" d="M1731.46,367a127.79,127.79,0,0,0,11.77,36.56q1,2,2.08,3.93"/>
    <path class="cls-12" d="M1734.1,366.35a111,111,0,0,0,16.12,26.19q1.14,1.35,2.28,2.61"/>
    <g id="left_eye-7" data-name="left_eye">
      <circle class="cls-7" cx="1642.5" cy="247.5" r="38.5"/>
      <circle class="cls-8" cx="1641" cy="248" r="28"/>
      <path class="cls-10" d="M1642.61,210.29a38.27,38.27,0,0,0-26.27,10.35,38.31,38.31,0,0,1,19.84-5.48c21,0,38,16.72,38,37.35a36.92,36.92,0,0,1-11.78,27,37.19,37.19,0,0,0,18.21-31.87C1680.66,227,1663.63,210.29,1642.61,210.29Z"/>
      <circle class="cls-9" cx="1629.26" cy="240.74" r="8.34"/>
    </g>
    <g id="body-18" data-name="body">
      <path id="body-19" data-name="body" class="cls-16" d="M1620.26,286.18h0c4.66,3.3,68.39,48.36,85.73,62.81,18,15,48,31,86,20,36.6-10.6,50-39.74,51-41.88a.7.7,0,0,0,0-.25c-.12-3.16-2.6-64.73-31.77-152.31a2.41,2.41,0,0,0-.53-.87l-19.48-19.47a.66.66,0,0,1-.2-.53c.16-2.88,1.85-25.13,15.5-41a.69.69,0,0,0-.85-1c-4.6,2.37-13.05,7.24-19.4,13.84a.69.69,0,0,1-1.14-.73c3.2-8.48,13.06-31.17,21-42.19a.8.8,0,0,0-1.11-1.11c-9.86,6.93-31.18,22.88-35,33.57,0,0,37-60,33-63s-31.2,22.26-50.17,56.5a.68.68,0,0,1-1.26-.17A93.12,93.12,0,0,1,1754.1,59a.69.69,0,0,0-1.22-.62c-7.28,10.81-25,40-26.76,71.56a.68.68,0,0,1-1.32.21,81.27,81.27,0,0,1,1.63-60.74.69.69,0,0,0-1.18-.69c-9.35,12.86-32,51-19.33,103.92a.61.61,0,0,1-.14.56c-3.82,4.17-56.63,62.09-79.78,97.76l-2,4c-.16.45-11-3.48-14.85,1.79a.27.27,0,0,0,0,.37Z"/>
      <path class="cls-17" d="M1707.63,170.74s-7.29-53.72,8.63-80.58L1714.6,122Z"/>
      <path class="cls-17" d="M1746.43,73.24s-.34.56-.94,1.6c-3.52,6.19-15.78,29.58-16.63,57.1Z"/>
      <path class="cls-17" d="M1755.39,109.06s29.84-46.1,41.12-51.4-35.82,54.71-38.47,53.05Z"/>
      <path class="cls-17" d="M1770,115s16.89-19.21,27.17-25.51S1772,116,1772,116Z"/>
      <path class="cls-17" d="M1778.27,137.57c2.32-3.31,12.93-16.24,19.56-19.23,0,0-18.24,21.56-16.91,24.21S1778.27,137.57,1778.27,137.57Z"/>
      <path class="cls-17" d="M1769.28,336.66c3.65-41.7-.58-105.4-24.15-141l-15.39-.16c7.07-5.6,14.7-8.33,23.78-7.32C1784.84,221.48,1775.6,295.2,1769.28,336.66Z"/>
      <path class="cls-17" d="M1794.82,307.59c3-34.73-.49-87.78-20.12-117.47l-12.82-.13c5.89-4.66,12.25-6.94,19.82-6.09C1807.78,211.66,1800.08,273.06,1794.82,307.59Z"/>
      <path class="cls-17" d="M1812.93,270.9c2.1-24-.34-60.78-13.93-81.34l-8.87-.08a18,18,0,0,1,13.71-4.23C1821.9,204.48,1816.57,247,1812.93,270.9Z"/>
      <path class="cls-18" d="M1640.5,276.5s-7,6-17-1"/>
    </g>
    <g id="pelvic_fin_right-7" data-name="pelvic_fin_right">
      <path class="cls-14" d="M1753.5,364.5s33,63,53,77c0,0-12-65-10-69C1796.5,372.5,1762.5,372.5,1753.5,364.5Z"/>
      <path class="cls-11" d="M1756.75,361.06a1,1,0,0,1,1.15.2,13.15,13.15,0,0,1,4.18,7.81c.75,4.68-7.15.59-9.93-1a1.56,1.56,0,0,1-.7-1.75C1751.9,365,1753.17,362.89,1756.75,361.06Z"/>
      <path class="cls-20" d="M1764.23,376.63a144.47,144.47,0,0,0,25.57,36.72q1.85,1.9,3.71,3.71"/>
      <path class="cls-20" d="M1766.13,374.86a128,128,0,0,0,25.24,28.95q1.74,1.44,3.46,2.79"/>
      <path class="cls-20" d="M1768.3,373.22a111.19,111.19,0,0,0,25.15,17.7c1,.53,2.09,1,3.12,1.51"/>
    </g>
    <g id="right_fin-7" data-name="right_fin">
      <path class="cls-14" d="M1811,324l42.24.46s45.94,1.56,38.35,52.05c0,0-4.59,21.49-20.59,36.49s-72-15-75-71Z"/>
      <path class="cls-11" d="M1791,324.54a2.62,2.62,0,0,1,1.34-2.38A21.3,21.3,0,0,1,1810,321c9.08,3.3-5,16.82-10.2,21.44a2.61,2.61,0,0,1-3.75-.27C1794.08,339.76,1791.28,334.61,1791,324.54Z"/>
      <path class="cls-15" d="M1807,351.49c2.76,7.58,17.91,47.16,49.56,53.05a43.35,43.35,0,0,0,9.77.7"/>
      <path class="cls-15" d="M1816.12,343.82c4.27,6.77,28.4,43.92,57.93,41.18a33.86,33.86,0,0,0,7-1.4"/>
      <path class="cls-15" d="M1824.49,337.53c4.75,5.58,21.49,23.82,46.07,24.43a51.43,51.43,0,0,0,13.26-1.39"/>
    </g>
    <g id="right_eye-9" data-name="right_eye">
      <circle class="cls-9" cx="1704.5" cy="252.5" r="38.5"/>
      <circle class="cls-8" cx="1702" cy="255" r="28"/>
      <circle class="cls-9" cx="1692.38" cy="250.68" r="8.34"/>
      <circle class="cls-9" cx="1705.97" cy="260.66" r="4.96"/>
      <path class="cls-10" d="M1704.42,213.45a38.27,38.27,0,0,0-26.27,10.35,38.31,38.31,0,0,1,19.84-5.48c21,0,38,16.72,38,37.35a36.92,36.92,0,0,1-11.78,27,37.18,37.18,0,0,0,18.21-31.87C1742.47,230.17,1725.43,213.45,1704.42,213.45Z"/>
      <circle class="cls-21" cx="1704.5" cy="251.5" r="38.5"/>
    </g>
    <path class="cls-15" d="M1810.7,173.69"/>
    <path class="cls-16" d="M1810.7,173.69s34.79,69.56,32.25,153.43Z"/>
  </g>
</svg>
